<mxfile host="Electron" agent="Mozilla/5.0 (Macintosh; Intel Mac OS X 10_15_7) AppleWebKit/537.36 (KHTML, like Gecko) draw.io/28.0.6 Chrome/138.0.7204.100 Electron/37.2.3 Safari/537.36" version="28.0.6">
  <diagram name="Page-1" id="yJrsYzyJkXpJw1BoG-K4">
    <mxGraphModel dx="2134" dy="1163" grid="0" gridSize="10" guides="1" tooltips="1" connect="1" arrows="1" fold="1" page="0" pageScale="1" pageWidth="850" pageHeight="1100" math="0" shadow="0" adaptiveColors="simple">
      <root>
        <mxCell id="0" />
        <mxCell id="1" parent="0" />
        <mxCell id="V8Acjl_ElyFGZNs6vDOT-2" value="" style="rounded=0;whiteSpace=wrap;html=1;" vertex="1" parent="1">
          <mxGeometry x="262" y="191" width="892" height="488" as="geometry" />
        </mxCell>
        <mxCell id="V8Acjl_ElyFGZNs6vDOT-17" value="" style="rounded=0;whiteSpace=wrap;html=1;" vertex="1" parent="1">
          <mxGeometry x="371" y="248" width="742" height="319" as="geometry" />
        </mxCell>
        <mxCell id="V8Acjl_ElyFGZNs6vDOT-4" style="edgeStyle=orthogonalEdgeStyle;rounded=0;orthogonalLoop=1;jettySize=auto;html=1;" edge="1" parent="1" source="V8Acjl_ElyFGZNs6vDOT-1" target="V8Acjl_ElyFGZNs6vDOT-3">
          <mxGeometry relative="1" as="geometry" />
        </mxCell>
        <mxCell id="V8Acjl_ElyFGZNs6vDOT-1" value="User" style="sketch=0;outlineConnect=0;fontColor=#232F3E;gradientColor=none;strokeColor=#232F3E;fillColor=#ffffff;dashed=0;verticalLabelPosition=bottom;verticalAlign=top;align=center;html=1;fontSize=12;fontStyle=0;aspect=fixed;shape=mxgraph.aws4.resourceIcon;resIcon=mxgraph.aws4.user;" vertex="1" parent="1">
          <mxGeometry x="-162" y="303" width="60" height="60" as="geometry" />
        </mxCell>
        <mxCell id="V8Acjl_ElyFGZNs6vDOT-8" style="edgeStyle=orthogonalEdgeStyle;rounded=0;orthogonalLoop=1;jettySize=auto;html=1;" edge="1" parent="1" source="V8Acjl_ElyFGZNs6vDOT-3" target="V8Acjl_ElyFGZNs6vDOT-5">
          <mxGeometry relative="1" as="geometry">
            <Array as="points">
              <mxPoint x="172" y="333" />
              <mxPoint x="172" y="437" />
            </Array>
          </mxGeometry>
        </mxCell>
        <mxCell id="V8Acjl_ElyFGZNs6vDOT-3" value="" style="shape=image;verticalLabelPosition=bottom;labelBackgroundColor=default;verticalAlign=top;aspect=fixed;imageAspect=0;image=data:image/png,iVBORw0KGgoAAAANSUhEUgAAAfQAAAH0CAYAAADL1t+KAAAAAXNSR0IArs4c6QAAAERlWElmTU0AKgAAAAgAAYdpAAQAAAABAAAAGgAAAAAAA6ABAAMAAAABAAEAAKACAAQAAAABAAAB9KADAAQAAAABAAAB9AAAAAB3bs6AAABAAElEQVR4Ae3dC5wkZX3o/ae6e2b2MrvILoiLwsxyMYK6ShZR44VBPRJMBMGA0UQMb4yYxEtylDd6TgI9a15MosnH10Rz9OR4Sd6TKPviop4IRoXBxAvR4SARUIFlF4Fd2GV32ZnZnZ3pruf8/0/V01PT093TM9OX6u5ffXa2b1XVz/Ot6vrXc6mnjGFCAAEEEEAAAQQQQAABBBBAAAEEEEAAAQQQQAABBBBAAAEEEEAAAQQQQAABBBBAAAEEEEAAAQQQQAABBBBAAAEEEEAAAQQQQAABBBBAAAEEEEAAAQQQQAABBBBAAAEEEEAAAQQQQAABBBBAAAEEEEAAAQQQQAABBBBAAAEEEEAAAQQQQAABBBBAAAEEEEAAAQQQQAABBBBAAAEEEEAAAQQQQAABBBBAAAEEEEAAAQQQQAABBBBAAAEEEEAAAQQQQAABBBBAAAEEEEAAAQQQQAABBBBAAAEEEEAAAQQQQAABBBBAAAEEEEAAAQQQQAABBBBAAAEEEEAAAQQQQAABBBBAAAEEEEAAAQQQQAABBBBAAAEEEEAAAQQQQAABBBBAAAEEEEAAAQQQQAABBBBAAAEEEEAAAQQQQAABBBBAAAEEEEAAAQQQQAABBBBAAAEEEEAAAQQQQAABBBBAAAEEEEAAAQQQQAABBBBAAAEEEEAAAQQQQAABBBBAAAEEEEAAAQQQQAABBBBAAAEEEEAAAQQQQAABBBBAAAEEEEAAAQQQQAABBBBAAAEEEEAAAQQQQAABBBBAAAEEEEAAAQQQQAABBBBAAAEEEEAAAQQQQAABBBBAAAEEEEAAAQQQQAABBBBAAAEEEEAAAQQQQAABBBBAAAEEEEAAAQQQQAABBBBAAAEEEEAAAQQQQAABBBBAAAEEEEAAAQQQQAABBBBAAAEEEEAAAQQQQAABBBBAAAEEEEAAAQQQQAABBBBAAAEEEEAAAQQQQAABBBBAAAEEEEAAAQQQQAABBBBAAAEEEEAAAQQQQAABBBBAAAEEEEAAAQQQQAABBBBAAAEEEEAAAQQQQAABBBBAAAEEEEAAAQQQQAABBBBAAAEEEEAAAQQQQAABBBBAAAEEEEAAAQQQQAABBBBAAAEEEEAAAQQQQAABBBBAAAEEEEAAAQQQQAABBBBAAAEEEEAAAQQQQAABBBBAAAEEEEAAAQQQQAABBBBAAAEEEEAAAQQQQAABBBBAAAEEEEAAAQQQQAABBBBAAAEEEEAAAQQQQAABBBBAAAEEEEAAAQQQQAABBBBAAAEEEEAAAQQQQAABBBBAAAEEEEAAAQQQQAABBBBAAAEEEEAAAQQQQAABBBBAAAEEEEAAAQQQQAABBBBAAAEEEEAAAQQQQAABBBBAAAEEEEAAAQQQQAABBBBAAAEEEEAAAQQQQAABBBBAAAEEEEAAAQQQQAABBBBAAAEEEEAAAQQQQAABBBBAAAEEEEAAAQQQQAABBBBAAAEEEEAAAQQQQAABBBBAAAEEEEAAAQQQQAABBBBAAAEEEEAAAQQQQAABBBBAAAEEEEAAAQQQQAABBBBAAAEEEEAAAQQQQAABBBBAAAEEEEAAAQQQQAABBBBAAAEEEEAAAQQQQAABBBBAAAEEEEAAAQQQQAABBBBAAAEEEEAAAQQQQAABBBBAAAEEEEAAAQTqFQjqnZH5EECg+wWsNfOPCaNlr8+OX99r7DyN6+a/DoL5r+fNywsEEGiKwPwfb1O+gpUigEBaBFzA3m4y5t6Rud/+ponA7Bm35jpTbFQgdt8zarJm01ZZ97q54H/2mDWXm7BR35MWV9KBQBoE5n7UaUgNaUAAgYYIzAvcUcAuBnkTLmXlUVA+Y93E4HH9mdyxbGbyaH+mYAZ0HWHOHAsHV8+sPTR91KxdUzRDd08HV5jiktZ/gwT8g1szLuAT6JdCx7wIVBQgoFdk4U0EOkcgLg0HUhrOanAM8mOFWqk/8qennxIW7C8EgR0KbTgcmOBUmX9I/k6WovSgHBTWy+PaWuuo9pksOyXLHpbPD2aMPWCD4FFr7f1BEDxgA7OrL8w+OnDdgw9WK6FHeRmRkr3UGhw/HlKarybN+wgsFCCgLzThHQRSLeCCnlaba+lWgl6lkrGV0u/kT4eeHYTBeRJgX5qx9rmhCc6WjG1YYeZkdWXt6stb4QE5+PyHBPmfZILgThua7681D/24Ui2CzZucq7onwC9PmqV6RoCA3jObmox2skCp5CqZqFQCn86ffkYxCM+3xv4nmfeVMtum2vm1UooPJDhLSC1NUm6eC9aJ9+dmKD2LnmhwL5/8e7pu/1zm8d8V5MoXSL6WL90tpwvft4H9dl+Y+5dV+QcfSH6uz12ANyPybCysdAKg8zAh0IsClX60vehAnhFInYAErkxUjT6+oP1bA3ghKFwiYfINUvJ+qSQ+WyED0mYuZV8XTGVdUbBOBu0Ki7TkLQ30GvDjtOlJRaDp07+yyRakSeA7koWvGpv5xmD+obuTM9QySs7HcwR6QYCA3gtbmTx2jIAriX96a056nc8L4q4K/d7TLpHuaFfKj/ZCiYaryjKlQVJK3aXgmIbAXZbERV+WBXqpao9OQpILzsiLmyX2//3ghl/45+A9Nx/zHxLcvQSPvSpAQO/VLU++UyVg8yM5Iz29k+3hNn/G+snM7G/KRV5vlcS+pCzBcQB3pVpf+i6bpSteaj6lJO/+FgR4OYDdZTP2vw+Gff9fkH9AO+O5SU+A3KV514017FI8v24eEUirAAE9rVuGdHW9gC9RBlePz/rM6ntTwfBbpUL6DySSvdC/Hz1qu7dO1aqno0+7/P+4GcE5zGuPLwX3UzZ/JrhqbNo72E9t7Suv8fCf8YhANwkQ0Ltpa5KXjhBwpUdJabI0Ppk/7TXGFP9IBmqTx3mTBnvfvszvdR6NG43Ol977kh/JQHXflG4Ffz6Y3ymP0VTJ3X/GIwLdIMABohu2InnoCAFXrZ6oAnZV6mb2Gun09YdSGk9e9+2DeKWObh2R1zYlUge20QBfCu5ygJs2QfCJtTa7bV6VvJTakzUjbUovX4tAQwUI6A3lZGUILBTQKt9k8JjMb94indf+QoL4hYm5JRjpZV6BBnF+lwmYZTwVRyue7jK80kmRoH49yGT/69prHxz36yzfNv59HhHoRAEOHJ241UhzRwiUB4up0eFLQmuul8TrAC9+0tK4Bp0Kl2z5WXhcgYCW2LXkniy177aZ4P9ed+1DN/j1lm8r/z6PCHSSAAG9k7YWae0IgfLgMLlt6C02DD4piT8uzkDcsav2ICsdkdmOSqQbTMf3R9CUPyVl+PcOXrfr8z4b5dvOv88jAp0gQEDvhK1EGjtCQNvIk6O4TY4Ov026bX1irn3cBRT9zZWqgTsiY92XSN+84XvJz5iM/cN11+7Wky43lW9L/z6PCKRZgICe5q1D2jpCILrmWUZ0yUd3M9OqdWkN/59lgTxZMuyIfPVAIudVx8vBcFqq4t/mq+L1EkJpHAmSVyP0gAlZ7GABAnoHbzyS3l4BP6qb7/B2JL/5vNDYGySQD8Upo328vZuo3m+fF9hloT0Syt+87tpdt+sKtBrevGO8UO0OcfV+CfMh0GwBAnqzhVl/Vwok21r18rMjZvafZUz1l0eZXdBW25UGXZip8r4N37eDG1+//v3j+zWvyW3ehXknS10gQEDvgo1IFlonUF4NO5kf/rCUyD8Qp0BLevKSNvLWbZGmfJP2itfJ9XXIBPav1163+z36htv+8uibV/Q9JgTSIkBAT8uWIB2pF0iW0HRkN2vCr0ui/eVmWr1eujQq9ZkhgXUIuJoW33FO5s+8cV1+55d0weS+UMeKmAWBlggQ0FvCzJd0soArlV0nnd5kPFHNh5TKb5EnflAYAnknb9z60l7axhlj/21tfvcrdDHXh2JUOs3FnSHrWxVzIdA8AQJ682xZcxcIJEti8fXk/zPOllbL6u/Hl9C7ILdkoYbAvOYUObn7LX/9enIfqbE8HyHQdAECetOJ+YJOFIhLX1kpfbk7nEmpfExK5efHeSmV2Doxb6R5RQKlbS8Hz7sG87vO0bW5SxcvlxvdxrU4K/oGFkZgmQIE9GXCsVj3CiQHFZnYNny+XF0+FuXWtalqRyl+N927+evJmZzbubHiXfu6dJp7nXSau1kXTO479ayIeRBopAAHpkZqsq6OF0hWn0qp/PNy5L4yzlSpZNbxmSQDjRIo7RNSMv+iVMH/uq44uQ816otYDwL1CBDQ61Finp4QsHkjQ7eagv3syKrJ3bt2S6afLn/adqoTbeWRA//PFyjtH3IwnQoHNw7rdeu6L5nrTJEq+PlYvGquAAG9ub6svQME5OCb8T2Vp0aHLgpt8LU42aUSWAdkgyS2V2BGvr4/SkLi8rYbTJahY9u7YXrp2yl19NLWJq8LBKI2Tz8G+9DH54K5tpdzXfkCMN6oJiDB3O0z8nl448To8H/TGTWY6z5WbSHeR6CRApTQG6nJujpKINnWOZEf/p4k/iXyV6pC7ajMkNi0CEi3CzdeQUYOrvdLL/hna8KS+1paEko6uk+AgN5925Qc1SHgD7D2I1vWTk0d3i9H4VWyGFXsddgxS10Cfl8KB03u+CD/wGG/z9W1NDMhsAwBAvoy0FikswWkzdx1fpv40NBZ0m3p3jg3/gDc2Zkj9WkSKO1TWRO8eE3+oX/X69VpU0/TJuqutNCG3l3bk9wsIiDBXDvAFbTzG8F8ESw+XqlAn29XLxp7x+To8NuiNnWTcQMXrXTtLI9AmQAl9DIQXnangB5A/SVEcmB9r7z+WJxTHcLV3VWrO3NOrlIgUNrHZB/8L3K9+oc1TfHJpe+zkYJkkoROF6CE3ulbkPQvKuAOnHM3VvlwIpjrwZRgvqggM6xQQPcx7SynN3S5XmqHPq7P9VJJ3Tf1ORMCjRCghN4IRdaRWoFkKUgPpHJZ2rslsRrIdd9n/0/tluvahOm+l5k3slxiHISuzTUZa4kAB7SWMPMl7RBIBvPEMK6l6s92pInvRCBqVw/02vQvr8vveoOKJPdVhBBYrgABfblyLJdqgbI28y/I6zclDqSpTjuJ6wUBd6MfgnovbOoW5pH2mxZi81WtEZgXzPUGKwTz1sDzLUsQ0BK6G1nuEhnU6CZdkDb1JfAxa0UBSugVWXizGwTc8JvWXC15oZq9GzZod+ZhVrLVN69NPXFFRndmmVw1S4ASerNkWW9bBLQtUr9Y2sw/LP2KCeZt2Qp86RIE3LXqWovke7+bUTprLsGPWRMClNATGDztbAEJ5tEIcNuGfs+EwSckN65HcWfnitT3iIDv/e6uU2dEuR7Z6g3OJiX0BoOyuvYIuHGy/QhwUTDXhHDC2p7NwbcuXcAdi6Wkfr0MfBSNKPeprVJ6Z0KgfgEOePVbMWdKBfxNLybzm7dYY38UJ5PSeUq3F8mqKqCDz7hjcmnsdwnqwdXj2s7OhMCiApTQFyVihjQLuPuZywHPfnZkVSKYayc49u00bzjSVklAg7nuu/KfvcPmz1ivwZz7qVei4r1KAhz0KqnwXkcIaAe4ID9W0MRO7d61P0q0uxSI4Vw7YguSyAoCsu+6fdhMmsJT+rnu49qmXmFe3kJgngBV7vM4eNGJAnId7/ck3S+RP62apN2xEzciaS4XcPuyHKDvH8zverZ+mBxfoXxmXiOgApTQ2Q86UkBK5zrKlokv9SGYd+RWJNE1BPTEdFYa1c904ynojNs5Xtfw4iMRIKCzG3ScQLJHe+JmK5TMO25LkuBFBHSfDnU8hYn8aZe5e6nT830Rst7+mIDe29u/43Jf6gT3kS1rJZh/reMyQIIRWJpA3Cwa3nj4o1tPoJPc0vB6bW7a0Htti3dwfpNtiNJu/qRkZQM3XOngDUrS6xSIbuQiB+tpaU9frQslfwt1roTZekCAEnoPbOSuyeJo1NNXb4UqeZJgbmakD7BrS++aPJIRBBYIuH18RtrTV8mgM19wH9OevkCJN2hDZx/oEAHfbj6xbfh8ObBdKcnWgWP6OyT5JBOBlQrovh5KyVzHfL+I9vSVcnbn8pTQu3O7dlWu3PXmfrSs0Ix1VebIDAJLFNC+I67K3Q06Q8fmJfJ19ey0oXf15u2OzPn2Qq43747tSS5WJOCvT79L2tPP8b+NFa2RhbtGgBJ612zK7syIq2oPjJ3cNvQWyaFcb+5G0eISte7c3ORqcQHZ921Bmp1eODl62lVyH3Wrv5HFF2OOXhCghN4LW7lD8+iq2vOurdxI6VyOYW7SR/bbGIOHnhQo/QYGza5sIL+R5G+lJ0XItBOghM6OkHqBydHN34wTqdWNBPPUbzES2GQB/Q3ob8EcMUO3N/m7WH0HCRDQO2hj9VJS417tofbotda+WvKud6GiarGXdgLyWkvAVb2HJni5G0VOS+lUvdfy6onPKO30xGburEwmO/pIVbu/FSr3N++szUhqmy9Q+k2sy+9yx/Lkb6f5X883pE2AEnratgjpMebTW91gMVLV/lHh0H1UqxfZV9k3EJgv4H8b/iZFpd/O/Nl41SsClNB7ZUt3SD71vs86aIYbt3ryyX0dkmySiUDbBYKnDT5j8A9+/Lj/DbU9QSSg5QKUelpOzhfWFLhX7i0lU3Zy/45oPneZWs1F+BCB3haIfyOHJm9xDvFvqLdNejP3BPTe3O6pzLW7k5p07jmS33yedvaRREobIWO1p3JjkagUCbjfSFHOhF+oQyNHl7GNcI+DFG2hViWFKvdWSfM9dQvIzVd2ycFpSBbQDnHZuhdkRgR6V8D/VvZIB7mTe5eht3NOCb23t39qcu8vuZnYtvmKKJi7akSCeWq2EAlJuYD8VtxvZlM8qqLxv6mUp5vkNVCAEnoDMVnVygWkdH5UAvoqWVPpkpyVr5U1INATAv43MyOl9AHNMZex9cR2L2WSEnqJgiftEvAlCR2bOg7mXKbWro3B93aygB7P9bfTP7Ft6PdcRuJLQDs5U6S9fgFK6PVbMWeTBaR0PikBfa18jS9pNPkbWT0CXSfgfzuU0rtu0y6eIUroixsxRxMFykrnEsxdOyD7ZRPNWXVXC5RK6VOjm3/b5ZRSeldv8GTmKKEnNbrkubabmVH5O1v+7h2JtvGmicrbes86KRTLdPaYNXr96nXG6i0ZW01B6bzV4nxfFwu4Urr84KfknumDXZxPslYmUPkgXzYTL9MrYPM6JOpIxmjAPn481FHWGpFaHW3KHNya0XVqoNdrWxux3uQ6ouvOxwpTo8OXhNbcFJXOue48acRzBJYnoDVd8lvKBG9ad+1DN2hNWHD1uLavM3WxAAG9wzauK31vlyCuwfYd44VKpWkNlEdzP99UCM2pgQmfKU3SJ2RscKIsu8oEgbtjmbXh0SAIjsjfk2EY7M9kgt12/epHdOjISiTue7XqTgP85Sas9L2Vlqv1nq5T1yOl859JlcCZMq+/lrbWYnyGAAKLC7jfkhzgd0spfXjx2ZmjGwQI6B2yFX2Jufws2378ooHJQ/e9RG6e+JogyLxUbjV6jmRpwwqztUd2jLsl2H4vDMzY4Ekbv7vge/VWjSuoEfDjTU9tO31rGBZ/KOn1nXlWmHQWRwCBWMD9pjKZ7Llrr31w3P/m0OleAQJ6iretLxWXB9PJ/OYt0jp+pVxkenFcsq2SC9fBrOyzIG4ftxW2ffXqbpn5filPf0VOGv5JDw7JlbqObVVqC5LzJZ/7g4vcUe2b0f3O4yrC5Ew8RwCBFQhEvyn57X5dSum/7H9zK1ghi6ZcoMJBPeUp7oHkVQrkEx8aOksqut8r4fhtEpF14JXkpNVrcjauQTrQXq66XZe7bTXgy5+V9bngr+srH7FtRlb+Bfn8LwfzD90tn7vJBfY948XF2tu13V/nsfkz1k+awlN+eR4RQKA5AoMmd1yQf+Cw/+0151tYa7sFGMC/3Vsg8f2lQB5o55WoA8vUts3vsKH9L7boxjb33c+1Kk2DuAZbH3Al6C43hicSEa1EVuRODPwHGuT1O/VPg3u/vHGlBP0rJ/LDT0jV/PWD1+36f31Nghw0dL8Kqwb2TVtlHePhpJm9Jk6z5Nf0yR8TAgg0VsD9tqaC4rWy2veb+LfX2K9gbWkRaEgESEtmOjkd5b1QpaPYhyVofiCRJw2q0nPVBVQN4u2cNLD7DmxzaQnMpwbXrH9fcM3dU5q4SlXxetLiO9RJHhnmtZ1bke/uBQH9rWbkQD8t1e6rNcPJ32AvAPRSHucOxr2U6xTlVdu1NDm+dDs5OvxBKfXKb64UzPUMW4OnnnxpKTYN20zT4NOiBwxNoxwpzNWTU4cnJVB/3l2SJpfJaPB2gd3NIP+Njrj8To0OXSR5lKYD186fhjz5FPKIQDcJ6G9Lb626ajJ/2mtcxuLfYDdlkrxEAhxI27gnuFJ5fN24jmPuArk118dJ0iCppXINnC4Ixu+n7cEHd02rC+zy5MpJs2t2Ij/0IU2snqzoiYvNy8mIDmAjkzWZ9+kjEwIINFtAywc6Ff/IPcS/Qfec/7pKgCr3NmzOZG/TyY897yRzaPJf5Rd3ZpwUDYraBt3J20bzoCciOsmVb5kLB/M7vxm9lGAugX3SDGutg056sOnkvLpM8B8CKRYo/cYGN5y1KnjPzcf0NxjkXZ+YFCebpC1VgBL6UsVWOH+yVC4jpF1nD03ujYO5BkGtvtZA2OkBTvOgBxHNU8aa8BtSDX+LPHfTkczmt8dP9fNOz2ucFR4QSK2A/sb0t2aOHPrJ21wqXec494z/ukhAS4JMLRKw0vvbVT9/ZMtaaWveKcOdPj36ane9qC/Rtig1Tf8aPYhonvQkRev8LtQmhT6TPbMYFt4ax3FOKJu+GfgCBJyA+63JFTO/K68+beTyUly6T4DSUQu2qQTyUvWWdkzREmv8tTPy2N+CJKThK7SE0G0nLWlwJQ0ILElgcO36Qb0SJXlcWtIKmDm1ApSQmrxpXHt53FYlo6J9dC6Yu97dvRLMVdmX1rXEzoQAAq0X0JNqM3n0KardW2/fkm8koDeR2V265Xux54fHZIhT7dmtbcsS1KoPs9rEJLV71bq/sc+1eyvw/b0q4H57QRj8jgOg2r3r9gOq3Ju0Sf2tQXX10nZ8jzycLX9UOysIEwIItENACxPumD+4aWO/68+TaA5sR4L4zsYKUFpqrKdbW1kw19uREsyb4MwqEUBgSQISzF1Tnzmy98nXRUuOEAOWRJjumdmYDd4+yWAul2pNyuq1J7t2fqNDWIOtWR0CCCxPQIrqb46WHFveClgqlQJUuTdws8wbMCY/vEt+NEOy+l7qyd5ATVaFAAJNENBOqYzt3gTYNKySEnqDtoK74cFcB7j/HQdzbTPvpZ7sDdJkNQgg0CQBPebruBCr3C2Z9Uu201G1SdYtXy0BvVHko1FnE7m5yhfkx/JCWS0d4Bply3oQQKCRAnrXRiO93V/rVnpwK3GgkbptXBcbsgH4bjhXudbc3bvcmjfFHU9oM2+ALatAAIFGC9i4qTV4vVvznnEpgzB1gwBt6Cvcir4T3HT+9DNmTfH+eHX6A8F2hbYsjgACTRFw7eiy5pl1+V0D+g2uyVBuddyUb2OlLROghL4Cauuu4Rxz1VeJYO7vXb6CNbMoAggg0DQBPe5r8O7Xgoj7lrjJsGnfyIpbIkBAXwnz2XG7+dydxLRHe5rvXb6S3LIsAgh0j4AURAJT2HDKG12WuPtaV2xZAvoyN6O/DWp0sxVzoaxGS+b0aF+mJ4shgEALBbJ9fXbycdP33F/5Y/1WN2qcpZmwhVugKV9FQF8Gq2tvunpce7FLvVXpzmm0mS/DkkUQQKBNAtNHC9mTtwzKPSb+NkqBzdp8npjQps3RiK/lfujLURwdkWr1sYKMBPf5uBcJl6gtx5FlEECgPQJFOWStWp3LnnKOfv87bXH2/iAI/kpfSICfiwujo6G5Lj/XWW40X7ngkpxHVyJTQCe7CKKF/1feOC1MQKd9lR8N7sifnn5KsVB8uNPST3oRQKDHBTJZYyeeMLkzR8zq3/mK6+Ku0Vem/yV/l0pgdx19V6qkNZlmTAs/ZdO+E62597lWTxQI+mU2K3w5dya2whX12uJhofgPUZ71Zgc9eSvUXtvk5BeB7hAIMsYenTB9v/SOKD9Wuv8EOe0D9KvyNysldA3sX5K/O4058JAxGyc08LoAfW++z3zrjqgguO5o9DgzUTR7Xl8M8nm9HK40RcE6ugqo9GbpyXZj8u5cIjCf3pozz15nTRzoy9dTWoQniwpQQl+UaG4Gf835ZH7zFmvsj+QTrYrCcI6IZwggkGYBLYnPHpXR3HNmcPTncUpLhzEN6okSdel9U/zBqLH75ZBXOGpsUS7msfNid3mOixL/n5IC+oQcHfcFNngsCOw+OWY+GJjgvmI2uL//p0/uCq65e6p8Qf9aOx27IH/7SEiA9yqLPxKMFjcqzeEHX5i7vzml8xIOTxBAIP0C2T4TPrnTDLzyPWbgUmkyD6WCUYJ72aSB3U/Z4rffZYo7bzLB+s3Re3VXSGrUl+qAuWnuDCF6T1//RKr7fyjzfU+ej/f9fOBHwXtuPja3SDyjD/AjY0Wq6ct15l4T0Ocsaj7zbeeJ0rkfbanmcnyIAAIIpEYgyJrwwE4z+MF7Teak50hAl9gtbeoLJlcNL+8fO2xm//8XG7P25GgWG5YHZX1f3yubpPhjgrL3fbHenRH42FNpfbvldnDflEB/6/Sufd8a/IMfP55cub3h8qw5uDNTqZo/OV8vPl9wataLCEvLc/iXUS37grPPpa2GuRFAAIFWCmhnuCMHTG74JVEw1++uFMwTaQr3/qvUrs9KbJWCtpbmo4NfYg731AfnxPtat18+ydnE3OSDfXndvc4zJKcNvy2t9r/df+oJZvZL5x+Qjno7rMnc0Hfprf8SXLFdaxDkb9y4y+w2fTVr3jFeoOReeePMkfPMCURDvJrQ5s9YP2kKT8GCAAIIdJyAVrc/cb9Z/Za/M30v+e1q1e1RtuISevHf/tCEP/+WMWtO8gG92dmWQK+lew3Yrro+eRIQfXdgpIo+85m+Q+Fng6vGpn2C7G0jOe1YFwd8/3ZPPVJCr2dzu2ERx8NJM3tNfA7Edef1uDEPAgikREAKzNIZLlh7vOk778ooTfMKzMlkSjyNPwufkNjZt1ZirBaKWzJJQl3pPtH27qrq5wK8NefK2cW5s8eZT87sGPmhxP1P9s1s/Pvggu2ly+1cp7oeLLUn0FqysTryS3RYxCjhwe/FGVh41tiROSPRCCDQEwLZnLFT+2WoV7ljakbu7Kxt55VqxRUjbuq2T94tVfRPGJNbExea2yWlJfVAb0etx9249G6jY7IG9zD8zGxuX2H2Sxd8eWbHq87TVOoxW6vgNbD30uh3lNB169eYyjrDbZBZ6QxXw4uPEEAghQISpO3MtOl7WXztea0kuv5sEjkf+3Y0l8bTOMjXWqxFn2nbvAR2V4WgwV2Ox5q4oE8ui7tYQvjF2uYul8t9NPeG2/8sCLQwJm3t2pFOpm6vjieg61auNR3cKnvzuFwqEb7dWtfPQ+ue5D0mBBBAoAMENCBPHzbZk37BZDe/LEpwrc5w8WVs4SO3mqB/XZqCeTl2peAuXeuDDVKOv352x8j1hR3mfxx5cOIDEsj368LdHthdhCpX4vVCAbn2XC+deLr8UUJfyMM7CCCQVoG4M9yqi683/a/5oBzBKl57HqXeX642fcBIQJTx3jemNVc10uWqE7RNQavp3STV718Ps8H7Bi6+7R59o1sDOyXNaHtX/N/mo5K4jtsuM2gw1wmzyIH/EUCgEwSKBSlprzL9L317lNpqbeeJvIR7/s3YwhE52nViJW6pzV2q5KO2dmlFuDAo2B/PfGlkzN74qiGtetc/7Rkvn3VNwZbglNiJFzx1vdu1xim8KP4s6oixYEbeQAABBFIooNeeS2e43BkjMjjMiXIwm+vBXiu19tHbZHh36QzX2ZME6lIpXZtKtc39/Nkg3CW1D7dMfux5JwUXjLnr112v+M7Oq0s9Ab3WRtwzrjuAdKK0r4tmixrRay3CZwgggEBqBKSw6m7E8rJ3RkmqefnZXLB3l6sNHCcHP42DXTFppzgtibsMaYldBq3ZW9gx8neaO38lk7uWXd/o0ImAXmPDBXnjr2t8RTSbVuUwIYAAAh0goFXrM1Mmc/zJJvf8S6IE1+oMF/dkL12ulumXZVyZpgMyW3cSXW93yZerbdUR6aQa3srlbr+ra9ASeydXwxOgquwHvv1cR4eTWfRyNZ26pq0lyg7/I4BA1wpI+3c48bjpO+dNURbd0K01DmFaHS9T+PNvRvN3dfnFV8X769nDT0pg33vsKxc8t5Or4Qno0a678P+zo+B91BTlDgZu0qqaGr+GeC4eEEAAgTQIaIlb/kr3PV/s8BV3gLPSIS7ll6s1UNcFdjmTcYH9JO04l6yG77TSOgG92q5x74gL3sVMKMMM6hSfvkYv+B8BBBBIr4B2htMbsZz6ovpuxOLb1uVyNXvoARnuNdXXnzfaXY71LrC79vW4Gj6UkefOL5XWdZz4DpgI6NU20qaJqDRugy3VZuF9BBBAIJUC2hlu6qDpe/FVUfKiO6VVT6qvbn/s9g6+XK169ur8JNm+LgPU2LFSaV3b1vWe7CmfCOjVNlDcwz2w9vRqs/A+AgggkD4BKYsUjplg9XES0H8rSl7VG7HEqY+vTbePfKsbLldb4SbR0nrUXhGX1g+5a9dlfHg57wnSPDY8Ab3apr8uvrzBBCfHv4ioxF5tft5HAAEE0iCgN2KZfMLknitX2+ZWRZee1RxMJnG52v4fGdNdl6stc4toj0D9c23rx+m169oTXhhtkM+Hab28jYBeYXPrWZhuuPijE+JHAnoFK95CAIH0CeiNWPpf8ftxwvyhrEo6/eVq++6Uavo9cusTOQkoHf6qLNMzb8+1rUuh/ZN6RzfNuru8LYVV8AT0xXfM4xefhTkQQACBFAhoofLoofpvxKJJ9u3nj45JpIqbkVOQlRQlQVH0rKiod3STy9sO2Y9sWauD0aStXZ2Avvhe4ztCUEJf3Io5EECgnQLSuz3U+56f+5YoFYtde65z9eTlakveSHr8l8AeV8GfvmHS9YLXoC63ZtVa3SWvsQkLENCbgMoqEUAAgbYISAAPMn2mr94bsfjL1ab2GXvwZ3K5moyjFVfBtyX9qf/SuSp47QU/c9PI292NXqSJNg2d5Qjoqd+BSCACCCBQh4Beez6532RPf4UJ1ktfXq1KX6wK3Ve3Py53VytOS2mdKvc6pBXJXbMuN9P+77M7zv9LXcZ1lpPSeh3LN20WAnrTaFkxAggg0EIBvfb86ITpf+W7oy/1pe9aSSi/XI3SeS2t5GcauOWMyYbWBv9Z796mH7pbsrYxqBPQk5uI5wgggEAnCmhnuGMTJrPx1PpuxOLyOFeCD58Yjy5Xi0vsnUjQhjRLu3l0aZuwXTizY+QHmgZ/n/U2pMcQ0BdXj6pWFp+PORBAAIH2CGhnuKf2mv6Xx7dJraczXPJyNRny1XTn3dVasD3cQDSzUl4/V3rA36tf6O/a1oIvn/cVBPR5HBVfTMbv6mULTAgggEDKBKSgOHvUjQzX/6prorQt1naeyIHd+914GcJBgmWJT+OgbsxZEtR36cLtCOpswQqbLTGojF6L8EQ8CwG9ghVvIYBAmwVkZLjw4CNm4FX/OboETUvncdt47ZRFh//wiR/KrUnW0ru9NlYdn5aC+tC8oN7CNnUCepXNZG/Qaw7ld2Hs49EsNC5VoeJtBBBol4AG7pkpk1l3oum/8NooFXWVzrX9XJaVyT71oFyuJgGd0eGcx8r+mxfUo+r3K7YX9Vr1la23vqUJ6NWcDm51NjJewM5qs/A+Aggg0FYBGRQmPPiYGbjwj6Nk1Fs6973Z5fpzM31QSvZ6PxIqIRuzLUtB/ax5HeXy+abH26Z/QWOA2rCWPeuivTswP2nDt/OVCCCAQG2BeJjXzAnDpu+V74nmXeJ15HbifrnwalaWjUrrtb+QT+sXiIO6dJQrjf8uN3Wpf/nlzUlAX8RNqtzvWmQWPkYAAQRaL6A92w/tM6t/47PRd9fTs92nMi6N24mHpWQuF/LoyQFTgwWioK7jv/vBZ5pd9c5WrLoJx9zZVJDN/TiaJchVnZUPEEAAgVYKZPuMPbBb7nf+ZpM9YyQKyvGY7HUlw3eam94vwbwlzbt1Jav7ZnJB3Q0+M3PTq65y16g38S5tBPSyPUhOXAP982+v+eMHf+6fyyONTAkMniKAQBsENBjLZWomN2BW/+bfrygBdvpJN/b7ilbCwosIxGdPYfgZuaf6ec28S1tPljpdwB6VoH22/N07EgXvTROB2TNeFHrfzlEK3jLD7fLifNlq+hmns4vsvnyMAAJNFNCOcI8/ZNa8/Ytzl6ktpXSeTFpBTgyobk+KNOO5xhgdoEwG2w/vsB+/aFVw9c3H7G0jOb1WvZFf2BMB3QXw7TIqnvZcP348lKCtuHHAHqvoqZetTTy89fh17xt/cmrU7I5mkjXNFd4rLsebCCCAQNMEpKo93P+A6X/plSZ3zhVyFJND0nKDuSayeKxpSWXF8wSkIKi3Xg36Cs868ph8stENPCO1wRKP4lg0b/5lvejKgD4vgM+VuiWIj2sgd5PNn7H+qCk+JwzsWeK5VZY5S2zlFkXmGfK3YVKuIAzMk2ZydFhe+ol2dC/BIwIItFhAOsHZIwdMZsNms+o3Px9/+QorDbMDLc5EL3+d7yQXbNCe732X3XaJGc1L6T1PQC/fLVwQHx3JGqk6D4JxvQ5jXgA/vO30l2Vt8TUy30vls5dPmoKOpODK6Ykmc/dW2X+KrVUmTAgggEB7BLQZtijDhU8+aQavuTNKg/ZqX0npXNeSWy3HQN/K2J6s9da3alA3Re35Lu3pvxtcmv9bK53ktF29EQ4dX0J3I7pJVXoUxOfaIybzm7dYE14emOBXJSK/0ITFUuN4Ak73ZAn8Ng7Y+qtxwdsHcP86sQhPEUAAgRYLSDt3uE/azd9xowmOP1V68zQgmGsW+ta569D9Aa/FuerVr4s6o9vwk5Mfe96XJJg/3qj29I4M6K40/umtOT2rCa6YK4lPbBs+PwjN/yV7yRvlDEhK4PMaJ7S6XQK4Bm/XC0T3YYWVP3ZncWBCAIEUCgTSm7342E/NqotHTe4Fl8khTA5lKy2Zy0FUD3vBWmllrOe+6Sl06eAkacDReJQdOHWjDg/bsPb0jgropUDuqtSjKorp/OlnFIPCe0IbXC3huj/RGBGXvn3Qdr3TpWMCwbuDfwgkHYGeEnDBfO9P3fXmSxurfREmVxkpR8N1UtrnOvRFsJryseskJ829Gwo7Rv4ud+nY282YNBmbuVrm5XxrR0Q3m5egvGlrNtnOMLlt6C0mDLQ3wZmJjGv1uZ56xiXvxCc8RQABBDpIwAXzfT8zORk4Zs27bo1S7kZ1k+P+Sie/HhnLffbLFxiz+umyxkRxaKXrZ/l6BRRdWoYzL+6/9NZ/X2l7eqoDeqlEnugwMJkf/rAIfCChpSB6LZ/u5RrImRBAAIGOFnDBXC5Pyw2dZ9b8QXy/cukHZJY4Vnt1hCiO6OezN71ajqBH4g5y+j5TCwVc1bucTM32X3Z7v36vxr3lXsqW2gDozlSkCVxL5fazI6smRof/20R+WIvfcTC3GsQVQ09KtOdgavMiaWNCAAEE6hLwwTz7zBc0KZhrMuSwGbedZ07YIlF9St5qQMm/rhwyU0JA0KPr0+XObH/t3ndV74k5lvA0dUHQ5kdcu76vXp8aHfr45O5dR6U26Oo4X9q9X+K6uyacPXAJG5tZEUAg3QK+ml2D+dr3j0eJdT3am3eoC555gbFaQmdqk4C7lE2j2rvsja8acgPOyChyy0lMaqrcXTu5DMUa9Vo3OqDLB6U4fn0iUxrINZOpSXMibTxFAAEEViTggrl2gHvuL5vV77w5WldDq9nLkqf1ndo5rjBtZm/8JWP6jyubgZctFIir3s3j/ZeN6eBmy5pSUUJ31et56eIml6DpADBStX4oEczjErmrVieYL2szsxACCKRWQIOqDOmql6b1v/jK1gRzxdDv1Wr33CqT2SQBXW7UsuLL4VKLnPqExVXv5iS9K5umVuPiUlPd1gDpSuWS4kCCuSZcOrzdIueMF8aZoEQeQ/CAAAJdKqCd3GQEuHDfw2bgV/7YDLzuQ1FGm1kyT1LGvd3tvjvN7C1XmGD95mjQmuQ8PG+VgIS/qAZaSukuNkvBdkkd5NoW0JPd8yfyp8loCeGNsZoGd81Y8xqN4i/iAQEEEGibgN7TXMZmN0cPmdVvv8nknvurUVL8JWUtTljh628y9tD9xgwcL0dgV8ZqcQr4OoGXgqy0qQfmb/ovHXt3Mk7Wo9OWKvdkIidHN38zEcy1VK5pIpjXs/WYBwEEOk8grmLXu6YF/WvN4OjDUTDXUrnr79viw1/c2z177n819thBiSdtCQudtx2bkuJEBzm5gZi7yiufr3uD1D1jI9Ju89GlZZpIHWvdXYZm7atlJ9ZL0LRUvuQ2g0aki3UggAACLRGQUrmrYt9zv+l7wa+ZwfxuqeaW4VdDKcu4a8zbUGmql6tp3e7GLSZ72huk7fMR2tJbsjNU+xItpUtfxS2n/IOb4/yxuuN03TNW++p639fL0Upt5dqD3dgfxctK4t0laG3Yk+tNPfMhgAACKxCIS+X2qUeNndpv1rz9i2b1VTdEK3SXpbW7LBNVsWdf/lfRADOzk5TUV7C5V7ZoVErXO7LJzVtOcpex3XB5XdU2LQnoroo9H41RO5kf+kaiB7vWMbV7T16ZPUsjgAACtQS0VF44ZkIplWdPfZFZd/1+kzvnClcqbsiNVmp9d72fuVK6Ho4Dk3vN56Rtf2+8JOWsegkbO19USh8YOuHzS1lv07eWby/XGh25tny/JG6D7MlSxe5K5UtJK/MigAACnSOgVehy4AsPPGSCNRvM6l/7a5P7xTdH6W/U7U8brRF3yAvv/4IpfOf9cqvWs+j13mjjJa6vz2aGgzfeuttKKT24YruedVWdljUaTdW1lX3gg7lWG0yOTvpTvhkJ5m7M2rLZeYkAAgh0vkA83ro9vEc6mR0xA+e/ywy8MRrV02XOXZLW1EPv8g3d8K/WZM78dZOdeswU7/qrOKjHHfaWv2aWXLJA1OO9ENiPy6KXmBP3LVoAX3SGJachXiBqMx8rHMlvPq9o7B3x29rYTxX7clFZDgEE0ivgA/nEE8ZOT5i+57/eDFz2MZPZeFqUZtfxrRMOf6XLoU1432dN4Y4/McFxZ0Zt6lzO1pb9r+/BA4PBNXdPWenxHuTzVa8pbEobug/mMg77RXPB3PVk74S9uS0bjC9FAIEOFIg7u2nbs3Z4C5940GTlDmmDH/iRWf07X4mCuZbIperdZDrl8KflPA3qkuSzrjK5Cz5ljLap6yVtWa1cbVo50H0n/yUForb02TM2/Jl7d9NXa3aOa/iWsXmjvdkLU6PDl4TW3BQnTetraiYkmQWeI4AAAukVkMNmRspCer32zJQJpWo9kGCde/4lZuA/fdBknnVOlHRtj9a4GJfc05ufGinzg9xMHzCFb75N+gP82ASDz5Kj+SppW6cavoZcoz4qVZfUM3pcQwO6bzMvC+ZaPdCUmoBGibEeBBBAoKaABm8fmGfl5o9y6ZmdmTaZ455h+s59qxl4zTXGrD1xbhWunbxLyjCJDnxaBV/8j09I3ieko9/To8Cu1fBUxc9t+4Y/i9rS5azx9/ovvfVvfZyt9DUNC+j+Sya2DZ8vI7OPxV9GMK+kznsIIJBeAa1G1wDuR0zT4HxswtijT8nAnDMmWLfR5J7zWtN/3m+ZrDyWpm4okZcyU/bEl9T1bXlevPMvTPjQV8RknwkGniY9o9bJCU/c0c8FeC1YRtX2ZWvi5ZIFFNTtjLullD5ca/GGBPRSMP/Q0FmmGNwbfyHV7LXk+QyBrhKociip8vb8rNeaST6r9fH8Fc0F4fL3632tpVG5ZtxKKdwcm5ILbCWA5/qlLXyzyZ55gcmd9csyTOvrJHgl2sN1GXcS0CUl8lpWidK6zhbu3GH0Ejd74D53T/Ugt0aC+9qo5O4DfHJ95SV57VtQmpLPS2/yJBJQnMDmgucNXHzbPdUuYVvxtRM+mFsZd3ayWCCYs/t1oUBZRCl7WTviLDEgqZ4vGaZBsuoBOD74ugf9z7/WSrnEFJa9Tq7PFzyS7+mirm1W1ph83z+vuT4tQ8jk59XnifmtljL9lJzHvyedfoL+VSZYe4LJnnimtIX/ogwEc64L5KWe6qV5dV2SZ62GrxS4/Hzd9qh5dUFYC41ZkzntUvdnpI09fOx2Yx/5lgn1Bi9Scrczh908ShC4Gg+x0kddR3YgkvF2frBQXztSy23etpNt4Ha9eP+rtVxHf+bGbukLivZPJBu/Xu0StgWHpqXk2d5g5EJ3434lOi57tCyDxizFsGPmdT/IFewuDQxSenCYd7AvR5z3g098uOCH73dZP0+Fg0L5uvxr/6iLJp/r61oByX1eJcjVCjiJwKSrKE2yzIJUl6fHzywBq+JU/rbfzJnoiTsY64LuGuV4Db5TWPL95DZOfF5a3rdB6zJ6INf5Na36qK/lczevjqymk5SMdQriz9z3xwE08PP4RzePBgr5c8vIOvxn8hjo+7nVsm2kNO3Xp/P1r5ZOXk+P/o4/xWSe9sxobHW3lrL/dFmd1EEDT89PsuO4vgKR+TyOY4eNPfyAsTouvNxn3Y08N/OUMTKkrD12SGpBjrh2eFOcjrZJ8Vj0KJf2Wb28z09iXdp/nHu8r7h9Jt5PdHv6ccr8Pugf/XqSj+W/D3eCUv4jSC6QiueaQLfT1eoct+y9UgxK92mV+5j/TL7tTPlCrjNPxbZvYCL8QVh681qpiixNlQJM8oeyhOBUs+RUHoSSv7vyvTcOQD6NpQOBvpEMRn4GDTp+Sh4AkvMm34+DVCmYuAOJHmCikocLPLo+H0jKA5J+puuOg1L0Mj4o6TK6Pp30sVZg0upenUfX4+fT5f33yudaTewmvczIvy/vuTS6NMTLyzoCncfPrwv5+d0lSpJk/13us3i9yby593OyHp8X9ZD1+7zq57oOfd1JgdCdmMkOVyo1lu9wmjEmJ6C/dw2Mzkq281ImDeDaxFGQk4AZGUNegr0GenfnN+l8Z6a1A6I8+hOCgsyrY83PyklBYUrml9f+hECPQXqSGz+6ZMh+544Fbv+rckKgvyn93J+0LSX9rZtXC89ZOcxdmrt07CZ7m9wf5YJoSHWfBPmVLXPa7nquFyWYfz4O5jICnIl/7ctcJ4ulS0AO9nZSfkxytp098dkms/q4KH0aSHTnd4/yA5GgN3cw98FGdi0JNno5j5v0YB8f8F1pqVZQipepGZR0pS4N8j2aDvlzgUnf98GpFGDiQKaf6bxxoPLzuYA1LzBq/uIA5NatPxM5mOvxXL+Tqc0CcsSRf3NTeY3H3CfRMz+zf0x+ngzS8TbWQ5sGJt32TPUJ6O8iSTnvhD52dydzsW1yrfp7H9C/9dLcMfdBcnVz71Z5VpCSvnZcLErgd8FeawLkunk9EZCA757PynOpHXBNATqP1gbM6gmBnEAceSJa8ZqTolqjKl+ThrdF852SjpvMvhMX7NBLMvOZ8e3mE9s2X2FC+0V53505+M957AIBOZjZgz+XNsStZtWbP2MyJz2nCzKVlizI77D0U0wEo9J7pSdtSnAdh4U6ZokSLwfwSlPdy9c9Y6Vv4b3UC8T7erJ2b7E0u1qzBu8XUmgp3nm9CXd+WS4/lNvZLiU9i6W3cZ8rlst4tWr3Jav4UeAOf3TrCcHkk/vitJa+qHFpZ01tE9BgLoNl5E5/pVn9zpsXJsO1OenbiWDk51pWLFrWQv4bqzwusmsv8vHcSqsEpLkZ5p7Vtc66ZppbJ88QQKCKQOK44Z6WHY/8ccrVDJSvokJNgcxS/N4HTLjra8ZoST2d1e9RtXsm+I3cG277x/Jqd61LrHuK2s2jOnsJ5j+NFqQTXN2AnTCj7vzSVh70r50L5trG5avONQ+lH0iFKkniVSdsZdKIQBcIJA427mnZ8SjxcfXMxicFrrNkn8lueVdUSk9nCb2UDWvtlfLiH0tvxE+WUPyQJUZHnJiM0a53f5HboGonON+9MF4jD50tINVZ9sgBk/2F10T5iHf0zs4UqUcAAQQqCWjUlz/ttKnTaimZ63X06Q3oLmZL4fpCTa52itOCtj7Xqe6A7qvaJ/Obt4Q2eHe0OHdOix2650Hbp2RnDlbFHeDm9pXuySM5QQABBJICPoC7TnTSwc610ydnSM1zDd5a7W5mdrzqPJeq7ZeX4nhdVe7JqnY52n/XrYSOcDFDlz3o5WhS3R4+cmeUMe3pq6X0UjV7vfkt7WPVFyidVyZnqfhmcgaeI4AAAisQSLS961p8MJenxXvkznLaQz8u2KzgS5q4qCY4yAam+Cb5kn83B3fqwdYF+boCuvn0VplvfHYiP/QhodALC7jevImbq62rlp05WP00U3j4B2b2h//gbjxRqo5qdcLkTDKayju7LCchfl3LWbbaMoucfCzy8dxa6zj58TMvus5FZ/Br4hGBDhRI/I7d07Jjg+ZIjxvVCiDustOy30h8KaoOY1u873PR3eTS2SEu3l5R9YG1wRvljfcFV49rPHZTWc7823OPfjS4sl7tczPwrAsFZLfQwRkO7zX9r/h90/eit0rbUlQF76/ZLl13rrnPSined6XQH4e/ftc9yrr0xxX/aLoQK6VZkoNa6diXOOiV3is9aUP6FznsLPLx/ARXORladB2LzjD/a3jVIIF4v3MPif1ysbW7GNbgbaYl8aJciz6xy4Q/+ZwpPrhDroOXS9bSP6mew+h7yqwOrhqbtvl8Jsjnw8VL6PdGh4Xs5P4d0rKqWaV0nv4NvsIUyv4iATg47plm5l8/YY7d/rFogBj9AeiUDM5+iE99T390fjQ191ze08mNEiaf6XvuT/YjeZw3zKfOVz76mJ4Q6HrdY3TgDnLxGNA6aIwbwUx24SUMYFM6EXHLyzpkcgPY+MFm/GA0kpZKo6q5+f28ml4/f/moan4eXcCvq+bgNWqlPvKQ9NXllzWpsV8w3g76svSe/6yHH3V/drVAenyM7f2gMj3Msrysi2Gi6npeKVl/86UdL94B3UNiv1zOl+pgMm4IWRlKNh5Mxo0wp6PNyXCzRkaRmzfCnM7jRpmTEeZ0yFn900FnpN08kLHl3X3ek3lYTppas4zq6cE4WzgueLE83m7OH1Pk2gHdd4Q7vO30l4Vh8eW6gPxFR0F5wtTNAnqQk5/hhiG5xY9s9uilvFN64j53r33VePLH4J+7ZXX5+C9eSh/cmpY67rlbUHfDePInGfrSf6c+rzA0bWmI2eR8bt7yPOm69IN4Kg+CSxlitsHDyy44EUqeBJWfAOlJU+mEI/7Z+pMgzVqFEyE3ip9+ppcpunnloKvz6Xr8uuSzmqP4uZMwOdHS9MhfrRH89KsWHVo2eSKkC/gaIX+yp9+jgdg96gx1Trp8+bbVRX2gp2apOqT7zce/Q3cCKpDuMV6kkmtpbfLjmpHR2XToVj+ym1Zxz8gobsdkvHc31ntZMHaBWAKyG+5VlnXDw8bjv7tjy8LhXvXr3EiV7oRCXviChb8EV1/LbV+Dfql91HlSXc1ewoufaKbdDnyRvHG7+dmEE69ZQg/y8TXnYXG7X0v5annd5QJSJVX3lPxBVzy4Vv+VR5/I/9VnqS8Z/sdbYe6lrlprEJZ3E5jk2UD8vPRW6UmUwvKTC33Xv+cOVPGJUFFHVo4mt4ZaJ0LlJzN+fbq4PwFKvqfvly+j78VT6USo9EbihMq/mketyAAAFglJREFUp4/l4+77z8qyXNrG1W7+4k+C/Lb0+5V/Xfa5q+lJ7m86n59XH/UzeYyai6ITm2CVHMjXPcMEazaYzIZTozurnbzFBMefGh8n48Rr4FIzPfj3+uRPdFxg1F+TnkjFk352ZI9UXz8c/U09Jndck+FUpVRsfclY7r7mnmvg1LEtdB+U/drdjMXvl/G2Lo29rqt321D83WPixDS7Kvpy114eRLuVzlNpKt/fdR5fO6OfVfq80npS816UURuEr3ZJ2vN62QDjpZ/WgmQuHN6VAWQWIPEGAg0RqHCqseCtBW8kvlk+q/VxYk73tNpBr3y+VrxOHkhd4PfRXwOpJsC/1qdlJxKLvXaLly3jT4Q0qBTlT+99rsFFb52qTSPrni7DHb/I5F5wqemTe5+btSfqWqJJl+m1wJ4M4t5BH6W62z7+XRPuvcPY/XcZ6wK43PdBLX1Q1pKwC8IVgrGuw90vQXdc3X+rBGKdT6d527rCvhHN1Uv/6w/D/ernDQO7mIDcFlUaI9wgMvrLWER9sbXxOQIIILAcgQpnLBXeqrzmCjP6XtDJQKLBXqt0p6UkeeyIuzd67owR0z/yhyb7nNfOrboXAntZiVkzbw/vNHb31ySIf9/YA9K5SkrcrkpbB2LRW9NmpE9J0tOLVQzGbo1+Dh5XINBnM8PBG2/drR3jKtYjlZXOZUQ4Sucr8GZRBBBYsUCipO7XVeEt/9H8xwozlt6SIJ6c+uT+6DIOg6vyleamws7vmNl7bpGbE51pVv3Kn5rcOVdEpXQN/q7qv8LJQnJ9nfbcn6z4Zo7pAyZ86MsyvvlXJYjf55qgAg3g0u4crNoY5U4Dtmua0MeyGpFOy39npVd33mwxE54jj7u1Y1zFgF66ri20fx3lr9JpV2flnNQigAACiwr4NvNonA5XBR+sf4a0Bx8yR/7uTSa7+c/N6rd81mSkvd1NLrAn2pIX/YKUzuADeRwS7JN3m/CeT8sAU2PShWDaBANPc3chcyc6PoDrMkxtFNANEWStzbxEEnGTJmRBFbr2bNcPJrYNny8PT5c/PQtYMJ+8x4QAAgh0t4AGbO0YOrDOZDadacJ9D5rJ/+cFZubr26J8a4e7Tg5svmo9DuTh7n82hZsvM7Nfu8yEj35bxp840QTrN7sSuSt9a15dKbxUxdHd2z/VuYsK2taEGtCN3h+9Qgl9LKozCc2fRXnRU9Yuq1aKMsb/CCCAQH0CGsSKMhLH4Anub/or15nCT75h1rz3X+Mq+A7rMKeBXONBXLVuH71V7gf+ERMe/ImrSndBXGU0gHfyCUt9W7dD57ISmLV3v32+ZiC4YntxXqS2eZMJ8iY88qenn1IsFB/u0FySbAQQQKCpAjrAUfjkQyZ42jPN4J/cHwVGDXyVWzGbmpalrVzKZ66ZICrL2b3fNcUfftiEB34sl/BJ00LfYFQCd6Xwpa2ZuVsuoNUkLob7nu5yipaYNm11jUG2WLgmflfqmpgQQAABBJICVi53y2zcbOzkfjN57bMkSMqhUoN5mkuzrnpdjv+azmOHTfHb7zKz//IbcrvkPTIq5BnSU31NlH6CeXJTp/l5qUCuQ7NrQksBXSrWA98ZTi7J/N04F9FpXJqzRNoQQACBNgjY2aPSvvwMd5nb1F/8YpQCDZa+XboNaar6lXqiEVevh/d91sze+Euuw5sL5DpSmn5OIK/Kl+IPtI+bWXX6cafpYymgm9ERVzqfGh2SoeT0in+9VI3Gc0ViQgABBBYIaBu0ltSfdoop7r3HHP37t0Sz+Eu+FizQhjf8yYWeaEw9YgpfvcgUfrDNdXYzazcRyNuwSZrxlZnAnqHrnQvoZsx9j9yS7b3uCf8hgAACCNQWkKCu1e/ZE59tZu/4J3fLYbdAGqrey0rlMztebezRfdLu/+woT2lIY21dPl1UIKpWkSGqh3RWOW2TsrhWtwdGS+Q60OKF+liqn4le8D8CCCCAQBUBK2OSZ054lpn+4jtN3y/+uhSVZNhT15PcVXxWWaqJb2uw1lK5HNEL33irCfd8R66pH5bDupThEvcFaGIKWHULBSSEu/u+RiX0UnX78CVRGqhub+G24KsQQKDTBfTqXhllTkvr01+MuyBpH+SWT/KlmhYJ5jpU6+wNLzJ2311zpXLayVu+RZr7hXqG5iZ30wH/wr0jneGuij/kAQEEEEBgKQIyAE1G7tY2+++fk2D6mARVKZ37NuylrGe587rvko7PUt0a7txhZr/82qimQNvKKZUvV7UzlrNGrjmUze2q2/1tUueq2+cF+s7IEalEAAEE2iygJWNJwrFbPhQlREvLrZgS1fvFH4yawrffLQPgnDJ3KVor0sB3tFNAR3WVTnHbo45xEx8aOkt2Pb3BrO6BBHTVYUIAAQSWIiC3ZM2s32Rm79oelc61HbvZQT0ZzOXa8uJ9n5P7up8lqZbSOlXsS9l6HTivjhbnJrmJmgbug1td8A7C4A3R+1HnuPg5DwgggAACdQtIeUjb0ieeNIW7boyWama1eyKYF77xm6a4+5aovdz1YG9R7UDdNszYLAEZ/lV6YWpAP37cjd0uJ5EXx19G6bxZ6qwXAQS6X0BKxcGqNWb2zi9EefX3Xm90zpPB/H+93tgnxmXEt9NpL2+0cwesTy43H9BkZoIr4vsEGntunG5fhO+AbJBEBBBAIGUCGtBXP01Ky3dECdOBZhpd7Z4M5nJ3NPvUA8asO5VgnrJdoWXJCYzsZHFbud6MRdpboosW4/dalhC+CAEEEOgmAQ3eUu0eHt5jwsfujnLWyLbsZDD/+puMPXAfwbyb9p8l5cVX/9i5gB4Wi6+K9zo3LuyS1sfMCCCAAALzBfTyYLkOuPjwD+L3G9SerScL8dCy2mYeyjXmlMzn0/fmq+h69KhDnLFbI4SgQXtdb5KSawQQQMALBLl+GaHtHv+yMY9xgaz4vQ+YcO/35eYww1SzN0a209fi7ozqAnpogxfFuXGvOz1npB8BBBBoq4BWsWdzcp/xXVEyfM3oShKlVe0y6d3Sivd/UYL5ZoL5Sjy7Ytn5nTPiErp5fpw3OsR1xUYmEwgg0HaB3IDcL31flIyV3oFNL0OTddhHb3V3SwvWnxbdKa3tmSQBqRCQ1h1NR8Z+ZMtaqWdfGyeKgJ6KrUMiEECgowWk4BToqHFHDyWyscwWTS2Z6wA1xw6bwtjvywhwz5J1LnNdidTwtIsEAjOpuckcm5qSgX5LEwG9RMETBBBAYAUCMpa73qxlZZME7lInuN+QoVxXS1W+DOg5v6Z1ZV/B0h0sUOr3dkAzkSkYOxznhh7uMQQPCCCAQCoE4svdiuMfNuFBuTxt1Uaq2lOxYVKWiMBMaYoyNlOM73afsgSSHAQQQKCTBcKijO7hBvBaXi58u/ne75riPZ+OOsG5IV2XtzqW6l4BqVp/UnOXkTHcT+nebJIzBBBAoA0C0qvd6ohx/WuW+eVS1a7t5jIVvvtHJlgjd8ds5OA0y0wVi6VNINopJKA/oinLyL1ajo+SSKNM2jYV6UEAgQ4WkDuvBWvcTbDiNu8ldFFKVLXbI0/IyHODBPQO3hWanXQ5/duj35GRzpLuxujS82IJe1uzk8f6EUAAgQ4W0IG7Zo/KzVKeGWUivoa8rhzFQ7vawztN8d7/EfVqp6q9LrremykaIc6azGOa94xEdOll4SYCegzBAwIIILBSASuBOXOi3P1sqVPcq734nfdLlf36pS7N/D0oEFh7r2Y7I608UUNNDyKQZQQQQKBpAkUJ6Jv8mF11fktcEtcBZMJ9/zvq1U7beZ14vTibNJrLlLPBLn3MyCu5qJEJAQQQQKBhAq6He7/JPOPsaJX1tmjGHeGKd36EjnAN2xhduyIdpCAarv1w+LjmMiPv9HdtdskYAggg0GoBDd6zR+Qys2eYzEYZolWn+Lgbvajyf1w6D3fukGvOf0JHuCpMvO0FSh3ZnwquGpvWd7WE3hd/7IruflYeEUAAAQSWISDB204fNtlT4ptYug5xdRxefen87r+hdL4M9t5bJB4lLjD3a97tDZdntYTubrumr3sPhBwjgAACDRbQgH7siMk957XRiksFqRrfE/eC17ZzO7Gb0nkNKj6aLyB17j9y75y4L9AS+sz8j3mFAAIIILBsAW0/z2ZN1gf0etrPfc/2H38q6tlOR7hl8/fOgtFOEprMuMvzzyYCLaG7uvfeQSCnCCCAQJMEtK382ITJnHBG/e3nvnQu152H++4yZkDG+iKgN2kDddVqs5obm7Xfdrk6/rRQSujW3XZN33dv8h8CCCCAwPIE9A5rR58y2TMviJZ3Hd3qaD+XucOf/oMM7yUnBPrHhEBtAYnX0Y7S//rb3DXo5vLtoZTQA3eXltrL8ikCCCCAQD0CtjBjcs/9lXpmlXn0uOwKWibcfYsxq0+QyM6NL+vE6+XZwjjzu6VFxxXG9TFjArO3l1XIOwIIINAYASmJy/3Pg9XHmZwvocfBuur64+Ad7v5nKdnvi+51TmVpVS4+KBMIAlfdbj+11V2tpp3idpfNwksEEEAAgaUK6EDaWt3+rBfK6B5rZWktfS9S3R5fqhb+7J/oDLdU756eP+pkIQFcqnVkevY6V0qXEroloPf0jkHmEUCgIQLSpGmPHTa5sy6MVrdY1XncGc5MPWLsE9JRmc5wDdkMvbGSwJXIs8XgOy6/t4+4KngZyz1HQO+NPYBcIoBAMwXinum5s337+SKl8zgtxftvcPdOpzNcMzdON6073tGsmQreeKuL30E+HwX0ICgciLNK18pu2ubkBQEEWiegVetyu9SM3C41c/KW6HulCr76lOgMJ0O9Bqvkvum+xF59IT5BQASiEeKCIPiWctjbRko3WMsMrjru4diovtPJeGYeEEAAAQQigSDbb8LDe2R0uGR1e41Dqi9k6chwU3vikeFcMyikCCwm4EZ3tYHdUT6j2+Mm88NjsiudLx/KqHHS852pRwT0TI+DSI9sbLLZNAG5Xujw3sDMHDPrPrI/Z1ZtWPy6s3A2azJ9xfA//iZbGP8zExx/9qwJGbSzaZtoxStOy+AAeiYYtZ/3Xzbm4reMLCyF9ehAXjqFlKC+Sw7tQyvONyvoHAHXA7e0C3ROukkpAmkSkMFjMhs3m9Vv+0e5w9rJUdX5Yper6fju+vubmTKFr/+asbMyvldGb3zJCXaaNq1sJNkkuk3StV1sLnjewMW33aM3ZAmu2F46gQxsXu64ljeuQX1i2/D5GRucYY0tyN5FST1de1aDUxOGmQ1D0nDHhAACKxHIDL342MDr//zostdx5LHM7L9dsz5aPhpkZtnrYsEGCsiY/IHcwGzq0SMy2s9R6bTYvtKPDaUcbnIyEtz+3KVjN2kmbT4vsTvqDDcv0xrU573BCwQQQAABBBBIpYCWzCslbN4Zh73BZM3BrRmzRy5S3zQx77NKC/NeBwvsGZdtvJVt3MGbkKSnRGCr3Pd866dWVic7fjW/xZRszgXJGJcxAnTgFrmb2YLPWvWG/359HBkr+jbzVn0934MAAggggAACCCCAAAIIIIAAAggggAACCCCAAAIIIIAAAggggAACCCCAAAIIIIAAAggggAACCCCAAAIIIIAAAggggAACCCCAAAIIIIAAAggggAACCCCAAAIIIIAAAggggAACCCCAAAIIIIAAAggggAACCCCAAAIIIIAAAggggAACCCCAAAIIIIAAAggggAACCCCAAAIIIIAAAggggAACCCCAAAIIIIAAAggggAACCCCAAAIIIIAAAggggAACCCCAAAIIIIAAAggggAACCCCAAAIIIIAAAggggAACCCCAAAIIIIAAAggggAACCCCAAAIIIIAAAggggAACCCCAAAIIIIAAAggggAACCCCAAAIIIIAAAggggAACCCCAAAIIIIAAAggggAACCCCAAAIIIIAAAggggAACCCCAAAIIIIAAAggggAACCCCAAAIIIIAAAggggAACCCCAAAIIIIAAAggggAACCCCAAAIIIIAAAggggAACCCCAAAIIIIAAAggggAACCCCAAAIIIIAAAggggAACCCCAAAIIIIAAAggggAACCCCAAAIIIIAAAggggAACCCCAAAIIIIAAAggggAACCCCAAAIIIIAAAggggAACCCCAAAIIIIAAAggggAACCCCAAAIIIIAAAggggAACCCCAAAIIIIAAAggggAACCCCAAAIIIIAAAggggAACCCCAAAIIIIAAAggggAACCCCAAAIIIIAAAggggAACCCCAAAIIIIAAAggggAACCCCAAAIIIIAAAggggAACCCCAAAIIIIAAAggggAACCCCAAAIIIIAAAggggAACCCCAAAIIIIAAAggggAACCCCAAAIIIIAAAggggAACCCCAAAIIIIAAAggggAACCCCAAAIIIIAAAggggAACCCCAAAIIIIAAAggggAACCCCAAAIIIIAAAggggAACCCCAAAIIIIAAAggggAACCCCAAAIIIIAAAggggAACCCCAAAIIIIAAAggggAACCCCAAAIIIIAAAggggAACCCCAAAIIIIAAAggggAACCCCAAAIIIIAAAggggAACCCCAAAIIIIAAAggggAACCCCAAAIIIIAAAggggAACCCCAAAIIIIAAAggggAACCCCAAAIIIIAAAggggAACCCCAAAIIIIAAAggggAACCCCAAAIIIIAAAggggAACCCCAAAIIIIAAAggggAACCCCAAAIIIIAAAggggAACCCCAAAIIIIAAAggggAACCCCAAAIIIIAAAggggAACCCCAAAIIIIAAAggggAACCCCAAAIIIIAAAggggAACCCCAAAIIIIAAAggggAACCCCAAAIIIIAAAggggAACCCCAAAIIIIAAAggggAACCCCAAAIIIIAAAggggAACCCCAAAIIIIAAAggggAACCCCAAAIIIIAAAggggAACCCCAAAIIIIAAAggggAACCCCAAAIIIIAAAggggAACCCCAAAIIIIAAAggggAACCCCAAAIIIIAAAggggAACCCCAAAIIIIAAAggggAACCCCAAAIIIIAAAggggAACCCCAAAIIIIAAAggggAACCCCAAAIIIIAAAggggAACCCCAAAIIIIAAAggggAACCCCAAAIIIIAAAggggAACCCCAAAIIIIAAAggggAACCCCAAAIIIIAAAggggAACCCCAAAIIIIAAAggggAACCCCAAAIIIIAAAggggAACCCCAAAIIIIAAAggggAACCCCAAAIIIIAAAggggAACCCCAAAIIIIAAAggggAACCCCAAAIIIIAAAggggAACCCCAAAIIIIAAAggggAACCCCAAAIIIIAAAggggAACCCCAAAIIIIAAAggggAACCCCAAAIIIIAAAggggAACCCCAAAIIIIAAAggggAACCCCAAAIIIIAAAggggAACCCCAAAIIIIAAAggggAACCCCAAAIIIIAAAggggAACCCCAAAIIIIAAAggggAACCCCAAAIIIIAAAggggAACCCCAAAIIIIAAAggggAACCCCAAAIIINB1Av8H+xWvYltMsDYAAAAASUVORK5CYII=;" vertex="1" parent="1">
          <mxGeometry x="-21" y="273" width="120" height="120" as="geometry" />
        </mxCell>
        <mxCell id="V8Acjl_ElyFGZNs6vDOT-9" style="edgeStyle=orthogonalEdgeStyle;rounded=0;orthogonalLoop=1;jettySize=auto;html=1;" edge="1" parent="1" source="V8Acjl_ElyFGZNs6vDOT-5" target="V8Acjl_ElyFGZNs6vDOT-6">
          <mxGeometry relative="1" as="geometry" />
        </mxCell>
        <mxCell id="V8Acjl_ElyFGZNs6vDOT-5" value="Firewall" style="image;html=1;image=img/lib/clip_art/networking/Firewall_02_128x128.png" vertex="1" parent="1">
          <mxGeometry x="228" y="397" width="80" height="80" as="geometry" />
        </mxCell>
        <mxCell id="V8Acjl_ElyFGZNs6vDOT-20" style="edgeStyle=orthogonalEdgeStyle;rounded=0;orthogonalLoop=1;jettySize=auto;html=1;" edge="1" parent="1" source="V8Acjl_ElyFGZNs6vDOT-6" target="V8Acjl_ElyFGZNs6vDOT-18">
          <mxGeometry relative="1" as="geometry" />
        </mxCell>
        <mxCell id="V8Acjl_ElyFGZNs6vDOT-6" value="CF Tunnel" style="image;sketch=0;aspect=fixed;html=1;points=[];align=center;fontSize=12;image=img/lib/mscae/Docker.svg;" vertex="1" parent="1">
          <mxGeometry x="389" y="416.5" width="50" height="41" as="geometry" />
        </mxCell>
        <mxCell id="V8Acjl_ElyFGZNs6vDOT-19" style="edgeStyle=orthogonalEdgeStyle;rounded=0;orthogonalLoop=1;jettySize=auto;html=1;" edge="1" parent="1" source="V8Acjl_ElyFGZNs6vDOT-11" target="V8Acjl_ElyFGZNs6vDOT-18">
          <mxGeometry relative="1" as="geometry">
            <Array as="points">
              <mxPoint x="547" y="508" />
            </Array>
          </mxGeometry>
        </mxCell>
        <mxCell id="V8Acjl_ElyFGZNs6vDOT-11" value="" style="shape=image;verticalLabelPosition=bottom;labelBackgroundColor=default;verticalAlign=top;aspect=fixed;imageAspect=0;image=data:image/png,iVBORw0KGgoAAAANSUhEUgAAANwAAADqCAYAAADJeSsxAAAAAXNSR0IArs4c6QAAAERlWElmTU0AKgAAAAgAAYdpAAQAAAABAAAAGgAAAAAAA6ABAAMAAAABAAEAAKACAAQAAAABAAAA3KADAAQAAAABAAAA6gAAAABEA/9DAABAAElEQVR4Ae1dB2AUVfr/ZlOBBKQXkV4SilKkChJEUYrniWAD9SxnQ72/5Tw9FRbwlLOd/Wynp4KoYMFTsRNAKYKAIiVK770FSCHZ/X+/b+Zt3m42sJtkk2zyHkxmdubNm/e+eb/31feGyCRDAUMBQwFDAUMBQwFDAUMBQwFDAUMBQwFDAUMBQwFDAUMBQwFDgfKkgFWeDzfPDoUCXvsduSf4v6uVHSzquMrrV4J7vPPb8j/vl8n8KE8K+L/E8qyJebZDAQYYgystnVw4kZ7uzguPNF4rLW1CjNybRh5yuz3h3W9yR5ICBnCRpG5IZTPARk0XcNH0UQyOAO406v2YVrQ+KS4mu4YVT0mu4644y/LEoWiv13Uc+/xY61ge5R/Nya6ZuXX6XVk455+cZ4AjGgD6k6aMfxnAlTHBCx7ngMAHMv7NYGt/3T+TXdlZvbzk6sI/2/C55l7yNuKLjfjeOrzFF5QhR+BgR3nb42zbeb+etwyXx5q/Ki9lDU2/NJ9/28ntdhHEUd9z1QWzLwsKGMCVBZX1ZzDHEt3L4TRpae7YPU2oU75l9WdwDWW+1Y2zA1ix+m3aMfQztYEznugdZvN1AHAeZ5rpyfcuynjXzb9tcFNAXTifSRGmwIleVoQfXcWKB2dBcoDW/nJ3EyvGuoTPjOStJ2+JvAFI6p2AK6nf6hz26pgPfUkBUO1xAXqcyqvK2cnnZjNLfPtYbnK6LX4GclrcalKkKKBeSKTKN+UGAK3jle4uzM1uZsJcyVsybwoMMI7oHKs03g3KRoLYiQQQyvO48NVer/W61+N5x8f1oEsaUVMIFak/pfFSI1W36C43AGjtr3KfaXlcf+P+PpwbprgZOj82HWhkWRZvYE8WX+R/CjZ8oA514iCvnVt29n3IWzg/gKeeZ99ExFzP+8pxF72w7m33bj62jTgGeKBPqScDuFInKReo6Ubtr5rU0vJ4xvPZK3iDwQMdHh3fH2R8AkBzuSzKPZ5P2bnHycOAcfG5mBiXfY2PAS4AEUnBj7NRvscjAPN4vHJfLN9TLSGOYlwuvmaDT24q+KODDwVu5e2xI7nJr4moGTBgFNxmjkpCAQO4klAv8F4daGxttHJzbmcU3MfZIDoGdnC5GwBDysvzUG5eHgMtj5rUq0UtG9el2sk1qEOLRtSwdjI1qluL6tVKosT4WKqeGE9xsTGUlXNcgJl5NJt2HcikPQczaePOfbRhxz7avT+T1u/YS5nHcgR4CXGxAj6AGJxPS3714ivLefv7b1PHfcHQhhvBT/fU7jOHxaCAAVwxiFb4FiWG2eb39mMmXuryet3ccVM5L3p3IY4GzgWwHcnKobx8D9VlMPVIaU4Du7albu2bUesm9QRUhZ8V2plDDMJVG3fQ4tWb6LulGbR64055FsAK8BUBPBQOgKG+M9mt8NCqaeNWCuiMKwG0KXEygCsRCRXQbIe1o6dNYoxdwMUCaNhAYx+dATR09pzjecKhzmh9Kg3t04n+0O90atGoju8Gvoc8LCbaiXU5pwSb3TinnR1yFbjL7UcqzoksKGcRA++juctpzvK1tH3vQeaUcRQfF0NeiJtOOc5OPRSPYreC92nW7/4l+h24nQBP8+v532t+nYQCvo5wknzmsh8FHKA5kRti4nfR/axgXcPZlPiIO3z4EP2MwZbFuhlSz9TmdMmArnRej1SqVSPRBzQbZNDVbH1NMhfjjxhMRHS0OakqYse+w/QhA++9b5fQpp37RTyFnhfA8YBBAA/1Rx9Zz/WZcHzfKe+tnXVHjhEzmSLFTAZw4RJO02naDHk2IbbOgRu5iHt5a8obOik6q8Qy8l56q4s7NICWzTpX51ZN6K7LBtHAbu1EZFTAsAEWudcBY4rUxwHy3kNH6Z2vF9NLM+exnpdN1RNsvRDGFy0FAm8ueaz71kwbt4CbaayZGqFCPYzcGw61BtGSTwMaqpx6pftcj2U9zgTswj8DO6a0CpZCWByP5eSKEeTaoX3o0oHdqEa1BNtkz3dx/xduJjeUwZ985noQP9VzNzKXe/GjOfTZ/F9Fx0uqniC1UAB1qqRQCI4Hf+HUmBjvuJVvuTcb4DkUCnFnAHdSQvmLjylXu9tRvusf3NFG8K3ogHpnlNKgp4G1HczMovpsYbz0nG5044X92MpYwwEam/uZ65VnsjmrDXZUF8aVfzO3m80GFnDbGmxcsV0NfrVE9Av6DCq/n5nco0eOJ71g3Ah+NDrhDxDPpKIooJn5W42aXCs+Pvsu7m93cvYi9TR0Xpjr0aH7n9GG/m/UOdSt3WnlxtGKapo6D46HFMMVx+G0bxbTa5/Op4zNuyiJOXFsLOt3jjjq3IMbMMgAdGjuat4/sLqtd6aErWk04/MmBVDAAC6AIPJTEx8RXLyjqWuE5fU+ytda8ebX4ZAfvc5lueh4ni0+dm/fjG4YfhYN6ZXKTusY0js18lfEBFChHeBuSr9784uFtPfgEQEe6gzDipYAOpyAvsrH1lcuD90jbgSj32lk8j80gPOjh78hIOWKiX28Lu8kJtIgzlYIaLhVmfnhT4Mv7S8j02gEWx9heYTF0csdGNwjWpJe59+27KZ/fzyPPpyzTKJd4EoAGfxxJ9xOAQ+zE17w5nufkvhMw+0Kvfbo6QmFql6aJ/yB1vFqd7P8fOvv/IRreEPcY5F6GsRHOJLhR7vlj2fbvjTukeiUtuWxNOtZNmUp/Q6+PABw/q8b6Il3v6Gf126l+NhYsa6exI2AMLGJHCY2xeh3/u/MAE4TH5uOeqpaUtyRsWzG+yuTqQFvutgklAOzgvgIyyNEyDPaNKWJ1w8XPQ0Z0EEjbeKXipTBH4iZPBQJh8bA8i777gC8wxzFEqIbYRG7Ef7GboQ5zBll6QiSdVcK3PRl0IwK9YiqCzgNaHgj7UZPGMLEeIQ3mPkV0MQwoN6YbuZv27QB62l9aRSb+RHXqHdOlb8y7CErSjQKEwai8dY9B+klFjNnfv+zAO8EbgQlZoKW73ldrgcy3n5ogwCvCk8DqoKAc8RHJ0qkwxUTO3pc9Ah3hAu5Y4AeRYqP+w8fk8DiywedSdcz2OokV/dZH/VQKi6j0iWImSAMz1sQ48rS37aIfvfNEhgpSQwrQWYl6G6ETKbxv7wJ1Z7IeP1vmVU1WqVqAU5T4ltf5W4Q5yE28Vv/x/0lqJ6mdLBj2bkiJg7qnkJ3XnqORPAXOJBLFoIlvTWK/ijgKUPQjPRl9Nr/fqAV67eH7EbggAF3Rk7KB7LWCt5JFZp7VzUAp4mPCMeKq3vwMu4447mfF2Hm5/hDFp+Umb9XhxZ068UDKK1LG3FYA2y2E6pqkC/YeKC7EfZnHqP3v/uJXv9sAe3af1giaaDrIo+WlJgONwJsSt+Ry3tfxtvuJZKnigCvkvcYf/GRzfwD+CVP5Bd8Nl46b7aUZIuS8t4hGmJuGowiDThK5G6Oe7yILZAIx9JN5pLZ/PEzEiFM7N8fzxXwgTTVOD4TCVxRSzrwsvnia14PPVpV3AiVFHAO0BxRRZt1PZpfPFbDwktHAqOSJDoY9wsArUZiAl18dhfmamdT47o1xXEt8YcMxkpKMEWGYu0BKGDKcuizYOUGenbGbFq0aqNMeg0y/w4IVCjEO+ClHejhqjDbvPL1H018FDN/wpE7uTfczS8US8/poyv/5E7Csg/ERwAtnyeC9uBpM+P+NIxOb91Eruuik5wwf4qkgG6phTg+ffZSevK9b2k3z0bHcg/w4Z1kNsIifkETfps6fpY8BO+ykrkRKg/gNKDhZaWOnnAx7/7BwyhmXSugieqF60i6mb9ji8Z0w4Vn0QjmbOB2Rk+zaVScvzrwECb24kdzxY0A4NXkCBykAP0O3A7vyJnWZM2gGM8Da95y/8aM0JkGVDkmvVYCwKkXYs+6tpehc3Hco8y6lneLP5wKxEdo9Jyg7J/WoDaNGdyTrhnS254I6ohHld3MLwSI4B9lzZQRjum9ipd4eP7DOTRr4a/yVIjtAdEqOB/oRnghNzdx8vrp9x0SN0IlmG0e3YArZOa3MBH0dt6grWPERPIBDeJjDHOvo2zmxyznIb07ip6W0qyhT08zQLOJVlp/lX4HuuL4swUrZdIrwsQQrYJlHrCmS0DSgSezzVfnpEytDG6E6AScJj6KnhafOYZf2DjeMOtaiSc+8VH502B9PHQ0i/qd3lqmzZzVubXYJxFJAaaHfCZFhgLKbwngYYEj6HfgeHtYzKyVVE3oHyBmKhTKgMkv9VuLFzWyZ5tzHaPUjRBlPcxffMSsa47Gf5jJ34u3QkBD18ELVmb+Zg3rEGZdIxzLjubHLXYeOTB/Ik4BPdZ0Dc+5e3nm98z1VojPE24EdMgTTAPCbIQ3eTbCRHEj+Abe8fwioyM+M3oAp4mP9qxry83Ev5w3tAEiiI+j8bEADabqozxtBor6Fef1oOuH9ZU1HvXRFnlNKlsKKDFTuREQJvb09O/o+1/WiZRRjacBBdHvwPEwQsKwIrPNvYkJL0dbmFjFB5xvFHN78CknKyfrHsbYbUz0E5r5j2bncBai3h1b0kPXDJVwLPyG2GLER1Ci/JNuzQTn+3Duz/Sv97+jrbsPUAIveHsCN4JYMxl9y5mxjc+Y4v5EWqP1lfJvXfAaVFzAgXg+q5TXaj9m0iht1rU+2vlaBjO/b71HnjZz80X9aXjfTnLdmPl9ZKpwB/ogCP3ulU++Fx1vx75DVLM6uxG4lwbod+B06APKjfAJzzb/u/9s84rpRqiAgFN6mrOKMX8Eg+dUTeaKDnJ6ip8yjXO2BYzoAJv5bT2tN13Fpn59dSzkManiUsAnZvJrgvFK6XeYBoRrRbgR9L7AsxGIP0rifcz/oyQVC3gVqxdCT0PiL3Y6308bx7+u5e2EZn4sbwDx46L+p8taIu1OayAvCTqcARoIGj1JAQ/vDVLJt4vX0Cv/+17CxEJ0I8hs8zW5qa/73AgV6FPLFQNwmvho62nZf+Iu8iBvatY1egzqKvVVZn6s+YhFTLGo6h0jB1If1tfUCzN6GkgWvck2bNnLCcLwNWPOconP3MkrR8MIBkAGETMhaqp+gkVrx62Z9tBcPuWtKG6EcgYci4/uCbyNZ0JZ3oBZ10pO97M+wmGNOD18zqk5r8UPPa0gmh+3GK4mRKgkf3Q3AmYjYO7dB7yoEd5/CG6EXCbDNJ5tPsE321zrb+VBovIDnGZRcmZdu9nqi0/wok5FmPm9bObPpdo1a9BoNvPDp4bFVY2Zvzy6Ttk9E6qBl+fwqMVzf1m3XdwI6cs41JITRM2TuhEs60lvfMJz4kbQXExl1wr7SWUPOA1omplfX1wVbMqxPjH6WDZEND/M/CD4gC5t6b7Rg0nX04z4WNbdpnyep7sRUIOP5/3MYmY6rdu2R9wImAYUECbmJyVxZ1/tsXjSq3IjlEO0StkCTtPVID4yqp5kiujR/D6ggaAw8+MDhRAfsLjqrbwM3eCeyM4skIc9kTWBNpOqFAV0NwL0u1dYzJz2zRLaxgscncJhYpCRguh3mhuBpvG3Ee6TbyOUMejKrrdKw9j6COd1dtYjzLrgvEYKKj6CYFiOrRFPAMWiPbeNGCBzqgA0JLWmhvwwf6ocBWwxs2AZP7gRHnvna/7+3e8MNo98hkvl0YgD0CkJajeHBd6eMWXc+2W5oFEZAK7Ar2ZPnbFe4kYj9lH3oQhNdPERq/yOTOsmq2PJhwqZeiCgMfMLqcwfhwLKKq2slukMuFfZjTB/xXpftAoAaA/TPrJhkIc0hT74Ks80v1MWrHWYgi9XBA4iDLgCsOEzvBwp8hq3AR/CCMrVYOaHT+28HinaRzBshdnixVeN9BiBHlBJitTdCFi09rMFv9Lj076RMDFxI3DnCQiKBgbRD7HkxlwWMa8qEDEj5yyPIOAKwJZy5cR72Oo/mRuGUUWNLnyookRs62PrU+vL/LRh/AleTMk31kchkfkTBgV0/Q5fe32V9TusGA07gG3NZG5XwO500K3n70hcJquIRZDTRQhwyr/m9qSMdk9gLXYc06yQCAmfGr4Mmsd+tZv+2F98alhc1QAtjB5mshaiAFDkZTFSdyNM/O9ntIC/kVAEt1NMYD9LYZetfsf9Db6alJ7uzitUeAlPRABwDDZJljdl9IQn+BAL+KDi4G5yDX9ADEwGxVoi468bZqJEmCYmlS4F9IE7h9WVNz6fL9EqsHyD2wUsaKRAl8mc4TJZyCgCnM7PDF8qzXWzspU+kMHm5nVFZMkD1RAbbOI0IzrMIVlYiu6Zv1xK7Tn2EaIAoIolEGA8MclQoKQUgP8WfQl9KzbGoh4pzakbu5fA6fDdOxjmYHRxErxMkMISufcNqdfpnEV737t1g4SErZruy6QyF3dfqj1bsWHmbFhX5FneADZfaBYIAMdkHrN7hGTdfdk5vJahy4/9F7ch5j5DgRNRALiCtTKGfbsIEbvnhQ/kM8v4GAkAqSXFIHZSjHeArBxWipyu9ADnVKr9GPcfLK81nRuACH+0RJ6hwMZ8jO69crB8eQajC4YU41NjIphUJhQA6KDOwGH+4Guf0oz0paLXFQG6RRQTN2zNW3/fx12Z+3HJl3EA9yl5QgQJT6lBTCSD7VUuUE2n8YHteH6+RI48ddtIARsaDju/AVvJyW9KCJ0CABt0O8yVfOyWP9JV5/eUAIsA/y5ULdgdelH+ce7PCmzKPhH68wJzloIOx5VgnQ3iZGYtep8f0IE3ZSQRGVrkZOZ1j48dITOwscKxi1l76bHXwGaZ34YCRVMA0hZAB3vBoO7taSd/gGQZr6sSRKdDP+5Y7/Q5+/auSP+RRnWMoRLqcyXncPi4Hqedp9JDvDubN8jAcCZKAqiw7MH4a4cK2JQcbcDmEMjsyoUCkKygzsCoMumGP9CgM1NkbiXid7WkGNI/2mPlAZbixIiiZQj3UBUY7n12fqW3cWVYlETIVgJvwJLgCX62g0eyZBb2bZcMEOVU+UbsAsxfQ4Hyo4DidHEMsp6pLeiHFesI66gkxPmsl+jHYCCJLFW23ndJ2hR6cSxwWuzkB+ewSwHiuSaWxzWJ71UhWz6wwc92fq8O9ODV50vRPJiYZChQoSggnI7tCfhK0lO3j+RFaauLRKa5psCUPNx1B6X8bo2VyoPRFDMV+0bln0gdE3M1gw4foQfypTyMHNksRrZqUo9euOtysQJBZsZ5kwwFKhoFbF+dR74HWK9WEn29ZI0Y+LR6Kmt754Zd0z7YM23sQZlhkJ7u50/Q8hd5WEwOx4YSLPTDU204IBSTR5EKHs64QriW+r6a6G0GbDaVzN8KSQH4g8EURqZ1leB5rJUDlchJOIBo2ZSN7beok8XZ+0oM62bHUGLlZF/O2OrC96Iywt1QScxjGzGgq1ReOFtBxcN6jMlsKFBWFIDspcBw3+jzZblFGPs00dK5bN3Y8Wp3M+ZwLNGF7yZQzwivXdDd2PfGLO1W50aRFfEHC/zUZbaM9UZMMhSIJgrYoqWXMP/ySl4zJ1cA52sBujcYS518j2sMzqalTQhbJQsfcI7C2H6tayTXANwNoqSUAwskviR6Ub/O8gVR8XUYURLvxqQooYDqrped051SmzcizK3TbA82Y/F6x6Rc/UhdezZBeFwuTMBBd8OHD9nuzyv9OTQE6oX1ggU3rluLV9Tq6VwyO0OB6KKAMqBgNbiR/JUlBGloERrASz5zmFSvJ2+QtAzL7oWRwgOcFM7Tbq52t2PGNtx5jrBVjAxgwViUFStqITbNhG2F8SZM1gpDAaW3/bH/GbL2KdQkdY4r6XA5WRGc5PsXYdQ8PMCpgvMtONbwsWZwOxvhDHtEYo9kYwlSeIxWbjF/DAUqBAWULgcud+6ZqRyBkiNhYE7lHI7m7SmMx7FnhFrxYgGOsXWR/gAEfmItkl4dWlCXtk3lkomU1ClkjqOVAkM4cKMuLzyM9XYc/Q6AE+MJ5VsD0K60dJ+B86TNDB1wmBHAplCYRPmJHfWSeZqfLNByQa+OFBcbI3KvUj71fObYUCBaKAAmgqD7HqnNqXPrJpSbxy4CR5jT2jAQx+np48WOoZ0v8jBkwCkU53lcvbm0RrxBnGQDjiWVaVA7WZZJkCdxZU0yFIh2CjDeJA3qniITpzU9TuFmYKtRk2uxVsU5Q1Oi1I0npU16/Q7yeMvrsZU0G3CCeSiVLRvX9S0/bowlJyWnyRBFFOjbqRUl8fw5rIHisBLFURpVi8tuKU0J0VoZIuDgDlDObquHQyv7Xn40LJJndW4tp8VnEEXENFU1FCiKAkotat6wNrVv1lCW2sN3yZ0kXT3fsvrLb3ytN4QUIuDsklqtTEzmUjs75coDINdinRKsvoVU8knoTulmZyhQzhRQ1krMDseXdbHal+YEdwRO6o5qpu1ZVfqAi6+W3ZDLru/QQR7g4c8Igd02bVDbOW12hgKVhwJqVa/TuH8DbEqvUy1k1IlZPj1NbBrqdJH70DicI5968i3IjT4kYwQ4nuehhnWSqTYv4IoUmuooWc0fQ4EKTwElVsJGkRAfqy+XLjhgADURw0mIwcyhAc6RTzlzG4dCIr+iMlAk67Cfonoi1g0qiLh28pmdoUCUU8DmL43q1OSZ4LH6OpbSLuZwteMSj9eRHyEYTkIDnI9k3nq+Qz6A/oZYMywfncxipZ18DFDPao4NBaKSAkpiA1PBeicwEDo9XHX0U2Lz89k1wCkEw0lIgPMphF6ykcySo6IeDCZJ1eyPnEPeVSxYXTd7Q4FopoACCFSmmBgJG9abAxwk5ntdNuD0K0Ucq/KKuBxw2rKwbokvAVz4BBBYLVKgQunLaA4MBaKWAjYjg8qEZfWwkLHD4nDBUa08cWiejzGdoK3hAc5e4LVQcXGxqhgf4yuUx5wwFIhGCiiJLZ5DFrGaQQBTkQ7vcZFtMQyhgQopIWSVLJghgORDFsTI+FjD4WyymL+VlQKltbxjmICzCgmxILAWY1ZZ6W3aZShQKhQIE3Cl8kxTiKFAlaWAAVyVffWm4eVBAQO48qC6eWaVpYABXJV99abh5UEBA7jyoLp5ZpWlgAFclX31puHlQQEDuPKgunlmlaWAAVyVffWm4eVBAQO48qC6eWaVpYABXJV99abh5UEBA7jyoLp5ZpWlgAFclX31puHlQQEDuPKgunlmlaWAAVyVffWm4eVBAQO48qC6eWaVpYABXJV99eXT8N1Hj9MPmw8T9kWlxduO0PhvNxP2+IpuZUr2VO3K1CLTlgpNgV93HaNXluykhjXi6IxGNSitZS1qViuBV8RSi2ARNT8lgRonx9Gri3fSRal16NxWtXjdnKBznyt0W4NVzgAuGFXMubApAI71+74suS+el5OrEeeiegyqOomxfmDq0TSJkhNOpQXM5RZuyaSv1h2ktBY1aXCb2tSydqKs+taA77uheyOaW+8wTV+5l7YcyqHRXRpQcnz0g84ALuyuZW4IRgGAbfKcrXIpLtai6rywVDKDrUH1OOrQoDp1blidTmPOlcScqsepSdStSQ3adCBHxMYvf9tPPzL4zm9Xh85vewqd4oD0HOZsdavH0pTlu+mlRTvozz0aybVgz4+WcwZw0fKmKng929atRneedSpl8ZdCD2Tl0Y7MXNHTthzMpqXbj/CHOi06rWYC9W1WUwDXgsHXqk6icLWzmtekT9fsoxnMzVbtPkaXda5HqfWrC7eD2JncszH9+8cd9Nay3XRt94ZRzekM4Cp4R46W6kEMBEfSUw6Db1vmcdpxJJdW7DwqXAzcChytX4taNLhtbTo1OZ6a1owXEbL7qcnCzZ6Yt5XGdG0ooia+RApg3sKge2bBdpq+Yi+NPr1e1Op0BnB6DzHHpUoBGDpa1cGWSL0YTCM61qPl24/S1+sO0Eer9tH3Gw/RRR3q0jmtTxGuBVGzMQNw2s+7haNl5uTRMBYzYVBBGTexSPn0/O3UMCmOhvJ5tWZkqVY6woUZwEWYwKZ4mwIADbjgYNbRep6WxNzuCH3EYuRrS3axyHmUrunaQEAFbgddLSF2N73J3BBJgQ664EgGLURPGFjwO9qSAVy0vbEI1jcnl/WuXbvo+PHj1KBBA0pKSorI02AUOa/NKdSFDScfMnhgqZw8dytd060B9WmaLIYR6GrxDFKArhqveoz84GgDWiTTmr3H6LOM/WKEiTbLpXF8R6RLRWeh27Zupfvuu49uu20sLV68OKKNAHjA8a5lznbzmY3pGOt7zy3cQd+sOyTObgAJrgAA8K3lu+iXXUelPhBTh7evQ+sP5tDcDYciWsdIFG4AFwmqRmmZx44do9WrV9GqVavo0KGDZdIKAAjc66/9m1JNBtmrP+2kb9ceks9CAXTXdGsoeh2MLSo6BeJkGhtd0g3gyuQdmYdEiAJYP7+01tAPp4rgdjD//1/fJlSbxc3Xl+2iBVszpQhwwTHM6bYczmXXwX7+nrz9STT463A+2pLhcNH2xipxfWEEGdu7MbHLjv7DYV3r92dLa09vWIOGt6tNs34/QL850SzQAwHSaEsGcNH2xrT6qg++a6ei/hDguo7Dug7m5tOb7Og+mJ0nxhL47JqwywDGEvj3ojVFtZUyPz+fNmzYQBs3biToH/hCZZ06talp09Po1FNPLSQeHT58mNauXUt79uyhnJwcSkhIoPr161ObNm2oZs2avncIa92WzZulTIhYyNOwYUPaxRa8jIwMyszMlHtxX7NmzQo958CBA7Rp0ybau3evlIGCk5OTqXnz5rKpL2kCMFvZUHHoEHQWD9Wujbo3pX379tHy5culjv379/erG8pcsWIFt3kDHT16TK61aNGCOnfuLPf7GsEHaOuWLZupVi22CHbpUqieoAeeg4T7gyWUsW7dOqljjRo1pP7tU1I5ciR4XCNohPrhudnZOWztrE8dO3ai1m3aFnmP/lyIl2dz5MlvYok8QF/+fpAu5cgT5Vif/uteWrMvOyq5G9oZtYBDx3vjjTfoiy9mCeCysrJ4JLS4c9Wi008/ncaNG08dOnSQd3k8L5++nzeHpk59hzvYMgFCLoMqPj6e6tWrx52xK1199dV01llnCWgPMmAmT55Mv/66Qn7/8Y8X05lndqcXX3yRVq5cKZ0vMTGR2rdvT3/607V08YhLpDPBnD5jxnSaOXOm1AnAzs62xSJ01tNOO40uvniEPAsAx+eaX375ZZo9+zv+Vno+DRs2jC64YAg/5wX64YcfCHX85JP/SXtQ9nfffcdtfp2WLl1KR44c8fXTU045hXr16kXXXnsd9evXzwes999/n1566d/Uv//Z9DrTKoHbq6fNPKjcfPNNAtrHHntcXAHqOuiJZ02ZMoXWrFkjH5OP5e8Aog2gxw033OAHcAwYc+akS3vmz5+vihEXQ9u2bblu19KVo8cUqoMvo3YAn93wlLq0ek+WRKXAIQ7Hdx8OC/ss44AEPnfk0C99hoF2e4U+jErAgZs9+eSTDKAplJeX5yMwOMbBgwels1evbjtF0ZGnvTOV8z8hnM2XmQ/Qobdv3y7b0qU/sUn8frr00kul8+/Zs5vQIZE++GAGffzxR8JN5QT/QYcEd/jHPx5mrspTSM49Vzr6vHnzaO7cuSqbbw+ArF69mrnF43LvHX/5C3eYGOaWh33lLlmyhJYtW0YLFy6U+5QfDO2aNm2atAEDTUpKCnXq1Ik7fB3avXsXDwy/0pdffkk///wzDzTj6MIL/yADBdoH+mRlHfPVQz/ANXB6cDrQSU/vvvsuc6kt1Lp1axo79jah1bJlS6V+zz33rAw6f//730nRGYPBfff9Tcq6/PIraMCAAQSALliwgN5//z16/PHHBdiXXDJSf0yRx3CAw+H93MLt9NXaAxL6VZ8DoXufliwRKohaAdeLthSVgAOXmTnzYx/YIC5dfPHFQnt0vpiYWGrUqJH8/vHHRfTss8/4wFatWjUaOPAcEaF+/PFHmjdvrpSzc+dOev7556QzN2nSRDqsepkAHrgnxEdwKnRExWHAxT788APq27evdL4ePXpIxz/rrH6UmprC+ZNYDF3DnG+G1AEgeO+9d4WbpaamsmiqPipLAhxwMiRwX3RYiLQLFy6gp5/+l3RycDFwY4izuAbunbFmNb366iv00UcfScdu1qw5devWTVU/7D3qCDredtvtzMH/5ONkGJyefvppGejQ5rS0NBloIEa+/PJLDP7ddOedd9GtY8f6ONk5g86V+zHgTZ06lTlwfxHPQ6lUn+bJHAZWjb7fdFg4HkDYmQ0lMJ5gdoIBXChULIU8a9f+7tONUFzPnr3oz3++UUqGCIcOA5EPnHD69BnCwXARoMEIe//990snQEfBqAzugAR95dNPP6Xrr79eOrycdP4MHjyYHnjgQapbt66IjRA5weWQoNehMwIEELfOP/8C0fvi4uKkDhjtwZmmT58u+dEx0aHBqfSE8jAgDB58Pg0adI6AFSIyREwMCOAc9957r59OB10K3M7tniA63eeff0bgTiUBHOqEQQl00HVbDES33347/fTTEuHWn3/+uQBu0aJFhK1r16502WWX+cCGclA/iMqQEsDBQSvow6Ek+OHOa11buNwPDDrMIsDk1EEBQdKhlFVR8kQlh6tZs5YfB/roow+lYw8ZMoS6d+8uBgoQGMaHJUsKIiagrw0fPtw3YuPF4zdEQAUeiE2HDo0ULqleEkQ7dHYACum88wYLN1EGBxhJIJYhQZ8C4D/5ZCZ3wh9p27ZtzA0zZS8Z+A/EN5wPZmVER4f4BQMKEoAJnQ0ce9SokX4AkAzOH+QH54M+CI4IgJcknX322UGf1ahxE+FsEI9huMFAgzpCPIVojXZh0xNoi8EHeTaygQtlh5o6NKwuju8l2zJpaPvaVJ/FyOs5BAzieDSmqAQcDAS9e/eRzgWiQ6yDPgc9q0ePnnTTTTfJS4U1EZxBJXALBRp1rmXLVmJoUYAD14MBQE8AHDqTSjjWR35d//nqq6/omWeelpFclanuU3sADdc8Act1QIQ866y+PrAhP9oGERZtbtu2nSoi6B5GHAATVk+IwTE887o4CeJszZrJQW8Fx1I0xHPArbdu3SJ5Z8+eLcYenR64AKusMh4dPWqHaAUtPMhJTN/pxKCbxxwOfjn43oqykAa5vcKdikrAgVONHz+egVKTvvnmGxaljgq3gF6FER4j79NPPyP6lv7yMcoqk7x6E9CD9KTnV+cD86jzgXtwookTJ/iMIBAPzzjjDLaWduRRfysBjMG4ml4OdD7/5JV7UO/Auvvns39BlAbHDdaOYPmLcw46skoYnHJzbb0TYuyAAWmFBiyVF3sMHOEkuAlS6lWnr9eyMexA9LoDVJsLKKfORMm+Xbt2BFM2Ojk6sg20jdI54Zv78MMP6ZprrvHjXhiRd+zY4adDgKOp0RdNB5hDBZhOqpycbAE/no0ELnHzzbeI+Twpmc3Zn35C3377rc/Qo997omP40OAHhOgGUU2JmsHuQdvADcGB4YdUwED78lmc40r53QawBANmUedxMwYMPAcJnB8itOL+bdjX9he2vp5oUIEeHW6CWJkY52LfXJaEdkWjO0C12X94V2cr+B6dBNwMJmnoAw8//LD43XRlfOfOHWLlS021fXFoEsSfOXPm+EZgOLjT09PFlaCa3Lnz6QJS9TuUvRKZNm3a7MsO8bVfv7MEILEs2m3dui1o5/bdUMQBLKOwZgLIX3/9tVglg2UFqGAJBV06depMdXngUODcv3+/tD3wPhiJlFVUvwZda/36DT466dcgpi9YMF9OtWCHe6tWrVjUbSO/4bcE4AGqoja9rFCPayXGSIzlVo6nzGLfZTSnqORwcAs8++yzLJ70FH0CYtTvv//ux6mgY53GnXX48GFiRIDOhI705pv/FdGsY8eOYjWDe0El6D/Dhg0VS6E6F+oe3KRGjYIJkRDr4LQ+ftw2FEyZ8vYJR/6ingOOO2rUKOHkMP3DSjpixAi/uWp4Fkzu8HeB41x++eViKUxJaS9tgR47a9YsuuHPN/r0H8wI+O9/3yiyTtCHYfaHm0MlgPPjjz+WqTvgbrCmIvXq1Ztatmwp7hCUCXeCAru6F1wPjv7i6F+JzBYwE3zd/ixeM8Vj1jRRRC2rPczSX331JcEEjhcPXQniIqyDSOh0g9j/g8gKRG4sXrxETPkAHDrfY4/9U9wGSvfDPSjnuuuuFxeDsjjifCgJHBf39+7dW9wKCtww5ADQcE+gs2LUV+JWfn6Bw/5kzxgyZCiHS/1Kr7/+H+bmk8SqisEGouaOHTuF4yAyBVwO7hFEmyCBW0OHhCMdYIX4jOgbiISwoqL9GGRskdorHA31BP3QJrhMAN4uHImDNs3hSBJwUeQfOXKkOLfxHAxef2J/Hayr//nPf2TwGzhwILVo0ZKvetnws5d++eUXidaB2wQJdEA9QBuE2GEgUU50yaD9sSyXrN61YjfrizxbIJpTVHK4w4czBTAQn9SGl4AOjciIq666is6/4AJ5LxhpEREBToFOBpEHwMN9SLAMwo8Fsz86UTDDRKDVUm7U/iixbNiw4Rz6tUo4DcrHcxD5gk6dljaQgTLH5xM8cIDnm3n9xSNVjla0HKIj3nXXXdIGcMpZsz6XAQdGINyD56h04ABPYXF+o81//etfadKkScJ9ADp1D4wXd911t3A5+NCOHbMlAAxcoOGtt94q4IFxCoMJEgAKx/9ll11O99xzj+88aDYaYVvsxIcEAV01nUV1SB4Arg1oElEdv5Ef7wpgw/uAxIJInUC/pGoT442S2Cd3PM9LuXn+NFN5omUflYAbPXo0xxd2Fkf1tm3bJTwJwcEtW7bgEb0LtW3X3k90Qce7mzvI0KFDZaTdtGkj35MrHQD6x+mnnyEiEToBUnXuVHAtQBxFguUQIpNK4Kg33XQzXXTRRXIKv6FrQYyFY7pPnz7SwdGhALbu3btxZ0plh/FQHu13yz0tWP9Bx4O42LVrFzkHsfTMM89Uj/Hbo+xbbrlFdNZFixay43mN+P5wPjU1hRC/CAc+REdwF8VJ+vTpKxbbH374nsPK1ssAAy4HLgg9r06d2sKB4LSGoeeBBx4QIwi4KmgJYxT8bAB248aNRQJA+/BcPWFQGDNmjETcwJCF4G0AFGXWr1+P6dNcont0gxSWccB9KFfXv/Vycezi94IVmlvwxNP6vIBQNCe7h52kBWlp7tj0dHdeyuiJM3lY/gNnx5AaC2PAnoNH6M8X9qNJNwzn0czDnYiHozJKohfwaO5h8QSO0GDcKVhVEA7l8eSHdU+wck50DiM5OCM4qALyifKHcw3tRgwkyo/h8iE6o5PffvttYlxBqNvLL78igcaqXEUrYnaB9xZqnfAMiOrYx8Un+A1kquxge+QHDQAwbKE+L1hZFeEcpgT1H/skHcg8xjRwsUgstRIceC3vRRlT3J8onJyovmWHjhPVopjX8BIhIqHDhQo2PAqKe7j3hFtF1Ad1i0RHQ5kQ18Ad0A4kgOyKK64UgIMjwS2CTq+SohXaHk6dABb1rHAMHrgP7Qcdwnmeqm9l3UelSFlZX0ZJ2oUODgMHgrVh4OjZs0ex/IklqYO59+QUMIA7OY2iJgcsfQ8++JBYbTFvzaSKRwEDuIr3TopdI4huiMAxqeJSIKp1uIpLVlMzQ4HgFDCAC04Xc9ZQICIUMICLCFlNoYYCwSlgABecLuasoUBEKGAAFxGymkINBYJTwAAuOF3MWUOBiFDAAC4iZDWFGgoEp4ABXHC6mLOGAhGhgAFcRMhqCjUUCE4BA7jgdDFnDQUiQgEDuIiQ1RRqKBCcAgZwwelizhoKRIQCBnARIasp1FAgOAUM4ILTxZw1FIgIBQzgIkJWU6ihQHAKGMAFp4s5aygQEQqECzh74UetKpj0mM8L8phkKFCZKaCvD1OSdoYJOK/69Infal9YUReJsWeSoUClooCzOhevh5nPjMUT2Melx3u9lv01kxBaHibgyP5gtVYw1gw87luc0yBOI405rEQUwNKKvlSw+LN0+BivVwCXXr9DwRVfZv+DcAFX8CV3Lgfod7ksOpKVI6VafHzSJ/o/3/wyFKjgFLB7NPp4Pn/Qz+J/TsIF4IeX/HQpyU9dK3IfEuB8yLWs/U5JNitleIHDHcnKJiyUaZ80kCuS2uZC1FFArey5//BRXkLe5nIBPfwIg8j+/G0IrQsJcKocBtRW59iGOT8ZKy0fOHyMjmbbXE7lNXtDgcpAActB115eYRxiJSQ6Jync7cn3eg7IuY6r1DmVp9A+NMA5BXnz6XenBJuZ8Y84Xll3z6EjdPiord6pEaHQk8wJQ4EopACWiEfavPsAZfOXXoMBrvFOsj8Y4R5fSoBzCjoe61nHz/a5BlCZWF5nffeBTALLRVIjgvwwfwwFKgkFNu3cL5ZKqFBOUuDaju9u4LsCofT+0Dic84Sc7JqZ/DiADsmPma3fvtc+a/4aClQSCgBR6uM0O/cflo+gOAwPLVTIWx9Oc0MEnM23tk6/K4srsdx5gEK4GE4Wr9kkp72qGuHUwuQ1FKiAFMBXmZB27DtMGZt3UmJ8nHypyamqYMdrWT/id3qaPwNy8hTahQg4Iptl8v1ea6lTitQGdcIosHj1JrFUxhSw3EIPMycMBaKJAko9WrdtD0GkjI+LkS+3Om0Aa8mLdXkWyu8Q9DfkCxlwyjVgkQccDvZRfJfAC2dcQlwsgeUuXr2RT7GsqX0mSU6YP4YCUUgBJa19vWR1YO1FnWJe82vOnjq7Ai+e6HfIgKPpo+Qhmcdr/sAF2vKj7fsW2RYfqpv7y1rnWUauPBHRzbWKTwGIb5DWjrLDe97P60SK0/Q3wQKHeXyxdtYdOTTq/ZhQDCZodeiAg/2RC4Yex/fNw80qwQOfVC2BPpv/K+1n4MF0qsypKo/ZGwpEEwU8Tnzw10vW0IYde6ka629OnxYsoi3MARdgn7ZnVcgcJgzAccnKH2d5P8SDVEJFIN9uZV/Fdz9lyGltNFDZzN5QIGoooKyTny1YSQjO177iCsABYOspvtpsNCg9fbwdgoIfJ0nhAc5RDC1X/A/8RAi2uF/YK54DzvbBnGVQ62wuh5MmGQpEGQXyHW7xy7rt9MOKdSK9YaaAX/J6P894/W+Z4YiTuD88wLFYCWvlmrf+vo8x9blTAamJl8VKmE2XZmyh2ct+k0s4Z5KhQLRRQFknp379o+hwWnQJmmKLj17XO9KuEMK59PaHCbgCf4PLY73BBWXyJtZKQAsVy83Lo1f/973IuwEV1Z9rjg0FKiQFPMwk0G9XbdxJX/64WpiIph5BdGTAWV+smfZQWO4A1diwAUduN3M0r7Vq2riV/OAvnYKEy6Gy1RPiadGqjTTz+1/kknERKFKbfTRQAFPMkF6aOY+D8o9SXKyf703wwsYSZja2EVH2YTQsfMCh8FHT7fs89BT/AtjYLFowFQ4K5ksfz6O9h47yaOEiJRNzHpMMBSosBcAcALevmLN9uWgV1UiMl1neToXRzyFtLs/ISflAzk2/NGRjiVNGuDqccxse5Ha71kwbB7Poe85Zm8sx/4UJ9ed12+jFj+bKJSUTO/nMzlCgwlEATAHMAW6tyVO/EtVIcTu/ylrWo4T+L743vysh/Sgeh9OK5unlj/FPzM3xcTlYdGonV6Np3yym75b+JjJxvuPX0G41h4YCFYYCiik8Me1rQihXjcQEjpiCZUISOJmLf32b0cYzQ844gSD25dD/AiTFS+np4gjf897YHfVOT0tibtuPC5KKoUBMY8jhCXsLft1A/c9oQw1qJ0sDNH9G8Z5r7jIUKGUKKEPJG58voOdmpFMNDuJQgcvOo8CYPJbHumrv8+O3QLqj9IE+NIZTnZJxOAflubmJk1n2hV8OFks/0XL3gcN0zwsfOvocR2IWjBrh1NPkNRSICAWgt8EqCb3tsXe+FqtkwIPynN//EhUKYBPDYUCuEH+WDHDQIbkC66ffd4j9AHfwMx2zqf10iJZgzSs3bKe7np9B+c4UdWNECfHtmGwRpQDUHOhtS3/bQve/MlMMJLE880ULS0R/joWhJDc3YZJUJsRZAUVVvPgipSrRES33vjd2HYuWXJ6Vxpd8oiUqnxAXR2s276Ktew/RoO7tJdhZlFQzlUdR0ezLmAIAG8K30C/HPvWurFqQEB+ri5IQGcGQMlmUvOL39x5YWxJRUjWv5IBDSaumc+W8Vqe6c+YdqenqwmdSeQMrFg4K0CUmsOVy7VbatOsAnc06Hab0QLw0Oh1TyaQypQDESIANzu2xT73HfXJ/oJEEYMMGL8Hta94ZP1Oski+OFXWpJJUtHcChBm7LtfG/7vxaXQZ8F+u1hvOZhrxpnI4IIwhAt3LjDurbuTUlV4clyC8wFCWZZCgQEQpg4Of/IkZ+/8s6uuOZ6bRltw22gFhJ9Ftg48k1U8dPFrAVw+cWrBG2Wz3YleKccxTKjle6u+Rb1v+4iKa8YVTw6YoxLDNjSb2OLZvQE2NHUEqzhj7QGW5XHKKbe0KhAKQpTCjFHLd3vl5MD7/1Ba9QkMdGElvS0spwwGbNyNt/yhiZ7yZ3KseBlrMYh6XH4fBw3VXQ6ZyFzJAv5rPVedM4na3Tbdt7kGYtXEktG9WlNk0b2KZNMHG+yah2oINJpUEBm6vZTu2c3Dx6dMpX9Dj72jDwY0pZgNUcahBW3/riSG7S5Rtn/h/7lwHT0gEb2lO6gEOJ0OfYC7/3vVs31++ctpTRA/GyBm+FQHcsO5c+Z9Dt3H+IOjHHq1kjkVm+R9i+4XYgpkkloYBSV2CJXLByA9353Az6dP4KSqqeKK4AgFFLAjY+860VE3fl+mn3Hi4NI4lWvhyWrkipl47QF5Z721/lPpOtPB/xJYiXzghiZ4RzHE3G8gxntD6Vbv5jf7qwb2dRaJXrwCxKZNPK/A2dArYxjvkS969dvGbqfz6bT1O+tKfaYFBXX3tySkQXhNrDzMf6xJuQMEbmuZXQ31ZUbSMHODzRAV2HKyZ29Lq8MGUq6yU4q+/Z8H0cyzkuuhyiUv5v1DnUrd1p4g9RCqDheEW9QnNeUUAfpMG9pn2zhF77dD4vcbdLpCc4uANESGV1hI3h5bz9tf8iOluEwIZ6+jq9qnSp7x3Qtb7K3SDO43qVZeI/8DP0hsojZUVbrs3BzCyqU7M6jRrYnW69+GyqV6uGAM+2LkW+uqXeflNgxCkAcNkDs63/Q3z898dzac6y30Vakqh/9ruBlWlJWSKxkvg9bI18TkRIZChBJIlWftDDsunBzoiB2eI7m7ruZQSN59rE86b0Ol89wO1y+Us8WMe9eaM6dPUFvWn0eT2oGvvx9BEsaGvMySpFAQAIqwrAyAYJaCOvHfniR3NkMSt8XiqZdTW2TQbjarg1hm9b7fVYt3DI1hxbGsPKdKVnIAn2MnwdPdjF0j3H1h7Mo2O9LuWKiX1YxHyRHw4nOQYnIYB6HioFRTeLQZfLptuOLRrTg9cMob6dWsp5pQwbMVNRrOrtlWgIMfEQf0gGM1Oe5MDjXAYalvrANy9UHoc66GMY4O31VIneopi4u7FciFJ9yoKKZQg4NKcAdO2v+2eylZN1D48od/KFZN4KAQ9iJkAF4MUwYYf16Uy3sGGl3WkNxJIJUQLX+b9JVYQCkHLAgwA0fD5qNk//evaDdInXjY+NlRnaiPTXLJAAmi1xghEyV2PU3f3b1PGz9P5YVuQrn64KEROJZWXbSe6awI2HbgfiYEO9fHUD8EBEiAm1alSjG//Qj65kMRP6HbgdsuIFmFR5KSAdw4lKwiCLFbVe/NgWH+M5TDCRN4AM+bSkD+K8/o73Xzyz5SkJthfbQuRFSK0ucliOvVRxO7vRqaMnwEn+DyYYLJmgm29UQk1RUYiZCMEB8CBmwo0wpHcnjsuMMfodiFRJk27mx4c13pi1gKZxtAi+SZjE4YHoLQHz19B3kDCwM0Njt1SM54E1b7l/E8PIyg6WvZJ4ZPU1qUHAn3IEnFMTjduJmJmdcxPLDPfz1Tq86YSTGyATuCy4EXJlROvdsSXdMXIg9eF9gbWKSYyMJkU1BSA+AjF4l4juf2PWQsIk0Y079hVl5vcbqPnHcpfX+9fV77i/EUKUE1fTX0LF6ZUgBtb4g5h5tbtZfr41kSs6mjcouVB2UVdbFMUBvwS8iENHs+iUpGp0Ub8zaOyIAdS4bk1btGBqGzGTCRWFyTdw4h1z/RFo/AJbH+evWM/GkBheGY4t1sHN/KqP7OTbHmG/2is+vxroEEFzP4oPJVUcwKG24HYau4c1k1eSmMxXzubNb/RCdiTExEHMRJhYo7q12I3Qi8YM7sm6XqKImUrBtnObvxWZAszQZLBknMlgirlqWIgKK2hhvVNMZhYwImNB0qWgbM7wGkcHPprxrnt7QX/iRX8qSKpYgFNE8QGPCcWcLzVhzWgm9Hi+3Io3EBgU94sDBfAQ/Q3gtecZCHAjpHVpI3qfcSMwtSp4UiZ8ZeZ/k8XHZ2bMpjy2RFbn5epwXuVxmoI+gL7g9APrC6/L81DG2+4lBUAre6PIychcMQGnaq3pdylXP1KX8nPhRhjLl4O6ESBiQtSEGwHp/J4d6DYWMzu0aCS/deVbTpg/5U4BPZghhwMeZi38VdY0Xb1ppwANA6nHCWh3KquAZqt3bOb3WJZbVtOCyKj1mXJvXJAKVGzAqQpryi7iMj28jAszuZHOZV2kkFMAHd5K5jG2YvEKTHAjXHV+L8eNUDAvyrnf7MqBAkp8xOQXBKhjXZF/8+LBny/4VVYHwDw1RJHgPWpJf9f7We58Mjcn/gUx81dwoKk2RAfgpLb+boR2oycM4co/whuiVfxGPdU4pd/BfNy5VRPR7y4+u4sJE1MEKqe9Lmls3XOQXv9sAU2f/ZOY+RGOFeC4Ri11oEEfm+J1uSZkvP3QhoosPgYjbxQBzqm+Zs1sOuqpaknxmTfwlQd5a8AbXgzAJ+IG73kQhEXTDhODPtCVZyHcc/m51O/01rYCrjIjo0kRpYBu5keUCDjaVPan4buCmDZzAj1Nvc9FvDrk3yT2ETWNEq6mEzV6e5kGvPaXu5tYMdY4bti1vKmgaLQNL0qS0u8gZmKhz+F9O4n/rmn9UwR4EHGMG0FRq3T3ysyv5jZiNW4EGS9evcln5g+Yo4YK6K6grfx7YqNt3jfS09150Qg0RdHoBZy0wF/MdIKiJ3GjzuHLaJsuisgdSsyENbPeKUl03bC+dN3QPiJmomNgQ0SLSSWnQCA9Ec0/eeqX9O2SDJ4Eml+UmV8HGj6H9goHGT8qQcbgaOI2qjhm/nCpFOWAc5qrvQhMAdrR1DXC8nof5auteCskZuIu5UbAbITOPNv8jkvSZM1MLJ9m3AigUMmSMuFDasAHMmDmf/OLRfIJqJOY+THacb+0PonxesavfMe9nLUEZ6ZJxTPzh0ulygE41WpNpm81anKt+Pjsu/jF3caXVZgY9Duf/w5iJlS3LJ5tjpTWtZ24ETDbHMkGnkvyyAnz56QU0KP5j3LM6yx2WsN5jQ9kYNoMvrcWsCSdn8GLfyzn0L7xGVPcn1QmoCnCVS7ASav8R8OUq93tKN9y86XLeMPoWUjMhBsB6TDrd/ig5DVDe9O1Q/pImJjyE0komeQyf4JRQOlpPDzJAAX97LkP0+nrxWvENYMVspQrQLtffxf7mZE96k1MeNm3pkiUi49aO32HlRBwqm3+wEu90n2u17Ie5qu9ePMbVdUdSr/DbIS2vHTfVef3pMsHnWncCIpARex16yP0tFc+mUcfz/tFvo8N62M+/GlAW0HSgQad7TU28//T38wfvXpaQTMLH1ViwDmN1cRMWeLhVOtavjKRN4SfFNLvQBA12xxuhNTmjeje0YPpnG7tbJQ6HUdZ3Dh7lU26Pw1i+fMfzhEz/75DR4SrBTHz5p7eJgAACDtJREFUK6CBzNjmspn/PvvDnjxAuifwNp6RWfbTZsrqJaLRVSNpbgRZ0CifHmLZ50Zu/AndCFglGrrHBb060l9GDaQWvM6KbX3jbsEGgapDwIJuotqv3Cj41BNmXa/gr97KZFCOEjmJmX89688TVuekTJWviWqDYsFTKudRFesv/qOoM9ucrZnewfx6od/pJml542qUhhsB4pG4EdiVgNkIdserOm4Evb0QEH/fsls+z5u+7DehBayPQfQ0naaYdf0CvicYTeFY0hFK6U8VA5xDtQA3wq5TrQv5ipptXqSYiegIrCYGMfM2diOc3zPVXkNDWzmqlN5LhStGN/PvPXRUJoIiSuTQkWOs48aLoUTlcSqv05FPWR+4OLR41bRxKyuj9THUF1Y1AaeoowFPwsQSjtzJQ/TdfFm5EZATnE8SjJlwJWTzGvXQ7wZ0bUs3XthPwsSQQdwI7DSvTES1zfw2F4eZ//3ZSwVsG3jWNSy6RayOBbCBbiDFIv4xwX/Rnuj3p3G7ipUqU98oFgECR9v2V01qaXk847kwNdscnQfJBzxxIzDljhzLEZ0FMxGuG9aHECam/FDRrt8F6mlq1jVWyUKAsXzfj+VH5HMSDkAr9CnQSmZdH8lNfm3r9LuyCoKMK6f1kdsbUjKA85HJ343AYWIDeLb5P/nyCd0IiGw/dCSLWjSuK26Ea3jh2mhftDbQzP/M9NkybQazrjHd6SRm/jxG4UsVeda175WXw4EBXCDRNYuZ5kYYx9ma8qZGcV+0Cm6H/04tWturQwteon2AuBFwDZ0XKRrcCLqZH+LjfzkU6y3eNvMXQmsnVy9KT0PzhPtzS7/lQeo+mXVdicKx0MDSSgZwRVFScyPYs82PYyUxzDZP5E23vEkJajYC3AhYkHTQmSn8UZKBzqK1EL1s/Q96YEVLuviIAWLWgpX0PJv5Meu6CDO/GnjQGoBtPQcV3J8x5aHp3EosBGWL3xVg0Z6KRusK+PorEokcNwKqxJ3HmW3+CDO6YXwGXA7AQ+fy0VF3I8B/d8OFZ9H1w/tSHeYQulmd7yn3pNcHx6s37aJJb34uq2MhiBuiMQYKXNOSPtjs56vPexOqPeELx0JGAzSNXP6Hvo7if9r88qOAZs3EokbtE1YNY4lpAhMv6GxzcDFMelVuhNan1ue5d3AjdPDpd4ilKC/Dig00cFxsFmFx1Vf/9wO9/91P8jloWB8xhAQx84MsGGDyeJtOMV63LK5qxEfQJaTEZDUpZApowBM3QtyRsSxB/ZXvx2xzfeSXIkFcgApuBEwDgn4HN8Jg9t8hKYumitiQkxH8ozgaQIYNH8GY8tWPoqdt509An8TMj+YAbIt46tOD9uKq/oamCFa90hRtABf2q3Q6mbNobZDZ5oXcCEq/w2xzLGQ6rE8n+tOQ3tSlTVPfLHPFTUobfIEgQ3PVtJn/8hy1nzI2i+UxBDO/zLrmxVXfqmiLq4b9CsvxBgO4YhPff3QPddFauBEAPISJdW/fjMac15POPbO9b5a5AggbIYSdSPXAkUKop61q2fqWOkYgNs7gfkSIvMdi4/++/4UytuwSLicfKzxxND8+WPjccZf3sXVvu3eLQaQSTpsJgbylkiWU91gqD6q0hegWOT5OXesaw6AZz+1txRv6OjienxtBGVYwDQgTMjvwh0kuGdCF+nRqRe14WlAwLgcAKTByeb7EWGQNyirS7QCxcdXGHfTFopW85uMq1tcOET56ibhH1C7IRzBQZ6e+1hc86/r+yjbr2ke8cjgwgCstohdyI+TewXwl8Nt3PosmCA/ug0VOoeNhekvDOjU5TrMhf5ikFfVIbU6tmtSjJAYGYhWDgTCw6jDS4FvpB3hJg994mfC5P6+lJWs20brteyUGFFZHABxJibBOGWpgkGrxn9V8/oHVU8d9zG0wZn6HSKWxM4ArDSrqZfgBzzfbfBRnieUN3E7jIPaN0PHwwUl8ahlfBQIHAhirsVsBESwNaidTfV7wqBZ/tCSJ19fH7OnYmBhZ2h3GmEwOMQPIdu4/RNt4nUdYHcG5cA1lCWD5GYj1xMO1pICmBoLdLGc+cyQn6V++cCxkNmZ+jWQlOzSAKxn9gt+ti5ks8KVcMelsjsCYyJn78waaq46OY3R2Scq4IqIjn8E+l7kWAqUxvwwgwjklBqqlIXAfgGVvACPWYbGXOkDBAdwMp5RFFc/HlskFvxkTS4+vfMu9mZ9caRbtQWMrUgKxTYoUBTQ3gr2aGA3lvnwHE32Q9sjAzq9dYjQ4wIHZhA+LTIxDRrEd0QJQBiR1AhwWpSiQC9BcXtdLVX3aTAC9IvbzBK8wYs+segXrHI+PUzJc/Znj3cSEOJ83TAUCIPAusFcABChK8n4ALmxIEGd9iQtdzdCczlLpf2yOxpf0OvpymoPSpkBJXmhp16WSl1dYTHOmAp3LKLuMX0RPJgC+CqQnpfOF854A2kCwopztvH3GBzOthMTvJRQLT9K4MH6aFFkKhPMiI1uTqlS6XydnILIl0PnqKzhed94QMtaBt0AA8qmQEzuqraXM5FZ5yJp7LDc5XQwhcnth8IdcqslYIgoYwJWIfCW82Qc8/xnQCBurkXi0kZXnbcSiZyeWNFsxeBrz1pCPqzMLq4kn88vL4R22fbzBwriZr62N9Xh+y/PQ7owUngTqZ2E0QGM6mWQoAAp4LRhWsJUePewyEXCN8kuvXFNScSlgXkJxKRfR+xgcWKMRIVSI2Qwn6fdU8jUewyGLyWsoYChgKGAoYChgKGAoYChgKGAoYChgKGAoYChgKGAoYChgKGAoYCgACvw/PJC46BHLUuoAAAAASUVORK5CYII=;" vertex="1" parent="1">
          <mxGeometry x="629" y="455" width="73" height="77.65" as="geometry" />
        </mxCell>
        <mxCell id="V8Acjl_ElyFGZNs6vDOT-15" style="edgeStyle=orthogonalEdgeStyle;rounded=0;orthogonalLoop=1;jettySize=auto;html=1;" edge="1" parent="1" source="V8Acjl_ElyFGZNs6vDOT-14" target="V8Acjl_ElyFGZNs6vDOT-16">
          <mxGeometry relative="1" as="geometry">
            <Array as="points">
              <mxPoint x="521" y="594" />
            </Array>
          </mxGeometry>
        </mxCell>
        <mxCell id="V8Acjl_ElyFGZNs6vDOT-14" value="Admin" style="points=[[0.35,0,0],[0.98,0.51,0],[1,0.71,0],[0.67,1,0],[0,0.795,0],[0,0.65,0]];verticalLabelPosition=bottom;sketch=0;html=1;verticalAlign=top;aspect=fixed;align=center;pointerEvents=1;shape=mxgraph.cisco19.user;fillColor=#005073;strokeColor=none;" vertex="1" parent="1">
          <mxGeometry x="384" y="586" width="50" height="50" as="geometry" />
        </mxCell>
        <mxCell id="V8Acjl_ElyFGZNs6vDOT-16" value="" style="image;aspect=fixed;perimeter=ellipsePerimeter;html=1;align=center;shadow=0;dashed=0;spacingTop=3;image=img/lib/active_directory/generic_server.svg;" vertex="1" parent="1">
          <mxGeometry x="518" y="547" width="59.52" height="106.29" as="geometry" />
        </mxCell>
        <mxCell id="V8Acjl_ElyFGZNs6vDOT-18" value="" style="shape=image;verticalLabelPosition=bottom;labelBackgroundColor=default;verticalAlign=top;aspect=fixed;imageAspect=0;image=data:image/png,iVBORw0KGgoAAAANSUhEUgAAAcwAAAHMCAYAAABY25iGAAAAAXNSR0IArs4c6QAAAERlWElmTU0AKgAAAAgAAYdpAAQAAAABAAAAGgAAAAAAA6ABAAMAAAABAAEAAKACAAQAAAABAAABzKADAAQAAAABAAABzAAAAAA53dneAABAAElEQVR4AexdB3xUVda/k94mjQBpKGISQHYtIKko2FZdiqBg2291VbC7u5KCZVV010oSrKBi19WVTgBRFxGUJCShuEpNAlImkwRInSSTOvOdOxBMwpT37rw677zfDzLvvnva/773zrv3nnuujuCBCCACsiKQ//FPccGDz7+b6IiXM0WshPTours+uW9q5FFn9fAaIoAIiIOAThy2yBURQATsIjB8UkD0kLHzQuLTo0Lj0h+2W4djoc5KfqoqzV2tI9b11aULt3Mkw2qIACLAiAA6TEbgkAwR4IpAzPjMf4QMS4vVx6U/wJWGpV5DRcFSc3358prS/GUs9EiDCCACzhFAh+kcH7yKCLAhkHC9f3Tk6Mdik7PugKHWEWxMmKnMxpLcl1uOFi5rqSnZy8wFCREBRKAfAugw+8GBJ4gAOwLhCdMuCYhMmBaROHV8YOTIyeychKM015WXNlQWfNXesP/7xoqvfhCOM3JCBLSHADpM7bU5WiwwAjEpmX+OTs68Gx6mSQKzFpidrri6NPfL6pK81wRmjOwQAU0g4K0JK9FIREAEBEIT/5hyzsQXPxs0+pZHwVkOF0GE0CyHwTzqdSFx6TE9bca9HU1HG4QWgPwQAU9GAHuYnty6aJsoCOhjM0bGT3p+aeCgpAtFESARU5OhaHPV9oXZbccKMcJWIsxRjLoRQIep7vZD7SVEIDAuJT4+OftTfXz6JAnFii6KOs7qsrz5LYbiLaILQwGIgIoRQIep4sZD1aVBIDo1a1JoTOrTsHbyCmkkyiMFEiNsrinN+wDmOD+VRwOUiggoGwF0mMpuH9RORgSiL828Xj8sLcfTepSuIKU9zto9H81rLl9X6qouXkcEtIQAOkwttTbaygmBiKTJl0WNues5rTnKgeC0GIqeq92e/0nTsaKDA6/hOSKgRQTQYWqx1dFmuwiExqdFDh2f9ZY+Pu1WuxU0Wmib4yzKv6Wltui4RiFAsxEBGwLoMPFG0DQCfpEJF0SdP/3q0ITJdwdFjbxI02C4MN5cd+CXxoPrP6irWP1tZ30lZhBygRde9jwE0GF6XpuiRRwQCBmWfnnS9OX/gqqXcaguSRWrjvy3eltuoT1hsSnZYwmxTrN3Taayrbs/n3hvZ13FPpnko1hEQHIE0GFKDjkKlBMB2qMc86cf3oIbf5KcehCi+9lYsmCll4UUGLfn7+KjS3Bc+sX6uNQbYlOybgK63/OhFbouDNe+XrFq5t+E5ov8EAElIoAOU4mtgjoJjkBQbOrY+JTsm0Pi0+YJzpwbQ1tCdEK8tteU5q7nRsKtVnRK5tP62LQr5AxSaq4qfBHS7v2n1VDyMzetsRYioD4E0GGqr81QYx4I6OOSk4Ymz8uGgJ7ZPMiErFoHO4e8AVtuPSskU3u8whImzxpx/ZI34KEeau+6FGWmqqLFNdsWfG4ylmyVQh7KQASkRAAdppRooyzJEAiNy0gdmvzordDrkm240HSs8NWjhU8v6jixr0Iyw0FQTHLmE5AQnkb6yjZcC0O1C6q2Lfiyrbpkh5S2oyxEQEwE0GGKiS7ylhwBGHKdCBs2z5d1eNJQtKRy1cx7JTd+gEBwnNfGpGS9CcFCCQMuSXZKN7X+9ev7b5FMIApCBEREAB2miOAia2kRGH3795AQfeQsaaX+Jg1ysb5cvuqmx34rUcYv+hGRNGP5SxBolCqXRjUl+Y8ZS3Nflks+ykUEhEAAHaYQKCIP2RCgCdHD4jLugYjR+XIoAflX66tLcl+XYo7SXfuo44wdn/UQ/JXto4IGB53c+dYrjYc3N7prD9IjAlIjgA5TasRRntsIhIX9PiJw5LWzIxImp0OPcrrbDBkYtNRs/6qhYt3SEz+9+zEDuawk4YmTb4w4f9r0iMSpf5ZLEUiCsKzh4NotNSUF7xFS2SGXHigXEeCDADpMPmhhXVkRsM1PXpp5r35Y+u1yKULzq9aULfis2VAiaSCPWPZGJ8+9A+Y574IXwSSxZLjiW1+59sPDG+6721U9vI4IyI0AOky5WwDlc0Jg+PXv/DsyYapsjhKWhsw315S+3nR0awMnhVVWie7MEpua+RjRkctlUr0aMH5HDUPbMuGDYhWAADpMBTQCquAQAS/oAT0l1/wk1Yo6yqaqwvfNVSUGh1p60IWY5KwZIXGpf5UxyrgdMH8JHacH3VQeZAo6TA9qTE8yJXH68n/LOfRq3Jb7dE1Z/j89CVM+toQnTJ4GSRDW8KERui5dx1qxetZc4AuxVXggAvIjgA5T/jZADXoRGDPGLyHp2TdD49Pn9BZJ/RfmKL8/+v1Td7U37jsitWwlyoPe/V3Qy38DdAuWS79mQ/ELlatuelIu+SgXEehFAB1mLxL4VzYEaEL0cye++C99fMYMuZSgvRnD9vxcs6G4Si4dlCw3evzcB2JTs24DHWXb3aW6JO/J6tK8F5SME+rm2Qigw/Ts9lW8dSOuf3dxeMIUui5wkBzK0qjX6tJX/m2qKi2XQ77aZEKi95mQ6P0hGec4q8FxLgDHuVBt2KG+6kcAHab621CVFsAw3zMw3Ed3DgmUwwAazNNmLH4Dhvvq5ZCvdplDk7OujEyY/Dqsgx0jhy3w4iqv2pb7mZbnmeXAXesy0WFq/Q6Q1n5d4ozlC+VMiN5eV/753s8n/Ulasz1XWmxy1j3RKXMh+YB8B/34waha+fDXkmR0mFpqbRlspVl5yOBzroaUbI8ERo2UZf6rre5AWWPl2vX1B9cu7ayr2CcDDB4vMvL8P14XlnDDXyKTpmZASGu8HAabTx5YVVuW/wokQtgmh3yU6fkIoMP0/DaWzcLzrnv3vYjEKffIpUBLVdH75T+//xCp3ICp1yRshFPJ3ld8BCKHSyi2r6jDxuK8B2u2523oW4i/EQF3EUCH6S6CSH8WArEpc++OTs56/6wLEhWYDMX/Ob5j4YOempVHIhjdFhOdmjUpdnzmEhm3F2uu3pb3YHVZ3r/dNgYZIAKAADpMvA2EQkD2rDwNFWuX/fr1Rlj6sKxHKKOQj/sInA7woht5R7jPjYWDzmgsWfAuznOyYIc0fRFAh9kXDfzNG4Hw4ZPCA4aM/Zuc6etMx4q+qd6e9yLsR7mFtwFIIBkCsJbzKVjLSQOuRkomtL8gMwQIvYyOsz8oeMYdAXSY3LHCmn0QCB5y3tC4jAUPhsSnP92nWNKfNCsPjLk9V7Mtd7OkglGYWwic7nHS3UnOcYsRIzFsLban4dD6h/G+YQRQw2ToMDXc+KymQ2/yVnjpwdwUCWHl4Q6dyVBYYCjLfxCz8riDovy0p+Y45+aCJuNk0uZw+aqb/oIjEzKhr0Kx6DBV2GhyqQzr7R6CdXevgXxvOXQwGYo+qCjLe5gYis1yyEeZ4iAwNPnRe+JSsuVcy7m7qiT/b7WluZvEsRC5egoC6DA9pSXFsiPhev/oyNGPyTlH2Wwo3HR8z8ePN5evKxXLTOQrPwKQdu/p2OTMx0GTAHm0weAgeXBXj1R0mOppK0k1jR6fdXPgoMSZEYlTaZ5XyQ/bPFPl2mUddQdWNBxcv1tyBVCgbAiEJUyeNShh2lXhiVPpPKev9IrojLW73vmifu9nr5rrKzWxD6r0GKtTIjpMdbabaFrDF35OTErm/ZCt5TzRhDhhDMOur0MU439MVUXFTqrhJY0gACMbNwxNnpsNL6oMOUyG+3Fzq2Hb88ay3I1yyEeZykJAlrkoZUGA2lAEwFE+knjjimUQ9ToTTiVfL0ez8hz+7u9zwVm+3Wk6psWveq+3Vq159pnX3/zOCseu4qIteGcSAh9OB2pK8z7QWa37T9+bksLiHzpsOGQuukMflzbRLyy+paWqGFMrStoCyhKGPUxltYfk2sSMz/wH9ChvhxQWoyUXDgJh6HUN7DjxHiQdWCeHfCXIvHLq1CtffO/Dz0CXmF59dhQWbV6yYMH8XcU/ouPsBWXcON9o74lPyDmfTnucLYbCl6vLFn7dqxb+1Q4C6DC109b9LD29Fm5+v0JpT3ZDSP/DWg/pX7RyzcfjMjLucAQ9dZxvv/3mlJ+//bbVUR0tlsckz70vJiXrdbDdTyb7G3/96v4pDQcLCmWSj2JlQAAdpgygyylyaMqjt8YlZ38how5by1fPfLLlWNEPMuogu+jZ2dl/nJM1bz1XRZYseOnP7+Xm0l4oHn0QgNGRv8UkZ+ZDkVefYsl+Qo/zu8atb04/cWJzi2RCUZBsCKDDlA16aQWf3rfwzyB1orSST0mDF8sXkAT7Ha33KC9Ju2zi26tXvQyopPBthx2Fhevfy1/wzM6tW3fwpfX0+nB/3x4clzoH9lqdJIetkJ7xK0jP+IrW7285sJdSJjpMKdGWQRaNeoX1bTeDaFmyqZiOFb5hi3o1FhfJYL5iRF4yYcJFc+ZmPwfDr9PcVWpnUeH8B2bc8Ky7fDyRfsS179wenjRVtt1JMF2jJ95Vv9mEDvM3LDzq1+msPNlg1LmyGGYlhw5+fe+8psp1y2WRryChs7NynpmTnTNfWJV0h5YseOWZ93JfxmHaAcBGRqaE+iVkPCpzcNC3EBy0EIODBjSOyk/RYaq8AfuqTxd8w9DUTYGDRt7St1yq3zTZgLn+QEFz5YbP6ivX7JVKrlLlXDlt2qy/z/9n3tC4uGEi6lj97isvv72xYPWyIxUVuORhANCQeGNK+PmT/xyeOG0ivOyGDrgsxekR47b8HNPhDT+0nthTI4VAlCEeAugwxcNWMs6xKZnXhJ0/ZSE4yjGSCe0jyDYMVVW0GIZel/Up1uxPCOi5BQJ6PgEAJI3g3Fiw5s4n59xD5eJhBwEIDnoUImuzYEPrWDuXRS9qNhTlG7fn/6ftWFGZ6MJQgCgIoMMUBVZpmJ7e7YEOeQ6SRmJ/KXRNGjjJJzArzylcTgf0vAVnsny4UC1s6zfzX/n7rq1b/3dKK/x/IAIjrn37rvCkaR8MLJfqnEbWVhcv+GtLTYnmR2GkwlwoOegwhUJSQj6QKmxKXEoWfTHLsp8gyO06+PX9k5sqCv4rodmKFTVr1izvSbf934ZLMzKuUYqSEFG78sEbb7hJKfooUY+kGcuflXM/V/zgVOJd4VwndJjO8VHU1dPJBmggT7AcikF+2dLq0rwFNSV5mg/kOY2/btHKgvnjMuTbRNvVfQCBQfPfy33lWVf1tHydPlfwAXqnjPmTN9fu+Wge7saj/LsQHaby24jAAz0LIv7eBFWHyKEuvEg2V5fkfQQ5PT+WQ74SZV41bdoVs7Nznh2RNOoyJerXVyedjmy+74YZmGavLyh2fp/+IL0fLkXbuSx6EcQCPFf+y/svkMoNHaILQwFMCKDDZIJNGiJI+jwxZvzcJ/Xx8gz10SEjU9W23JrS3PXSWKwOKeIsExHf9h1FhRvffumFu34uKdFicnvOAENw0BOQQeg+IJBlysNYkjvfdPzHd1oPl2FULedWk6YiOkxpcOYlJXZ81tXRqXPfAKJRvAgFqkyXhxzZ/PgdbcZtOwVi6RFs7snOvu7erHlfgTGqfm7unz5jEiZ1d31LJsxYsSQ0Pm2265ri1MDgIHFwdYerqh98dwxXIu3pqFe6NCNKLv1g6PVJmKd8QS75SpR7aVraJW+tXkuDrNKUqB+LThAUtCl/ydt/rNyAw3+u8IPgoBchOOgxV/XEug6Oc52h5OUHzcayY2LJQL7cEECHyQ0n0WoFxYwdN/Si++bBAutJIGSwaIIcMIYbwFBfufbD+op1W5sq137roJomi2Et5dwrp025ZcTI0cmeCsCh/ftXbVy79sP3c19e66k2CmUXTQwSmXDDtRGJU/4CPCXfS7ilekdR89HvX8X1zkK1KH8+6DD5YyYIRUhM6uiY1KxFciWLBiMOG0tzH6opyadDjHj0QeCKG25Ieend97f1KdLCzzoYqr0Jh2q5NfXpQLyl3GoLXwsChF4qXzXzceE5I0dnCKDDdIaOCNdOz0/+A1hPFIG9S5Z0frLh0PqHa7blbnZZWYMV1BrQI1RT4cbV3JHU65OigkdPeUjOnLU0srZ2x6sfNx3deoi75liTFQF0mKzI8aSLHp91sz4+9QEZe5QmiL7Lg+GcZ3mqronqszNzZs7JyaGJzP01YbALIzeuLZj75Oy7F7qohpcpAvFpgdGxaTlyOk6Y58yt2r7wy7ZjhduxUcRDAB2meNjaOEePn/tAbGrW7XAyQWRRjth3gaN8Hh2lfXhoOrs52dk0+cAk+zW0W0qXoXzwcu787dt+LNQuCtwth4jayKDYtEfAcT4FVJLPcVJNGyrW/evXr++l8vEQAQF0mCKASlkGxKSfe94VL6wMHJQ0ViQRrtgeN5bmwRwlZuVxAJTXolVrvhqXnnGtg+tYfBqB7YWF/33oxhv+gIBwRyA6OSs7NmXuK9wphK0Jid4fr1w18yVhuSI3dJgC3wNBMSnj4lKzc2UberWSfbUluY9UleV/J7BpHsNu0YrVs8dNmLDEYwySyJD3XnnlgSV5r7wtkTiPEAMjTH+BEaYP5TKGJkHA0SXh0EeHKRCWNCF6aFx6plyO0lxX/nND5bonMCuP4wa9JD393JyXFnw8YuRIWQKuHGumqitFS16B/LR5r2DifY7NNnTohcGhac/M0w9Lk22o1BYctD3/k6ZjRQc5qo3V7CCADtMOKHyKaNTr0NS5TwKQk/jQCVkXvyJdo3lPZvbT9+bMe9Z1TazBBQEaTZuX/egdBw8exMX0XACDOvrYcVHB8RNljaq1vSsqCxaS+spmjmpjtT4IoMPsAwafn5EJU1MH/f7OF+XqUYKuLXDzQ55XjHp11m53Z2f/4b4sm6NMdVYPr/FH4NCB/Xtemff4Q7h2ky92s7yjk4f9Q7aoWpi2gWxer8M/HF7n2XToMHkARucnY1Oys0OHpd/Cg0zIqnurS3I/ry7Nf15Ipp7G69L09N/dDU5yXEbGjZ5mm1LtgVR7b73/+sL5OzZvPqlUHZWqV2xy1rzolLlPgH6h0uuoq4QEJp9CcOBz0stWn0R0mBza7NSuIZl3QG/ybg7VxaiyH27qNyErD81niocTBLSeeMAJNFJc6j69/yZ+0PFE229Q0qhzJ77wV31c+gM8SQWpDlv41cPH+Os4YuUcTnSYTvChjjJxxor5ANIkJ9VEvdR8rDCvcvWsLFGFeADz30+YEPHECy/9OGLkqDEeYI7aTehcsiD3+vdyX9qkdkPk0D/xxmX/1Mdl0GxgshzNhuIXKlfd9KQswhUuFB2mnQY6vWsIXUM13s5lSYpMx4qfqlh9078kEaZyIbOz5z02Jyv7RZWb4YHq636YeXn6bccOHDB6oHGim5Q4Y/krMKqVLbogBwLKV900qcVQvMXBZU0Wo8Ps0+wh0SkXxKRn3Sbj191hCOT5CIdF+jSKk59zsrJmzM5+7N9QJdBJNbwkLwIN7y1YMG9J7su47pWxHSDR+zMxKVl/hZd1JCMLZjIYqi2t3pa3tKYsL4+ZiQcRosOExtTHpmYMTc26FdZRPixT2243luQvhTWUC2SSryqxmM5OVc1lUxaTurvfZsOveyc/MnHqo+5zYuGAwUEUNU07zKDY1LFxEPWqj0+7leUWEoKmoXJt3q8b7sM5Sm5g6hatLKB5X5/mVh1rKQ0ByE/76oMzbpDppa80NPjrExyfcmHM+JxMyFt7B39qQSh2QfDhlxCE+LIg3FTGRJMOM2RY+uVJ05fTSD65EqITnFjn96TcnZNzxX2ZORhEwg82xdZ+b8Erjy3JfUWTL12hGiVh+rLc0GEZmULx48tHiwlTNOUw/SITLhjzpx/eAqMn8b05hKoPSZHzISmybDe5UHZIyQd6lR9Ar/IuKWWiLPERgOfwl/umz3gEEx+4h3XSjcvmh8RlPOMeF2bqvRUrbrzXZNxWyMxBRYSacJh0YXDo+VPSg6KSpsnRNg0Vaz9tOFiwurFi/Uo55KtR5hVTplx0zQ3TH79q2nS5kkSoETZV6vxLWdnWpYvffODb9et3q9IAhSgdljBl5tCL7707JObS66VXSVfZUFmwpqli3Yf1lWv3SC9fGoke7TATZizPC41PnysNlGdLaSxf++qhb+7D+ZqzoXFYMjblsgsXFaxcpCO6DIeV8IKHIqD74aEbp90L24kd8FADJTEL5jcThl6a+aZ+WLpcW9ftrFgx42+wY/1WSQyWUIhHOszY5Myc6JTMFwBHWTZxhd3Pn2/4ceHLJ08WmiRsS1WLGpuaOnpOzuPPjc3ImKlqQ1B5txHYUVT0+XuvvPjMzuLiSreZaZhBZGRKqF9CxqNy5axtNhRuOl6W/zjEa5R6SjN4lMMMjku/ODZ57kK5EqLTSXDT8R/faT1cVuMpN4gUdlw5bdqsF5d8sFQKWShDPQicTrP3rHo0VqamwcPHR+uHXHafXI7z16/nTGmoWL9emejw08pjHGZE4uTJ5123ZB0/84WpbYsWa/3mRbJnT6cwHLXBZdy4cWHZC1/7/LyRo/6oDYvRSgYEdr27YMEz7+e+vJaBFkn6IjBunG+098Qn5HCc1SV518HuKN/0VUeNvz3CYdKcr0kzVmyWuAEsxm15j0AGjEUSy/UIcfdkz8u5NysblxV4RGtKYISVbE+JjpItVaUEFkomIihqdEzcZf/8CEbi/iCZUBAEU1WbK1bNvEJKmULLUr3DTJy+4h+wk/k/hQbGGT/a8Ec3PTa7o6kSdy93BpSdazRLz9urV9HhmWA7l7EIEXCGQBskdZ8MSd03O6uE17ghEHbOhIih4/6+IiQ+XUontmvnG3+DD59lPdy0VFYtVTvMpBnLN0nZ2C1Vhc/Wbn/tk6ajWw8pqxmVrw2ms1N+G6lFQ0yzJ2xLBQ3LiA2NSZkj5VCtWhO7q9ZhQib/76UK7qFZeeq3vPJyfX1Js7C3qja4vbVizfxLJ8i2sFobIGvQyp1bt370wE3T7wHTLRo0X3iTx4zxiw6+9nGpHKcanabqHCbN1nP+dUuWBg4aKea+hz2QbGBlfWXBMnLi6Mampl8ahL87PZtj/JgxkTfdctvDt993P81A4uXZ1qJ1ciLwXcGapRsLVr+zae1aTJ0oREPExweGBVw0BRK+5MB79lIhWDriobb0eqpymFIE95gMhcsrVs2a5aiBsdw1ArOzcp6ak53znOuaWAMREA4BOlT7Us7ch45WVu4Vjqu2OdF3Lqxr/3NIXDrtyYtyqCkYyFsUBERgSrP0j5yxskQE1jaWkON1w9Fv595TXZaXK5YMT+c7OzPnmsWr13w2LiPjDk+3Fe1THgKx5wwbfvM99/zRSrwO7SoqLFeehurTqLPZcKRu39KCJkPh2oDQYQ1+ocME37DCP3TYcIvVur/VWLxH6Qippoc59pGqYtiNLFVoQFsMRZ/V/7jwQczKw47sRRkZY95dufptaB/BHyZ2rZBS0wjAMpQHZ05/eMfWraJ9ZGsUX13i9GX5+mEZfxfY/oqdb8QmCcxTcHaqcJiw4/g8mIh+SUjrIZDnvcpVN90LPGFTcTxYEVi0quA/49LTMUE6K4BIJyoC24uKvnpoxrQpIASfc4GRTrpx+XtCDtXC0Ow6WKc5VWA1BWWnCoc59hFjK1gdJITldLy8tnTh481VhduE4KdVHpjOTqstr067t28tfPahm26Yr07tlat1eMKUSSOuf/d7oTQ0luVfUbMtd7NQ/ITmo/joRdhx5F0wWhBn2Vi59hWaaQKdJfttNGbSpJDFKwvyMfcrO4ZIKT0CdFlTSe2JQ7Ozs3F+XUD4GyvXba5YOX0k7YgIwTZ2/NzvA+PT4oTgJQYPRfcwY1Myr4lOzvxWCMNNx4pur1g98wsheGmVB6Szy4J0dgu0aj/a7RkIHDpw4LvbLs+42jOsUY4VSdNXvBUyLO1BATQqgvlMRW7vp+go2aQbV2wA8Ae52wB0gWxNab4sidnd1V0J9DRLz5odO38Zl55B54LwQARUjUBEVNQIWPb0tFVnLd1VVIRbiAnUmnX7l35ltVo26+Mz/uImy2HQkys3VRXvdpOP4OSK7WGOvv17mpzArfWQ5roDew5+Pefmznpcl8Vy58B6ymeugq23RowcJWaSCBbVkAYREASBQwf27/muoGDZxnUFHx/ev/+wIEw1zkSg5DInD294YGJ95RpFralVpMMUIkGBmhbDKu35mpOdfdPsrHnLlaYX6oMIiInAjsKtuQ/eOD1bTBla4u1u+lIlvsMVOSQ75s7SpeDJmSd+lQi0Gh6UcZddFvPUq28unHLrbYIu4VGD7agjIhB7zjnpMFQ736rTtULigyJExD0E6vcv/TgkLm0STUzAwonSwbB5WUtVcQULvRg0iouSpb1LcJbJbhjbAfOVT7hBr0nSOZnZ/1i0fJVxXEb6bE0CgEYjAqcRoIFtX/xQuBQBcR+BqpLcTODCvGmFPjZdUT1+xfUwz73q1Y9Yv0ho89aU5v0RUjltcb+ptcHhnrk5Vy1evfrTcRkT7tSGxWglIuAaAQgMGgNTE3darbr6XcWFP7umwBr2EOgyGaqtxOrPurMU9QVN1duWdDUfM9njL3WZouYww4dPCh8x9XPmnUFwKJb77TMuLW3UotXrYI2r9TLuVFgTEdAkApX3T58xe1fxj/ghztj8kHyGOdMSvNdfg/XzQqfiY7JEUUOyAUPG/o3JitNEFau+xLVVHACEdHb/XrR67T50lhzAwiqIACEJb69etXnRyjWbJk2aFICA8EeAbuPFn+oUBfRO3fILrHLt0SnKYcalZN1uT0kuZea6/Z8SsqyHS12t1qHrKb/4YetuyP3KjLNWsUO7EQHYheeKl79cbn5rZcGLY2CzZUSEOwIQV/Is1GbuocPenIp4ZynGYdJgH+izM2erN5bmreXefNqqOW7cuKBFK1cvoF/JuKZSW22P1gqPwKUZ6Y99sGlL7ZVTp14vPHfP5VhTkvcqq3XBcalzWGmFpFPMHOaI699+NTxhGmvX+wikUhouJDCewOvqadMmXzX1hpuvnHbDzWAPDiV5QqOiDYpCwJb0YO3qZZsg+YGiFFOoMqNu+35ZUNTImSzq7Vx6SQipraUbcch2KMZhujMpXF2ad0d1SR4MyeJBEaBDrxDhNx+WiExCRBABREB8BKxWsv+93NwH3st9abP40tQrQR+bMiHxplU/slhwcMOcm5sq18v6YaKIIdm48XOvYgGwlwadZS8ShMD8ytt06BWd5W+Y4C9EQGwEdDoyak521veLV67eOG7CBNxI3QHgJmPJVrjU7uCy0+KAiJGy+yvZFaAI9egI8w0GG0F/4hRljVyE4dcbS2pPWmF+5T6NmIxmIgKKQ2BsxoSrFq1Y/eOilQVLFKecQhSCiFmmTGJBkSNnyG2CIhymPjaNeUeSFkPh93KDKLd82qt8fskHK+TWA+UjAojAKQRoxiz6ATsnc961iEl/BJoMpR/2L+F2FjAoKZRbTfFqKcNhDst4hNXEmrL8j1hp1U4Hu4k8ib1Ktbci6u/JCMzOyf560Yo1L+AylN9a2WzcevS3M+6/YPcq2aOSFeEwuUN2Vk3mHIVncVJRweysx66E3eN/hETR/1KR2qgqIqBJBMZNyHicLkOBD9y/ahIAe0ZbSYm9YqWXecutYETS5MsiEqbdxaIHzF/mQUb8TSy0aqS5aMKEpGdefePNKbfeuoAQ3TlqtAF1RgQ0ikAAJD64fmz6hEnGo4bDNYajRzSKg81syC8bx5Rf1mo92GIsli23r+w9TP/wkdGsN05LVWEnK63a6CAt16fvrlh9AB66W9WmO+qLCCACpxCg0eun0uwVfJ+SkjJUq7i0Vm39gsV2/bC0BBY6oWhkd5gQ+XQjqzFdjeXvsdKqgY7Oe9yTmfPngp3/OwqO8v/UoDPqiAggAq4RoI7z9YL1NV9s2foVjXB3TeFZNUxVpeUsFoXEZTzJQicUjewO0z8yiSkDDWRcKK8rX1clFBBK47NoRcETMO/RcW9OzidD4+KGKU0/1AcRQATcR2DEqFHX0wh3yPH8v1mzZsk+Rea+Rdw5tFQVvc+99pmaPmS4fAnwZXeYEPk0/QwUPH7AxqSf86iumqo0Sw9EvjaMm5D+vGqURkURAUTALQQgx/OFWW8u7p6dPe8BtxipiLjZUHSMRd3oIWPnsdAJQSOrwwyNT0lkNUJn1XnUziTUUcJi5+/p/AZgEs6KC9IhAoiAehGYk5W9CD6Yq2dn5lyjXiu4aQ7ZkXZzq6mcWrI6zKDYDOYtW9pqS95SDozuabJ41eq3MJ2dexgiNSLgQQhEz8nJ+ZZ+QNMPaQ+yq58p1SX5TMlWYlOyZZvzldVh9kOP30lD09GtDfxIlFf74rS0dDp3AaHmDypPO9QIEUAE5ESgN6IW1m8+I6ceIsumuWV5HtYLeRIIVl1WhxmTksW0kBdyEb4mGAIyMaK9yndWry2kcxcyqYBiEQFEQAUIQIKS+TSj11VTpqSpQF1eKsK7fCMvgtOVY8ez+Q4WWX1pZHWYEOka2VcZLfy+Z27OVfTmx16lFlobbUQEhEPghfc/KoL12G8Kx1F+Tl5EZ2bRwqKzRLDQuUsjm8McmjI3lVX5NmOh6iJk787JuaKktm7LvfNymL6oWLFCOkQAEfAcBGA99kPwwd01OzP7CU+wylia9wqLHbEpWbL0tmVzmDorYc7i32woqWABWQ6acenp5y9aVfDv+zJzIIWf9XI5dECZiAAi4FEI+MzJmfc8fID/QPNKq90yuqaewQZm/8Eg6wyJbAtlk25cQRet8h6SNdcd+O7kLx9/csYChf44JyHhgjv/+vfHHs/N/yJ22LDfK1RNVAsRQATUi8C5EBh051XTpv4hMjJKX9fYcLTp5MkWtZkDeWUHqSWvrGw9TGjU81katvHg+u9Y6KSimTRpUsDiFWteXla4bc+fHnhwrlRyUQ4igAhoE4ERI0enz86Z9+rSzT8ar5w2bZbaUIB5zP+x6GzVsfkQFlm9NLI4zOiUzJm9CvD921Hxo2LXX87JzP7by18urx07ISOHr11YHxFABBABdxF4cckHSxevXPPquHHjwtzlJRU9zGOuZpEVl5Il+ceBLA6TWK1jWACiNPX1Jc2stGLRnU5nV0e/8kBGqFhykC8igAggAq4QGJuR8bdFX33TCGn2HnNVV83XrYQw+xFWu2VxmBDhxDRUabWSr1gNFYPukssuG9wnnR3v+VgxdEKeiAAigAhQBCDN3osQUdumhmxBEJvC1MsMjJ0g6b7AsjhMaEumXlh1aW6pUh4FyL5x19vLVx2n2TiUohPqgQggAojAAAQCe/ffVLLj7Kgvrx2gN6fTsPjkuzhVFKiS5A4zNiVzAqvu5prST1lphaKD4Y7URStXfwPZNz4QiifyQQQQAURATAR60+y9tWrNcyAHVnIo66irLGAK5oS8spdJaYnkDtNitV7FaiDkjz3ESisEHc3pCBPqxeMyJvxBCH7IAxFABBABKRG4ND3jKchf/culGRkjpZQrnix2f8Kik+QOMzQuI5BFUaA5wEjnNhldHEzT2dGcjm4zQwaIACKACMiIAOSvHvPWyjX7aUIVGdXoJ9p6/DBTD9PGJD6N1af004HLiQ+XSkLWCYlPY9r8E5L0fiGkHq54nXfe74ZeddMf7wcneTPUvcBVfbyOCLiDwE8HLKTNbCV7DkLs34AjMICQ0ed5kYtH6Yi3l+JG0wZoi6dqQQCykN0OHYHbNxWsWbBp7Zql/y0o2C6X7s3Ne+qJlRyCweIRfHWIjk3LqTEUP8uXjqW+pE9fTErmvTHJme+wKGosyZ9SU5q7noWWLw0kOP4IcjbeyZcO6yMCfBEoP2Ihn63rJic4blY3criO3HWDDwnTS/ro8jUL66sTgR0P3HjDwzsLC7fJoX508txnYAXFfAbZ1TvfiI1loONNIumQrNVqjeGt4WkCKZxlWlpaIDjLTegsWVsJ6fggkP9pF1n4KXdnSXkfOGwlj73WRXbt6+EjCusiAlwQGEdjNOAdSJfvSf9FZiUWLkraqcPsV+zwclokqcMMiU+/2Kk2Di6a6w+UOLgkSPGYMWP83lpZ8OKrq9e2gbO8QhCmyAQRcIAA7VX+9aVOUnHk7OFXByRnFb+7oodQh4sHIiA0AvAOvB6Gai1SL0OpKdv5IqstwXFsvoWvPEkdZmhc+nS+CtL67XXlR1nouNDMyc5+5INNW2ovzUj36KwYXLDAOuIjQJ0l7VV2dbsvizpcdJru44gc7CNwav3mmo8vTk0dbr+G0KWbmZ8KfVzqDUJrY4+fZA4zOjVrkj0FuJTpdLo6LvX41KFfTzRLz+ysea8DXTgfWqyLCLAgQJ3lq58xvxPsiqROcyH2NO1ig4XuIwC9zTveWbPuV7qkzn1urjmYjhUxZXMLjU+TZAhZModJLJaJruGyX6OuYs0m+1f4l8I8ZWRvOjvM0sMfP6RgQ8ACo6/vLOuGNMps9M6oysFplvyCc5rOMMJr7iFAl9RJMUxrMhYxZXMLicuQZIRQMocZEpumZ20yb+J1jJW2L92czJw/wTxlHTrKvqjgbykQWPpNN2lrF0/SJ2vRYYqHLnI+jYCuN83e2AkTxomBiun4j0yrKEAX/6ioDGYfw9UWyRxm6LCMTK5KDaxXX7nWrTDnS9PSkiHya8PsnJzPBvLGc0RAbAQamq1ky3bWAEBu2lmA/Y694srgpgnW8nQEaIdj8YrV2+Gdmjd8+HBYJSzc0Xq4rIaVm8+IFKZNPfjIk8ZhRiYwJVs/bcgBPgb1rXvN1KkTX4D94d5avbYExuKv63sNfyMCUiHwcYGw85aO9N5Ugr1MR9hgufAIwDt17usr15Tfk5XzuJDcYVUE03r7gMiRou8BKonDjE6Y9igroCwZfiCV3aSSmpOb//Xeh5uvUuEO5KxYIZ3yEKBzlnTtpBTHoSpp5EhhC8pQBwJD4+KG3Zud8wLMb1rfWrFmvhBaN1Ws+4aFT2TiVGY/w1WeJA5TH5/OPN7tZfXimAPllMkZDzzy9OUPPbIRlt1O5AoC1kMExEJgz0Fph0nL9kgrTyzckK/6EBiWnJJ1+479n7irubE07y1WHkExKcy+hotMaRxmXPpULsrYq2MsO8ILvD2tHbqnDx/3XnaiSZpxMHtKYxkicBqBjk5poaitw16mtIijNIoAvG/JXyurg4ua230FQIT5qw9iZaYIIN8hCykcpjsyjkBTME3MLD/R7HPL3mNkc2OryaH1eAEREBmB4/XMz77ImiF7RMB9BI51dBH6noX3rfvM+nBoMRQxBWjqYzO8+7AR/Kc7zoyTMjHJc5knhGH+8kNOQpxUWmys1z97+Hj3nlYRY/qdyMdL2kag+qS27UfrPReBNSebu7MOMge1OgWmuaqo0mkFBxf1w9KY/Y0Dlv2KRd/eKyQufUQ/iTKc7G3r8HnuyAlydUSweU5MpGR7p8lgKopUGAI9TOMj7EZ040QEO3hIyQmBn1raW+kQbKW5M5gTAUMlL+JVwUBGSUT1aaL3MCHg525Gw4npcOHbrLT26DY2tAZCb5Ngb9MeOliGCCACiIBjBMrbOnro+/PFoyeCxXSWVANjae7njjWR74roDtMN01pbj5fUukFvlxR6m4T2Nj+vbWzptlpb7FbCQkQAEUAEEIFeBCzQo7Q8BcGU9P0p4SHbhtaObBTVYcKG0X9zJNhVOcxfLnBVx53ra+pMIX/aZwh5zXCyrcxkxoEsd8BEWkQAEfA4BPa3dbR/WN1ghqAeLwjqEdVX2AMPfMA6e+WuytzxO654izreCxtGs+8CoiOShEsUNZuD4B+5IMjfMnNwqG5McIAkWe9dNQxe9wwEdBLfTV6Sv9Y8o53Qiv4I0DlKcJKCpr3rL4HDmZfXFg61zqrilt85i1v/AlEfr9iULObMCzUl+bzWX/Y3i/8ZDDV4wVCtjo7R44EICIVAqGhhEfY1RIdpHxcs5YbA7tb2DjGWiXCT3r9Wzbbczf1LuJ2B3xEtp6yYDpOuhxE9tx83CLnXomP0mQerm/fiMhTuoGFNhwjEDJa4i+lQE7yACDhG4FdzZ+czh493/PPICX/HtaS/YjIUfcwgNZSMGydEAoWzRIvmMMMSp04/SxrHgmZD8Sccq4pSzdDRHfosBAY9B73Nva2STnKLYg8ylQ+BIIlH+EcNRwctX2urT/KR9s723GMnOx77tdYP5iwV5Swpmqaqol9ZUI32mijK/pjizWFaLczOuMVYdJAFJKFp9kBvc8+R4+SmqNCOm4eEKe5mEtpe5Kd+BBLOYX7s1G88WsALAUXMU7rQ2MtK9ruoYv+yjojyIIjClFowKHHapfYtcV3aemzzIte1pKux4mSz/937q8xf15vapJOKkjwBgcRzscfnCe3oSTbQdHbzDtWYhE5nJwZGxrL8L1n4wjzmNBY6VzSi9TBhW6PzXAl3dN1k3CFJhKwj+fbKWy2WwA9rGklxs7n95sGhARBNa68aliEC/RAIDZbOYfqK9jT3MwlPVIzAihPN1qUnmuhNqVexGVxUH8ulEt86ovUwIxKnXstXGVt9K/mBiU4iIhjnD6CJD+hwBh6IABcE4oZI4zQvGCGNHC42Yx1lIUCzm2UfrDGddpbKUs6FNs2GonwXVexeDh6SMtTuBTcKRXOYoFMoi17VZXkrWeikpqHDGRBNa3Oc7RYLDtVK3QAqkjd1kqgbKJxBws8XHeYZMPAHgVG+7uXwYU/fU/Qj/2hHlyp7la2Gwv+yNKd+eMb9LHTOaERxmBEJU5j3v2ysXLvcmcJKugbRtLZtbV411JEtja1mJemGuigHgQsTRXnMzjLwvHh0mGeBotECSJBuXmg4CR/0zYS+p9R8VJct/IZF/4iEaYLPY4oy6+EfmcQ8fmyuK69iAUdOml0t7UHwjyyurrfcHBVGbhwcKs0bUk6jUTZnBGi2H5pQwCLy1phDI9Fhcm4UD634S0t7xxtVdZamHosn7cpEd0U/Cv/O4dNsgYPY/ZAjOaK82GNSsiY5Euis3GQodnv/S2f8xb4GQyBeX55o8jq9/6a6P+vEBktj/FMvFOVR64fi6BHiy+gnEE8UhQCNq/jX0RP+HuYsbRhDXtkPWMCOTmXzRY5kifKEwXfuJEcCnZWbqgqPOLuulmuQLYjuv+kDO6I0qkVn1FNcBCJCxe/9SZ23VlzEkDtXBH5qMbc++WttixqWiXC1aWA9uLd3DyzjdG6xTORUj2MlwR1mdHLmnRxl26u2116hWstgR5TwhyqMJtx/U60tqB69h0SoR1fUVBgE6P6UT/1a2/bi0ZN0f8oQYbgqk0t1Sf4KFs1gPeZfWOgc0Ygwh2kd7kiYq/Ka0vxlruqo7frJrh49jVCD3VDIE+cObvXV6SROx602xDxTX2+RA2UHRYjfg/XMllGlVRbYxNkKgT30rgpSpQXSKT1cSFGC9zBDYtNHsygISXaZ9j5jkSUHDU3q/n/7DMH/Od6ES1DkaACZZY6/QPBHrZ9FI+LF5d9PGJ7IhgCdp6T7U552lrLpIYfgtpPlBSxyQ2JSmXySPVmCP2Whw9JvsSfIVRkk2d3uqo4nXF91sjnoz/sMXQUnmzs9wR60gRsCUdgD5AYU1rKLAISJWv555Hi7J89T2jW8T2FHwwGmnTBChqXf3IeNWz8FdZhDU+amMmtj1Z1gplUZYafV6vvv401+dO9NmtcRD0QAEUAEHCFAkw/cCr3K3a0dms7HadXp2AJ/HAHLUC6ow9RZCVs6PFC8pixvEYP+qiahw7RZB2totiALOE74iMTDkxEYOsiTrUPbhESAfkjT4dc5B6raafIBPAhpqFi7jQUHCPyZx0Jnj0ZQhwnrL6+xJ8RVGex/+Z6rOp58HYZZvMBx6uj+m/VdPSZPtlXLtl06RrzIn8RhGPTjCfdWj9VqpnEO9EOaDr8291g03avs26ZNlWu/7XvO43dgbEomk28aKENQhwmPbMZAAVzOW6oKDVzqeXoduv/mAxVG/XvV9fhJ6emNLbB9I88T9FEWWDtkxwWB1SebTbfvMwTSOAcu9bEOdwQsVms699qOawr2lEWMGBfmWIzzK15E9z/nNbR19b8NraEQCUd+bm3H/LTaanq0VqMIPH6opvuL402qTI4uZZO1HCtmmrrTx6aFC6GnYA7TP2ri31kVMpbmrWal9WS654+cCHzm8PH2Y+1dGBnkyQ2NtmkWgdPLRMih9i4R1sR7HqzNVUWHWKzSD8tg9k995QnmMPXx6b/vy5jHb6ZQYR78VV2V7r/5xK+1ZEOdCXubqm5JQs6NwXlGlTehYOqXNbeaYJ7SpOVlIixg1jTsfZOFjtIEx6ex+qgzIgX7qtHHpd90hiuPH+a6A1/zqK7JqnQZyke1jb6l4DNnDg4lY4IxDkCNN8IFmBxdjc0mqM77Wjts0a8Qr4DDryzIVm5g7mDBsOyNrYbiX1jE9tII1sPsZcj3b3t9eS1fGq3Wp8tQaJo9un6zrceC0bQquxHESo93biz2XJV+K8CasS5IPGCdf+Q4ocF9eLiBgI4wpVANiWWKSe2nqCAOMzo5K7sfVx4n9ZUFG3lUx6qAAHWcdx2o0sNuKE0ICCKQdC46TCXfBd/Wt5gh8YAvJB7AhhKgoYzbcvewsAkdlpbDQteXRpAh2YiEyW6scfHCl37fFuHxG3ZDCSuoN1nS9EHk/4aGeQ3yFaQ5eWiAVfkiEBlKiNCLhvx88T3Mtx2kqF/c1Na9ocHUc6Ct05M2c5YCOqcyYFRyi9MKji/S5Tp0MXSP4yrOrwjSwwwcNJLZYbqxGNW5ZRq5SjetLmpu83qwoppsamhp0YjZqjXzwpGCPHKqtV8LitPt/OiysFer6nzAWfprwWYpbWysXLeZVV70+LlPsNJSOref3rChyeexK2DdxE6LlAMReKe6IWT+4eNd8MB2D7yG58pAIDgQe4PKaAnhtaCOksYX0DgDPMRFwHSs8A0WCSHxGQksdL00bjvMwHMn3NHLjO9fY0neD3xpsL5zBPa1dfjCA+tDH1xjR1er89p41RMQQBcsbyt2WCwtn9Y2tlBHSeML8BAfAZOxuI5FSmh8GrO/ovJknfSCBx0jPVlanQMNfXAfPVgTTJehzBrMnISJgySsIjcC4TAvioc8CKw80Wz58kRTiDzSNSzVoiuVw3q3e5iQCf4hVsWrS/PzWWmRjhsCdGE0nU/5qcWM85vcIFNdrcgw7GNK3Wh0f8qcgzXUWbr9DpVad0+QV7M9bwOrHdHjMx9kpXWrsaOiMuji28GswpFOOgRePHoy5Klfa1uPtHfimJF0sEsiKQTnRSXB+bQQC92Oj+5PeaSjy633p5RKe6Isk6HoCxa7QuJSR7DQURq3Gtz3/LSHWQU3Hyv6kpUW6dgQKDd3Bj9+qNZnzclmzE3LBqEiqfz9FKmWxyn1Y1NryyMVxja6HZ/HGadCg0xVRQdY1A4dlvEICx2lcWsO02q1MD+qLcaifaxKIx07ArAAyfvz403eP7W0W2B+Uwdp9nA8jx1ORVBaLIpQw2OV2AvRr3QTZ4gLwLlKBbWyTqc7xKgOs99y60spLiVrNqPCpOb4ypdZaZHOfQTg4feCqD5d5sFqsrGhxQyp9jC5u/uwuuQA62YFP1rNIjAVXEv1MSxqauukz8ezGP2qyMarLsn7lFWxsPOnXslCy+wwITw3AR7TeBahQNNDDh9uZ6RFMgERMHR0kyXVDYGQai9w+QlMuiQgtHZZHfhV+O7gyUZ0mHbBZiz8Feb5H4P9KV+rqvOjzwceykUAhseY0uQRnWUQi1XMDjMoNu1PLAIpjelY8QustEgnHgJ02AmCGcixDpziFAvlgwbhnduJBrG01R7f/xxvMj92qNb/V9yfUhWNX1WSy5SIPTJh6iQWA5kdJouwXprWquKTvb/xr7IQoK9z2KeP7r+JIwACN01Ds/DOUmAVNcsOsvRY6fKrVSebMe+riu4Cq458w6aujml1B7PDjEnJ+iubooQYy3JfZ6VFOmkQgP03A545fNy8u7UdHadAkBf+JPxwLFVt607mXNICWaZeNn3S2WHwmwqbsbYkfxuL2hGJU69noWOOkoW7K5JFINKoB4H9bR2B/4SAhwuC/Mkd0eEd5wX4YSJpxuaj84xf/SCOY2uClBTlRywk6Vzm719Gq9RL1tzdY1oKUxD/bWjBjZzV24w2zWHcphb80VCeZjBFPDM9YaEjpiTyVO5MddOxos/PnOAPVSBA0+zReR1YsK0KfZWo5Cdru4mYA7LrRHLGSsTSXZ22NbeROeVGPTpLd5FUBn1rVeHbLJoMTZmbypeOyWHqvKwX8xXUW99kLCrv/Y1/1YVAb5q90ua2ZnVpLq+2+Z92kYojYrpLYuO/Hp2m04a2Wq2dz8GmBAsNTHm7nfLGi/Ih0GIoYfIpOiu5lq/WTA5zUOLUDL6CeuuDkgd7f+NfdSKQZ6gLffnoCVy3yaH51m3pEd1Z9qpBe5kVMDSLx9kIQBCb6dZ9Br89uJvI2eCovMRYmss0agl5BG7nazqTw7RadbF8BZ2u311dlv8ZIy2SKQiBnS3tgXQJymuGOissQxFnck5B9rKo0mSykvU/SgtN/qfdpOQXaWWyYCMFDV0e9Y6xvuMv+w2dEMSGc5VSgC6TDJjD/JWvaBjzSeJLw+QwIcLoCr6CaP2WqsLnWeiQRpkI0EHGouY2HSxD8Yb9N7tx/83+7bRrvzy9ve/L5JHb33r5zuj+lHQ/WLo8alNjq7/ZYvWTTxuULAUCsB7zYxY5sSlz7+ZDxz9Kdtw4XxAQxUdIb91mQ7G4Ezm9gvCv5AhAYJAP7L/pMyEsqPXmwWHWoX4+TFFokisuosAWmQatjxi1+5hBgvT2N6vqNX/viXhbK5O1jrSyKGaxkmF86Hj3MGO8Jz3MR0DfuuAwC/qe42/PQ2BrU1vwXyurQzCi1vPaVskWlbd19Dx/5IQFnGWAkvVE3cRBoKZ255ssnPXx6b/nQ8e7h2klVub93duMxbv4KId11YsAjag90t7VkTUsCtduqrcZVaE5/TiD+81bFcqikuIgcHgzJFjRGQmx8oqv0cel38RHId49zNjkLKYMCc1VRUxfAHyMwbrKQqDMZPan6ca0uv9me4d2h0aluBMhS083vb/oxxkeiICxZMG7LChEX5rJ2afx7mESHUlhUarFUHSShQ5p1I8A7L/pW2oyt9w+JCwE9t9Uv0EOLKAOcuc+C6k//f6WK+iHqldVayFxQ3l/DzuwTFnFp/en7KHz5srSDLVRJQJe1mTQewMX3XndcMFDUoZyYWq3jo6U2S3HQk0gUGnuDIH9N21p9m4bEtaTFOSvuiG0I0YL+aXyt17jsRoL+bn8t3MlNeS/lvy2LZUvPOWXjPIigyMh+B4Ob/CjGRd7kdCQU+dK0tuZLic6u1u+PNGk+xHmyakZzuriNe0h0FRV+H4syZrP13IYlo2uIfmcyHg5TP3wjPs5cbVTqaYk/ys7xVikMQRomr2nDh/3njk41DJrcBi1XnHdoJ/LLeRozSlHaKi1kv8dUPcyjS7wnaW7+9tQsPnUWs1AmGFO+b0XCQ465TxHnqsjiQrMSUuTpMMHF0a/aux9wcdcc1WJAep3wj9ey4gg8If6tQe4yOLlMCMSpl7NhamdOrvtlGGRhhGAeSevb+tbzNdGhninhQaROH9fXje5O9CZWq2QrPyUQzxksJBG0ylu+2BzZ7PG9mYxdxCyeftvznT9aWCHDtKRuCGnnGjiOTqiD9YR2lP9fZIXzMpIc1gglV1xs9laDLlf6Xy4NFJRipoRaCxftzA8aco8vjaEJU2+uql8/UZXdLwcZuCgkRNcMbR3vbFi7Qp75VimbQSaeyyBdNPqkmZz542DQwl1nGIcVvCNew9aSDt8e9JdPapPWiVLVyeGPVLwrK2zEvqPHjv3nZLok7ZSoQAAQABJREFUA4OgF4LDDIFmojujBAcSMuo8cQYItpvM3UVNbT2FzW0gBQ9EgBsCbQ3ldeHcqvarFRg+MqOJCOgwg+MmXNRPAo+T2t0focPkgZfWqh7t6PJ7FRJifx3UYp41OFT3u+AAtyODfoJhVDqcugcc5eGqUy9+reEqtL3dMIpLg5ro8cOO33qlY0d7kZjBOnJ+vI6MHuGeA6VDrzTq9XRAD68PeqHtRX7qQ6Cm5/tXY8ncV/hqHhKffjEpdT2PyfmG1MclT+erRG/9VkPxL72/8S8i4AiB3v03Rwf5d9wZHU747r9Z9FMP+bqwh5xocCQBy8VAwOZET/dCKX/qPKkTvXK8FwkK5DaAS/enhF1E9HSOGw9EgBmBHTu6SDp/6tC4dE7+jbPDjE3JuoG/GrCUlBADCx3SaBeBfW0d/rD/JhmvD2yHxAdOe5t0S6vdldCL1HA6OKXdKdUnIOn8iR5C22YQxHWlXuRNJl/mTXQOfOf3ja3mt431mBxdaQ2pPX3oHep0OIqzwwRGl7DgB0lx32OhQxpEAAI9AujCdIioJacjaiF69dRSjh17LaQG5iLxUDYCdbDnOHWc9F8YxLhOGOtNhsfqyO8SvAh8GJFlx5sIbLmF85TKbkZNaBeTkvVYdUnui86M5eQwA+PT4pwxcXbNS+dd7Ow6XkMEXCFA57SMP/uYT+73DTyJw62u4FLs9aaWU86TKkgDiExJraQrCuZCBytWZVRMhQiYqorehbWV9/JVPTg29TxXNJwcZlhs2mxXjBxdh3RF3zq6huWIgDMEfE74Et+TfiRwXwjZTwj2QpyBpbJrNICItitt1K7BnaQzvp10nGdWmRWorhIRMBmKjOAweasWGp8+B4icOlpODpO35N8IcAb/NyzwFxcE6Iu0PNj2MuVSHeuoHwHfE36E/gveFUo6qOMc0Ua6o7rUbxhaIAsCMFGzQyzBnGLA41KymHqYsGH0S2Ipjnw9CwHfWj+i/yGCRK4Zis7Ss5qWlzX+hgAS+kMkiVg9BO4DyICH09S88MPKhNSW5q9jxSE2OdOpr3PpMPUj/pgE92w8iwLNVcUwa4EHImAfAd9q6FWUhZLwDVFEXxhhG361XxNLtYaAzqKzfThFrhpKQr+LtN0nunaXryutwYT2OkCgvnztBw4uOS0OS5x8pbMKLodkg6NG3eaMgbNrkD8219l1vKZBBCDGI3AvzF3BsCseiAAXBHyafAn9538skPTou0nrRSbSPQTSNuGBCDhAoL3hwFFCpjq46rg4MNLm7253VMPlJ5s+No0l0xCVd8SRUCzXHgI+x2HIdWs4iVwNQ67oLLV3AwhksbfJh4RujfhtyPa3hEMCSUA2noBAm7H436x2hA+f5NDnuXaYwzIeZhHcULG2lIUOaTwLAb8jAba5SfqS8z2O+bM9q3Xls+bMkC39ANsbTLybXA6WyacsSpYcgWZDcSWr0MAhYx9yROv0LguMnXAOEDqt44gxlmsbAV2nzhb16FflNFGPtkFC6wVBIHA/DPHDv45zzaQ9sZX0hJ7aukwQ5shEzQhUgPKJfA2AmB2HPs/hBSokLD75Lr7Ceuu315Wv6f0txN/olMyZxGodAyn6UoHf1fCP6r7fVFW43GQo7q45sjGX1P7cKoQs5MGOAA3MCN4RSvxqsTfJjiJSsiDgfySQ0H9tF7SQ9lH4KmDB0JNojCW5/wZ/MZ+vTbAq5Paa0vxn7dE5dZj2CLiWmRv2n95lkCuF/XoxKZn3xiRnvg1XdXZqjNLHZfwD/hEKjOlY0VfmuFbs0tgBSoqikMJwdJRSAI0ynCIQBEFl9B86TqcwSX4xdnzW1RadJQMc0u+gFzcZFKB5K6pNxwqXtxq3/WwszRM0jSprljnQLckROPac0Jm6Yx8xVsNJ9JkCHj92vgEJI904wAHeGp0890NgwdsBdkV1EvPoFtI9GBc/u9EEnEhpjzKgMggDeTihhZXkQIC+C8yjsccpDfa6/xy+4uI+KytmeY+49urc8KSpf+ciH7L0rGwxFC6pLlv4NZf6ruqADwP/x/+AnLL3V5fmvzOQ0lUPk8lZDhTC9zxxxvLF+vj0+/nS9dan6dR8f4y0OU18UHpREfgv3IaB+zEjj8CoIjsREKAp+Pzho649sQ2HakXA1xHL6PFzn4pNzXoKrvs6qjOwHN77N9J/IXEZ3xi2591jNhRXDazD87wR6juMenXEC15vdn0fpEC2f0QkTp4ckTDN4XoU+1SnShsq1r3fWLm2wFkde9f8BiWNSpqxfFNw9CW0u+72YXOckEGmO7KLWP2ZPjTc1sHTGHi1ehP/w4EkeCfMUxp5d/49DQ60RyUI0Khamn7PD+Y4dV060j0IRp/cGgNTieGSq6nbHbA36IKRN61YBI7vFhDv0Mc4U80/bFjC4NG33GYl1pCWquItzuo6uxYwKCk4MHLkRGd17F3zDhwUfPKXj5cMvOZwWUnUmL9cO7Ay13Nz/f5jXOv2rXfu5S8sDhw08vd9y9z97VPvR8I2RhE/AwahuIslTVUW/k0UCdqtJ94trgYn3JWG9IiA8Ah4t3mTIOhx2tYD09R7eAiGAP2Y1v8Qfiv0Kp+D7skYARjH0NiUxBuX8+589cqu3/n+h72/+fwNGjRyPIkaedYerQ4dpn5YxkN8BPSta64p/bTvOZffMeMz/wFfJJO41GWpE1Iafio3JQuxxmnoriFh3w7CHK8avw88zXw6VEvzF9P7Gw/3EKC99pDSMFHSW8LOI1ND4tN49xKpRU21pb+yWhYWkfSHgbQOHSZUdHZtIJ++55amo1sP9S3g8jsmNfOfXOq5U4c+IPhwcEfQy0S/GCNIKMwHY4+SO25YUz0I0Gkben/T+1zXwfrKU4+9YmhK36kRa4cQnwbxPjySZqzY7Ibu+5lorZazboizCijjmPFz/49JABBBhoWX+NJCNOwzfGlY69OHA52ma/QCKoJI+H+jRPlidC0dayAC0iJAHWfE+sEk8JcQaQWrXJp3s7ftg0MKM8ISJs9ikQPrMf/DQheZcMNlA+nsOkz9sLSEgRW5nsOWXryzIsM49dVc+QtRD52mcxT1P0aQoF/OGr53ToRXEQEPQCCwItg2/eDdiHP0XJozpIR3ACoXtnbrDEqYdpXdCy4KdRDm5aKKg8vWsyJl7TpMCOl90AEHl8VWHfnGZaWzK0w4u0jcklBwCt714g0hiKu9ONx9IIqQzlXSaEI8EAGtIkCnH8I2wXNQg8+Bs3uADmPTZPhSHeGJU5nmMTsqt77JomNAZFLMQDq7DhMqDR5Yket5bUn+Nq515a2nI/ptYYR0Y2w5bYegn/UwtAIPAEa/yntbonTFIKAvirDNbWJi97ObRA9ZvegwtsTHKBZ59fUlzUBXx5cWVmyc1ZE7y2EOSprKpBRVxlRV9C5fpSLOn/w7vjRC1fdqh6CWIumGFITSW0g+tgn7NUNs2XqE5Iu8EAFPQIA6hbDvBsH6zQBPMEcQG4JgntdXvlzRTD0cmMd8g8X4mOTsfvOYZznMbouFeR0kpDUy8lXK4m0/owJfPqz1bQ/Efwdpbnsgn5O+RP9juG3CXtfDdA+yQo50iIDqEAjZEUbC4D3hd1TbjjNop54EwDyvXAfEu0xjke1FvHj3MKkcK+m5sq+8sxzmoMRpl/atwOc3rL98nU99Wtfa432YL43Q9ek4PP2K1Er0rG2pyA+RMFeJyRyEvpeQn+ciQN8TIdvDSPhXUZp5V/RtTfreCDgc1LdI8t8WiyWWRaixNJdpHhMc9A195Z3lMK1Wcl7fCnx+w/rLBj71ad3mgwWVfGnEqq+F6NnQ78FRSj/3IFaTIV9EQHIE6FQOfVf4GiWfw5Pc1l6BMs1Z9oo/89fqRXadOeH/Yzd/EnJJX5qzHGYEYyQSJGYs7stYrb/pg+CJB+090y9EMRcXeyJuaBMi4AgB/TbocR2Qt8flSDchy0MgzkPGOct+prgTVArzmMv7MeN4Ep2ceWdv1bMcJlwY0nuRz19jyQKW5SS9Irb2/lDCX7qvoycdvkb/U1/E2LP0pGZFWxSAQNAePdFvhfeFVQHKiKAC/cj2q/GMqRuYx2xng8g6vJeun8MMiUkd3XuB79/m6pL1fGl664Pn39j7Wwl//SACLHh7qBJUcVuHoJ8hX+Y2z/oAcBsUZIAICIiA73F/Er7B8+Y1qbNU2PQNW4q7023dc+RbpnnMkNj0M36xv8Mcln4z633UdqxwOytt+/Gdr7HSikXnfzSQBO5Rb5osurFz2NdRsFxEvog2sdoG+SICSkOgd17T/1fPiKKlUzgKc5aksaJgmzvtXlv7M9Mu4qHDbNuU2UT3c5gQEcSUegg4nXDHkMbDmxthSUquOzzEoA08EEwCytU3R2FbW/nVYEK3MsJDXAQsgT22jcrbRreQhqnHbb/FlciPuxn06hzawY8IazMjELwrzBYrwMxAAYR0yZkSYznqKtd+5S48sIBujTs8+r1RY1IyP2BhBkOqC9zZ5JPK7Gw6ahh0wS0PscgXk4YOt9BsQN1DeafIFVMth7wDd4eQEHho8RAeAep4Os9pJ92DO0nrpU2k7cIW0p7YBuddtn90q1xfmO/xhT1YlXKYLm+w6Wwe3QrO/NQ/i7+F9ERQnTttmyl7dfR7DShFddXqQT9UadyAbeP6AIuq7LCtz4ahWMi/qji9D3+d+2dC6nvcUQw2pB7Jto2k1QQ+rvhMIsDQxD+msCpirjuwjpW2l66letu+Qxvm3DDi+iVufQH08hPyL03ITBf3t11sEpKtoLy82rwITYSMUbDuwWr1sZAu+DjqAmdi9Tv1suuK6iJWji8+nzpl5SemScR7wrv7gdIxwnzmnDpRetAhfF/oWdDDG7ZpomsOPSXYw2aUxP/5NMEespCPlvbwezGWWAXe4gJgQ226SbwSnWV1af6jhFS6PVTSsrdgEYFNqfmCE5Y49RrQIf+MwwyKGHUdXya99ZsOrt/R+9udv42V6wuMZflXxI6f+707fMSgDTgURPyq/UnzhAZi0bv1kSO4ejTXZQjkxfVuPdOcgsvwVIadse2kJ6ybdA2CHtcQ90cRlPbBQhPpD3SY9tqSfhB0xp9+H/X+PV3R/3AA8TJDr6kqgPg04z1mDz9HZXQPXouvlXQktDmqoohyBQb4nMGluapodXVJ7qtnCtz40dJSyTR9GBQ50uYfz9z9sKv1OYx6/MhIZ5esZlvuZojWfTw0Pv1FuxVkLKQvjeBdoTAUZ+L0EpJCVdv6yq0whALbxODhGgGrt5W0J7WK9hJTWjvoBNhcoGP4qWh82lPSdelO5R2GEZfAcgwoc33HERIMGxt4deiIeQxTzAkXEW7VUbKzhNiWzZWrZs5wy8ABxJDzfDH4uwcGFLs8DYydcM6ZyYvh17zKNBQK85cfujt/OVDT+v1Lt4bEpUX7hw67dOA1uc/p/AQdbukaBEN2/vIuvqLOkk7OK3EIRe52Gii/Y7iZdMZ0kJYJjbb5xp5Ixi3yBjIecE57FEo66DwlnWMV7IA3hm3OFnrj7bTXBB8gFuidYs/TOcK+dX7EB9ZBd57LuBTQOXvmq0p2ljQZzuGNmY90mY7WMhtoh9AvNH40OMw/2LnktKjLdKTJFiUbn5J1odOaTi96iTLWULFq5gP7Vt0UT78wnIqX4aIP7KMZskPedZp+EL6uxEg2GZrDocj289tI8+X1pP7GWtI6tpm0n56vc0iAF3ghYIWhRtrrbE1usmFsyoAAoxhlOQReBolcmQ6PUwellEO/RXHrLM9AQ9/7O9+47fLWqq3/O1Mo0I+aknymFRmxyVkX2YZku60W5i5vTWnuAoHsOIuN2VBcVWGYecXo27/fDXuTjTmrgowFPhAJSW9+GoUo9RFcGkr8DYFSi1WFPBqsQ4dcaeAOHtIiYAuWsuHeZNsOy/9IoOLW8kmLyNnSbLsjwSbtTdfA5hlyzaJACEb4N1GQ9+bMAOPZispYArD8WlOSB0Omxf2j1WTUySZaR2bYepj6+DTWxYYHpLDBsPa+SfDF8Z0UsvjIoDe/1F+MNA0XOsuzW4lGIzZdfZKYLmuQzVkKMV94tmXqLKFDj/RjsunqOlukqDqtEEdrukl7xOohsu14ooeN4pXqLOE9v27HG7EjTMZit7L6uGo5WNnBlAThlMOMy3jYlQB712H+8gt75UKXmUzlJ2GI9mrjttwHgbeiFjZRpxm6OZJ4N4v/tWabb6DrQvGwIdAV1UlowgA65EqHBntC5Y1e9m44E0OnmBbyahH/vnRmbE9ot61taBu1XdBCaJvhAZ1LCNLTF8FmCBCHINkBIRe2d4iC1gn3td10rOjv8J6f2rdMrN/t9eXHWHh7BQ8fHw2ErD1MFpnMNDVl+Yt3vnG7P/0KYWYiAiGd0wzdKO5+mrYbHZOn21rPNjd5Wb2tB6OkeUkfWN6jtIMGqCnlaB/VamszujSrPUGZEaNSYkXXdtM4BCmc5qkN45U7Z3lww5ybK1bPfE0q/GEby5Mssrz0Qy67j4WQ0nSc3CLI2hh+8jd306+QylU3pdCJYX604tWmkar05qdr1oQ+AvcG41wQgEp7KLaeykUmYSM/BWowXZdtwEYgbsKw8Vbgukm63pVmSertdUL2FWGMVSkX+t4Qc4TKFk1PN4xX4Ac3fYcfXD0zoaly/TIpm6/hYAHTWn8fCK89j01R66aGQzua2Gjdp2o2FJc2Q0AQ5RSTPPe+mJSsv8LPC9zn7B6H4J1hhP5r+50Jgk/cDCCGEUZ9oXK/Ct1Dihs17U3S3oglWFEj8dyUx1ouEaC9TvqPjtL4VvkTmlVLi0fYxihiSm0kXbFuJ7M5A58vJFrRFytzpyKYzptfU5r/7BllJf7R1Fj5NYtI3dhHjEyfd3IbbM/YmPGZ/4hJzfynvWtylNEQ+5Y0xm8KcJah8FWotMwxUuHYNgrytF6grmE7mlZMaeswaXvRnpyaDjqiErhfWetZpcKvZVyTIGs1lTqF01JV+Gz5ylnzpcLTmRwW38c86QKhv4pLrFpdlvevjjizd9wlOfOVMPzgVx1AIlcGkN70a7TxfGAtVq9uzhyqVp2leSQkCB/T4uw+x2sejoAZPpRoEBfNquV/WFvLp0J2hJFWmNvsm+/XXnP7HQsg3hDQRXHqe/jBlFAIjHAp7WgxFH5dvmrWH0Evpg6aSPZsAb4T+fBmdpg0ES0fQVLVtUBUHg1n9632g/yq4YpIGednhHlN49kIUIcaUqyDXmjjbxfhdqILirXWszRDj9JMh7B9lPQ8/dYs+EtiBOCLnCabaL24mdBt9pTYcxcLkeCfICmKDvLPnnd2EggavBO4N+TMR7cKcCk69PXsxxsrvvpBLLxY+cIo6fewpSUvh6m8KAVW6wfQdcV0kobpsD9hYv8vsAHVZD+lCd3p8ElvpBxdI6Wk7aHEBogmGqAZYmivAp2l2GirkD+8oWgvqvG6E4TmAdbKQffV9DP0X0JGz+nIU+8IldKxoNN2O9+IzVCis6TYtRqKv+SLIVMP01xfXsRXkCz14SvV/HtY+xXdceqrDPI5KvGgD4AvRMrRNWpqeRiEwFFNWx9xslc773NOcAhZyRJkIQ03HLdtP6WCXpUgpoeUhpNm3wbbXrx0660gheUpdmQkjXytLct9rNmwrcRRHSWUsyRHYHKY7XUHqpRgMFcdaLJo08QGEvhLiKKj8LTiLDvjIBgqhTEYimujy1BPiUs4bDDQfA7y5i8QrDVob5POc9uixyEewNOPUIiS7wnuVsXWfVYvK2lJb/hPxS0zb1NLu0Cf6lf4zj2Pq75MQ7LtDeVruQpQUj3a26TDf3jIg0B3eBdphoQDnugsKaLejcpJEtC3hb0VlLygr17Mv+GtRVMg0nvJ4u/5y43UsM8t/QimU2BdQ5SV/tXVPVZVkvuxqzp9rzP1MNvq9p89G92Xq4J/0wTR9dNrSdBPehJwWBUJjhSMJnfVhAqX5y5R+pp06zclHj71PkSs7czktJeOHDVOPkECDgSRoD16OVXRrOwefbctOKsbNmBX5aGD6CoeB1MPs9N8rJiHDOVVBavbxppI01V1pP1cs/L08xCNLL4WWwKHhqnHBVlb5iGwSG6GlwIzEAkJQvvINtJ47QkIDmqBHqe8+YSFtEvJvOjwK8W7GXr6qnWWAHBNxRpe2epYHOYRc9XPBiU3JlfdesK6Sdu4ZtJ0RR0mheYKGsd6NICpeVK9LdsR3TcRD0RATARoJig6v2nbrQYTvIsJNcwht5xagQB4W2HzcFUf9ZXNpqoizlOMvB0mhAp/qGqA7CjfE3Fq7Sb9YsLDfQRoUAZdC2vR49e++2giBz4I0B1r6L1Hd7HBQ1gEusNOxSCYxyh7qR5fqyGqdwdXGqY5TK7M1VaPfqHSnhFNhowHfwS6BnXCesoWRSZG528NUqgZAbqLTTc8yzRbEN1/Eg/3EDDDpuzm33noR4iVHOeKDu8epulw4dtcmauxHg0koNF3ePBDoDOmw7Z0h+KHByKgBATovdj0B5xucactaLII+j70WGcJ4NBtI7lixNthth4vUVcmZ65I9KlHH7T6GbWE9pjwcI2AbalI3/R+rkmwBiIgGQJ0iBY/gvnDTUfbaLIIbXwE6yq5IMTXYe7kwtQj6sCKVprsoGuocNvteAQufYygDxQNmNLGA9XHcDs/de18HyU7TLBINAToPdp47UkM7uOIMH226YeGVg5jyYLPuNjK6ymHgJ8CLkw9qY4po5G0XNLsSSYJYkvvA0UDpvCANLgNyp0n81Lo+lCp7xtL8KmAoE5IlYmHYwS6BsP0ioacpQ0JK+EU7svLYXrpdN85htlzr3SeZyZ04T0epxCgzrJlPOLR935QbFo8UNK7UbnOvC+GUv1uSW7CnqYDsG0R7pf12T3JQT1PK26rLn6Li028niRjSd5WLkw9sU7nue3E5GeBHcwjPNE8Tjb1hHTb8nhSLPDoj4DOAmP4Cj28m3g95gq1QkC1YAs52oPyOxJAAsuDibcJ8aEZe1pSGgldlqPFo9lQTCM96dBD/y1iBoDBuYfZYihaM4BWc6d0y7COYdrMDGSbr4SIQ3SW6rvtdUS5zlxONOm9TLN90Xtb60crTDtp1Vn2tn2Lodhl1h/ODrO5qmhXL2Mt/+2O1N6yCfqRoLk5DS3f5FqyHd6A9N5uu8CkJav72UoTtnRHae+91g8EODEZiw4NLBt4ztlhthq2cBrjHSjA0847ztdWD9OU3kBax2PQk6fdx2hPfwTaR7UReq9r8TAntmnR7LNsri7Je/eswgEFnB2mybjj5ABaPPVwBOjata5oHK7i0swYicoFJWXXofe61tZr2iKGYU4XD24IcHWY2ll/yQ03j65lJaeye+D6Su7NrPRIVC8z10edu82eWJPe89RpWn04rTJQPQQ9ETgU27cRIa/sB33PB/7m9BRpcf3lQKC0dE7XnqKz5NfiSo9E9W5Q5ubW/FCWpja9902YuUoasBUmxWQsPuJMJU4O0xkDLV7r9ODsP61jm0g3bLKNBz8ElB6J6t2szM2t+aEsXW3qNFsvxrl76RBXhqSOE5tfc6YJJ4fpRXTainRxhhhca4EemDnBs7a4oSY3ZzSQjuG4xtJF86vyss6KS0v4NlzHCLPHz2nStdV4/IZAw6EdTjOycHOY3paVv7HEXxQB8wWw3c0oz9juhi5abrr6JPYs8dZGBAYgQHua9NnwNMfSEwhpAiFRQecwTBM4oMmdnnJymIbihZwyuTuV5GkXIbKMOk1PiKqz+FuIrovTreBprYj2IAIuEaCdc0uA5wQB2T6Qr4dE9HHoLB00vsNuN74lHSDGtZh+gVp81f0w+Z70I/otEcS3xo+r2VgPEdAEAj4nfEnY5khCnxFPOWgKPDwcIwDfR8ccXcUkio6Q4VgeUhJGvDygd0aDVvRFEaT9/DbSdpF2s55wbHaspgEE6LPtVxXgUZY2T2jQfAo8Vw0Kq1Iddr059jAnoWO1g7LfsQCPe6ACDgYR/Y/hdqzFIocIdGNAjUNsVHoh9PtIj3u2aVME7g9WaYtIqna0I2mcHGZM8vg0Rwy0XB64zzNvPt8T/iT0u0iIjeZ0e2j5FrDZ7qOG7bPUPWsg2T2m69KRUBiC9fHQdat0aFnpSTYka2zHghz2GDi9Ea2k50rHvLV5xbcabrwWz+14+zT5kogNg4n/4UBtNjAPq9XwcvWG9sTDOQIB8AEcsXYI8an3bKywl+n8PnB2lZPDdMZAq9f8j2rDkQTvDCX6H7S7ByiX+1ungiFZVfSCuYAtQh1dB8zfwz0etC9EBO7KY+lnDCC6Dnz1s7QMosaAGv0C9bRgAGcw0GGc8A1RhEYM4qFOBLzaMdOPvZaj93To94M8KgrWnp0Dy2hAEx5nIxB07mUxZ5f+VsLJYcamZD38G4m2f9Evs+Cdes2B4GX2JqE/Rtq+xJWeN1VzjYMG80bA57ifba6S3tPebdr7mKAfwYF7xIjBsKo6rDh06Ph7nd1MnBwmMIhyxkRL14J/0hPvZu32tOiDFvbdIBJQHqSlZkdbPQgBeu+Gbo3w+LlKV00WeCAER40GgASdw78MKOp3ytVhkuiUzKf7USr0xKrz2ieWarRnpaWhWGc4Bu3Wk5BiHNahGOk6OT9GziDFaxIgoC8MJ/TexeMUAoEambfl0d7DndXl/KTHJmfe6IyRUq41ffz2UrF0Cd6FD1pfbP2qA2BYCwKCVBD00ldvoX+rJkxfw0tLfOroXCVk7Kn1F7r5Vc2PjhgFVAg3WgSL/h2mlVM6UDHJc590pSNnhwmMLho8eJI6wsh05JArw/lep3MePvWekx6Lr/2O6lNMIguGkAANL4j2aVTHEL1W554Dd4eQ0C2eu7bS0bPJtdy2nryHa22X9VSbdy8mJesuV9bxcZgkfMLDj7liqITrjR8s/kRoPfRFDteyCi1KlfyC9oZAhiBt9jZ1PerI9KO1pSU08QZdLhJYLkZwiyofU7tK67q9BMsA1P7T9lq7QhReqI9NSwcVz3elJi+HqY9Pd9lldSVQiuuQF/WgkHLokIXOoo6XopB28+XlewICgmiWFFx+whc6SepraWkJvQdp4g065IiHawRoABCB8VR3j45dZV3u8pCDHmJ0pnORy8thUobR4+c+xYWxnHUaPnnnMyHH0oN+wblLru3p3exjW34SvCOUKwnWQwQERYD2KulyETz4IaDVtZkhw9J/B53BbC5o8XaYsalZD3BhLHedpg8X/0sIHTw1X6wQ2Djj4X8kkARvR6fpDCO8JjwC+h/CsVfJCCvNAOTVytslMEpTDlnsuLk5XLVhQScmOnnuLK4C5KrX8dP/3ndXNg2SwLBrdhRp+kD6te9l0t7CcHbUkJIFAToEa9vT9SRGwbLg10sTvENbS8WiU+ZeAT3MP/fa7+ovi8MksLhTtKUbrhTmet38c4mh6aO3b+da3169kFJt3Tz2MHC3jM4hhf83Ch2nu0AivV0EfE7CXOXqIbYhWN86nK+0CxKPQvq8ujOq1vjJu8/yECdrVX1MxmWxyVmb+CjB5DCpgIQZy7/iI0iOug0fv/MFRG1tZpHtc9yXeJs8dzcSFkzcoel1nAGVwq35ckcfwWg1vLZRMAwZGQX+AstFfoBt6DAgjxFB+2S2JWI99q+5KN3s4rqCLo/xS5y57Du+CjE7zND49Otjx2dN5StQ6vrNHyzOYpEZvAvn31hwc0UT9LOe0GwrQkTkuZIlxXUa5ISHtAjYhl/pcpEKXC4iBvI6q45pKU7jh4s3i6GPGDyjk699HPjyXkDN7DCpEdGpcwtC4tMmimGQUDzbftm5o+Onshf58KMPpHcrvgj5YManLs22ErFusEcsP1HT2kZP2NLJ7xhkl4IIWFwuwueJ41+XJXZDLcOxIdGXDYZpxaf5o0KIWw6TCkyasYLXGDCLku7SVD967xMdP23fyJWPvgj3f+SKFWs9XZeX7cUXcEDdQ7R0Fxe1HGrY6NoZljSALKQM4wqcYSTXtZq5906SSzZfuSNnfbkTaJh8HxPRAAW9xj5s3DKgTHGn1Y/OuYboSDkXxdSSuYWLLUqvE7RHTwJ/VkfGRaVj6Uo/NafGC9kWhr1KVw0s8HWuwT/QGflH+64yxfsACk/ijOXfwxr9eFaovEyGwuWsxGfodORyqsiZc4X+aPho8XuuVKPDsXhIi0BgZbAtipZGPOIhHgJqDI6hz2P4+sGErhHEQ1oEbME/4F2cHZ2HD+6Bzsjzzuoo5VrSjcuegAQFk9zRx6u2LPcJYOB2rB9VJPrSzOvdUUZs2qaP3l3gKmqWZexebL21wJ/OSdGIR18jrqPTQntzsZG+sOl8pRds2o6H9AjYgn9cbKrQtuWb/5NeM/4SaaxNSFyG247dq9lQUmHclvswfxXOpohNy/xK6UFATR+9+X+Qa3bH2doT4t3gg8M+9oCRsEy/DfYrxG3UJERceaJ0XTrbiANN6I+HvAj4/xroUAHa+Wj8aMlPDiso5AL1SRBrwzmGxYna3baIhRZj8faAiCTfwEEjL3dSmdOlQaNvuQO+TIpMxqJDnAgkrtRdW2syf/ffTf5jx13lHR45pK94utzBq0O5QRxWWIsBzr6vyh75m26X5X8QEt7DLiA94d3wJaNcM2nPWE0Rm+bRrYoF07vZmwTQ4XkIuvNuU3CjC4ig1RueaVjGodSD7mRCo6u7ojv7qdh55ODi6gf+fHO/QgWe+EUmXDD65q83gGrufn3V7P735Wlnxjp+/ea+f5gMRZsFsNkLlpv8lyoqAC9RWHQYDlYa75p5ITCv6hVg2++yWblzaOZRLaT5inrSEwIORAOHVydsOQS7wYd+N8gjlp9ooMncMtHvaAAJ2xhFAg9oZ21ld0QXMaU3kLYxJrewE5s44FD/SHboWW4y/mXmg2LLdZd/UGzq2N/96Yc9wCfKXV7lq2fe0llfufeMw6QMK1bNvAL+NLrLnNKff92SF4TgIyIPy8m/3Tm2l7+SM9BYAnuI+YJW0hPRTZr+UEe6ovp/7fXa4Il/aU+DzmMJuSu8kDh5aaQnJCRmA3kF7g0mIdu1tVykJ7SbNE+qJ92Du0j7yDZi9XIRXTMQNInPeyNm6TBszaNzrpJYPJO4UTetLGYiHEAEU5YPthwr+oEW2xn3sDZCAM+UATS8T32DokbBWMPulqrifbyJJSLorK1thVHOn4LPS701WMFbeLWfZybdQ39zkp3ntkOvy08zw1b0dvA97k8sfhbSE6msHjZ92St5GH/go2QeBUOyChoBpGsraZJ+LR30g5eOFvVtBx2EXSp5aJ/qRofzW15+8pL2mv9v70vAoriytqvZtwbFjTUaBYwxcQmyaiIa85lEzcimJpnsMZn/n8lMVDKTZbKYyXxJZtwyyWTfzB4RMepMYuKCUUBAMG4RARUF2ibsdEs3DU1/57RCAJve6lbXre5bz8PT3VX3nnvOe4s6dc89i1JL+3xFL978g3dQZDRfPtV1BR+c273iuV46VyhMUHClAeFJKd6BkeN6G9n7KQ9PXqKuObhHp645by8Noftpj5Seko9N1vp1j58n9Fj20r8Y284ZvAe+gaLSxCogHhSbke2Vd6h+XpAhCF8U8O3c4AtPGAoOvyNySe0r68K1nMFn4L0kBowYLhK4B8ztatfKqIXKUnVTyxWQG7x7uMGmzysaiXzi7Lq7U9Q/l50SmQ2Lw0OI48fyyOQ0iw0tNNA0nTpxatOCW/s3G2CS7b3Qsn/9HfCdyFtETEb2F0CLonfaXil//Tz/j3tebW84kPfrGXq+dY3u5HrkpjMhX4xv54wrBnrYFZwTfNMN3BfM4Z4zDQfNDhum8HEHhyqxD1yVG8NFINuTKx26UK1JZYkY6AP1XGekhlo42uvy39dWSSM5AVhI7yMBZPPpbS8NpmPyjm1szFdV5KYP0KyDO1r7G95lI0Dj77G2vVjtqr5aMqdrhI66tyfNRPNejZpr1Zx6RptYsIkyLgbgBx6ANGkFkMSdHTYhIKb3qUcT1KzEpOnlfB0WbRKZisYXp7Zz6iTz/6famA4qeB3MBDqDVm3JXD74PI2/Y1I3byXBF8pcX7T+q8G0rjDJ9jbQtdeeM8gMjWBWvb33nL2faN6Vhyf5NJVvsrmcir1j2tPvl4YfPg4Zf8/TtIRuaCapOTS9Wjr0QbCvB28mNO+BWJLBnuvuYM7zAa/KbjBz9fiJY6KVWqKL7lE6o6OJPXjz6eNV5w1ValwnXKQ/Vu03NnNdEZ39T5n8bvDp4WRaNw7Dqmg5ZJzh7PGNiTOAH/Ht+BZACU3IemrEpCW/t9DM4mUQNO/ExgR0gL3iGFJhYkvYzyyRRyRFegVG9nmTXkHByhNAYxZYZo/CJmq5lV0c36yhQaeuL8wbMXHp/Y4f/MoRVbNgr8NKYzZ623mAuVLMFcSVEgh/Bk2i3ud8Ob2/njO+OAg/ZN8InkovzrtGWg4rYihM46rSRUtx4Z6lFjzcrT26QnXGcCpr2wvdriI3IxUWT9VCj8OXPiYnGDdvw6d86WD/8pzf3NStUrSbomVWYWKHppObtvkOn+jrMyIGFB6/A5TvUli9NanqCor5URKut6619lxA4vy53tzoscKNYpmyOr4VFIDpvcuheuNqtFvezXm0eXAYx+hKB+Ya9agHh6DgriscpITCwRPGQ0ckKR1Yv9NRpj/MDWzcb3Yhx7T+98LFKSquY7rtMZbd4NTmXSd+7lwI1J+sqT96qL9MNH4fE5819+p5G/by5Q3WJmdB5lmdvxw/PRQtiwoTO7ac3r5LHp6Y6BV4VdRQhKw9D28CtxvcZPvUtQXV1vZxdLvmok8/JuUpbA/vGNDcMVVtT1euB50HJmhcLuwEwXKHUlvoaeiI8BM0naE5FseU0oHZkxyR7QdXlX6AD2aKcbVDD3HTrQsbOP2ILrtEx/9hscPGYFGzq6Hs7XV2CeDATriyJKEskeWygkVj9GdO1Jtj3+q7uSI38zZCmYC4sLiVe1FQc4yJfQ2TOMDeWL4YfHRcb/tb6WA+0XW9a4zlfZPB/Zzht/+RQKNziZtaOGXmVevNeTbR4alr65wJWZEHH/TDt41yuf303jlAE2zbLU12VlvspcKB97t9L8y/UrD/Gz7nK7dk3GI/Bcf0BP+aJMgRm0diNHByTeFKSy2+4VitMJEpYyYgA3eGBIMg6A9BV82iulLzmffufKYH4qMceeA/XPdIi/NmFUuqma2cNopOzzurBODRCB2ghn0/kvOqEca0hfumUj2EclTCmpWB+4e75KoS74W+GEsPcBvheXSP7hItoxdUsHqSJ/sO6R4Sv5JINjmwdt6vri3cZw3TNilMJFixNf1Bawhb0cZzdOzjW6xoJ1oTBLHqq8wURzKAnrEkjw7YR7EUmkJyPNpoBZQEcf4lgUTZQmcfjzZ6PBltFQ5fJtBkSurAvUr5vuEuXbMS46VNJSTgg7EYL7u40mqvPVjEh29H9IXwkT18a1sin1AP+gdwbNpoLc8226ww3MR3RIyfT/DEmdYOMlQ7DDfB0BX0xh2qjdjnUd5uuV4XNGrmzULz0h2s4zSTrfeos5af7tE649uqq6Ug68UHsyFh9RPcG+7x52cxMGaoyQ/uJS3ZT/SmRvOpNWFL5oT0qoFwkUIIF5HYXq45mWy91gEvuR2x/LdRBo+LCUswQYejsIXkBL9XFq3bPJgP2n5HL855ETL53EeAr8MnNiba5Mxq8woTmTzz7ZfPEGDWSCIsPutVUrSEotOwe8PLUK4sTyj6vXR14cLtOWLYCcaDueqBXsOYXQZXh/YeRmUJNJzl6Ftp2uaM3Se+73FIml7i2skjLk5r57QClkzrChXumdA3kfDlcnKCN/ufo/E7+r7II5OeJcFb2Z5bEm2lY5fChLjObuMmqa2jmW7vD5mAeLsEmyZN7mxlTsYc2KOwys5tz6jdw6BqQbSw+42oNDHjiCsfWGvRp2JguSJLeGBBY/9i3J9zHmXZKzMqzeBvxoDHr/VltfDFwRhbWeF6GXt6ccNPdMzpHC9sOjtHhAAZnXxyMwS3oPXHzp7v3qMmRZNy8lEUrXmBO3Hi14oWVjJks0m2ly6aKgPCks9BRvjFvefs/UTTLIRx+DeXb/rBXhqO6NfRvOe/wyYvW+XW5SYjPV4nViQBhSb0gdU+MFaThjgvoWUdij5WPsEkD3gYC1QP0dC9BTIJVfsaM9R4QPyiMx+oOHudgXB/tjsI7sV+r9PuENvrc9bX2MYPUtu5WoKMwXOPDj4XZzjo5RN8iHB+hDkMeqjG8aAUkhOMnf3Sc7AVaPOq0ARu1eDAmmrivMVTvB/8oXGr/hqauOpvFkeyokFz5fYXqr97dLUVTUVrgoWxodbnJt8REyeTYqI7EMyl8xxrLsW8nv5lgZy7yrkVgTVzhA8/rBbR//CEvSOZiyUH7y8/+24aAT28bHZGajktlklz4DHsPyOJl5GDh3/tsc9vmo+FkR0oil1DgUfs82EJWS/Y1blfJ6xAcnrnoxm6pgq7Ms7ZvcLs5UGtKPzRPyzpJKw0M3vP2fsJSigFcs4GQc7ZnfbSELqfXtPc0KE/UTh8SmYa7ItZb8cyw1jHVJWxWoGZJsQvYe5VV01wMBhMXC3hi0P/P0zwzg6GQH8E0CkPQ7W6Q2y25PUnY9d3TMbhdYFsiFRlTvptml+OltnFkAM7RadmLxx57bJ3+Q8pKzz2wfWxek1To720eCtMHBhMqSdIZcaBnLNJ6GCDJl97hRK6X1eDQinTyfxIuDUjr+qENqFZHpK+sa4mBPi7Ul3NIcFgFxgCQyBgjLGcDbmdCcRYDjGE2dO4ddBrMjfb0MqL6IMC0QkHrGwuWjN08oGV5fckGACZ7+GrV/rtUvBjyZjUgOP28aNyqTdu7GIWBxK0hKKhLF63Gv6JeOdZxIK+Yh8X49q59lmONQmLLTMbnyFgLQJGZWmi6LO1/Um104WReVZoGk/lWhuoT4p3e+j4j4sLAV3wnT19B/dRlKybQ0JmYgoTGTyTnXY/fECtKf4HBKZS7+Jc9dXSxwweA/e+bJWc1D+BreMObo+ZRVw57GQwHuw3QwAR0IWQT0hgL7K4f0riOL1z+V9J0BGaRtj0v3wJY/C2Q184uPZZ5cE1eST4JaowW5UHq2HZO48EY1C1aRrt4Saak0UHK7P5ZQJydEkqc3PTG6tpcOOf2svcOOwaQ0AKCKgSWzl1cis1rOoi+K8w1TX586Tg5IPPfhJbXhgyc6Fk7UukJpGowkSmcNmrLF4/nwSDCFh02maqM0+gvI1+u56yR96uETqHO/tY4tMYq3mDg9zlLTHDrjMEREJAO+Ei1xXmmKQB1opoa7m/wXRReVRszdw9+Dxtv6PTchaQUJZQTLjw8lYhMRGJK0zkTFH0z+/RfZcEl7CXmY6hHCRoCUXj/Kv3vqK6kJ9nK31MWUfjobtK6/IJDmicF8aTYxDAPUt7y+sJzaE2yr5wlsvJCeYKzR9f+sZMPuFJO/jSwf6QbOYBEnT60xBEYeIA9cXrlvYfiM/38fPf+4JPf0f0rdycaXM5MI2DY7lswQFDTtiepi2IsbbOgAAtDj5DYWnfM8PQXVuy9rdAk+q9loAxyaOJZfIBJx+VIv/UUDjae55IWImpwTXNFQ2alvJjw6Pu4K04Pf1GhvgER1/bWrWDavNs27lvdvuHzLzF03vkaFOY9D+ng1qVuJKj+cBE5ejFi0kO3DoFu1VohoDx5iII6P30nOY6SKI+jXwSdaIQwr8h5kN201r9/3j++OezZ3XWHz1DlA/CxHx9wyPG3v7vH+BZb/HZaWno0989mtF09ONvLbWz57rg0dm4xCb11nDZrDDHHkEd2ceaDevWWxs4TB4glcO7ypfzPxooFXYZnwwBqxEwripvhBhLwZ+GVrNktqHPKT/O74TcbJvei2U5i/w5RWlH729aPyfdtfcQJK6J5cuf0DpCMJNsr+DoFKOqKXi89zefT6MT0OKcP/Oh4Yi+ledfXgBly8wMZZCUskRBOqOYidbMhLJLEkWgzwQrEWWJMGsnWqf/jAUyJKAsQ+NW3EpCWQI0ysrDb9wm5K0ouMJE5iu3ZryGmh+/8z2gtMuruGrlS0fQ/qWlHZXbMlKGGkMjYDmgocYkcb4v7ITurRASojIaLoAAbjeQLvrsKNi00eadf9R1+c+QCNQXWh58locmPkHCfNoDLwjLuOo8Qfe5rDaE8wUO0ud9AunzZmNlEr60Rkxaukx1oXC/rr3mHF9aQvXXtdae8xw3XuYXMCll8BgX49o4g6e5FejgHvT8xn3NbvAi9KyH5OR6h7xv0SM848RpENDEXOQ6bqB8v9IM2m6QztKr3ttki0tmycyHTV6k6GRQZPKE6NScz4ClUXzZAmVJJJOPJT4c+cQzKA+ufw4Yss6eYJ5zn9AZK1dDE0fyb54jE1eV+zd8PdgxDU21Pb7S2bs0IZaxDJlUV8mm5GHnXAuBzkiN0cFHylKjF7upAyzLJyD28GZT12g7N3rGyveBJ94hg6ra/P84ajXtUIUDsYr74U3gdhITZ9zPTN1MdRCu7kLlyYrcgaZZR5cFIoG1KRpYOJeFnZhChp2jGQHcs8Tcyc5waEyYZeuK17wFslH/Rg4JabaRSE5weTW90FHz6TCTbK9AmC3ePzypHUyzvLMBXSo8nXixuTy7oJc+bZ8or/vcKXX+XRPuQN50UEtPP7ybNjbt4gfNs/gA8j7va1d/1okh4EgE+hx8HDmogGN5NnsOKCyNyuP8rhW/F3BIIqRD41fNh221v/ElBpta9Sc2JlzPl44t/R26wuxlrCo3Y726tmBv728+n/KImf+k3Qmo9pX73m9rPJCHcnZebdqUwgcDMfsaHYFuaub4JqEXUwY2tvMj0Al5WKXq4DPU7AxKYlCmOPzqnUO1peW80cknYRWJCiQ9lbnpSx0tlygKE4UEU+VcUp6zGOfpNSJ6kqPBs2W8018umdPgsTvPlj5Sads9sotrm9fEdQ/vkgrLjE8XQkAd28ZdjBev5qxgUMOGpcH9kvMgbHWtvFhdohRsLAKEg66aNR6e1W8QIAX6I32uo/Yt+/MLkIt7QMDqYYjBmUaAi5/LXg+bTICOoCRC1r/3lc+0GQ5/MxJUqH7EPRo8ucD9wf3OsK8MAXEQcDYTrCkUfSr8Gsr/dv9YrraQatMVrixJJbCpyk1LbK89WGQKD6HPibbC7BXs9HfL7+79zvPzWtrLgaF8yhXLl8HHPp6yUtu9N1aTWgYZYy6BgCsoS5zI828vu512ZclxKR6gLLeRuPFgZZkilrJE/kVXmFibDfYzN5EAE72uMGsECVpC0mj6y6PpQN9p7Ze9SpPV1RTyLmK0h0Kga5TO6fYrTcna9tGbt3ccPnzI1DWazoXE3/AM8MM7ryZUwNoqhhm2P5aim2R7mYlJ3bwnICJ5Tu9vPp/4FiI2sJb495sSe8Po194vtdROytfdWzy4oL0jpCwC411iCGjHQ0KCaWqJcW07u5rDpS/Vr3z4Wdt7OrYHSVPs8S9mX6trqjzpWAkGjib6CrOXHXQCgu9EFAgs/3cHRiRF9dKm8bPjaGlZ20fvPEYjb6R4wvAZFqtJCk1GxxICaIbtmOL8ylL706E8KShLnC94Fm+0NG/WXK8rWrNIbGWJfFKjMJGZqi2Zf8BPAod7VGoOZpGg+mj55O03dNWnqU6+wBfAPvOs2WT0fEdh/V0dgb49S6qeaELMikwJfhC4uKD+uOxTMpYvoxBN8SXUVyZSVJovL1TdXu11+QfRnMpXqMv9Z0vBCajx+Sf/SEheasmg0lTNauH0cudI2EAt0C7KGNaWdbYYy6GmUrnS6DR4KZZkqEYUnIeV5SZymXwy7qJAJCMLVClM5Aj3HlV1+f8gAZAxfV5aDjVgm5JJd77qZ+2R0udNXXOmc6g0MR4OVwLsYAiQQkAb1cGpZ7aSIkc1HfXeXS9oD5dQ72GP+5bwl8kbTAN35kLpelJWR97sIAGHp8azhuvmk9m75FDZxCsw8mpr2ptrA+nz0lWKgjxMUWeunZjX1N9t2+czPe4aj5Cw68TkQ+ixDZB0XjdWy3k0eHHuHVTeekJDwOgTRABfwKytDUlwWNFIKV59+g6uqYnqN06STj4VW9NT1TUFJaIBbmJgap9aTeWbNg6bsHCqp99I3hl8IG/hvT2c7MDFuoKzJjCg4hQozRyPcRMCvMZNSKaCIQGZQKWJh0ejJxS5lwk4EiPtjAigaV8F6Ri7xzhtZNbAaZNxZxT3Zc7Sn6msG3iBrl/Dx99+fdQdn28Hrvx5ctZ1+r/LE1Tn9hTypEO8O/VPq+jU7C2QLzaVhORnd/xuasvZbUdJ0BKKxpj17+70nRb3P0LRp4mue5sHJ88fxrlpqX1vowkuxgsg0Ofc40JoVP/ht97ciRNUryz9w2dNnZi26ScS03Jqy5JpF+sOHCFBizQN6vYwBwtYmZuZBueIVHoNSVqxejB92n7Xr3hkPuzoH6CNLyH40QfBSgH2n5gzkBDoOh9N7ViNyzj39M5e+8a3b6NdWSKvoCyJpKpTlKybQ6uyRDmpV5jIpOLgmr/gJ98DctYuDo3PIrJa5cuLuf7n5ky/EZRmlbk2znINlaY6wTWcNpxlzsSQo2sExFjGtosxtGhjag6XPN788TskKnsIKsPlaARvvoOoags/Uh5ck8eXjpD9JaEwlSXr3iJV2SQ0YeUW3JgWElQStOtXPvIwCTpSoKEP1LMEB1KYKJF4NJphZ7eINLo4w15KTvDIa+KMbv2oofErfkcifATS3p2Acl0PWj+yOC0loTARmsYjLy+Gj04SMEGM0Cck6AhJA93HMVekkGPQRNsYq5nkWg9FmvCnlRdX3LOEuaiTSnKC0PgniMSRN5/eLokFgmQUZsuZ0rZTWzISCf1jX3XDY4p8QrQEI9PyyXvfguJ8UbABKCPcFapjcZqUzYnY7HRMIeK+ILYYNo3/S9bDcdABdmXoPoymWBnHO4qhva5ga33RuoN0S3uJO8koTGQXwkJ+wk1hQsAmw4TvJERLMDLKlY88D5EXPws2AGWEO6a51j4VZfBTxY5mkprTD3Ot7FDw/57SUVp6gaqJMMFMWHzWX0iYYoH0vqotGdT7lfRCIDl/figFVh0QnjwWEhJM7xXC3k+gMUEmk/2kqis4ZS8NR/TTna0q8U/5n+WOGEvsMQzeBs6z3ptz00ju1hQbOqcbX50MzmCSeqXnNwWaIyXr2z5+511+VITvjT4gY+dt+IzASMfOZKct1aprJeP1J8mnUnP5pm98R8T4+QRPnMl30gLCk5YZDFyDWlFIVUaJ/nJ1nTurMHAyje+0Gbf0P++83w2c1wUf5xWPSWYRAe3VHVxXOBGXBYtj0dBA8/ORrfV/fOhBGngxx0NIXNaScbds+I+5NlZeqz7++U1pFxuOVlrZnopmklSYiFxL1Y5d/uGJWu/Aq+bxRRJMCwsgFZ8KsgtRl1miV7bOI4fyMT4TlOa9veec9RPNcL4nA5xVPCaXFQh0hXZy6AjmIkdb3ZLbZoCsVO9b4sqSkLJsK9tzy1j9+VNKqc2vpA0eVbmZr5IKN4Hi1WtpDzdp2/jObu1Ppd9K7SZj/DIEbEWgO9B19i5h3/I3gI/eVowc2T4wfGYiRBfkkRgTKlL9RgrJGEzJKmmFiQJV5magE9A5U8LZeg5uiO+Hj48NsrWfI9srVzx8O8ZoOXJMNhZDwNEI9PhTrT+IwQGVih6TQgWSqNTsD0kI3V5b8BBWpCJBSwwakleYCFrllsWxhMDzunrBjkOEaAlGRvna57dxnExy5gzBAGGEnQ4BNxeoZqM9cugj5eMPv0H75IGy3A2e+rzDR0nIL64AABpDSURBVFQ1+a9X5WYQUbxiYSbZPcz+gOlUdRoDmP8JuTkH014OjGut7tYeLT0UMH/RPYCDU7z09J9P/M72MAcj4lq/e6AiiZPvYe6rvXMB9eEUMambv4biFwv53n24dVa5NXMZXzpi93eah62yuOzvACaRID4wzeZwXIqH2JNjbnw048Dex83m2kj1mlct77SUUhWd8e0KCMi4nobHfreUdlFD41bcCr4dSwjwqak89sGtBOiITsJpFCbH5XXDZvIdhBAdEZ36hx8I0RKMDCpN2M/MFmwAkQh7/OIl0shsWFoQ8FQ670uTcsUjcy8eL6qnBeuh+AhNfIKIg6GiaM2rXNW3ThEj5EQKk+NwM1lZvOahoW4AW86jeTcqdfNaW/qI0RZyTi5xNicgn2o/MaBkY1KEgEeLJ+fR4EkRR2RYgcQEf5WCk09I3MpnSUiMplhl8brVJGjRQMMp9jD7A6mqKzwskxlqIBsQumrzOiATUJJPcExwa9UOqkvsqHdu3xiwIDXNzT9gDC+BKejsXxzIebQ734OSAmglx4Kbxo3TjdVKju+hGG7b+NZTLRvfeXmo67ScH3/rOy+MmvoAbyWHFUhO7f7TLZym2SlWlzg/TqcwUShUmvBxEFaJv8XffA6ooZkQEJ54XXN5NtWmz87Cgt3ytKWP8ZFV7L5edd6c30m52Gyw8SlBwL3Dg5Pp3LiuEB0lHNnPRuvHb/2pdeO71FusotJyHg8adzMBpW44eOyDKbHOpCxx9p1SYaJg6rrC05CIIBZWiRPxN58Dsgld62YwHFApCs/yoSNkX317SzNnMPzoMz3uPiHHEYq2e4sHF3ggWCjyjK5EEUDTLJb46vHvkagEHIdbJo2vvvD/aRcAE7eExa/6igSfZa+HjwU6VGcuskdOp1WYCEbzyU1fQq7YFFCa4+wBp38f8Ba7l/ZwEwiCrvadPiPGIyTs+v680/7dvd2dCygexrnBaoIdDIHBCHif9+W6RnSB0pRmMgMIH7l6sEy0/ZaHzrwxJn0zkYQC4HyZomuvraZNRhL8OP0T6nImICLlsSDcZI9f5MwwEsALRePC48vvlpITECpL/9Igzl1NdRSPUNPF6FqJQOCB4RzeK1I7On869L4EeJaFJK54kQSf4BG7RMqZfCxh4PQKEwGANx5S5hC38BkrPrcEqtjXtRv/nQqZOQrE5sPS+D7l/lxAwXAOzW7sYAhYQiBo10hIaOFvqRlN1/MurFi+nCaGTPECdYH3kEj6AmnvvgWPWKp9PUzJb8s5mS2NpdwWg3BJxRXBG1Q2KGESAb2CQeo5ffrU8HUf/iTYAHYQdlO5c961PpxPpT8n63aZW88OpFgXSwjowrVc51VaDquaUHroq+dMp95sApl8Xobtpid5Y2jgisreCEvkTYdyAtKzcdgJqFpxsCpowsLrPP1GXmsnib5uXoGRkzXN5Ye1zZWn+k5S9qVHqazXHi3Lg/R594vJGmbt8T7rx8lhJelzxo/zbPTiZD1MWYo5J84wtrvKw/jyhSkUMcmBTCfjumGfEywrVBz1f3poZnf9hVoqmBmCCXTyCU3IImIyBmXplE4+g6FzGYWJgrcr8k+MnvLA7weDYM9vKF49pfHYxjft6euoPt1KxTnf6bEKj5DwRY4aE/3ifCpBMdZ7cYH7gzmvOh9mcnUY+K45kJvWnfNs8OZ8y0F5Krw5t043zuAB2aV9xfGsbf3o7cXq73fspnk25GEJs2LStvxIgseKrRmzde011SRo0U7DpRSmXtPc0Nl86vth0cak5bxkh5Xq6GFRi5Ibj31M9Z6m+rvtZZ5Xj/f0GjfhJiFuRo8mT87zAjyswMyKe5L+RwI5z1+8jStJIcZjNBkC5hBw6wTlCVYMzBaFL24erZAxqNmTk3VBAldvUKACG0lbPnr7ybZP3vnAHI9iX/MNnxIxMX3HHuCD94bwL4fffrLx+GdfiC2To8anxIDhKHEvjYOmCFLFUI1Z+C/V5HSsEDaOFrrh3eXeU+PetbHbFc3xweNTBQ8ieAh51jtvvs8rBGcnnAYBTcxFqISi47rGkE2I0PLx2/OwyDvtQE26a+9xSMgymS+fUnn28ZWzf3+XVJgIQHRazgJ5eNKO/mDY+11VW/hRZW76g/b2d1S/kHXv7fKZPuNmW8e7pBy9OA94c/dsYInRbcWPtacXAc01aqP5VhvdwWv/E0O5IK/zHHolvcRZTFrOUohNJ5GcYH/Z62GCWK1oxtBlFSZOCniI7QEPMSI3OQbrSiH+aNzew2dA9Kst3ZTeZ305N60b533ajyUUsAQWu+4UCKDnrT6wm+uM0HI9cpuSJOwDj9gU2kEgaFkzwPNujhSed6TnhNc+HmlmHE2vqXzTRlKZgEZMWnq/uubgHp265ryj5bBlvB6ZrN532owMU336e7R6geeh0aNV79LvVKZgYuecFAH0vDXuf4I3tzdsO6A3N2YXMniazfBmAGVp8QVUbMiGhSSOi0rfcgj44B1776rKEufQ5Z+G/uPiQiYu+uYsYOGDgPA8ysFMgWErZv/DeI7Bu3vI+vf2+kybkYKE0FEHPVo9m5iplTewjIDTImDc9wzu4rrCBsZ9tn74Zkrrp+/to13wGx5T5AGPs/nyqSxa96SiGOpbuujh8goT552gqYKTykb49S9Wn4T9yGtc9L5nYjME7EYAk8Gj01DLme3rlGtWrbKbkIM6QiafvSQy+Ujl2SYkrLyX50Iy5yjaaIuvK1pnszOMKf7wxoQbdLupazSdq/oi8yGDjOqFME1wMV4YAn0IoNkWEyY0f/gW1eEjyHBUanYmCWUJpPZfzsvdh4MrfmEK8/Ks1xev2aOuLdhL4iaAG3QhrlpJ0BKKhqa8pKByS0aKUPQZXYaAMyMANXef1TVX/UyzjPgMCoyYuYkEjydzlvCuLUyCD7FpMIXZbwYqcjPmotmh3ym7v2Kcp9eIGKpNnriybjbsXm23kKwjQ8AFEVDV5W+u3JL+Es2i+4QmjyUVa44RABrFgfM0y+so3tgepgmkYYOclK3yZ3AC4h0gbIJFoqdI7uESZYwRYwhQhoC6Ln95xZZMIvlXhRKN4P9za9WWzNva6/IPCsWr1OiyFaaJGcM3KhOn7Tl1LW6429PRkX1wpXn+1KsrHTkmG4shIDUE0PpEu7L0HjUpmuDKcjFTlgPvUqYwB+Jh/IUKBGq7PWTiks2nLjsBUW2+QaEav39tfbsyP89mAVkHhoBrIFApBaeX8BmPP0xiOsD0eBafgyRoORMNpjCHmM2q3IwPCToBPUO7ExDCUJWdOYfUHu4QsLLTDAEJImDQn9l+VzztjOMzBgpC/JkAn12nctMfIEDH6UgwhWlmSgk7Ae2WgtKsrHh+kd5XD4UF2cEQYAggAvAcuLm1Oq+VZjQCrpo5OWZxzockeIQtqVvY6tI0kkxhmsal76yyeN3T8IPEP4s77C2s5mJjPfuI0/jlxAl1fd76v9PIGuOJIeBoBMAj9iUpKI/Q2BVvQN628XzxAavaJinIy1dOe/szL1krkCPodSaZTEBTXqiu9WjyCrcCHtaEIeCUCICy3Fa5JfM3tAsXk5r9bUDEzFv58sky+VhGkK0wLWPE4RsXupNb0dRiE6MT0OKcFy02FLnB2e3p00RmgQ3PEBANAQNn0EpBWYbFZS0ioSwB6GopODWJdkNcHpgpTCtnAN3JVbX5P1jZ3GwzeWTSsyGJWSlmG4l8UVVa2kgwvEZkadjwDAHbEIAk47gVQ/WBlq+QxJXbCDDZBf/r9xOg4/QkXLq8l62z21ye/al38MSJviNirre17+D2ULz6fniL/VldV0htei1de+25rlBNmXzkrDux1BE7GAKugEDL6W1v1uQ98yzNsgZGLZgfveizz4DHAD58wn91xfHPb5qjqT+Kpb/YYQEB9hS0AJCpy1B4eisUniayt3H2Pw9PaTnz32OmxqHlHMk9XFpkYnwwBEwhoK4r2FuxJWOuqWu0nCP5/1iek35Dh6LwMC2y0c4HM8naMUPgZr5Y03TqhB1dr+gSkvjEl1ecpOwE7uE2yHcSSeRAmWiMHYZAHwKXMvnQrSxHjUoJAG/7b/uY5vEFt1yYsrQNQKYwbcOrr3XL6e1v9f3g8cV3xMTJYQlZRFarPNiw2LXmfx/4sL3hQJ7FhqwBQ0CCCMD2SHfTvn9S/384bNYfsHSgL1+IwR/jCRY+YjuKTGHajpmxBzgF/FtVU7DLzu4DuoXEr9waEreC6nJgyHDVV0vmQPHcfQOYZz8YAk6AAHiIzmtuLmqnWRR4TjxPorYlWMeOVeZmrqFZVlp5YwqTx8xUbs24heMMRDL5hyU+kecfkcTbmYiHOFZ1rchOf0jv391jVWPWiCEgAQTqitc+JYXVFliiVpCA88KhtfeQoOOKNJjC5DnrsGn+e54k+rpPTM15s+8HpV86j5eePv3Z0rkGN1IV0CgVlLHlEgi01xVsrS9a+wrtwl6uehTEl09VbeE7rRU7jvCl46r9mcLkOfMdioNlBOMVZ0mlHFjTha2reULHujMEREUAnXyqtmSkisqEFYNHp2bvIGGKvZTJJ/13VgzJmgyBAFOYQwBjy2k056hqCv9iS5+h2uI/RtTizf9vqOu0nK8/8K8vYT/zOC38MD4YArYgIJU0cBhCIo+YucAW2Uy1hfjBE7+UbmCe7qbAseEcS1xgA1jmmjaXb8o3GAw9oPDmmGtnzTXvoMgF4LXHQVIDah1s9Kqmpl/Ob/vCd0qst093SJI1crE2DAEaEGip3J59ese9C2ngxRwPoQlZj4+bt+Erc22suYYhcOVbMzI6lIcrrWnP2gyNAFOYQ2Nj8xW1ovBHeURil1fgVTfb3HlQB1xpBoQltYIiLhp0iZ6fLS2dLQWf7+wO1p0LGnHjYnoYY5wwBEwjANU4XgFlSb1ZMjR+1fzQhFWYyYfvoTq2+4/R+gulSr6EWH+OYwqT8F3QdDJ7f0B40kTvwEjeHq+w0rzVwMkOQfYRqt8MO6qKf2rS5H0dPC0zzU3rLicMKSPHECCAgMEACUfmXChe9wEBYoKSCIxIih87bwMR61JlTuZUXc3+ekEZdiHiYNpmhxAIxD6mqAE/0ggStMty4/242loNCVpC05jw2693Bw2/ca7Q4zD6DAFrEbi8X4n3pCRcu294TNENvPJezKAzohTCZaydRxraMacfgWbhVPbSG4A0kXjF8df/9WWB2CROFkJObsZ/1HZlfh5x4owgQ8AGBIx5YeFevFy2SirKMg9E5K0sVTX5rzNlacPNYmVT3hNj5Tgu10ynPt8BjjsyEu7gPsETE1WKgjysHiIFIJHP5p+zN3bLu6qDRs1ie5tSmDQn4hEVJez9P1q9a8XzUvmfQfghpOwL2Mrh7YxkXFFvzVzmRFNKjSjMJCvoVMR63vDY9mYYIoDAMA1lr/8plOOy9QRoOZQEpvQateCPczwbvWY7dGA2mEshAFaNHY1HNn4Igfm5UhN8WMzCqePnv/sTb74N3MmyremxXG2hJLZweMvrYAJMYQoMuDws6Zro9JyTJIYBm1Lx4dfDEkjQEovGqLl/fEA+Lvm6IPmNK1mNTbFmwTnGNbgbfrhQsDa/vb5wW8c5aZeomnTX3uNYiIHvzECav8chc9FrfOmw/qYRYArTNC5Ez5KsX9dem7+nKjfzZqIMikksLGbkmGtuXyxTu4WLyYZdYw/2AHA3wDuNbMBemUF25T62zE2PTh2/HjKZoUcmG2A5kLnru3t6+tGSGQwymUz3ayccSabvcecG0HKTGa5YWegN3IBzMjeDzk3GdfWn1cPJOt1kPX20IFtwjyfncbF/my6vLn0P597R/5zBXdYuU8PuQ7+jZde7bf1+sq8WEAiNW/XX0MRVf7PQzOJlqSRjsCgIxQ2YwnTQ5IQlrHwwJD6LiEt7a8X2DWd2PrrCQayzYRgCDAGBEBh36zvPB0cveoEv+Y7Gim3l3z14L9dyhr2s8AXTTH/m9GMGHJKXVHWFhw09XLE8MvluvnR9RkxMlIcnXdtUvmkzX1qsP0OAISAOAlFp2f87bNy8Z3mPbuCKjn14/TxO29LJmxYjYBYBpjDNwkP2ImQCqoI9zSavoMjb+VL2Coyc7B+eZABvwH18abH+DAGGgGMRwG2aMAIWJ7CF1x9+40+w9/nzALO4Y6VxndGYwnTwXMOqsBgyAaWA+/g4vkMDjTlSCjfhKy/rzxBwBgTkYQmzYtK2/EhClsrc9IW69p1nSdBiNCwjMNhtwXIP1oI3ApcDqct5EwICMak5u/1HJ4whQYvRYAgwBIRHIDo991MSoygPrlnGkhOQQNJ6GkxhWo8V0ZY1X90VR4ig+8QluaWEaDEyDAGGgIAIXK53O47vEO01+WsVJeu+5kuH9bcNAWaStQ0vYq07Oqp1pJyAOBkXCDEGbVAO7CAxBhkhhgBDgCgCUak5fw+MSL6HL1EMH6namsnbeZAvH67Yn60wRZx15aG132oaKz4kwUJofNbLXESSLwlajAZDgCFAFoGwxJV3QBWSpwlQ/aUy9+t5BOgwEnYgwBSmHaCR7HJ658NrCdHziY5b9V9CtBgZhgBDgBAC8rDEmSFxWd+QIAeFDZZIMT0mCdlpoMFMsiLPgl7T3KBtqtw1PGphCphWh/NhBz1vg6IXJmqUh3Z3dTSo+dBifRkCDAEiCLhdd39xCVDy50vt/P4X7m6t+GYHXzqsv/0IsBWm/dgR69lyelt+xdb0B0kQ9AueeGvYrNVfkqDFaDAEGAL8EAAnn91AYTQ/KhyH+5aNP737BV86rD8/BNgKkx9+xHpjGSI3g+FAQETyvXyJ4koTAqNjm09uYoqTL5isP0PATgSiF29Oh8xef7aze/9uB05sTJjd/wT7Lg4CTGGKg7vJUVWKwrPy8OTJmMXHZAMbToLSnMgZeorUioNVNnRjTRkCDAECCBgz+SRkEfEpKHs9bCwBlhgJAggwkywBEEmSwE19NL+QoBma+MS3mFWEBC1GgyHAELAOAd+wuEhIKJJnXWvzreB5kGK+BbvqSASYwnQk2laOdTkTUJmVzc02g6wi+4MikyeYbcQuMgQYAoQQyHS/Jv2bT0gQUx5cdwfL5EMCSXI0mMIkhyVRSvBmuZIUwdEzVr5PihajwxBgCAyNQHTq0l1QMzFl6BbWXWmvK9iqKFmz3brWrJWjEGB7mI5C2sZxmBOQjYCx5gwBkREglckHxEAnn/kii8OGN4EAU5gmQKHlFDoB+Yclc95BkSl8eUInoICwZD2UA/uRLy3WnyHAEBiIwCUnn1VECsQzJ5+B2NL0i5lkaZoNE7xUbU1frWk6dcLEJZtPySOT/uYVHHWtzR1ZB4YAQ2BIBFBZknLyqcxJY056QyIt/gUwt7ODegTCwvxuSD+kAD6DSPCqqs1Pr8zN3EKCFqPBEHBlBLD6iDwiOYUABh1n/7MorOVMaRsBWoyEQAiwFaZAwBIlq1B0gBPQb0jRlEfMzIlK3fwkKXqMDkPAFREYP//dVwgpS05RtOYfTFnSfxexPUz658jIIToBQdaQfC95JO9MQEgQ9jTnBYQnpehaL/xXpz7fIREYGJsMARoQcItOzd4ZdPU8Iv+LINA+CCV7gAbBGA/mEWAK0zw+VF1tOrnpTEBY0ixwAhpPgjFMoTdycuadMoPsmEpRcIYETUaDIeDMCOB+5eT7ir/2DrzqJkJydoP16EF8ISZEj5EREAG2hykguEKRJrhv0seiurZgr7Jk7SPttYUslV4fKuwLQ+ASAsHBCYHBN2U9Fxg5cxVJTDCTD0tOQBJRYWkxhSksvoJQHz4+NujqBdvPA/FA0gNAWr7vFQeev+9iwwkladqMHkNAaghA0efgMXFZ/5ZHJC0jzfuForUrLxSvXU+aLqMnHAJMYQqHraCUSbqym2JUXZe/Wlm87l+w4mw2dZ2dYwg4MwLDx99+/cipD/6LlFPPYKwwX/TlFJiDL7HfFCPAFCbFk2OJtZC4FbPDEp/Is9SO5/VG8OB7gzNwPcqWk//gqr7t5EmPdWcI0IiALCQ+K4vjevzCErLuBwbHCcWkgePyDr8eNkco+oyucAgwhSkctg6hHJO6+VOooflbhwz26yBbQIke/fUn+8YQkCYCoBwnAOd3w5+jQuyUZTmLJnCKUuaZLsFbhilMCU7aYJZDElY9Fxa/avXg8+w3Q4AhQA8CmsZTx0/vXL5U11z1Mz1cMU5sQYCFldiCFqVt1XWF+wxgMxVqv4VSsRlbDAHJIIBe6KeyFyTqNc0NkmGaMXoFAkxhXgGJNE+g0gRHoFhMsi5NCRjXDAHnREBVV7AdHHxudU7pXEsqpjCdaL6bT2760j8sUe4ddFWyE4nFRGEISBmBAijVdYuUBWC8/4oA28P8FQun+SZ0yInTAMUEYQgIiAALHREQXJFIO8ozTCTxXHNYzBxSmZM+E6Q/4JoIMKkZAuIicKF43dMszlLcORBidLbCFAJVimhCGr2XwBnoGYpYYqwwBJwWAYixzK/MTX+GpbtzzilmCtM553WAVJdMtJtf4ThZ4oAL7AdDgCFADAHwhH2lIjfjKWIEGSHqEGAKk7opEY6h0Pis1NCElaxwtHAQM8ouiADuVdaXrE1naSSdf/KZwnT+OR4goa9veERIynOPBEctSgPz0eQBF9kPhgBDwGoEWiu2b6gt+ed7LBGB1ZBJviFTmJKfQvsFkIfFjgxJeAoTTN9pPxXWkyHgUgiUKYrXvqwsWrvZpaRmwhoRYAqT3QhGBCCn5rKQuJWPczIugUHCEGAIDEQAcie/oPpl/zsXq0tY2buB0LjUL6YwXWq6rRM2NH7V7wIiEsPl4TOfhh4s9Mg62FgrJ0Kgo/HU5tbT24+31e7/UKMoqXEi0ZgoPBBgCpMHeK7QFYtV+4xMeRBy1RqLVcvDk0PAhJsGso92BfmZjE6PwC5YPf4aryzjflQWrdvr9FIzAe1C4P8AEO99uA61MpMAAAAASUVORK5CYII=;" vertex="1" parent="1">
          <mxGeometry x="516" y="409" width="57" height="57" as="geometry" />
        </mxCell>
        <mxCell id="V8Acjl_ElyFGZNs6vDOT-22" style="edgeStyle=orthogonalEdgeStyle;rounded=0;orthogonalLoop=1;jettySize=auto;html=1;" edge="1" parent="1" source="V8Acjl_ElyFGZNs6vDOT-23" target="V8Acjl_ElyFGZNs6vDOT-18">
          <mxGeometry relative="1" as="geometry">
            <mxPoint x="576" y="403" as="sourcePoint" />
            <Array as="points">
              <mxPoint x="545" y="341" />
            </Array>
          </mxGeometry>
        </mxCell>
        <mxCell id="V8Acjl_ElyFGZNs6vDOT-23" value="" style="shape=image;verticalLabelPosition=bottom;labelBackgroundColor=default;verticalAlign=top;aspect=fixed;imageAspect=0;image=data:image/png,iVBORw0KGgoAAAANSUhEUgAAAlgAAAJYCAYAAAC+ZpjcAAAAAXNSR0IArs4c6QAAAERlWElmTU0AKgAAAAgAAYdpAAQAAAABAAAAGgAAAAAAA6ABAAMAAAABAAEAAKACAAQAAAABAAACWKADAAQAAAABAAACWAAAAACvnIKYAABAAElEQVR4Aey9CYAkVZUufCIjMrP2qu7qnWbfZWk2WVQEFFDZQUVcx+e4zYzz5o0zzqbviePM6O9s6rjruI0j0CNrAwqotIKo2ECzyNpAQ+9r7VW5x/99kRXdWVkZuUZkRladA9WZGRF3+27EvV+cc+65IiqKgCKgCCgCioAioAgoAoqAIqAIKAKKgCKgCCgCioAioAgoAoqAIqAIKAKKgCKgCCgCioAioAgoAoqAIqAIKAKKgCKgCCgCioAioAgoAoqAIqAIKAKKgCKgCCgCioAioAgoAoqAIqAIKAKKgCKgCCgCioAioAgoAoqAIqAIKAKKgCKgCCgCioAioAgoAoqAIqAIKAKKgCKgCCgCioAioAgoAoqAIqAIKAKKgCKgCCgCioAioAgoAoqAIqAIKAKKgCKgCCgCioAioAgoAoqAIqAIKAKKgCKgCCgCioAioAgoAoqAIqAIKAKKgCKgCCgCioAioAgoAoqAIqAIKAKKgCKgCCgCioAioAgoAoqAIqAIKAKKgCKgCCgCioAioAgoAoqAIqAIKAKKgCKgCCgCioAioAgoAoqAIqAIKAKKgCKgCCgCioAioAgoAoqAIqAIKAKKgCKgCCgCioAioAgoAoqAIqAIKAKKgCKgCCgCioAioAgoAoqAIqAIKAKKgCKgCCgCioAioAgoAoqAIqAIKAKKgCKgCCgCioAioAgoAoqAIqAIKAKKgCKgCCgCioAioAgoAoqAIqAIKAKKgCKgCCgCioAioAgoAoqAIqAIKAKKgCKgCCgCioAioAgoAoqAIqAIKAKKgCKgCCgCioAioAgoAoqAIqAIKAKKgCKgCCgCioAioAgoAoqAIqAIKAKKgCKgCCgCioAioAgoAoqAIqAIKAKKgCKgCCgCioAioAgoAoqAIqAIKAKKgCKgCCgCioAioAgoAoqAIqAIKAKKgCKgCCgCioAioAgoAoqAIqAIKAKKgCKgCCgCioAioAgoAoqAIqAIKAKKgCKgCCgCioAioAgoAoqAIqAIKAKKgCKgCCgCioAioAgoAoqAIqAIKAKKgCKgCCgCioAioAgoAoqAIqAIKAKKgCKgCFSNgFH1lXqhIqAIKAI+ILD6gU2dPR0DPTkr22ukjMW5qLFEcrLMMIyVtmEvN3L4HTEW2CJ9htjdthjdKLbTwI/C4m2cwAA2IWJP4uu4GPaonYvsNSS304jI1mwmsyVmxbZnJb3DzMb3THWkxzqs3vGLjjSShfnod0VAEVAEgkBACVYQqGqeisA8R2D1JruzZ+/UYNZOrzDsyMF2xD5EbOMgwLJSxFgBrrTQNqQPRKozkpMOfI+CYOHU9JAE9uSwqf3/lEGU6fh//tNNaOdy+GqkJCIJse1J/BhFJnuQ81Zcvcm0cy/nxNgoRu6lXDa6PdrbtUfJVxmY9ZQioAjUhMD0aFZTGr1YEVAEFIF9CNz8yNBANGKvFDt6FA4el7Pl2EgkchiIzAEYYAYNkCgrGnOut0mc9v3loHxyf/P0DAWVc31D/4CscYBziVsEai0SOP52jqHsdDrFKkzgwj2SszdLxH7OyEWeso3ck6jdsxLv3Xr5McZYQ/XQxIqAIjAvEVCCNS+7XRutCNSHwLXX2pHTr5xaYedSx+aMyKlgKqeAF70CBOUAkJaBKIgUaZJDoqBBytnQIoHBkMWEUVyyZYB8GRH8TWvQ0qkkFG72nogd2YQ2PIHaPwJt2zrLNJ69+Lie7WFsi9ZJEVAEwoWAEqxw9YfWRhEIHQI3rtu1vMOMHi8R81XQN51pS+R4EKrlIFMmK0tTXG6aTFVLpBy6VcS5Cn9yYOLvvNtVuWEKNcJV7vWsD2VWChyYdSx/acl/HeIFwgVNHEgXmwltVwrqLrG3oE6PgTT+xowYvx7PjD959SnLd5XMRA8qAorAvEagljFnXgOljVcE5gsCdz5nx+2piaNAIs4WiZwHonMqiMVBsVjMJOnJZbMgVNm8ZqoMKIVKqzxZyl8MzgJlkCEmP/EHrRA+jelPwXH8xsjEc45VD9SI1xdLDgU4/8GWB34HbZlIFv/weybLTxufPGfjOM/nzzGfwvrwd4nseXiGkHRFTBP1cnilZGBfBEYbcdFvDdtYmzWyv0qe2LvhasNAqSqKgCIw3xGYPWrNd0S0/YrAPERg9b07ezr7O06wI8YFhmWcDwZygmVGB0gqSKZIqhxTnwc2LpnKExfouMCQSJQsSyRmRfBnSCyKP3xG8dsCR8lfkyc3jsZoejRqZFBi+RTWJ/+3n1xlMiJpMK1UWiSVsfGZk3SGfy4x268NYx6VSBfNiiRcJphg1tHiZXfjyyNIeHfWMn4WjXU9qU7zRFJFEZifCDQyls1PxLTVisAcQeDO556LZycOWCV29iKwhIswGBxvRaOdJFKulqpUUx0SQwKDkzThkShFQZzi0Yh0xPiH7/gjscprp6ZJ1HRmTnr3e+GPUoX5cKyQKLkDHoslActru0iybEmmbUkkbZlK5fA9f4zaL9cESRujm75UtRyyZYJRIkU6nR4zbHkEzvJ3wFftJ8nju3+vmq1SqOkxRWDuIlBuvJi7rdaWKQLzGIGb1o8eZWXtiw0rcjm0MKeBVHWTVGWzGcefqhQ0jjYIJzhgkDTFoY3q7IhIF/46QaqonTJp6psmIS5vYrqwi0vA3MEQ1kVgQQ0XyFYyK5MkXfhLgnhlSLhwnte66Uq1j75bJskWLkxnMsNGzv6NbRg3gcjedelxnS+XSqPHFAFFYG4h4I4pc6tV2hpFQBGYgcA96/b2J2LWeZGI9dZcJnuBFYst5sNPUkUH9WJxeNE0OYIVzNFOkUz1dIJQxWnyI4HIE43pyxziUZxPu/52Bkb8w0+2D1ZSScKcSKI1MZWViQS1XCSlbuu9CRd9tkzYSrkYIJPObEFA1B9D67c6lxz91aWnrZhsV4y03oqAIlAeAWccKX+JnlUEFIF2ReDOxxOHZ7Opt8KOdzUe9pOisbiRyaQdE2Bxmwq1VDT5uYSqp8uUDpj/CglVO2imitvX6G9qrFzCRaf5BDRaE5NZGZvKQcuVNylW0m5Rq0WylUlSP2Y8aNvZ61OJ1C1vPnNwc6P10/SKgCIQLgSUYIWrP7Q2ikDDCKxevdrsPeaS03N29j05w7gC4RSWOSZAEKtiR3VH/8J/MBLQAb0bGqo+EKqeTtMx+9Hkx9PzkVBV6giXcMFq6JgTJxJZGZmAdguEi070DtkCfqUGWTr1W1bU6Y9MJvsS/OB+BOf//3rj8T2PVipXzysCikB7IFDq2W+PmmstFQFFYAYC37n3xY6FA0teD4vU+/FgXxCNxbrLaauYmJoqmv36u0GqQKz4W0nVDFir+lFItugwPw4zIsnW+GRes8VMeE0poUbLhHowlUwN4/waO2v/Z2JDz/1XX63hHkrhpccUgXZBwOORb5fqaz0VAUXgAez7t3f3+CUSNT8Elcg50IxYWZoBi3yrqFGhNorxp2j+G+gxHW1VHE7qSqr8u48KyRYNgaOTGRkez2u2aFrkoFuKbNFXCwsOGF9rys5l74bT1le7h/p+dt55BgJJqCgCikC7IaAEq916TOurCEwjsGbd1i4j1nsxKNMfGxH7taYZjWScvfVIo/aLa97jyr8+aKoGek3p7mD8JjX/7UcpmG8u2SKxmoJj/NB4RkZAtpLQcpHtliJa3LKH5sNMNpNEdNS7sunMV/tO6fvpeYYSrWB6SXNVBIJBQAlWMLhqropAYAisW2dHt5pjF2FF4J9hF5dz4DhdkljRN4iaKWqrFvZa0g+NFcMpUFzSFVglNeNZCLhkytFqwXy4dzTjrEZ0+6k4AQOZ5jVaGexInf2J2JnPX7xqwVrkM5NBFyfU34qAIhAKBJRghaIbtBKKQHUIrHlk7Fws8f+oHYm8yYKU0lhxwqZ2qhc+VYP9pvR2Wk7kdM7KSqyqwznIq1ytFrfxGZ/KgGhlZRSEC1EgHI1W8aBMohWF6RDBS6dwxY1wqf/8JScOPBRkHTVvRUARaByB4me58Rw1B0VAEfAdgVse3vMKy4x/1IiY15iW2V1MrFzyxCCg/d0RWdRvYUUg9s3DE07CpRJOBNz+YVytPSMwH05knK17XBJWWGuaDrEiFM7wyWH4Z307lct+8c2nLHip8Br9rggoAuFBQAlWePpCa6IIzEJgzbrRRWIZH4Zn9Edi8Y6l2F94VrR1bmIchcqKTuuDJFYwCdKTWrVVs+AM7QHHfAgizHhaJFpD8NPiakQSsGJxtuTBysN0Mv0iboZ/64lOffe845aMF1+nvxUBRaC1CJR4fFtbIS1dEVAERFavts3Oo8evjBjm30Us82RGAWfU9UKhZoqbJg90W7J4wHJ8rZRYFSLUft9dojUForVrJC1DYzAdwpRYimiZcIQni0aw0l9gI+t/vPzknnvar8VaY0Vg7iKgBGvu9q22rE0RuOux0WPSYn0iYhhXG2YkSnNgoVAzBWuRE7tqyQJqrPJ71qjGqhCl9v7uEi2aDncOp52Vh4y64RwvbBoO0GyYyWQmJZf+biaZ+ewVpw9uKrxEvysCikBrEFCC1RrctVRFYBYCqx+wOzu7xv8QpOpvMGkekE7BHGhjVp0Wl0D1wsdqyYKoE8OKE6573L1OP+cOAm7/jmFLnp1DacTUwv0Agl1MtLi5tGWBaKXTzxiS+/T4Cd3XX21ooNK5cydoS9oRASVY7dhrWuc5h8Advx86yc5G/wGOzBdzG5UsbD6FQhLVETNkKYjVgj5E/oYGS53XCxGa299JqKjBGobJcMdQytl0mubg4gGcYR3gk5fNptPXRSK5T2K14QtzGxltnSIQXgSKn8/w1lRrpgjMQQTufM6O5ybGP2hH5BPRaHzJrNWBIFYmVgYuQriFJQNRJ46VEqs5eCNU2ST6YnGfw10wG+4epn9WDtqsmcM4f2NTb2qzns/ZIFkndF+HY/tVoVWWpZcpAopAYwjMfDIby0tTKwKKQA0I3PTb0aOsDvMzVsS4ijafQid21+zHyOvLB6O6MrAGXOf6pc6gjX8msan0tr0wG2LFIXj4LLMho8GDYGVy2cx3U+nk/3vzaYu3zXVstH2KQJgQUIIVpt7QuswbBG5bP3a1aZifteLRQ9OpJPyoOEXmhV8ZcX0pHNgH+6OOQ3vBafcy/ZznCDhmQ9wrjAi/A0QrmbJnkaz9QUpTj4LAf+zykwd0peE8v2+0+c1DQAlW87DWkhQBuWfd3v6EZf0/I2J9xDQjsQw2ZXbF0ULgB/cKXAatVRc2YVZzoIuOfnohQLPhVCon2/cgftZYxln0UGQ1hMmQDvCZcTtn/2NPf/fnzzvUSHjlp8cVAUXAHwSUYPmDo+aiCFRE4I51e0/IRTs+H41ar4MXMpyW97vFUIMVi0YcYjUIJ3ZOkKq1qgipXjCNgHu/DGHbnW17UpJMz9ZmMUBpfgFF7keRbOovL9Yo8Hr/KAKBIqAEK1B4NXNFII/AzY8Ovzlqxv41aloHpxB+wVlrPw0OiRQ3Yl6xCFqrePO1VtScFYsODMWItMdvV5u1dXfaWXFYvNJwnwN8KvU4gtf+2SUn9d7bHi3TWioC7YeAjqPt12da4zZCgKsEM5Pjf2lGIp+ABqEDK7v21Z7EiisEly5kJPaoE3qhmVorEiuEKJUO1AG8zvGSpiYNQcQlmbUFAcRnhQHAIZWQI+D4ZqEPdyMS/DaYDbPoy1kmQwQnTaczw4iz9jeXrur5BohXKZ4d8pZq9RSBcCOgBCvc/aO1a2ME1jyDfQQTkX/D5szvhu8LTIKkLHmhb1V3hyEHLIpJL1YKNpNYsQacTbll4QDMkvh/lpBkDcOvB37TgZCs4oHHnd2dT/yDDWCcOroVK4VPIWlgfsa0uib/3U25/9MtY/+Ruf2N+IwjMOnmXUmZSMze19A0Ld532Zyd/kLM7v1/b1hlTMxtRLR1ikBzESge55pbupamCMxRBG5/aOxYiRpfQ2yr16bT+1cJugRiYZ/pkKsoVguWIg9BwsI6UGM1CCd6KK88BeGWZDeYFj/rlcLsmQ03pqbnGd3PGFzAIZ74neVxpxzurYfzRQUWrrJ0T9HcVSh5JZwh+U/u34fvuISf5vR3puDvwpQNNK+w+FB+R1OdTaO37k5hteF0OIeCmiKwLbSolmRSqVtyucifXH5K99aC0/pVEVAEGkCgcJxpIBtNqggoAi4Ctz08dI4Zj3/dilhHpxCCwRUShwhscssQjZ0R2Q0wAR5rtvChXxSnWbDy4z8JdrUXDtPVSGFuDolC4xAHEwQNG1WDPZGo5QlWnkR55VqYTzXlFl5TKk/m5/xNEysT7bamCZeFTmBUfIeMFWRUKp+C0231lSSL9xmDk27bk4bJEHgUgEyiakURmDSTejCbsj9w+ak9j7VVA7WyikBIESh4zEJaQ62WItBGCKx5dOwtpml+Gf5WS7iXoCuc4OLQVq1cHJN+hGGg/asVkzjLpGlwEVRY1Tz81CrtgharlKnQTc88SZzg6iMZqKYySJTGb6blcZ53xU3j/m7FZ3F9XA2XBVyi3NMPhIMkDD8dKby+FfX1o0wHd/wzMpGVzTsZMyvrrCgszJvR37PpzPN2LvsBdX4vREa/KwL1IRCG8a6+mmsqRSBkCKxZP/bhSMT8l4gZ6S6Mb0Wi0dMZkYOWxlqySrAQJpKFXtgFB7CvYbWyO2nLFBrBFG4qaqiolUqDUKWdTxKqvPmP+brX8Xs7iEui3DbSpBgFyYpCvcVP/uY597p2aFOpOqIpMgnCvGlnSsbgn8XfhYJNxukruBMmwz++7JSBGwvP6XdFQBGoDYGix6u2xHq1IqAIiKxebZvdR0/8lRExP2VjTsbWJPtgAeeQBb2WrFwSlajVfH+rfRWZ/kKC0Id69EObVq3sgfpqCuoppk3jMwVSxT8SLNdXqvrcqi219dexvWwXNVyAzNFuxUC4sLWRo93i+XYUNMfpxy270rJ3JDPDXMj2cIsd+MSNQZ3155es6vvPdmyj1lkRCAMCc3FcDAOuWod5gsC6dXZ0qzX2aSsa+xhMKxE3eCiJFSeyxQMW4lvFQrPdDUlBFwjCIHywqpUtU1kZTVNTtZ9UVZ+62lLCfZ1Lpmg2pPkwDlNiO5Mt3pvoTico6c6h2dHf6fiey9kprEL460tW9Xw+3L2jtVMEwonAfBsnw9kLWqu2ROA7L9odgyOjn8Mb/586vkacsSAkV5h/nU2al9CZHU8Zj4VFuHJwMXywqJWpJHRyf3Ys5azyq+LyStnNmfPsTpItarPi0Grxr93MiG5/7oTzOwOT8vblveoKI7/jSMbOpj+57ubez157reEqLN1L9FMRUATKIMAnSEURUARqROBekKvIyOi/x2LxP8lhWZYbRoBEivPSgTAJLga5CqNwluQ8ygCj5YRt2TyVkYnMbF+dcunmwzkXOTr2p2AqTWK5JJ37KYUO8u2ARU+n6WwuPg5NZSHJ4j2NFYYRwzTPW3HUZO6oZZ+5f+3aT+Ub2Q4N0zoqAi1GwB0nWlwNLV4RaB8ESK5GSa6i8Q9n4W9VSK7oZ3XgkpizYXMrtFaFs1+5h5vn+uCH1euhxiJX2ApytSMBH5326ZqW1pTYEys6xXdgSSLNiNRqFfZJSytYpnBqrkbGs/IynN/TRfsYYuEGQooYuVw6c+3Ft/T8o6GarDJI6ilFYD8COnbux0K/KQIVESC5Gh8d/3eYBWeRqxjIykHLYtLXosjsVEdTK0XORM1KAiyJsaeKH3L+5qTP1X+IIS/9CDjaiXTgBU7cqkloY3Yn835XxWkrAqQXONgSN5KrDpgOSbYY+iHsRIska2wSJGv77M2isYADZu9pkrUKJMtQc6He6opAJQR0/KyEkJ5XBKYRWP3738c6Uys/Z8U6/iybTc/QXDHG1cEgVz1dzd32hpM2fYFIkLg6kLGcXIFlT4bhnD5F3xr3ID5JrKYyWcesRSLGVXLcLodJ+TsD1RvzLUxTkFy/1oAAcaQltgN24842IFok2eO4YTZuI8nKzfDJ2k+y0n93yarez+Ekm6eiCCgCHgjoGOoBjB5WBAoRYCiGziMnPm1Gzb/lnoKFZsE4YkodAnLVDV+WZpsFoXxyiJWXPxUJEwOFUpNFH6HJaWLl+mG5bSycKXVQcFHx75P4tgvRoiZrgiSLmizsR8nfrtBcCOqdyaVTf3HpKf1fdI/rpyKgCMxGoOB9d/ZJPaIIKAJ5BDqPGvuYGTP/OodtX1pNrjhZ88Hth8aKEdm9yBVrzkmdMUVH0xkZSqYRzwr1x/GCOZOXOb95rPi4c1L/aRgB4gp+iwUDWacfxtNwKKcTecM5+58BXxK6ERiXLw1xMPjClwZnw3LDtsxY9P+77bHR9/pfuuaoCMwdBML4fM8ddLUlcwKB2x4a/hDiXP2HjaDeXDFI4aQTg1nwkOUwCzZZc8WNmvth06P2qhrZlcjKSxPpWVG7q0mr1wSDAEkuQzx0Wabjp8Wu5LEwSTlNlmlZeAZyo+Dr77nsxO5bw1RvrYsiEBYEqhyiw1JdrYci0FwEbl0/dhU2bv5nsJMZ5IqrBQ/G1jfNIlecfPmwulqraskV0eK+gCrhQoBvtoyEP5bKyDA0i8npGGphquU+TdbSqPMyUXgbZTMZOL2bfXDk/9qdj4y+Okz11rooAmFBQAlWWHpC6xE6BO58YvLV2Lj5K1g91ctwDBROMlA6YF/BqPQ2abUg6RG1VosQfb0XWrNa1M70wRopclZ2GqL/hAYBxtEaSWZkDGZcbFFTU/8G3QiHZGHhBvfRhNJqhrkwk06LaZnLcpHIt29/aOzYoOui+SsC7YaAEqx26zGtb1MQuGP96FFQKnzLssylnEgonGwYoX0l4lz199BE0pSqOLGqFkFlFeMSrxqEk/UmmAYnSbBqSKeXNhcB9g1vpUks+xyGRothMsIkvM/78TLB+G6IOjHjvk+nUmLF4kflzMg3b318fGmY6q11UQRajYASrFb3gJYfOgR++pQ9mIsYX7di0WM4gbhCnxTuK7iwL3hyxQmXDuoL4aE+AK1VjdzK0Vo9N5aWPansjFVgblv0M3wIkGi5ZsMREK0wabPooM9Nyw9YHJt1P6VTCYl1xF6NNbSfZ5y48CGrNVIEWoMAlL4qioAi4CKw+vd2LJGc+JdYvOPcVDLhHnbe2pcNRmXJguaQK5oEF8CRnfGpapEEbILbseXJECbo4lAMteSj17YWgQS0WBmoULujluME39ra5EunJmsRNi9P4x7btic9QyuaSSVhLoxeMzY6/gJW2X4CgUj5jqCiCMxrBGocvuc1Vtr4eYBAV3rszyNW5L3p9H7NFSeWwX5Lli2MzjCPBAEHZyVYY4QmwVrIFTUMO7Fa8DlszLwH/jzMhxoRlfZEwNFmoRNHQZTpCB+WkA58FvgcLMLzwHvOFYYu4QpbK2J+7PbHJt7tHtdPRWA+I6Bj8HzufW37DARufXj0Misa/aEYdndhOIberogcuiLuLKsvmFNmpPXrB6Ox1+rIPokootw3cASxlSj6UPvVG+HJhyEdeqKms79h0PdgpVY75A/s6sXtSRkdnxmIlOEbsll7J9Snl156UteDlfLS84rAXEZANVhzuXe1bVUjcBNWQcGh/QsRMzKDXHXAB+pArqCCQ1RQExvz5YO4EL5W3IC5WoLEdIxxtWE8hS1x4GuF39WmxaUqbYQAtzfiSkNG4m+18L4z8TwcuCQuXbBlU6vlCsM3RKPWEjFyX7lx3a7l7nH9VATmIwI6Hs/HXtc2z0Dg1qftXjMxfmO0o+MC1++Kcwb39TtkeTzQzZudcvAULgCxKheRfUaF8SMFP5jN0FoNwYmdMiceZKwisA2AztUEaJE9/VmO2jrXOBM8whtwpnf+uGpy+ruDztz6h3sadkNTVOvCB79RYPeMTebkxW0JAa+a4fwejXdIOjn1va3p3g986DQjvwzX7wpofopAyBFQJ/eQd5BWL3gEIomJv7NiMZCr5L7COMUvx4rBvgBjXZEXMGAoNVfRGmbLEZAqkqspmAZrSLavbWH44hApxLzgp0OnEGcskk6IlRgTa3JUolMjYuHPnJqUSGJczOQkyBPJJK/OT+Y5Ky7ZWJdkO7ol29kt6a4Fku3qk3Rnv2TjXZKzYsgfDm0gXQbSGtjmaIa6xcmp/f6ZQjgHbAYIbafVFLO1F0LksjSfc2Xtph37fRZ5PZ3eIxHrPSus8XX4+SWvPPS4IjCXEciPVnO5hdo2RaAMAmseGb3CjFrXYbLocPZZw7WcOLhainF/ghKSK8QNlYUwscDtqiphvXYkMrINf3QwrjJZVXkHfhG1U9gomIQnkss4RCo2vF0697wsnTs3Sgc+YyM7xBwfBpmaANkC2cV1cOjBJ4gRI6aSXxG44oYzOJmJvK2o5OKdIFt9kukblMTgCkksOVQSiw+RqcGVkupdJLloRz4LbNht4K+dBVHUQbJMiTI4VQuF3bF5V0p2DmVmaLHojyV2bo+ZNS5+w6qu37awilq0ItASBIqHqpZUQgtVBFqBwF2PDh+atqN3mzHriMz0qkGSmB5sdEun9mhAflfkCB3UXEF9xVhX1Qh9cDZPZmRvO5kEHVKFSRafJE0dezdLz+anpGfTE9K5Y4NER3Y62imHSJE1ueZBXO+wKAebAoDIKqG1c+JPFIPGjqPw0/ljkAr8Ma9YXDI9A5JafKBMrDxWxg88XiaWHympvsUgfahfm5IttpjUqjdmSSdI1jQCONJcYQ8xftcLW+H0DpNhoVY1CuzTqeSvo1bukjce17+3uTXT0hSB1iJQMHq1tiJauiLQTATW2XZ026Pj30e8q2tSCJRI4QRFUnU4yFUXSJY7ZzsnffqHZSBrWVADuZpCTKSXJjIyAdNQOzywJC02tEpWalK6t2+QvhfW4e8hie96USIw/znAkkxR8+SSqVrwpTaLRItgViMu4XJNhLGopAeWyuTBr5DRI8+Q0YNWSXJgmaNhE5gqHVNiNfmG6BquMOTG0a0SduNUIifPb00IokrMuE8dkpVM/Oslq3o/pvGxWtVDWm4rEGiH8boVuGiZcxyB29aPfRD7DH7NtnPwjd4/U3MbnMUwDxYc8g0JllIruWLohU0gVwloCKitCK1ghnW0QdAade7ZLAPP/VoGnr5fOrc9JwZ8qBwiBROho6XyoxHltFmV8ncJF02EICUZkK2xw0+S4ePOldGDV0kGJsZ21GqRYJFotUpIsvaMZOTlIn+sCIl0JDJl53JvveSE7jtaVT8tVxFoNgJKsJqNuJbXcgRueXjsFTHLuAehp1dkM/kFTpyvB7EFzsHLgvG7qodc7U5mZctk2lHWhPZBxayaM6Niwmeqd/MTsvCxe6Rvw2/EGt2Ffkat/SRVpe6cNJClRqteKSRbsZgkDzhC9p7wetn7inMksWCFo20z6AvWBkIUHJIFokWy0yrZtDMlu4axaKGgDlY0JjDDPx6xjAsvPq5ne6vqpuUqAs1EoHWvO81spZalCEwjwK1wYnbyK9FYx+mFfledcDYnuWK8K7+FE5/r0F5N9rx+J7a7IbmiG7b/NfKjhSBWWKVnZlIyAEJ14E+/Jsvu+4F0bfp93kEdpCtPrgKuvQsoXa7qETIRx1yJoRAs2xraKb3PPSgLn7lf4hN7JAXtVrpnIXJGfLIg1Jr11NkjDZGmrx6rGYPWqBUki2UyNtbYZFbSBaEbuIAkGo8vzaYyHUcvi9+1du1a3uYqisCcRiDg0W9OY6eNa0ME1jw6+n4sH/9GoWmQk8IhIFfczJaaLD+F2SFWqQxWuVqQkyOjsm/HSkFKGB9QG+TJyKZl4MV1suS3N0rPiw9jZscyfZKqVszqBKpWvyymKSc0HyK0Q3bhUtl78oWy89RLsRLxQLQ7/D5avOe6sKqS5sJWdAc1V8MTWXkRTu+FnNQA6YO5cCqTzb35shO7f1wOfj2nCMwFBMI4fs8FXLUNIUTg9seGD4Oj0M8jVuzgQtPgkumQDD5zq7zTPMkVGFY1ca6439wWkCvuKRjGB5NhFqjt6dnypCz79Q3S98wDYqSmWkusCu8zv0kW854mWpnFK2TnmVfK7pMvllT3Aok4pmW/75jCxjT2vdUki8RuC0I37Ng7M3RDFGbYdCr9UDqRe8NVZ/TtaayVmloRCDcCaiIMd/9o7XxCYPVq27QWpv85Fu88r9A0SHMGt8Lh1h9+Cic4ZrkQ5CpW6IziUQjJFcMwcOubVmgdPKo1fThvDoyP75EV9/+XHHjXl6UT4RacTX3MfBiG8umbdJY4sxv95D3T5sPIxJj0Pvug9L/0iGQR8iGx6CBn1WFYVxwShjTuKWqQYgjhwN/NFN7DXYhFMstUiLhm0WhshW1kEtd97bNrm1knLUsRaDYCzX7umt0+LU8RcBBY88jIRWYsdmMul+vAaibnGCeBg5fFZWGv6btpkA/WApCrriqIG8nVJpCr3SEkV9RaOW2BT9KKtd+V+LZn4VsFUsWVYWEVarLo/B6EwDQq8bgMnXKhbH3tuyWxcKUYIdZmEYXuFq0udEyF4zAVbptpKowwKGzO3ovb/oJLV3XDvqyiCMxNBJRgzc1+1VYVIHDP83v7E2Oxu2CeOCPNCOEQvtkP9plyEAhWENKP7W96qwjRTp+vzXBmD6PmyjZjEnO0Vt+XhQ/dLobjZwVy1Q7COFn8C0J484BopZYfIlsv/IDsPfa1UJpBn0dzYkilG/5YJFrNFk4wL5dYVRgDSU0lErcsz/RefZruVdjsbtHymoRAiF9Dm4SAFjPnEQC5+kNsh7OfXKHFMRCgpYNw1vb5FYNTOrYvrIpc8Vo6tO9COAa/69FQp6IyXCHY9/J6OeL6v5XBX//Ice5GWIuGsm1qYpLbKrSHddWJnQV8YttfloOv/7QcdNeXnK1/YISuK7tmJJpAPDXuYejz7V656ihw6YKodECbS17qSjqVwiJT69Jt1vhV7jH9VATmGgJNf97mGoDannAjQMd2O2f9woyaK7OZ/Mo8DvQMKLp0gb+rBjl/cAucQURpr8LtSraBXJFghekhdEyCAGjpw7fJ8nu/LZHxIYdMhLuXPWrHDknDHFxvCAePbGccZnR4xMmaOPpUefmiP5OJZUfCAX7mxsczrm/hD95nfYhi3wHiWcB1Aq8R+eguBCDdtCNJPd++8uCLJel0ej0c3s9Xh/d9sOiXOYSAarDmUGdqU2YjkMuZ/yfWEZ9BrrjXIM2DhW/Us1PWdoQTFpRiMoB/qiFX1FqRYO2fbmorL4irqYExk5Ny8N1fkgPu/GJ+WxtoatpWCK6FIS5IkOkED1Nq99MPyRE/+DsZfPo+YRiLcKkk8z3Ie3QMwalSsEsHCUnx/cLnjH6OvV0zd0hIw+RsRaMnYf/t9xWn0d+KwFxAoJnP2VzAS9vQRgjc9sjIKy3LugfTST8DHVL4Nn3o8rgM9Pjr2M4HiSsGO6swSw1Dq7JxPA3H+mbqEZzme/5DUhAf3SkH3/nv0vvUfeEJveBZ4xpOBOmPVVgNxMiyu7tl6xs/JDtOuwIEHnceNVwhEwtvAAPYIDrCh6FJwqJGJ3LYEDox48XGtCzJZnMvZ7KRc648uXNjk6qjxSgCTUFANVhNgVkLaTYCDMtgGJG/MKOxfeSKfIbEqg9OUn4GFCVN6oXmqhpyxQ2bX55AhPYQkascNDBd2Ij58B99EuTql3mTYBMn38DvDfpjNWOkgwbQmJyUA9Z8UVau/Y5EQK646XXYhNHex+CT1Ux6z9u9rysyK5gvzfaxaPQgy0h/JGw4aX0UgUYRCN/T32iLNL0iAAQ6j544F35Xl9EM4YqFiXYJHG795A6cpLiBc08VmiuaZkiuOME1T3fgtr70J8lVz7an5fAbPyWdLz0OchXMqsrSpTfxKE2FzRAGYwWJXvLT78pB93wVWwlBq8VjIRLee8lsTiZBspoqKHgJ/B6xD+iMYrOMjh+JvPf2R8eOn3FCfygCbY5Ak0adNkdJq99WCKxbZ0dBov4cW+J0ujGvqLGi3xWDH/qpPCKvYkiGSn5XLH/TREYmYa6aOb20DlquFOzZ9pQcdtOnJbZtQ/s6s1cDIUe6oom9mmR1XUO/LBt+fr+8wVlhaCJOlm2Ei2SxXROZrCSauLKQzx33/Bzsn+n/mHWCj8YHoVKjFissj0ddXa+JFIFCBJRgFaKh3+cEAjuiE683DPOCTBpBISHUMsVBghb1+7yMHhn3Y9KuZhsc7i04DI2Bn9ozp3F1/kNy1bv1GZCrf5DYzo1zm1y5GJHjNGv6djrakoUP3CwH3f1liWCloU3iFTIZB8lixPdmyqJ++PsVhW3IIK4YXj3etubhoRObWRctSxEIEoHwPfFBtlbznvMIUHuVzeX+t2mZMWzonG8v5o/BPguDun/aK05JXZiwu6rQigylcrJ9Kjz7C+bg0E6fq0Nu/Uzj5IqTsxOqgOEKpv+aPGFXfVOT9FRhyq06v0oXOiTLdEjWgWv/0+F2dlgY9nTd6Qs43kR/LN4a7ssOnyFXctBiIfjoADR9f4xjzaLBbvH6qQgEgoASrEBg1UxbhQC1V6YVfX3hfoMMcjjos/aKurA+aMUqzQQJbNuyBZHasStcqyCZUa6NbW46xnbJoWv+GdvePFe/5oozJQmVhZAEfQMii5fCwWYZmOxisM7u/HJNl+DOqEGLf5BgVeo0P6tIQmVDe/qL62XFb26As30z1WiVG0IoUk32x+KTsBAvPJ0ltFjwxbr6jkeGVlWuuV6hCIQfAZ9tJuFvsNZw7iJw7722NSFjH45a8VgqlQ8qytY62iuQIfpB+SHkFn2YHLjcvZywPG7gnATJCoPigs7WVmpSDrrz89L54noE7qrToZ0AxBAfyyFUi6CS6Ji5NyH35hufENm5XWRoDwgGrg8DAOwsdhlJVlDb6JS6IWgahK/Tsnu+LaneRbLrxDdg/8L9iy9KJWn2sUn6QWFT6Go2Jm+0bs7tA83vogFLNu1M7+O7eS1Wx0ByKvsBlPEnjZaj6RWBViOgGqxW94CW7xsCEwvHzsJGxBdkpicvDuT09VjQiwCHPpXCfDqrNA3uhN/VSFj8rkBwDABywC++I31P/rJ+ckWtVV+/yDHHiRx4MMDomtZWARkCzj9qtRYsEDnyaJFDD8dvvMfxeFikFUokhmtIJBHA9UvS99J64erNMAlfBsYRhLRZ3cS7gc9lsRYrC3KO8CpvveOpxFFhwkfrogjUg4ASrHpQ0zShQ+Daa+2ILZH3IzJ0V44kYFoWYhCPFZki3HP1fHJursY0OA6NxfZEk5fBl2kQA4kuWX+nLPrtTdDg1Km4dsnVESBO3T15E2GpGZnH3D5YugIk6wiUSeRCItSmVdA+BlJTaBBNaPQOuuPz0jGyDQsN6+yHACpHxR7Dh3BlYTOEtwjDNVC7XCjOisJ4fLGdSr+n8Lh+VwTaEQElWO3Ya1rnWQicfOkQY+hcyjdgCt+QuaHzQoRm8EuYZzcmhUpmFFgE4XeVcYKJcuJqtVBb0rvpcVn+s2+B+GACrctcxxkRWpdDDsMnTIsugarUOJa3CH5Zy0G0wuST5d9tUQmBmecZMf+lZ+TAn35dIlmYCevqi5lZ+vWL9+oUTIWM19YMYSkDeAGi03shT+euC7ZtvOMnT04sb0Y9tAxFICgElGAFhazm21QEIqb1TqxCWkA/DgoHbEZt93PlIOYB6a1i1SBNg9RghYFc0e8qNjkkB97zFTHH4Q/lOFnX0TWcdOlz1dNbO1FiZyzBXNkJ5/fCmbSOaviWxNFi+ZZbbRlFotL/yE9l6bpbYCqEOTVEwm6eoKmwCXXirUAT/gD2KSwsj9Hdrah1aDqVeXMTqqFFKAKBIaAEKzBoNeNmIcA3XcMw3sKI0K5Y0FBwpZJfwsmA5KqSZYmBRHeGyDQIFYms+NV/I0r7Y/WvGCSI9KtaOFgfQXJmUmi9FiysL71fnViYD9lvpc4svN7P7yR3OUOWrv2B9EGzGCaSRVhoKpyCqbBZLwh8TqNFjyqeZ9TEfPddj9pg5SqKQHsioASrPftNa12AQCaTuxShGQ7LTvuP8C2c+w12IWq0HwoTvl13YDLuqhBDieVunUpjwVg4orUzmOiC538rg+tuA5komsEK8Kv4lSB2YqVgR2fFS8te0Avn+DDtzdfK0Q8rC83hvbISZttochw8uJWVmd1rk9DAZvx4eGZnPeOIc2shPl1/0f6gGZj6I2bklJQxec6MBPpDEWgjBML1VLcRcFrVcCCA0Awduaz9TsTPQYVIhfJzOJ3b/XJvYc69UOBUym8olcWqQZgGm/Xq77TW4x+aBieGZAU2HTaSkw1O4MCVflfEuN5Jl+now+WYKPP95FHz5h2mBquVfcWAr8+tkyUPrYEWqwECHABiDEA62SwtFvpgIR4wRInYJzbKx0uThWDB7+ICln0n9Isi0EYI6I3bRp2lVZ2NwNTg+BkYh08vDCzaDc1VL3ZgpkapUWEWHTA3xitor2hW4XY4YRH6Xi353S3Ssfn3sLQ06OdDEBzW2CAbYR7Mwod+8Q3nCv3qWzleGWUNWfzAauneuUHsEJEsdlMCAUhT1S5m8GpfFcfJvbs7Deku2ic0i+1zIoZ94alXjWnIhipw1EvCh4ASrPD1idaoBgTg8nQ13nQ7+MZL4b90mjV9mjj5gPTA96oStdgFv6tESDZy5kTdve1ZWQwnavFjk2E2nvs6NroKkCs8OWGHQsWHNlFaPQKCCFt7dsjyX90ghkNmKt1p+Wo341++oExCI9sMMaFNXIDnFsHa9hXHBSuW1TEYyeWu2HdQvygCbYRAq4eXNoJKqxo2BG59eNeKiG1c5Dq3c2jmkm/6c+wfpuuvNfNwtFcVnKG5Hc7uJMMf1F+WfylBBjFRL/vt/4g5unvaJNdo7mhYMpEnWfWSI6abhKmyCRqRmlrratVqSuTzxYYl/Y/fKwMbH5IcFxOERHg7J9FfSWiygr61+az1dSNmXXSm3yS3mMqZkavU2T0kN4VWoyYElGDVBJdeHCYEImbs/IgVOaQwNEMvdmCOFw3S9dbZ1V5VSr8D2ivGDgp6EqpUD57nBN338qPS/+Qv6g8oWlwQSUgyKTI6Ur/2ifGw4NRdtw9XcZ38+s1Oa3XHwcHdmJiQJTAVmukp1Cc8wzKJDx3e/XhhKddlVEAzbl0/nt/CspzI7mKtSsnEmeXS6zlFIIwIhOdJDiM6WqfQIrB6tW1iqfuViH+FOTs/JNMqSPNgvUqWwsYyR2qvKgUVncDksxfO7X6UWVh+fd8RRgLbBC158CYxEtgL0NeJGohwb0HEKKq5sXSOHx7OE7QwrSJ0Qa6goXQvC/QTsbF6nntIFjz3m1A5vJN7pqHFoj9WM3goY9cV3iJ8tqPRaAwPuZoJA70BNfMgEFCCFQSqmmfgCPQePXaEYUVew6CEFHKseNyQniJH2XorwsmkG4yt3KRCEsaYV9mwaK/gzN730qPSu+HBxh3bi4EjWRsbRRyKzcVnyv9mugTMi5teCp950K15uU52rwn609ESpmTx724VMxU+LdZUE7RYVF114fktDq/C7XMgF65ZN4qdxVUUgfZBQAlW+/SV1rQAAcSaOt80o4u4rQaFZKcfPhwWSBG/NyJMT81VvIJmg9qr4bCEZQAVjOQysviRO6bDMgTAGkgCSLAckoXvldR2VEXQd+uF52BnYqynAOrUSEe7acNSL8Qq634R5t2ND89LLRafOz6/xT6UOQQQjljmEWLKa9wu009FoB0QUILVDr2kdZyBwLX33mvZEePifLTn/CkLd3LxwDwjUQ0/SAPA1SryAa4cDI/2CpPz9mentVdBxlTCNEht1PPP5p3WSU5IpPhHbZX7nUvQdu8SeQZhIoaH8udq6IOmXsoO51+rhVhC27fokR/D1Ms9NcNQqTwoJD/N0GKxnD74YXEnBldoJrSsaATwXOIe009FoB0QCHIkbof2ax3bEIFTB089wjAip+/b2BmjcidMC50wEU67YzXUKkRlkM4K2ituiTMaGu0Vmos6Dz7xM4lMwtfJQlDQwGR60t+1Q2QExKl/AFFYEaE9jkjvPEVzDlcL8tz4WN52S9IVZpluUiiqiBWFPRvWSQ/I8ugBr8CG0CRarRdClIEvVgq+WHFEBCURCkL4/HYijl1X3JSxyf2+jY6ZMGKce+dzY4svOrIXzF1FEQg/Akqwwt9HWsNiBHLmuWbMHMwwNhOEg30vQjMwlg4VJ40Ik3fCTFGBX8meZMbZs63SdY3Updq0DCoaH9kh/c/8yqewDFWUTNJE/HftzGuqqH3hH8MwcJbkjEyNFo+1g7CefrDzRtsKzCJjI7IAq0BJsMIkjIhFZ/dYYcj1ACrIW6uvOyKjJFjT+dNMaJjmIfZE5gwcuj2AYjVLRcB3BEL+aul7ezXDNkfgWhvbZkSyF0KDta8lNA/SrNAgt3LyY67IqqwkweLC43sFXgCCNfD8Oonu2QqC1cR3JpISzoYuiXKIlXtsf/+UBTMsJ92ZPBT1icjA07+SjvE9YvsRKNanNhEixsXiXptBCnPv6SxhJjSjZs4wLgiybM1bEfATgTYbBf1suubVjgic+tDQSslFTi+MfdURM6QD5sFGGRYHdlgmBN4eZaEZQlDRFIKLlr+qbBY+njTERGiGgafvQ/vzDv8+Zj5/sgpHZ+bxBqmK7twkvYhnFqbtc1g5cqugQzbkzYSGdGIT6EKlIp95TFjn3vkbu2/+3Jja0nZGQAlWO/fePKy7HYm+MmIaKwpXD/Jtl+bBRt+ruUtHF8yD5QS8CnGvuN1Luauad47aq449m6Rry5PN1V41r4nzryRqBGF+HYDJ18DK0DAJb3tGdudzEKTweWbQ4MJi+MzbRuRI6RwNl+00SCA077ZGQAlWW3ff/Ks8LIPnWtGY4QYXpbKJA7EffIemxo4K2quxdFammhR0sZretWGi69v4iJjjcCqnuU6lPgT8uIHqK7l0KmixujY+LvHRnY4JuPRFrTmahVqJm0AHCRmJVU9XRArfd3Io04pGO7M547WtabmWqgjUhoCOyLXhpVe3EIHV9+7sgb/Pq/ZprzAKc3sNriAsfNOtp4pMz7hXFfiVo70qNFvUU5Z/aVBfrDLre+F34XDQ9q9hzc8pSLZQT2vwJhEd2iE9W54KHcHis5JoQuBRmghjMP8XP2+GGXmts5NDPbhqGkWgiQgowWoi2FpUYwj0LOg+EsPtUa7/FXNj1GcnuGiDDIvzK7fGKSfc1Hk8RKEZqL2KD2+Xzq3PQXtVofLlGqbngEDIGNa0mbD3xYcF6tpQ9RCRSttwdg+wXsyaz3U3HsrC1vPZx7mTeo6eWh4qULQyikAJBJRglQBFD4UTgaykzzCjsR6aClzp6cSiwgbnRg7gUIRVjNw+AnKVhpdvg8W5VW/4k/5X3Ts2iIXVZv7uO9hw1dovg7B0aiFyWDDbvfkpsRKIJ1awarbwklZ9p7M7fbGChI0cs7tz5nZV1F4bkciybC59YqvaruUqAtUioASrWqT0upYjYBjWmYXhGRiOp6voDbfeSnJrnHJEjZRuBP5Xgc4otVYek1zPpicQ3LOODZhrLUuvbz4CIFXxPVukY2gLnbubX36FErmSdv+rToWL6zjNF59uLOulJsuV6c2f4XQZOdM9pp+KQFgRCN9TG1aktF4tReDO3+zpg3nwZHs6FAFNCFGoneJUPXEkbkA4fFcyD9KxfQLR20MjeL0301PStQ1b1oSK9YUGofavCEiVMTEmXds3wA8rXEM1n5kMzYRBxsTC40Yfy3h0poshSRZOnaF+WO1/i8/1FoTrqZ3raGv76kYgG4sfmjPkUNf/ilSH22mYeLttlPbwBbnSxs7cFics+w4SRGo0YjANxvZu0dWDdd9VhQlxF5E1hElYH5jDSaLD5odFmMitglxNyOeaz3cnnvPCZ9wZAwzj2M6jppaxHiqKQFgRaGLY57BCoPUKCwK3Pr2rt9uOx0ZRISORzV5x0sAINnR2xlY7kj3RMmO9WZrDpqWrI2/Wa+QlmplXWj1IM8gYYl/RJyQ0AoLVMbRNrAnsPRhC81FocGr3itggGDs3SiSdyAcdpeo2ROKYCTGLBPVoMF8+58bI/kbTBxM2wmWZXPZwHN1y8yNDA3aHaTL66MSeZOry1yyG05qKItB6BJRgtb4P5n0N1jw8/Hojar7fTskJCewly5vSMOOZOx9PPL/msakfTj3dcYMhI6tM04K7UZ5gOf5XRW+29QKJ1eBlJQlfk8mgIyuWrcHsk9Rgdex+CXaaFF7zYUNRmZsIoJ+jQ9slOjUiyd7F0GSFJ1o/yQ/NhIyLZQX09kE6SQ2WaaadbS7ZyTbKhKN7FHqtj97+6NhHsezkGDtpmwmcM3u7ErevH3s0bWe+deXJC9byehVFoFUIKMFqFfJaroPAHevHPmRY1r+aVrTb0U6ZNrfDcCQSMY+RTOaiziNHXyOGdfw+8yBG3ZhlOP4Z05fW/cHgBoj0UFYYmsExDwb1ml62dI+TmGQYwV3wqTKHEQBxsSZGJDa2S5J9S0LXUMdMCP/EqDXTjOdnRelnGcXznkiCSk0/g07QUSt2OYgWiFch6YRvohU/3kylL79t/dhfXHZS7zf8rIvmpQjUgkCFqaWWrPRaRaA2BNY8MnZuLiKfw/K97lRyCtqptKOhopaKf+lUkm+rRsSK/hGYxGsyOO9KHAEI8Qo7Kwihe76aT74dY9yu+PY9BoIVLsMMA4xmJA4TYXDGmWoQ1GuCRwDmMTwbsZFdoVxJyPYzdElQzwctovTDchazFIHN8YBjhDte5D/TkkpMwZxq9IB7fe72R/eeXZRMfyoCTUNACVbToNaCZiEQkX8yI1ZfFvuueQlXDE2/oe7TH3Ew74BdzygXV8Erw6Lj3NjZfSsuOuX85OQxyXg/+0ovdVVzj9moDFcQavwrP3EPUQcXNos3HoJrMqBsGMk0UeNKwlyAvmF8zDtjtWnIOKZETKtfjOjfF8Kp3xWBZiKgBKuZaGtZxQicVei0XnzS6zcH9c74zACEXteWPQ6mVsk8OIXQDCHa2znfHBKs5KSYU1gOECbmVxZsPVk3AiAw0dFdSB6UnqjumjkJ6YPFqO58LoOSjjqed2q0UC3VYAXVKZpvRQSUYFWESC8IGwIMCRSni2uDFWN4hmiFJ2AC2qsg387rawL8chKjDslSglUfgu2WKjaxVyIzfI3C0wI+h9T0BiXMmRprLmypWQzsmq2iCLQIgXpu2RZVVYtVBPI+V4zsHGtw4RwHbRIss4wGiNeEKrioewNMa7AimSSOBKk3cAvUz9YiAI0lAo4aJFhl7tdW1jFIPyy2K4rlWBYcJmu2RNacoJUoatlzDQElWHOtR+dBe7iiyAkw2uBLM5eWl3Pjom9JImT+V+xexwcLJkL65qjMDwQi6G+jIAZcmFpNis9VtkFpesmRTDyofO5VFIF2QkAJVjv1ltbVMQty+4xymqdqYapkHkxi0khjcA/jsG4lx8G06tBosDHuXzFQ7vEwNri4rvPqN/wNUwkQrBTu/3B2Tt4PK7hnJQKCFccD2+A71by6a7SxrUdA42C1vg+0BjUiwIGWlpJGtf+VCBYd3PlWHsYpzchi5SUBKFc5nuOM5P5hryFnd16GzkKE8FmzFa9n4Hy+djl/09/x0ymH+aiURsDBZhrTwu/u1cSV+FIKv+ePVPw3gv4Oqw+WW/kMIqzHI8G4PBG6UqEa3LL1UxEIIwJKsMLYK1onTwQ40MZ8uGvJHypZHKYQvd3hMO7E6FmrZp+ARoMR3EsxTNaVE3wWXxj0PoOW8pPkisfdP3z1FObh/iHwK/YlAVhgZcSdv3mO+cwlYZtqEYesIpH76RBW/K6Ei1MOLoqUNatw9QAAQABJREFU+PMqH28TRjoFDRZItfNm4XVh646z2UFvdkC/y1q7qXWIaMmKQH7IVBwUgbZBgPNLzGrcVEAH9wgz8xBOGEm8kZe5xCNlkw6XWrVFl6wUCFUa7crgj43gX3Ezi3+XqrKblgQCXA57F+XzsXAiir8YCFcwyopStQnHMWKRBb4kr4iQW5FMlao1cWWHMI9CFzoSLpOY4o/fcXqG0N8O92OYxYmHhQoWV92POhO2KJ57riAu9V7hRxmahyLgNwI+6AL8rpLmpwh4I0Cn9Ch8sBoRDtb04ark4M49CEMrhRs8k1AlMfOk8Flc5cagyjffzYN5syz+TaG8GA7EMemTcM1VYdNIqqgJrJdUVYONowkDY03jLwJMSWRdssX0ZBYBmd+qqV6la3iL0JzOwMDYoL3S5XWdj+KtiC9FQcfcqqtymkgRKIGAEqwSoOihcCLAN1eTKwgx1zQqNA+Wmwbo3A4XrFAKtgGRXCw+ra3ipIyWsK7lGuR3S1heAgUmUT4JVuccI1psn2NeRftIfpopJHKu1tCC5gqEy8aG3jlsdh5mIcHiOwm1w4TPb+HKYRPdkaHmr8ld4ndbNL/5gYAPU9X8AEpbGQ4EsKdsfgVhgyM4J4FyksJMETYHd5saDEyy/c8+IoO/+InIOCZckitKhfbkL/L5X7dMas5GUbcx/NH01a7iVp3EKgGHnxTwbTa5KsSO9zg1WqhLZCwtseHdIFqoU0AaosKi6/nO6nI1YRDCbKnEs8qpnYMoWPNUBBpAINyvRA00TJPOTQQYZJR7EDY6jFdycE85cX0wqLuTbovhtK2oRMeGZNnPb5BF998hkckJzDYheXxdjJL4QkJAbVYH/tzjLcau6uKpOUrgjybBMAn836w9Q3LYtz4lO86/Wnaf/kbJRWOhi4sVJMFid9A8GJZbPky3h9YlvAiEZIQOL0Bas/AgwAGcAQcbfYHnvF9Rg1XKibwVUKCx1Fr0blgvK2/5hnS9+CRmGjy2tc40VAEwEvgMR2kcoy+Xo3UgutOMiABTXcBztYDN5MxmEumoWetCee0wwrDOJFb0K+P3ugWJmZ547sOUmQEL4uj+1ZM/+iK2e7sceMMXpe/ph2XzpX8oiWUHO6sL68kuqDRBui0SPr5gEWJ8VVEEQo9AOwx/oQdRK9g8BBwNFkZXZ/6qs1gOzpU0U9RgtVycJVMiS++/VZav+Y6Y4yOYYWJVVgv1d1ee0XGlq1tkYFBk4RKRBfjsWwAtUxcc1eHLxQjhSWy7M4nNo0eGRPZiY2H+jQ7DTJZAeUCM5knWp1ohwRrF8NINTRYd4cMqrNoE2kYzZ63Cm5AY29TWIT20StIBPDs60U/4JAl2r0kDx8RUHufMdAwz4klcmbYaYT8iv/6HfyGdWzbI5is/LEMnnp3XZDXyQFRTdpXX5PDcBPnkWI4DJp2wVBSB8COgBCv8faQ1LECAjq6cjhoZxEmuyoZoQObcW63aea+ger59pb+VmU7K8h9/V5beexMmckziMBNWFGqoSJhimOwPOFjkqBNEjj5R5KDDQa6W5UlVJaKEmEtCMrd9k8gLT4k8/ajIxmdEhkG+iD4n+mrAYSeNg0SQxNBsGCbhTUQSOIH6MaRFteIQJgYWg3T3iiw7UORgYEt8l64EiV2UJ7NxkCySJwo1hwlsbTSJ6Pt7dwLXzSIvb8j/7diK4zD3UltYDa7TRC62a5sc8v3PSPzibbLjtVchbiyC75LotVjgjh+Yhom9RIhUFIF2QUAJVrv0lNbTQQChcBoSzvkcqMtNqZymgnLWrabyDrnChHzwjf8hC35zN2YVPKaVZhaXWA0sFDnxlSKnnydyJMhVd181Rc68hpqYBYvzf8eeIvKmt4vsBCl49Nciv10r8iLIFrUw1Tpc02RIZ/HuEGkeqLEax2xdLSdx8e2E1u9o4HryWSKvODVPsGIdM/Er9Yv9AMWhHHiEyKrpCxIgVls3ijyxTuQRYPsSSFcqmSfSlQgssI9A63jAzV+X6Mge2XLx+7DKMJrfELpU+U04BkQdhV2QoRqowGI5KopAOyCgBKsdeknr6CBA74tKPKMaqKjBKjd/kVwF6UtSro4kVxYm3kNu+Dfp/929lSdbalRIdmj2e/UFImdfBM3VoeWKqP0cNV7LDsr/nXe5yOMPivz0ZpGnoNnKQJtTjT8YQzowMin9slo9Q7rkimy7krj49g2InPpqkde8UeTw46rTJlbKuwNm28OQF//e+DZoCteL3HcniCzwdRYxMHR5GbCoIUP9lvx0tURwD7x8+Yccfz1jhp9dpUr4e576q2pgrbdUXUVYL3KarhUIKMFqBepaZn0IYLIpZ9qrNlMqwcpMWwjPAMVGkLOER0VtEBmaBQ+C5sohV9QklROSG5oCX30+tEzXiKw8rNzV/pyjtubU10ILc6bIurUit18H8yE0LzRfliMDLN0lWa3UZNVCrkhc42jvq14v8oa3wBR4tD8YlsqFuJ4ITE88Q+QZENcf35AnWjT3UlPoJcQcix4Wrb3Fwf/ly0CyQLxaZS7MPzs2tqFqfKVvcZP5SHLT50q3WXE6/a0ItAqBMk9uq6qk5SoCpREgKeIA2yj3yXtxlS6DR6m9ouWoHAnzTl3nGcwanBQPuOM/YRa8p7yGxNWqHARC9Zb3i5xydp2FNpCMzvZnXggz2Wkid/xQ5Ge35c1b5cgAiyPJokas2T5Z7EzH54panwrtdvE98hUiV/0vkRNAfJomqOjRJ+XNuw/+XOTm74ts2ViewDoky5RF994smc5u2frG96K2yIftaIHw2QlKKrkPBlWu5qsI1IOAEqx6UNM0rUEAcwbNe41KpTwc/6smT04MxbBs7Y2y+F5oIkhSvF7T6chMExC1Vld/GH49SxuFo7H0ffD5evtHQAiOF7nuqyJ02q6keaNPloHJv6OJBIDuX67DfbkWc1UgTZ4XXS1y2btFegbKXR3cOZr/zoTJ9wjg+qNvifwaZIv3pBfDcEhWRJbefb2kB5bKzlddkt8QPLgaeuYc5KNDDTabGmQZng3TE4pAjQgowaoRML28dQiQW/liIqxA0pw91ZrYTAaN7H96nSy783v5Ur3IFYkVndAux8R/6btABKBFCoucdm7eR+vb/yzy7BNVkCy0g9vAcJudZvAsOrRztWC5vqc5rheE6h0grq9+UziQXbRc5IN/m1+lSG1WMpG/B0rVjisJQRBXrPmWTC09UEYPP9HxzSp1aVDH2JV8foKSct0XVJmaryJQLwJ4lVRRBNoIgSaMsKAxTZnziTr9ZeLDu2TlrV8Xc2LMW0PBpf70c3rHH4tc+b5wkSv39qEP2J9+SuQkmNQY6qGcEGRndWG5i3w4x/uFAUTpe1Xu3qG/1ZJlIh/5ZHjIldt8Bpa96B0i7/8YCCBWI5IIegnuJxPxyw68+asSG93r3F9elwZ1PDh6hS5EV/IlK8gygsJF851/COB2VVEE2gMB+k5xgG1Uys2zzNt5AW/WCI7KLL/nh9K58dk8gSrVOGquaHZ7F8jV+VeVuiI8xxYsEfnQxxHGoALJYifQJ4rkp1KHNNK6asoguVq6QuTD/1eEYSnCKme8Htqsv0GQWGjZaMr0EhDxTsQvW/4zLEDw0oZ6pfXjeIDPToBZ+9FyzUMRmIGAD9PVjPz0hyIQLAJNGGEDtHDMwCYHE1//Mw/Jwl//xHulGCtDAvKW94mcd8WM9KH9QTPb+/4qH+Q0DfJSTrhFDUlQEMJ7pZKWjNqgRfBj+zBIIf2dwi6rXgVsocliZH5qNb0EfnyD2LOSpmfeZ82UJjyizWyOlqUI1I2AEqy6odOEikADCEAVZyXGZdnd10lkatLbNEgCcD6I1RuubqCwFiRloFISgWXQDJUzadFUSC2W30LO5mw+jS9e/I2aQRKV9/45yBWCh7aLnPIakWvgJ0Z/PK+3ATjDRxCsdvnd/y3WFCLI+6H6bRd8tJ6KQEgQCGBkC0nLtBqKQIgRyEHDsGD9L6Tnuce8TYP0Yzoe0cLf/IftOUGuPBQ+Y3+CWFJxEAEyqRJC8kP/KP75KVTuUDvmJa4dmGEYqBVqNzn3EpELrswHmfWqOyK7d294XBY+ci+0WM1bz0QNlmqxvDpFj88nBMqMQPMJBm2rItBEBKBNiE6MyJL71uTNPKX8ZOhjw+js1FR09jSxcj4XxRhd54MIlNNicTYuR4ZqrRK5GvMrt8cg/a7OOFfkdW1idp2FARp5+R8gDtlJMLF6mGF5XyHy55L710hsbKh5JF3Z1aze0gPzEwElWPOz39u31XNg8KY2YeDJ30jny8+W8b2CxudNbws2eniz7oKL3y5yKKKgk9SUEhIi+mH5pcWi9ormQeZbSkj26NROzWA1G2iXyiMMx7qw2fRbP5hfWUhzZymBGbFj03My8Nj92KuweVqsUlXRY4rAfENACdZ86/E2bq+zz5kPBMtr3m0ONIaYqYQs/N1P8yvBSmmvSESOPA5O7ZcGVqXh4WF55pln5NFHH5UNGzbI2BhCRAQlDNZ52TvzZMbLZ4j9mvRhOGLnppBPtkIvk7wiVlRQkkgkZOPGjQ6+Tz75pOzatSuYorih93kXe2sIp7VYgw/e4+xx2ZJVhT62nLcPb5UKvetjiZqVIlA/AvpKUz92mrIFCPixR2AljuYEyw5oBGfE9p4Xn5LuF34PwuHx+NF5+U1v9d00mIXZ8ef33ivXX3+9/ObBB2Xnjh2wLqUlBh+pA1askLNf8xp5+zXXyFlnneV/z54Ex+wTsK3Oww+UDkJKvKnFIjEyK/VQmepRkUPtlZeQvB4FUsJNmwOQZ599Vn543XVy9z33OARrcmpKTNxQCxculFWrVsmbr7pKLrvkEunu8dHse8GbRX53Xz6KPu+dYsE91/XS07jvnpDhY08PPPgoOR17oIFeLG7Bvt8OwfIi6fuu0i+KQDgQ8Bjhw1E5rYUiUIgAx9WcD8N2pYGf8baCEhuzz8BjD0hkcqI00SABoF+Nz47XL7/8snz84x+X1T/6kaSgXeGWKwb/UB8b2qtdO3fK+ocflu9897vyh+97n3wC1y5atMg/GGiKez38nZ54CJ0IFsRZuFhIjmgm7EIPVeqk4rTub/pdkaSVyN65hASEzuEdXW4KXz5TyaR8+StfkX/5t3+TrZs3O+0zUBbxpewdGpINIF833XSTnHPOOfLZz3xGzjj9dF/KFsYeO+cikRu+gfxKECzUwUAEeJoJR455pT9ltigXG4OA8qsWga/F1oyADzr5msvUBIpA3QjkoMLymjurzbTSAG2WmZ+rLaPkdXRunxyVXsS+8txTjuqzs7FNS6yjZBb1HHzqqafkSmhOfvCDH0gGWiwLGisrGsUqfxPViDif/M3j1Lh84fOfl3e+612ybdvWeorzTsMgnkfA9FnO4R38sm5yxRuDBM3DHUky8L065ChEmvdXQzcFzP7PRz8qH/2Lv5Ct27bl8Y3F9uFLjC1oK4lvBJiv/fnP5corr5Q77rjDG6taz5x1vsjiZcCWDmglBNHg+55dj+juexDdPdhhv9Hns0Tt9x3ycjXbd4F+UQRChECwT1qIGqpVaX8E+PbqxwDrNf+6CDkEq5SGxb2gzk9ui9O19QXp2AENR6lJjsRj2QEiJ55RZwmzk9H35/0f+IA8/NBD+Qm+VLkFyRzCBSJw9113yUf+9H/L5CRidPklMYRrOPM879w4M2cwJJVb/eedOk+saGb0nOGhFjvzddBedZfLpeZzn/3sZ+Wr0F5FSKK8zL7TuVKjRaK1betW+dAf/ZGsX7++5vJKJhgEuTrl1cDAi2CB3O/eJl3OwooSWq6SmdZ50BP/OvObTsZs+YJVr3KzsdI1tSJQOwJKsGrHTFO0DAFDsj44YVXKgnudBTFH2BFDujf+XgwEgCwZ+JHs8QSYcPoW+obwv0Mb9cCvfuVM6tVmyrab0MDcdPPN8r3vfa/aZNVddwLMYgthevRiymS/lTZl9iqJ6XIePcfyBoCrz9qr+++7T/79C19wyBXJabVCkrVl0yb5v5/8pCRhXvRFXvlakMdOaABLUBDe0/C3633+sZKnfSl/OpPqUai91CybVqJ5teekKRSB4BEI8lkIvvZawrxCgONqlhNwg+KsRiyTB3iQUIvl9zgegYaqG87GnsL9Bn3UXr344ovyXzAL0heoVnF8hzBRf/2b35Qh+A/5JtS0HPEKb1MWC4Iir2Yhr6Lvldf9QdPZ4cdiQ+eVNWftlYCLBr7yta/J2MiIY/rzus7rOEns3XffLWvXrvW6pLbjByMUxspDgIGHFgski/eflZxyfMRqy7y6q9kNrt9ZdSlquyoDhuX3c1lbDfRqRaB6BJRgVY+VXhkCBDKZxodXarBKveS7zSMd8fvBoN+LNTEqHds3lTYPclIchLPywfAR8kl+Dl+fzdCS0HRVj0Tgl/Xkk0/Jg7/7XT3JS6ehlucYOPFzJi4llYhSqTTusXLEjPkeBx+wGrRMbrZen1w48Itf/lKMOvElEeGCg9vWIOCsH0LH/aNO9NYOou3x3VslSj+sALfOQbMCEy8Xs8AK1IwVgQYQ8HseaaAqmlQRqIwAB9hGKBbHfio5yuVBE6Hl95NBB/eR3WKN7PUwD6JhKw+BeXBBZRCqvGLdQ+scJlnvfEcc0lh99hD8t3yVw6BJ8jJlsSCa+cp1UKnKsFO9Yl+RTZN8HA7NmY/COGI7sfqyFtNgqeLXIxYZHeV9EcZP8wooinvQHB+V+J7tvhLN4nr7/ei4+fOWoAZLRRFoFwSCehbapf1azzZCgEQhDV8ar23tqm0Kh+hywzRNhFG+4Ze7qNrC3OuQX3xop5hJ+l+VoDxUqx10RGny5eZRwycXBGzduq2GFN6XbtmyxftkPWcWwUw4gG2AvDqSuHv5UnmVxzT8KwGt4+9Fv6/FiN7uo2zDisEM/JoaMolBq7Rn924Z9yvQ68pDRXp6S2OL+87A/pbxPVuhwSoFVOPg8NkhMWdX+C3kyUqw/EZV8wsSASVYQaKrefuOADVYuXL2vSpKZPJshTyicMLyc5LghBYd3o0ZAnasUpMb/aRWHFRF7au/xK/6k6z5Kr39IouWoiM9HKZYHAlWLRyA13uRMhI5hjDo7vO1GTmv+tdSyvS94BvC/SCudOb3WsmBOsf27EANawG3pgYFljPvQxKsoGpeSyv1WkWgGgSUYFWDkl4TGgQ4wDqxsBoYZTmZVbI0xBrIvzRYNnxfQLBKkRUeYwiDhfDB8kmoVVm2xJ/8li8DOfFTEJPJ8TfzIigOwaqhQPYV0/CvlJBsLF4O1Urtzv6lsnOPLQUu9G9riIACg4EFC6S726fQEZ3Ih/eRF7YAifeh4eUI7zauzk9OKEGswWUXc4FLttKDW2e9NZkiEAQCSrCCQFXzDAYBjLKcNzIeio9qC+U8XGk1YtxklPNqc6ziOpAoa3Ks9IUkWFi2Lz3Q7PgoJ598cmltWZVlkDhwpZuTT5Vpqr6sv0IoCi+y5FWAXa6zkNmAj1Hpp+tw9FFHOdHuG9JkAePjjz/eP4JF0zY1WF5sEze1NTE2TbDKYeYFtPdxdpkT4sTfbPMFIk8+s40++9611zOKgP8IKMHyH1PNMSAEOG7TPJj2YSVhpSxieDI4WfglzCkCh/HSgqkpCoIVRwwjH+X1r3udLIGWJUuzZB3CdEcdeaSccYZ/gU/3VaMLmpZy+NZMsPblPPsLHYO64Zfksxx66KHyqjPPFLtOfElgLRDYSy+6yN+akagj79Ji4D5MgmDhvH+3976izHJ9uu+q+r5wBTHj4AVYRH0V01SKgAcCSrA8gNHD4USAGqw0XmMbnRsqWRqimJSjKMRrmqoZHUx4hmO2KZEjD3Gpfx3xqsrV46ijj5Zrrr5a7DrWtjtmL9T3f733vbJ48eJyxdR3zmulm5tbCZjcUyU/eb1nGgxzHf5tPeSWz6jtf/ThD2OBYhc0q7WrVbOplJx99tly/gUXuFn684nwGuUekEg2hTeV+kh3pQqSyzb6bJYqg3mm8Nx78sZSifSYItBiBJRgtbgDtPjaEOAcmsT80KhkMFJ7+QEzbwuvyTHOFm0uH/vLv5QTTzpJMjVGC+fkf8GFF8qHsM1OIMJ4VM2Cl+X4GP+qEI/zzz9fPgiMclhNWIsvFlcfDoK4/v211/pnHnQrxo21vcDFfU3/K8NZwelvBzA3M8BnJpXWjZ7dLtbP9kBACVZ79JPWsgCBJEwFnsqKguu8vnIioL4BCxI9hWYI+mH5+sZcbpKnBsTXwvJNW7lypXzz61+XI+AvRJJViQTwPK87A6avr331q9LX769f2D7Aue9iI524L6MqvwTl1I0+/ftPfUreds01QlLK6O6VhPgugGP7V778ZXnNa15T6fLaz2fK7JiN/s1acWz4TBLmbwfwueKLSRDivFiBYKkoAu2EgBKsduotravzXp5K55yVhI3AQe1VpX0NO/1cdIaJJxunmarEBMRD0GgIYhQFIaeffrrcctNN8ib4+tggcpzgSQScjXMx4dK8lYEfEY8zaOY73vEO+Z8bbpDDDjssiOrk80RZZaUETBWv90pD8jrl5f9WNteqTvaDhH7rG9+Qv/nbv5W+3l4HR2qoiCsJK/+IN/Hl30lYfHD9D38oV7/1rVXlX/NFIHrluJNNDVcAmiauXGW2QdAgKtz43Ht1cc0YaQJFoAkIwPFDRRFoLwTo5J6BoiCGeQJzV13CZBivpaMMieqEBsuvPQlZXqbLKw4Tpo0UCIDXKsO6Wjgz0XHHHSc333ij3HzLLfLD668XRg/fu3ev4wAfhaP1osFBeeVpp8l73v1uedOb3tRwdPKZpZf4NTZcvvNqnUnLXc+bBNsUBSk9IFaf+ad/kisuv1y+iw2yf4lNoLds3eps5EzS2tvTI0fDJ+6qK6+Ud7797bIoCL82t4HE1hMPEOrOrvxWOfU+PG45BZ+8v+ng3lDQ1YL8Cr+yKWm8EaUqrUwpTKTfFYEQIKAEKwSdoFWoHgFaILhUm4NtjF7oDUgli0Mc7IrO7kmuXGqgHCcpls9nerF8ng0oFh5LQaMzMlR8xtffcTh6XwNT1tve9jZhFPLNiNA+PjrqmKtWHHCALF2K4J/Nkr27SmPhll+rbt3gFO8hxJflNUG44pJ/w8NDsmnTZtm9a7fEO+KyfMUKOQB/MZDZQIWm0GFsx+S1myZIVbpnQGwsqDAcU6J/teGzwm4r0xP1FcbHY/qlqvEHsb4qaCpFoB4ElGDVg5qmaSkCNG0lUznp7YSPVAM1SWOyodHBay7nhEGSRYLVqBgoK7UAsZi4WrBYHNYIsw43gl51VvFZ339Ty7ACkz3/WiKJCZE9O0GwPJAnB43UgDkvZVZM55VsN7YNot9XpdWLyMIPGRhYIPxrukwB2yGQSdrqSgr2l1yw2NFgeV1RMlkVB6ntDUqSUDc7IRqCKkDzVQQCQMBjhAugJM1SEfAJAVo2EkmosRoQzgUM1VAuXAOv6fbL0R1OJMkFS+CHhVhXbECx8NjmF4qPzs3fQ4hov4ckwGP4IfA8VQImT0BIyLxIGSO478IGx+MjnsnnzAmSq6E93uQVmqvkIKLa1wRuZXTYZZYnqaucvtwVzDuR1BWE5TDSc+FEwGOEC2dltVaKABHggDuVonN2Y3hQMUXfjnLSbUW8lQHlEhafA4FK9y+SDCOYO0vkiy6gNmcTCFYCm0HPdSGRHIdPlNeETL84L7LkhU05UkYiR9KxY7NX6rlznNhOjgO/EkM77sFcR5ckBlcgTEP5+75WQOh/xT9/c83Xgo/oFDTWKopAuyFQ4ilstyZofecjAjQZNLrxKyeDSuN2p5X3w2p04mCQ0UxXvySWHgi1WYml/NSybN8yP0jAs4/DkY6hBMiKioRAm5hMax2ZmJXl0Us0wSamRDY8WVTYHPzpYFvi/mJTcQ+S5KcWltlouw5IiDq1V37ufOBWg92aAcOiS0CJu8W9TD8VgVAiUOswFspGaKXaE4F6VxxxvkzDnYbxsBoddVMYvD2mZQdU+mF1QYtV7prq0If2AP5XEwcfW7rO1DiMY6/Cpx6pLrt2vYo+Qk8/BgJFNZWHMERTPUL3Ns9ZGCd+/1DeD6uevNshDVehkmCV0l6x/nCAn1pxiKS7+6Z3FfCvUXxOPKFvpBhkmoK2mlFM6img3jGmkSprWkXARUAJlouEfjYdAVgpUiVX1ZWoCZe6Fw6WdHidSjT2VssJgSsSy63+5jW9IFg+MCzHLDN+6HFid3j4YbGwR389rd0pAcJcOPQCtEhbNkJL5UGwOCJRE1Uro+X15TRfLO/FZ0S2vTwXUCzdhheeEtm6yRtbvJmMH34CVhCSidYKcOkieZS3bbD+V9D+4nlnObVIfrwwgguAVktl9Np5iQCHMxVFoDUI2PadptdEW1CjCK+x7Y0YYEeMgpVnkyBYjU4T9OygFquc9MBMiP8bF2oQlh8qyaUHOdqEWRmync8/LbIRf3NVfnsvAEdICqohi4XdQHJllu+P4mT7fgM+J22p5NTqjCI+1MP37bt8zn353doy2CI4Lza8Hj/sON+1V/S9svBcloLdD4wn6lzQwnEDgXVv9aMOmociUA8CSrDqQU3T+IKAGY19PJvNvRyNxT3zMxnWwLYTuWz24+BBGxyyhas5PU/CLwMByBsSTgpJD5cVN+MOrCTs9MFM6PhhdffL6NEnO/4wbv77Pkke6aB8/937Ds2pLzs2iaz/DUgQNSgeEkWPlOBeHlfPPMx0sTLTPEnWg2sDDzo6s1JN+kUH/vW/9cYWfn+TK4+QqaUHlyb3dVaTaDvxr+rtswrl0s+SL1LF2Zu4h6jV9pIYxpRMOvtiLm1/0usaPa4IBI2A9x0adMma/7xH4KLj4k/amcyHs5nsC9FYh8SwlUzxHzQdQ7lc5q8vPbn/h3gdfdJ0fXcw4qZAsOjsXkoZUgu41GCVU2JxsVtv1K99CW0ZPv4sRNPuJnGcXU0TDkjroGXZunH2uXY/8os78wE/vSZGjkYkWCVgqarpTMf01GSVEt47L78oQk3PXJP7f5KPLeaFLdo7gvuOYUL8XkEYRZnFBMgPePlcc4NnbpFTWABNf9h6aH02l91dPF7wN1/Y0unM86jWBy9/ZR/swiqKQGsQKPMq2ZoKaanzC4HLTun/8W2PTp1vp1LvwNR4smHkLBIP2zZswzQ25DLZ1Zed3P87ooKB9dc5O/tu5zv+yWLcnYT5oKeBgKOcGBgLK4UyO8owtT4QrB24GJc2Jgh2OXHgMTJ52Cuk58l1MIkVeXRzghxGSIF7bhT5g4+irCCmrsaaUFdq+j5RM1dJe+W1ErDaQmleJMlKALdi6Jz+xbmfwWr0ynMQ5Cygjayrratf1+2E9uo+ECwvcztM05mBRTJy3Bm+mwfJiWN8AwlAmCuf7zQ0zPuKQB/CTQCPrP1xI2VuzxjJd2bt3OGsh/OmZUdAyeyHM7n0dVeevGAjD6soAq1CQAlWq5DXcvchcNmqzhfx4x/3HfD4Ykvkt9lMetyIRHq4aTGmShmfysrigcZuY/phJTCIdzijdOnCu2Am5GrCcXjFNzKdUHvATZ/3vvJ86XnaY8UgSdcDPxU583yRo1eVrlA7HWXcr59cD+0VordHy2wVE5/WVLBj6xV2DvNJeqixSPA2Piey9naRi99ZbykhSgewfvI/Irt3eGMLUj9ywhkyteRAMRjN3idhN1F7ZYL9NNJlXtVhnuNTfDr3CzXY0F5tz0Yij19xWtcmnHl4/1n9pgiEC4EyU0q4Kqq1UQRy8a7noNna4DrGO2+48M9I4521EdJDZJN4J545lM/Em2/Q/TQTzjxc1y9OckPHnSVTBx5ROmwANS0T8MW65btzI/DoeqyM/BUIY7G2rhA9ap3oP9UowExPLRjz8xJqCe/6EQK7bvC6on2OP/FgXnvlhS1eRHI9fbL7jDeiTY0+JbNh4VZS/ueaL4f+VxNF/leOD6aRe/Ty4zu3zq6NHlEEwoWAEqxw9YfWpgwClx9jjBkR44HItB8WeQh9NKZgRnCsP2XSljvFCQLZVFxN2B8zJdpIQdOVoLN7uqdfdp19KeY8j0eQE+YTD4ncDe1EO8sQtFY/+iYYbCJvwvFqS8e09srrfC3HCSnz8xLeP3uxXc//fAP1QgDSdpURbOq8GthOoQ1e9yXI/PCJr5ZxxF8zcv5prwgZYY4FtAEhm8Pnmv5Xs5qWk/vgLlBhaUq7dqrWey4h4DG6z6UmalvmFAKZ3NosVVbTQuf0MZgJGxVmmKgw/3RgMumBmbCcQ3y19TAQyXzvSefKxBHHg92lZyfjrEIicDtMa48+MPt8OxzJpERu+JrIS897a68IvF/aKxcT5kltWDmNGAnsI1jReOd1bqr2+qSp70aQqxfgwx1FW0oJiHy2b0B2nn0FCBjupVKLKkqlq+IYIbagCQwqPANfesYns46fpVsdhmiBi0ACz9997jH9VATCjIASrDD3jtZtFgKGbT0Ip9ZtXKZNcQZi+GmU2n1mVuIKBzhylyNPLGtBDHsTVsinmtP0xcp0dcv2C9+OFYUegUdpypqaFPmvL7SnOev2/4Yv2c+8yRWB4p6DXT5qr1zw2VmdyNers1wCewcI7K/bMCzGXatFfvHj8thCY7XnrDfJxEFH++p75ULMFw7CHIRwAcsYnuvC/OkakMvmnuvKZp4IokzNUxHwGwGv4cfvcjQ/RcAXBCY2dGy2bft3bjwsjsAJmBK4GewsU0INJXIgZ0T3ZDmGhWu4mpATC9/gG5UIgngNH/1K2Xvmhd7R2xkHbPs2kW9+VmTnlkaLbF76n90sctsP8lo4r44hiB34hxosPwAtbB3zY740FXrlTQKbgpbtB/8BcyxiSLWL3HeHyE3fRW1x13phi3srceCRsuPcN09rrrxAqK/R0IfBPOiPT2JxDdikBJ5nmggLGdb0M//LC05bOFKcRn8rAmFEQAlWGHtF6+SJwNVXw/fCjNwNkuVc4xAjkKJRmBP4vRFhjlMVzITcEmQAvli+TFdsAyq97YJ3ytTBR3qTLJqAXnhW5Ov/2B4k616EQbjuq/k4Gl4EgACSAFHL5AuYJXqe+Xbin3IEjqENxkZFvvU5EYbNCLvch1hi3wchpFmZBLGU4L7KxWOy9eI/kOTAYvheNW5CLyyGsJJcMYJ7EMJcxyZnbuZOXVkmm84aht2G6sYgUNI82wEBjye0HaqudZyvCFip3NpMOj20z9kdg+/oxEx/jXqw4cBOM+F+D6/SuSyM++PsztwN2DZTA0tky+UflFxXb+kI77yQJOsZbOT7pU8iWOZzPBI+4UR+5w+hEfoSCAA0Q14EgDXnyNMNchX0COSaIMuVQ3Mznd6/+mkEeV3L2oVQQGuoFfw+zMVcMFAOW/hn7X7tFVip+mqJwNfPb+FzEgfBCoZe5ePS8YWpUH0VsWAezGRfiooBxzkVRaA9EKCmV0URaCsE3n/NPw2lO9LnWLHoEdhCxxmHs1jS3dsdkThMeI0ILYTcd5DLz72EWiyaEidgU/TjJZ4ahsSSg0CiLOl7GisHKaUyprZlzy6Rxx8UWbJMZPnB+WvD8O84rDarobVaA4JFEKdXenpWrQfkKo7r8H/gwlGO3Zn27lOHsHA13qOYv0lmDz2mPIkJvNIFBSTgh3fjf4rc/B1oOXG/ewUUZRIsLBg7/gx5+S1/KjbMy35HbWd3cSVtTyzvA1lQS1++8ranaXDHXqiSWdh0l0URPy2Tyd568Um9uMFUFIH2QKCx2ag92qi1nGMInHeekbGN7J3uqiiOwVlM6qMTM51i62o2MpusEBOL+Q5Ci4UFhb6JkU3LjrOvhObhstKxsdySOPkzqORX/gET7rfzexe651r1+eKTIl/8BGJLQcPCsBPltCucNGkWZDBQfm+W0BerXOgG1oPEJYmNqGne/BZ83nbB963Vsvl5kS9fi9WkWO2IJpTFFtqqxAGHy8tv/lPJdnTDNMgE/ksHbnwfb/0ZFeSzTO0VX5hccuU835l0Dh5fa2ZcrD8UgZAjEMxrSMgbrdVrfwSMTOSejJHaCzPhwhw0QPTRoJlw6QJuAsshuT5hyhTG9gQG+K4yWqxuTDK9UVOGUll/Jhv4zdggJpsveb9YE6My8OBPoUqLlW4ETVo0wdHR+alHRK58r8ixp5a+Nsij48Mi996GSOI/wqyI7+WitLv1ILniqsFWCE2SNno4Web+IDmkb9x9d8Hv7SmRK96DbXVeV361XhBtmUKg2ft+nCdWNF+SWJcTkKv0oqXy0js+Cm0oIrYzREYAwkeC5sGghKsHR8ZnOkJGoInLpTMvRA25P6hyNV9FIAgE1EQYBKqaZ+AIXPH1fxqK7kidZUVjR9NMSNNCBlqsnk5TOhFKoVHlCCLGY2sc72XonKJpKhkGwfJLaM7JgVSNHX2KdA5tl45N0F5wwmfjioXHaIbbuRWbF/8SWi18Llwsgj3nApfERH7D5O99HhHa78k7XE+HzShbNk2CNA22UujwnuXNgr8SsDpVI7bUZpE0PvwrbK2DWFOIJyWLYJb1CgzrV5vS0KCtR5kMzfHz28H24W/FlaTlBNrP9CDI1bv+SkYPPwl+V8GQKz5TnXix6AQ2jT5fpZrD9yLGvto5PJNg0TyYTeduuOikHsSmUFEE2gcBryGmfVqgNZ23CNzxyOh7jWj0O1kGXYTQ9WfxgCkHLY271sOGsFkcM8r6YnGSeWEsLUPYjdbPd3obxMkCiTn4R1/Ma7IimGD/f/a+A1CSqkr7VKeX3yRmBoYhDZJhhowigzMrioQBcQXXHMGICXAVA+MqZoyr67pG1P1dcDGgq4LKCJJzGNLgMEOYHF/u7qq6//dVd71X3S91qn7V/c6dua+qK9x77ner6359zrnnjkWy/NZR40Jn5q5ukeOWipzychEsJi2pVv+K2mx3wDRJHyUuLLz28ZxDfinEirXTPEcNUhQSO66f5sASXn/Els9XqkXkqONFlp4hcujRaAuwrmViVPZH7s5prZ54CP2JOsdb/iZYLzVXIFfrQK52H3xcaOSKVRKtmS1Jb3FnQljrxEf82c0Zj2D5SmhEbMd3y8oax5x11jGdYPOaFIHGQaCEN0zjNEYlnV4I3HBf/4JsQm7F4s/7+ySLP/YPXtgqLdRiVTEK8NZ2jMFzUM5EqQ9LeazpzdT8Fz1JVtxOy4I/Xi3z/gITHP1pqLGaKPEakgEsJi37LgIhOEHkCJCCfbDfXgEhYFnbQar+AR+rh+4UefwBaMrgZM80mVYld1VuVKZZkDlqqR99OzRx/w6L7JFYkh48YHstBK7Hiiw+SWS/Q7BI5SxcVuarlAtg74Tpby2xxaSFR++Dz9emEdI6EaH2hYKZeAjhPda/9hLp2/dQmAVrP2PQr4rfB2quuhGiJJQE+LhAw5pnhyTNySP5ShIwjTp25p7kvK5lp+9pQXWqSRFoHAT857hxJFZJFYEAAr97sPfbyZbW92Q4dR2J4+A+85Iyb1ZywqjsgSLG3eWXY25LDL/Yx73EI1br+rKyPQ0tVq2/TXln8bm3/58suP4HEu/FTL1StBqe1gWmSw7ibe1gifNE9t5fZOEBIvNBDmbBjNjRmSNicfj28HqaooaQe2EW24aBfuM6qBOQNz0LpxgcI9mi2WwykieBRDw6IQeXrIlqGkTnMpcqIrFiOAqSWWq1iOWCfXPY7oXtHJhpO2ZAYweS6/dVBmY/Pp/sPxLWjc+IPLcut925Pad9JK7Et5TEfoVZvGfJyfLMq94n6T32CpVcUSR25Qxor1rwkJcKVSlN8a/hd2crTIPPQIMV5JbJZAuUeZmPnr2484v+tbpVBBoFAX5vNCkCDYvA9ffvXAZn8D9aBpP+MfBw/Otsi8kLoMUKvqgraSAHkg6MebMnYli4ZgCeuWt6sogEP/LLu5L6xrwHjTAgQV1rH5KFv/6utD+1OqdFKdUXyCMEGJBJCpg4iHPgp9M0nejzJA5OLlAhgETReZ6aEN5HADnw+9fkSijtL32d6MyeIIoRTwzfQG0WfbPKScQoT3a824gTsU0BV259MkpySkw9bLFPckbK4hFW1llGvSjHtLbJluX/LBtf+i+YLdgeyjI4QRjYg61wbJ8RUmgG1kUo//H8EGYQusM/VBi53bjudngmnrJicffjQZl0XxFoBASg79akCDQuAp27dt3RO3vOnfile2oWAxg5Qf+Q6znLzuhEcMIqxncOe1xHGqt2TKjFasfgMwears28uIyxsiTUMfJwRljvoqPkqYs+K/Nv+l+Ze/NvJNbfW9qsPQLCgZzZT4wdxmwG/SO5La9l8jUvuU/l/WURNAfS56rWWJQnSelXkwx2Q94BCJwGSSo1ES8uouwTKd5H8kRN4HjY0mct0BWlVuWVC5LMiP8bznqb7D78JJKP0MkV5SMidG4PK1F7xdAM/N4GtcAJYJV1Mjfc+6uuJ8OqW8tVBMJEoFFegWFioGU3OAK/faj3ncl48rs2HYNhwCCpmt0Vl/33ggmnykR+VoovVgaVPgktVpqDXpV1jnc7wzhwFlvX0w/Lnjf+Qroevw8DLEldWDWOJ0nRcYJEEThLkMSqEbRWRU0Y/phBQ2gy5CzDqCQQK6ezW7aeskK2LH2lZLrn5CO0E/hwE2sIW3vFx3f9prRs2z1iZvec2604PBwz55191Izfh9tKLV0RCAeB8H6WhCOvlqoIjELA2EPXZ2376TiW02Dir+Be/CJmROhquQeH2SFwmDQDH06QUqh0PkJEhOKgkq+XgSMtmJt6Fy2Wf7ztCulfsgTakPyU/InFm0DyKk75ddLHqhsg0d+qkckVofDb0oG2xP0GVoFRNbeyeteWwUUHy5Pv+7I8f+bbJNs5Mz9TsD6ycUGcdnyvwqKb/H7ye7obMeyC2qs4ndudzP1Jt3tVNRDqvYrAVCKgBGsq0de6a4LAucfO3QBXmF/GAyEDEDlBdvTYNRkYoJORXijHJhvSOOOQwUerMUuWAghni7lw/s3OmQNSA8FIbqg9CmsUDArlg8C6WvGBdTNH2ZE9KH8p+37bZqBdJFo+afTbXkoZlV7j18E1FGlq7crI4AsWSf8+h4BcZ6XWCzdPJCZFaUUsOP548MWa6PpKzhHqnfie0v1vJOEovkQwGP709CU6c3AEF91rNASUYDVaj6m8YyJgHPkpZhLuGl4AGu/oXYgIPQgHqpposfDCH8T08YlSDBUtgBYrge3EV05USmnn6E5vpzpypIrkpgtEgISgHZk+RRy5mGohiF8GyySRI+lgXcEZgv41XqVN8oftDZJImj9JfJhq2V6/LB9f4joDdTFuGFy2XMQzqyexyjUQCjw8x9RehZX4vUzDCLizLxco2K+Hmmjbzq4Vd+g6/5huFYFGREAJViP2mso8CoFzj+t4BKzit4ybw8SxKo2JWzt7uIxO9YljYC8I1mTaqU4sNj2vNZxI14WtsMRJteEQWucP0DRptSNTo+QTIGpBqIHxiYFfCO8ZK/vnueU9JGsswxv0US6JXBuO+eYzltHsiQ8QSSyj0BNXYuDPkAw+XMTCz8WY+Me59RPvJY4kcT5pZdn8HOgvu6UTxQYr8gsIb0sx6dge5o8FtojfzyGsTRVsHX8kYeGoX1AzHV4LtWRFIHwEdBZh+BhrDXVAAE6x5jf39f7AzmbOR+DRNm+GFd7aO2DbmzMjLikQH04FrzRxAOAahX0gWd1YFG2iNK8tIT34Zd6P8A0TXzlRKZOfc1tAsKgGCCa/jRy4+e32G+3iOvCD4exdlz/G+72fWjjI4rg/nPMF8nh+d3iLQ9Mm+W0nLtTi+SZRhnYgruBF3jqH3ja/j81wIn6IJeLhy75hOVQOkUh557CPXS/52/xHpwWaylCfpHxF+Q2rT8Is2A6CVSRK4YVVfOJjm0Fg0e34fgYfYYZmyGayW1Dv1VUUr7cqApFAQAlWJLpBhagFApvcztv3dvtuSKRazs0iuCPHLf463tHryF6zazNYkGC1YcVb8LVxE9xWZEF7wltGx8EQRTnCSLmBd4KSg6MjB3LKXCAMjvnXFBzHdf5xv/jiz/7x6bgNYuETWQ8HnAieGw8bH+vgtcH94H2YNUoTYT0TxeuAmY4O7uOJVa08rGMnyNVQGt8PHw8cSyBESDo79Mtzj+nGApCaFIHGRmCCYaKxG6bSTz8E3nm8hZCRLsI1OBlO82bi3+27be/XcvBF7p0s8w/LooKiF9qpyVI3GNjcUE2FMFd6PlhlfoU5Ygaz35DgsbBGVb+uZtsGsSulbf71k16LCxGaw00hGn9oVKdQCIrGsAwtyNwPI/F7SO3VNji3BxNNg3YmjWAN9n8Fj+u+ItCoCJT5dm7UZqrc0wWBfzy/5SbXyf41kUQ0bSS+zKnF4sucBKnaxDIQbFoGJnF4Zz17wlTYTTNLSCOVwzUHGeQyrAqqBUvvrw4BPjd4gJ0WEqz6JDq2d2AmbC2+K+NJzLJpuh+lvYL/pGvca847ZhYWvdSkCDQ+AkqwGr8PtQUBBN5/5kFpy5hvOUEtFt7o1GJ5zrQ1GDk47vWAYE3GsWBJlIXtSUlip9YcC21EqAb4YAUjtAdw0N0mQSCWwGQGLIdTJxJNchWqYzu+E2lqr/B9DCZfexVLxL4TPK77ikAjI6AEq5F7T2UfE4HBVPefXePcOKzFwlXeS30XphXWIJGjYYzwHNknK64dDll7Q5Nl1VwnYLxZhAYDcL3MR5O1Vc/XGgHMpUNsN8Y8CzvxBwDNgjQP1vrHQFB2fne27c6O+rHD2b+2415z1hGdDwav131FoJERUILVyL2nso+JwAVHWBnHtr/uOvaQlV8UmaZCzlgawHpn3K82sQgEiy/JVDi7Je4tGD2551YZUmEUdJKt4nLdwDBHxDJE0ktrjAD61cVC3y7N3SFrsHzTYJgDAr93/P5RexX8DnozB7Pp7fGY9U0gqE9zjR8jLW7qEAjz+zR1rdKapz0CD+y+f5XjOL9J+r5YQITRorfshBarRoMVR4JSTIUkY7NSnJVVywTtRiIFDQfjfumYVEtko1NWro+dZPhO7p0wDSbBekJ9klD4VmiR+T0M/sZJ8Bl2Yz8+e0kXYtlpUgSaB4HavvObBxdtSYMjsHL5ctu4sauydqbHj+7Otc52IWp0Tz8W4Qi+4StsK4ugqXA3osVPxtkSqNCf2VhhdUW3wQcL2itPu1F0Rj82DwIuSTS1lCFRHxIqBhQN2zTI71vvoOOFTAl+9+KJBGYOZp6FXvnbzdNr2hJFIIeAEix9EpoWgXOO6bjbOO7VjK3jJ8T+lE07svD3KIy/458vd0uSNYgyGeV9opQFAzOTsbCJCig6x5iVboImQswkrGG5RdXox6lEgM8M/K/ohxUGv+ITy4CiHSA5YSZ+R2wsgcDvHb9/wwkaM/7ocC3z7+csaXt6+LjuKAJNgoASrCbpSG3G2AggJtbX+QuZv5SZ+Ou5D34g2xFtp5aJBGsIpG2sRP6zM82Qo7VMGHwx8JoEHaBrW3ItpdSyqkGAM0VbPD+sMIx39LvqSiaw5mA1Mk5+L6rxlsTpRXyToPaKP3ycrP1AMu58f/JS9ApFoPEQUILVeH2mEpeBwHnHz/wHNEff4Cy+YRMd+MgW+IIM1WAhaF8U/jDfCXthumixQlKfbSBXOzO1WRPRr8/bcs02rkeo/KoAlqb5gH514X/lxnMx3WrdLvpdpcB4wnx8SK7S+J5t9nwfR1rA7yKWs7Lx3fzCK46YsWPkjO4pAs2DgBKs5ulLbck4CLTYHd+3s/ZdwwtB46XPSNKbYbKolXWNSgAqsLYjqOn2tIto70Z2I2/FPk2IqVpPf+fgC4LlBRsNdYgcB1Q9XAcEoMFiMFnOhK0hC2JR7VgKJ2y/Kw8gVEZylcb3gmTLTwyhgoDAvx9Mdv7KP6ZbRaDZEFCC1Ww9qu0ZhcDLjrd2W8b5N8dx08GwDTuxRuHuvsIp46NuLvMAFViM9L4LJkPOMAS/ggmGpphaz9KCidALQsmFgGs4+pbZXr08XAQcaCiNF2qkNn3MUkisGFA07ERz4O5+R7b3QHsbIFdxBMfFouw7xYp/hiFVwpZDy1cEpgoBJVhThbzWW1cEBtZ0/9G1nf9OpkbMLS7Iz8bttmShaQoOANUKxrEkmDmoMTp2V4r+LoGRpgYVOS0wERZMeq+2UL0/OgggmGwLCHTQcakK4fgc0qm9E35XYb/4+Zhn8ANj4/Yix3bIwFm9xnX+/ezFHfdW0Ry9VRGIPAJhf88iD4AKOD0QuOACy4nH7Suz6cz6eH5WIQeBQaiYNhX5h4SBiD+4UZNVK44FWuhFcw9DXi0zGgjYWNDb1IgOkdx3g1xhcYG66DxpGuzHhJIgP+QPnGw2e182bX0jGgirFIpAeAgowQoPWy05YgiceRQc3i3nSjjXGt/hnWSH6xTugimjVsRnombTPNMJ/5daJaels1ZFaTmRQwCO4J6GsnrB+Lx3I9gtNVgk+2EmEqrdiDe3bVeh+d2KxcR13UF80T75qpO6t4cpg5atCEQBASVYUegFlaFuCMSf67racWxEeB9Z380zFW7LeI7vYZMsDm5tIFi18YGxxI4gwTIWTECcPVCrGQR1ezoiVhEeRqeFUdyrS3ymqTlNgeCETa5YFyeQ0DTI7xU+Dqd8WIYfnn1U+x+GD+qOItDECCjBauLO1aaNRuDMM600XvufyNrpjX5sLA4Kg2kjG7Zn6sYJOkCyOJOr2mRSmGWGgTMyycV6j/MPFOeks0GwMMI2CslyGRctbPpRbi+RYFFDWYVceLY7EQOuDZrTeiR290Z8j4rX/OSswUw6vTqZil0JbVoVDapHK7QORaA2CNTnW1cbWbUURaAmCJxzdNdqTM1aaVxTYCrcidlONBeScNUjMQ5RK5YpqTxxGj+c3Gs4y6xyWfJ3YuiE/krk7HeLnPpqxJLAwnNRJ1lZTGQ7YLGY/Y5ArI3aBqCtHE9gCOLMWYTVJJqj2/GM1YPR8Huzs8ceNWswRs2ZcQctx3zsFYd3bKymPXqvItBICFTzdm+kdqqsikABAgfE23+MQDzXJFMjpkL/1zcdc+tFsuh0TL+sShJ5oJOCCQmzsuoygpYiJIDL9u6SoTQW1V7xXpGXvSl3F+1FUUvscJKrw18o7htXykDXfOAYEYJFRoR+daGhtCokqDRDU0taL3I1iO/NBpgGi8XNmQaz/7HiuO7fRe0RUHkUgTARqOzNHqZEWrYiUAcEjkD8HTi8X57NZp4KBiDNQuHy/JZMzdYqLKUp3QjfUJEJByPZMMEqpaJ6XAMP54G+Xunr2QVVFtaAPOMikXNBtEhkHYAblUTCRxPmi1aIgFxlu+ZK7w74XdeLWZeAA5dCcpMwAVeQSK5ohq5HImRc2/O5raP9GPkDJpNJ35FMmishSz24Xj2arHUoAiUhoASrJJj0omZE4OzFM9cax/kITIVDNGMwcbDoQ+j1DXB6L/4lHiYGjJHVVra5kIsBp7AmIRezjsjYBQCHQLA2PfdsDi6aL099jcgbrhCZs1dOYxQmkKWUbUO71grT2znvETn/MoQ1nyH9Pbulb8fWvLm1lELCviYXSNb2nNzL61uanutFrjwUIN4maK641mCQn8ZBEO1sdgcCin5Yl8MJ+3nR8qOIgBKsKPaKylQ3BFYc3f1r285+g4OBnzhIcDHobXX0x2LdXHi3LMd3MEAXiz27JFjljcF+U0PY4pViZ+SpRx8pLPvIpSIXfkXkiBdBkwWCMxUmQ2qsaBLc91CRt31eZNnrclo2SLoT2qu+7duiM2EA/WkQr83EofkrlenjuWUQ0bKeocJeKvuT912B39VWhGQIThnMhUHBXFLb/vSKxe23l12w3qAINBu4T4sAAEAASURBVAECSrCaoBO1CVUhYExr+ko7k7kxxRl5+cQxbeO2rPQM1Cc+ll9vudoHByYkN8Ho9FFhWAaDfEweve9uyRQ7jM/fX+TNnxU5653QGmF2HMlOqeTBB6iSLesA6RM6jJ/2BpGLQPRecFxBSWv/8ZT0w3csOjMySZ6xXl+S2snJE4lON2YL0qG9XonxrvqgtfK1vfg4nGgadGz7Z4Mt3d8dPqg7isA0Q6B+38ZpBqw2t3EQOPfQub22m/lgJpNZT4dcJg5Ynl8J/LGGihaqDbtl9J+hJiKoERizThAHN85BOEIEC1ymqzUlTz/ygDy97pnRYtPkddqbQXKuEll8Ks6T/ECjFQZB9IgVy0Y64mTU+eWc433n7NyxwN9777xdUtSsRSblCRb6dzISGsPDOoOTJepIrvj9GEK8q2fpd0XlVYBdJfE8ZjPpezN2+l91rcHIPFAqyBQgoARrCkDXKqOHwCuPnfMoxoj3Y0zu51ppTN4ggvhYz25O19XpnXVTE8FBk4PnRImO0IZBU8FTopJS8Cdzd26RG268cXyR9j1c5C3QZr1ppciBS2AyzBMtkqJqE82P1I4Ru4OOQR2fFnnr50UOQD1jpJ6+frnr7zfLrLbStEVjFFH7Q4DBUDuJvp3oCeAalzOBd0uFM1ErEZywOuiv5zZnhDMHqcnyE2PL2ba91c067/vn4+du9I/rVhGYjggowZqOva5tHhOBs5d0/NbOZj7HES24lA6dd5/HL3WssDPmfWEdZPgGDp4cRMdKXPSEDu4ciCPFsDDi7teVlP/3i1/I0ODgWKLnjtF3bMlLRd75Vczku8ILlyDUxmXTOa0WfaZKYY4kZSRVNAMyd3SJHIdy3/a5nKZsyXKstk0t39jprrvvlnWPr5ZZ7cCxFgRv7GrKPMoJDJAnRt/A0c8dj6SA84yWRF2WvwkKj0kh+D5kZXfR8lJcCgeR5WAZdi4757gZdwTv0X1FYDoiwG+vJkVAEcgjkOjcfJXTN//gVGvbmzOZIe8o+c12BCFNxm3Zay5IwejxLhT8WA3XjuMg2gs7TBoDWwHVwgV0cHeSMLtFhhhAaMh1+LxuufJPt8mfbrhBzj333InxoW/UMaeBbC0Tee4JkUdvE3niHpEtMDEO9o6Edygmmmwzj1GD1zlLZOELRA4+IZfnHzBxnYGzP7r6aul0h2RWCzSXBD0KiX0Ln0CTn91aLBId2RlElM2vp8isb9MOBBMtngCCE9T8OnbmKgTyvbpYXv2sCExHBJRgTcde1zaPi8CZBx2U/vOdPZcMxob2h9P7S3ySxRs278xKMmHJ3Fkwy9VpVGM1cQxeM1qS0p91ZMAOBsLEWQajbKEGK0IJ4Bwyq00SiOJ+1de/Lqeddpp0dHRMLiC1NfsekcsvfRNY7fMAfR3yekzz2yQy0APWwfZjlGebu+Yg9MMCkXn7I+8jMmMuTpWnlL/nnnvkN7/+tbxmv25AiXunYnbjmMjkYpwZYuK1OXcRCQ6JFdezrHdi3ZxZy5AMfC7xcTil4NQOv6trJNv3WcvqrtO3Y7h63VEEIomAEqxIdosKNZUInHZS9/bfPNjzzkwmi0WhU4cgGKk3mJBUccZUPG7J7G4uaFw/KTmYcYYhzYV9IFkOKucxI1xOBRqsKCXItrAzJfvP6pRbbr5Zvv+DH8gH3v/+8iSkVmrPRblc3p0lX53NZuWLX/qS9O/aKYcdNw9kFbfSKhmRxH41IIxYkdAjNNRmcl3BFJ6/eidULTt7bS8ILy3lJFt+ypGrzG2tlrz/tOMXDPjHdasITHcEyvu5N93R0vZPGwTOXdL9BEJmXug6zuZ4YGahgwH4uS1pz/+Eg069E2eK0S+L/jcev4MMDtcjzH2qtzhj1wfB5rQl5LDZNF2KfOGLX5C74ecUtXQ1TIPUXsVbUnLkbGBYT8ZcAhgOgqGa/DPGSP8z2O9TRK529znyLGbU8vkPkqtkCjMG7cwa2x668LSjOjeX0Cy9RBGYNggowZo2Xa0NLReBs5fMviXrOO+xXNPnByLl4EIr3TObMtJT5ORbbvmVXp8AuZqZSuaidcNHx04hplTEUgxE4IQ9IRdmOW7auEku/sD7ZePG6Ewqu/POO+WTV1wBcuDI3LaUHDwTJkePsUYHSBsaLM4i7YLmkssp0VRc78QqewcdWQ9yxWWkgiIwpAkitW+WjPt2zsKtt2xanyIQdQSUYEW9h1S+KUXg3KO7rrMd+zKMM9lg+IasbWQ9pqn3YfAJDjr1EpZ10mTYnYJzcRtNhPUffCdsK7RBJ+/ZJSlo3GKYGXjn7XfIO9/1Ltm2bduEt9Xj5ONPPCEXvvMi2bhhg0cAXzCzTRZ0cvJCtBhWvK0LRDo2Jf5W7Ac+Y/1YNmo9fkxkEfMq+JwzHAO8xHoQretdZx/XfUs9+k3rUAQaDQElWI3WYypv3RFYcXTXdx0nu5IjMKeiM3GwyWDQ4eDDtQuDg493QZ3+tMLXOdUOB/KpEmC8dsJR56g5bXLADMRyAnFJtLTI9b/9rbzjwgtly5Yt490V+vFHH31UXvf618vDDz6EyA0I3QDZTgIRbAVZjZQGC/2ZRLR7ijUViY9TjlylJV0UaDcW94QacrLOB1cs7v71VMindSoCjYCAEqxG6CWVccoRGFjc9UXE9/kSF4W28jPVOAhx8Fm/KT11JAtKF9MCU1zUCBbk2qMjKacs6IbjeE4zRJLlzdh77Wvlscceq3uf/vWvf5VXvfrVcv+993qEjwqrODRsy/ZG3KyoJTxjhlHvc9DVVboguSpexSC3KLplOxnno1jH80d1FUwrUwQaDAElWA3WYSru1CBwgWU5Q8muTzlZ+5txL/4Q2BVSIcmaGnOh6xEsfpWnYDT2UBj/z1n7z8SsSwagzF1DkrUKROfsc86RXyAQKZYDHv/mGp3p7++XL2G24PkXXCBPPP64R65YNGdi7j+jTU6YDw1gZMIzQDBigvAbhvHB6pwmJ1di3Gz2U2cf3fHNOoum1SkCDYeAEqyG6zIVeKoQ4LpqgwO7Popo7//FmYXBaO/UZK3bmJHeOi8O7WGBGER0Jo8cvwJpOWVBl7wAMbFIZvxEkrV27Vp581vfKm9405vk/vvv90/VdAuNo/zxj3+Us1askH/92Mdk5+7dObOgXws0a8v27pb50LRFDjtoSj3iPAKbL3VoW5IrOrSvg0Z2bM2VGMe4nxlc88cv4dmvo2ShNVkLVgRCRUAJVqjwauHNhsAFJ+8zKNmuD9rZNEhWooBk0SeLJGt3n12wPluoGGCYY8Tv8ZZUCbXuyQqHbHNBXs5ZhMWVAwSLtyWSiEAPAvbfP/uZvPz00+VdcIC/4447OCttslInPb9r1y657rrr5JWvOk/Og0nwbzfdBP6ZhCZtxKGJ4iRgHjxvESLAT0W8jQlbAeEQYNRbY3LC62p3kuSKS9/w+R3lc5XzOzSOY39m6PHOf7vggguC0W5rJ4SWpAg0GQI5O0eTNUqbowiEjcD192xot1JdX4snUhc5NiJb5wmEN3BjHN97XkrmdIcf8d3A/Jba9LTM+957xBrow8Acsd9MCNdw36YBWX7daunDcj9jLV5NTZOxbemaOVNOPOF4ecXpr5CXLF0qBx10kHTPmIEmTdym9NCQbNq8WR586CG5CWTqLzBBPgofLyeDoLBwZPc1jcFnwnaMHAvn9ptedRhmYqJ8cJrIJBBP094lWy/8lqT3OlAsBp8KMZFc7exFnCtvUfNCdz4Pe4Rcc2yQqye7Qa4sJVch9oUW3VwIaCT35upPbU2dEFiBiNUgWR9y3K50LJm42OWgiMzBinGynkUIBxuhHObNgvkpzARiwEWBDRYzzoceDbO28ssGkVkyt11esd8suebxLVDMjP5N52mWoF2ir9RfbvyzlztBrPZZuFAOXLRI9t9/f5k3d67M2WMPSULzRax37twp27dvlw0ItfD0unWybv162bp1q9hpLBQNQkbtIk2R4ycjbzhkD+luxSswZAIzvgzjncFCz+hPTzMZMvFjb2zdlZUNWLy5OIgow5KgesfYzsqhJ//0edVcjddfelwRGBsBJVhj46JHFYFJESDJuma1ubQt0z9kJazL+Gufgz9JFjVZG7ZlJQuCsWBOylMs5ZVck5ZbzgUcIA1jEiHWVFQTLXPvOWq+/O7pHZIG+xxLo0TZiV8sT4oGBga8mYaPrV5d2CyCyxQEE8csVML7JyZVuVsd+F4tmtUuFxyEtQzRX1FMJFgkzvnW1lxEwugCB64ruGmn7SnwfGhZGQPrIrxGBpM6Lj/32O6rai6AFqgITAMEJta9TwMAtImKQDUI0PH93l13Xw4byif5az8fI2i4yC07bAQkTSMKNlYNDGO0RKXeYJyAtiZIOoYliMAOSOaLEQphxaI54mC/lOSRJWirSJgKMkx+jF9VfIxasPGIW3F9NOe+44j5svcMxsEqPhuBz5CP/lcmpIkLJFI0kT4DLetGPJ9MwUeTEdrhwt6HiQnvU3IVgedBRWhYBJRgNWzXqeBRQWDl8uX2iqNnfNbY7gcwNg5wgPITB7MdPY48vSEjA+kwApLmzEkmGbH1CH0A8ltEtpCPHLOnzG6Hc/sUEkESiyPndsrbj5gbQdOgDxoJFs2+I8+Rf6baLUn+EJ7DpzekZTuey6DWimUnoAlFdPatWSf99nMXd/xXtfXp/YrAdEZACdZ07n1te00RWHFM17dNJvM2aEi2cKDyEwc1Lqmz9vm07MKiucWDmn9dxVvMOBPOJIyiNsZvFIjNsXt1yrsX7wVftakRlLwuAaf7y0/YW+ZFMTSDjxXh4QLecRKs2mHF544zBdeCXPUOuKM0qkmE+3Add61jZ157ztEzr/HF0a0ioAhUhoASrMpw07sUgTERWHHczP+B38prEI1xDQcsP3FwS3NpnY1p2byDsw4LZ2v515W9RTnGC0oJglXDwbhsOUq5AY2+BFqsk/aeCRNV/X2fHNT5L4fMk1fT92oK6i8Fotw10CEhiruJgWDVgF/5hH7Lzqw8jeevOMYVTaupllbJZjL3xsQ5b8WSmX8pXVa9UhFQBMZDQAnWeMjocUWgQgSgyVoFB+Fzs3b27ylolnzfIA50VN48jxlbz8AvK2OP1iKUXyUKhHO3t6xK+TfX9w40fhZMhFe9eF+Z054Cx6kBeyixBSR0h8M0+NkXLZRkI7z1qJHE81Itw6L2lP5/9Lfic0effp9wsXQu+0STdiYz9FswunPPOKrzIR7XpAgoAtUj0AivmupbqSUoAnVG4Oyjuh5Lue4/Z7NDP4/BWZlO237iALejx/ZMhj0w1QQHPP+acrYGRTtcLmcKfZtKlhdE58ULu+TzJ+8ncYz+9eBYNiohofvO8gNkvxnQKtaj0pIBGeNC9KOnwfII1hjnSzzE56oXC5HTNL19d86ZPXgrZwryoclkM193U51vWHF0+/PB87qvCCgC1SEw8tavrhy9WxFQBIoQOH1J15aOrm3vwNptVxjLShc6v1syMGTgDzNUE5Oh2wqfnSoH5CLxw/sINco7jpwrl5+4D7gOyESIiiySq85UXL61bJG8ZB8sPB1p0+AI5E4LFqCusD9JrMi1aRJc+/yQ9A+NJvGeM7sxu3Dhe+9b3HnJuYdavSO1654ioAjUAgGNg1ULFLUMRWAcBJYfcMAQTv3b7+7vfczEzVWpVMs+mQyCYSJxIKTJhqabPmga9t4jKW0tiKVVAeHImQgrHJE9aer4B+1j2z9x4gIZyLrylfue8whBnAdrmEiuulIJ+fbyRfLaQ6PudxVoOHDw+rMCOGgSHMy4shEx2BidnSQtCCvN1UmEgLDtzKMg/u9fcaz6WwWQ111FoKYIqAarpnBqYYrA2AicfUzXtZh8f1Y2a6+i87tVZDLcjdmFT8GUs42mnDwBGbukMY5iEHVbYSJspAQVSxJyf+HFC+VKmAtTwIMhFGqRWIoN/7aFXS3yk9MPkjcevkfDaK689oMEeRrJMsDwSdR2mJ75HJFc8Rj+DydGZqdZMJMe/LVkY2cquRqGRncUgVAQUIIVCqxaqCIwGoGzFnc+LJJ5lZ0e+hrO2oUmQ5zBLEM6IzMw6RC0ENRGlJrgQ1Ooqij1xqm8DkwIURMQNmGBXA0idMDMVo8Y0WxYaaLWisFMX7r/bPndOYfKeQfNbCxyxYaTYGEWYamJz0kaz8szm/DsIGcypkBrxXJy8a0QPNTOfkLsvtefdWzb+lLL1+sUAUWgMgTURFgZbnqXIlARAmcvnrkTN374t/f13W2l3M9hluH+2WwaJrKRQZGBSWky3HN2UmZjwWgquybkHOQjmGYv0FB46q8CvUVFYtbvJsqOxl1wyGw5bl6HXHn38/KLJ7fJYBqaPDAHOsJPxjNpUuWyL0wHzmqTi4/eS95++FzphLlVMIOu8RJNhPDBmkR0aqjY7G27bCx3kwXJyj1DvjaL7aZJMAGToJPNPIzphJedfdyMPzUeHiqxItCYCEz27mrMVqnUikADIPCbu3sOSbRYX7Bi8VfSmOM4IzO9PEKFb+eM9pjsibUMO9rIssYec00iJh2P3y6zr/5obsQNjrANgMOwiFTFoOF/39Av31+9Rf60fqds6s/k24Srgu0iQCQguKU1GZej9uiU1xw8R15z0GxZ2M2ZgnBu4/lGS2wX2rn9zV+WgUNPFAumzuLkvbTxZwDO65sQU43m5fxtBZdSQ+oicqgxzo+Nm/iUzhIsgEc/KAKhI6AarNAh1goUgbEROPeE7iduuunp1/bNnvtO+GR9HL5Zc+1sBoPliDZrd7+LWWBp2WNGXObOSkoqMUZoA4zJbgomJWqw3BGSNnatET6a10KdsrBTTlnQKWt70nL7xj65Y1OfrNk5KFuHsp5Cin4NM+G8vk93Spbs0SEvnN8pS+a2QWOF1xmZRoPMFBy3J+AnZRikdgyCSI5pQyu3FVqrrbuAB/3YcSzIPT1Hdtxv29l14tifOmtJ989xbDRTG1cAPaEIKAK1QMD7MVSLgrQMRUARqByB6x/sP9YY9/OJZOLlHFgLtFksFsdaWyyZD5I1q6vQbGjiMWl5bo3M+6/3wZFrAKMtKUgTJGq0PK0W2gJNziCIk20sHDLShjbH6MDlMQuAQ3KG/w2fDHgQ/K+2XPgtSe99sFh5sshmUim3q89GWA8bJlR8YPOLGhyH1goLj5Oj/8K4zhUrjpmxpugS/agIKAJ1QqBJ3sR1QkurUQRCQmDFko77LLv3PKwD90GMmhsKIsCjTg6wQ+mcEzxjZ/VgTTkmn1+YJAZW5KYgGV7L8IekiSYykgy0vw0h2LtSlnRgS97lnec5zj5sBnLFdrMpJEkpxDXDvte/ONwLTSb7fR2c2EmueJwQ+ImBbPnMQIO3xrWdt3Ts6HiTkisfHd0qAlODgJoIpwZ3rVURGIXAiuMXQP0k3/j1fb03xmP2p6x47Hz40cRoNmTyB9seDLZ9g2mZ0RGXedBotXfgdxJMQm48JfGmYRpekwv/NAuJKmxV0ScE80jAPIjFwtnfA5jswIChXCScXNIjlkFmhYuSuBbmwLSdGfqROIkvrDh2xvqiQvWjIqAITAECSrCmAHStUhGYCIFXHtv16DXGvL71wb7rYO+5PJlKLXEcR1xkJg68dDXagVhH1GTNnJGS+Rhk98BsMU/t4V2lfxoTARAsaCIHnLhs2gxitTsjWWjofGtpsE3xBH3O6JOV/budsT/7Sp0hGIRH9xWBKUdACdaUd4EKoAiMRuACyyKbuua6B3tXGdt5NxbifU+qpXVelk7wdMZB4qDrT9Pvh3pjLwfarGmh5fGa35x/0H9Dbqs8tRkR2WNZmAFz5CrYWC9gaDJBYrXeOOZr8cH0j175wjk9wWt0XxFQBKYeASVYU98HKoEiMC4Cr8J6hjj56d8+0PtLROC+DIPraxJgWv5sQ95owenbhnHQjsEHh5MIqeKKKdMiNg2VXPQbaLVttUhGEl6/omuHE6P/JxMwB2bTu510+sdJcb5x+pKZTw9foDuKgCIQKQSUYEWqO1QYRWBsBM45ums1zrzldw/0/iTrZi7FYHt6MhGPQ4vhmYlcTO13kiBYTFRwcbDmFBYlWkQk2okkiv3FLbJLHyyE3PDJlYVZoUmYDTNM9tB1cGK/6txjZ94T7UapdIqAIqCzCPUZUAQaCIGzj+66aTCx/jxMxT8fy578jaLTydnEkpJNcnkVjtL5RKJl5wdu/5huo4MAu8pB/zAPd5uRLGYQGmgh/XhW2LEz2czvcfWZZx/Z+TolV9HpQpVEEZgIAdVgTYSOnlMEIojABUccwWmFv7png/nTph1959iO/V7EvjrFtGF5lbESB3D897RZ3GqaegSoscq50hXKgtkLTqJdEi0d4mQGYQnO3Iho7N/e2+m+4fjjLagrNSkCikCjIKAEq1F6SuVUBIoQOH6BxbAOv/jTg+b6/qSsiKV7Pi7x+JFFl+U++toSJVpjwlO3g+MRK18AaK6yiZYhhLq6Efbf7+7ldN+oxMoHR7eKQGMhoL9nG6u/VFpFYFwEzMWn/o8k4xeUtFQMv/nxYbvUuGXqiRohQKh9P6uJikR0+qzVdddDXRctP37lChJoTYqAItCgCKgPVoN2nIqtCAQRMK9ddih8eZYjhkPw8Pj7HPDpn8VBX1N4CPiawwI/qwmqQ/cl+3Yfedzaq46d4Co9pQgoAg2AgBKsBugkFVERmBSBlHUBVFJzR5ylJ70jd4HvCK9Eq0TASrysXGLlF8sIsjHMVohZb/UP6VYRUAQaEwElWI3Zbyq1IjCMgHnrUhAr63VjOk0PXzXJjhKtSQAq8TRxHDUzsMR7/cu4Jo5Y55o3Lz/CP6RbRUARaDwElGA1Xp+pxIpAEQLWqyRuHSKM8F5t3CslWkXYlvjRJ1al+FlNVKTXf9RixeYgPMM7JrpUzykCikC0EVCCFe3+UekUgQkRMK8/oxuRKS/04jAY+FPRpaoWzutKtCbEffhkrYgVC2S/8Y3MfqSpUKzXmXecehhPaVIEFIHGQ0AJVuP1mUqsCIwgkBx6NbRXx3jO7RyTvXEZ21qQLNYSJFosW1MOY2qq/EkC1eLik2Ju/T4kwYpb8yQbe69CrggoAo2JgBKsxuw3lVoREPOml86BluODgCL3PQ4O9BysEzjAbS2Sr6mhfxH3p2MKAwOaBEmGg/3k96Nn8o29wbzun06cjnBrmxWBRkdACVaj96DKP30RiNsXwVfnKHH9ERlQBHY9YDyzU/HBKiBjUdTeeEQL2xoWXYVU4d0aZnt9k2BQ+iCe3I/FZkjK+YS5+AwsUKhJEVAEGgkBJViN1FsqqyKQR8C85bSjoKL6QM5Xxz84Djz8ltfKZOhX4REPfPBnzDWTVitIqnyNXZD4+BhUuqXWalztIklrQJ3FGYVW4kzpGXpzpdXpfYqAIjA1CCjBmhrctVZFoGIEzBtf3gEHoC8hVtL8AoJFO1NwcA7WwDGbg3q1swyDZfr7JB++T1IYhMSvJ8yt34YgYeSxWib2wVhaq2AdrLO4Xkvi6LiVCMehwUeDWOm+IhBxBJRgRbyDVDxFIIiAuei4pMSzn5dY4hWjlsQZa3AO3sx9X5sVUJIUX1LVZ8rgmxA9skXSV1WJ4dzsyYmifUIVNjEcy9dqrJaNhRVNwHFrL8R4/y/z9mUvGOs2PaYIKALRQ0AJVvT6RCVSBMZEwLz2pfMl0/1txEe6uFBzlb/cH5wnI0/DmhT/hjGrq/4gi/cdwznjzidcPBZy1QXC+3IEiZ8vC8+FKYtvDizlTct+GU+enMP7seLErsPkhuUF7dMPioAiEEkE+JXWpAgoAhFGwLzjjIXipFdAY/UeScSPLHBqL5a7yxFpwShdDmkg4SH5mIrkV+tvKbi/729Lkctvr7fFjQWfSymgxteQWFH+ctrAa9NgYr0TsLEY2+b2ihu7BmX/RJz4fdZPb+ivsfRanCKgCNQAgXK+/jWoTotQBBSByRAwb1k2UzKxg6VFThRHXgK/nZNg29vHG6yDMwbHKqgLbKkF2ScYY10z3rGpJFrjyRQ8HnxbVdK+YFlh7VdCrHxZSiFYvNbChSRajjuE6P2PYKbhrWK5t0ti4H7Jtj9j/XjVkF+kbhUBRWDqEAi+sqZOCq1ZEZjGCJjzT5shXfZB0EocDxhORj4WJsBFEo+1eYMpSZUX2bsEkDrBklorJFh+8VEnWr6cUdpWQ6z8dvBtPAjtVR9yKW9mXkOyxZx7RrZjZw3I9b0Si98htvOAJLPrrR/e2utXoVtFQBGoHwKlfI3rJ43WpAg0OQLm/PPj0rEVizNDQ2WBSFnQUok5CoPiImgi2r3BkmTKy2WCQa0OCVZblQTLr9aVNGYlupCtzT+k2wACHsEx/Zg4EEM/tlWkNQwU55GqAZCr/hIJVvBe7vtki3J5mk6zGxrQdXCQfxD9eA9Miw9KS3aNLIhvtVausotv18+KgCJQWwSUYNUWTy1NEShAwFsrMObsK4mhI8QkjsYgyGVtDsFFe4NQJasiVAU14QMJVgfIVXsNCBYHa+NuQZm2WLEF3oA9VX5axe2c6s++tsrzhzLPgxilwG5AmtkBVSS+jUmuSLJq8Wb2CBfK9PoSsrluFr52GxCq4ymU/xBsjA+KG39EMma9HLJsh7VyJR4cTYqAIlArBGrxNa6VLFqOItDQCJiLLkqKvXqROKklGMCWYDBbjC00VWbhsHaKLeRAPJkvVSVIeAQLf9rh6M79ahLJg+uuxeDsIMN8mS+QG8bamm5DMd+UFhrvbfPA5gjWGmCD0Bmx/YcxqhR3lj2AkFf92OF+GIkyk3B5Ce1x3Aye040Sc59GLIhH0bkP4/l8WBKpx6wf/GlHGCJomYrAdEEAP5U0KQKKQE0QyDwZF7t1tsScWSivFYajQQzKWzGiPYeBbFveKTk3wMXx1WPmgOcPev64V4kwOS2FASnCIFmrZO0GURssKI0yUoPDoKW1XoanoKIIfPDbynb6AUKL+8iVXhCWXTWR1iAWg3HvzWkNiysqswbezmfCf778543HSJYdJyO2uxNk6nmYEPGMxuCnZWDqNN14bveQIZirNSkCikBVCFT5La6qbr1ZEWh6BMw18Ln69cZuaUvMkWx8LmJy740BdF/M+toPmqB9sb8Ag9qeAGImPrdjsEuMaBhwtMAXCwMjEzfeNxd/uPUGTcwoc9wvYGj8BwjQT737eG2liQOz69yI8uFoHz9lUu0MZfIy7suLWWnVU3afhyWE97YlSJHD6CZcj3/xZZNiVEKRwPw1siMB83H8ChDwGV6ZHp744+NK+TwhRzYFzwwJlDEZkDWGb9gF2TajMzdgH+ZM6xk8b8+AMeLz4FYx3TukU3qsb/0hjfOaFAFFoIYIJGpYlhalCCgCRQhYF1wLe53szOenik6LOf9FbdLRMgMqIfjw2PNxfqFkZT9oHvbFILoPBlUQMJmDEbMDg2MKAyf9tmLY0kg3iPObcf7vGEx/ZF29apW5ZOnp4oCVxTH6+wNycaWlfPZIRnyXGCcBjcbkaZiU5Cvlxq+fJkV/f/KS6neFJzME45bJ3+Y+Tf6XxNbE4NdkBiXJm6tspCGbTu6wfrLqGvPGZbegj9+Espd7z4IL8h2T3PvagV9cDATKEpLq3dhug/AbcP1zIE4gT+ZZnN8gCfjQOR3bxAz2auiGybtTr1AEao2AEqxaI6rlKQJlIGBdeztNcMybkB8O3mpWYkhdc0antKZnYeyeCTNOF85jHUKYHzm42vZ26Ug9Y333hi3D9yXi/TiexWc4XleTSB5gQhIL5s4KyANvYfYSeEOQe/j79SJeniz5Sn2Z/K0vYqVby2ShEareVyknT0bijmeStX666h6IdI+5CCE8MtB4xt250ER1imXTJw7E2oFp0u6RZOsuhGPYbf34Jo19VWkf6n2KQEgIKMEKCVgtVhGoFgFrJV3J/9CDcpjXl1ReWvpgZgTBgrargNWUdHfhRUa2YjCn+bL6FCQ0w/s+00Lxgd2C/XJrHi4bNwb3yy2n5OutPlwKDVK1icKatDgJljecrO/9eTc+FBDv4ZO6owgoApFGQAlWpLtHhVMEykTAZKHdsNIgF9R0VZcsazvKoYkz/BQkQ8H98GuuroYY44QZmoBrkCxqsAZqUJAWoQgoAhFAoBTvigiIqSIoAopAaQjAfETzYbUkxXOu5yyzqksqTexGvYqecC4cyYlXNSnXX9Bgoe80KQKKQFMgoASrKbpRG6EI5BFIYjahsaofpDkTLWaw9AqcqTWNj4BloHGKwZF8/EtKPwNyHLN1Nl/pgOmVikCkEVCCFenuUeEUgTIRiKcxQMc8R+ky7xy5PKdNQQR3awf0V7qkyggyo/c48y/h7kD8seooFjEnWet0qifHo6XUI4qAIjAFCCjBmgLQtUpFIDQEMilonLA+XlUmQu/mIWhTemD6qvId4YWTCK25VRXshUVAcM9qkoX1g9KxHpBR+r1VkXCzKwOyfbZqsKpAUW9VBKKEQJUvzyg1RWVRBBQBub8FMwgNonJXMdrzVkZwt1oQCqBaDZbFGZDR1ILFQIoYiLPS5OEUT0vKwAeLvlNVYE4ZLLdP5vyBITY0KQKKQBMgoASrCTpRm6AI+AhYq1bZGOwLpvr758raGgTP7Hf6EUizcpOVxzeszTCfMShmtJJHjiCXYJmbamQjAc2aPpRR/cQCifXkQnNECyqVRhFQBCpDQAlWZbjpXYpAdBGIY328alPc6pc2OMxzfbpqkjFbsNB1fUI9lC2nBT8zxPqqJjnAZ6AFju50dq8yGU/bV2UhersioAhEBYHqXp5RaYXKoQgoAiMIGCzSXJ1WBnzB9MiuIZq9KvdRotu3VYUJbqRFIex5ANniQsNWDVjUYO3cCHMqAo5Wi7nlVk+MQ0BKi1QEFIHKEFCCVRluepciEF0EqtaEkCmYHut798IfyGVcrSoSCEzVflxVVD/RrXRyt7x1Iie6auJz8OOyrl2dwfqP1fm9ebUowZoYbD2rCDQWAkqwGqu/VFpFoBQEqteEWLHKnb+HJcQMPUaDN4wGXxVLGy6xpjtWjM73iGFVRYQFg1mETPEaaOpMnBMCNCkCikCTIKAEq0k6UpuhCAwjELN7QWqqS6ZKzQ5phxXLeKbGav24qmvJ2Hd78hn6hmEdwWpCNQyHoahuuRyvv2CW1aQIKAJNg4ASrKbpSm2IIpBHwIWzdDVaGZIPn2AZq3LnbYMo8MalE3n0wjSQ0BjLkhj81QTO7pUmE8vh40CDldNlVVYS+ytmuLCzJkVAEWgSBJRgNUlHajMUgWEErESPVBlYHOwjN9hbToUzAD0VEYOewtRYDdsbblVtd3JkCCEtbCwHJNmqyBEliyGaezWJ/eXGqg+vUY0Meq8ioAjUFAElWDWFUwtTBCKAgOXC1ET/pwpl4WBvYaHnalKubizZE+tHYZVKUo0EJdwL857jhUaoPEioZVEXhibCpJrbK6Heokty6GBCgVW971xR0fpREVAEpg4BJVhTh73WrAiEhEAGpCZW+ZIrJAqW5DUyicrLEQTfjFkgalb1GqJQkLLw/osjmCoWx66UAlp5E6qJg2BVw7CMLQklWKF0sxaqCEwRAkqwpgh4rVYRCA+BVhAsATGqgDXwFuO4YhJ5DRb8qCpJXtUgH65TuQ9XJfWWdY8B8eM6ggyoWmmyc3HCXHtXdWZZLtvjst80KQKKQJMgoASrSTpSm6EIDCPg2CA1IEYV8KscKcNgbzATsarEyh2sZViVBqwqCSa92Yq5EicBpBmzyhRrJSGtTFNHqLjUjsv1DDUpAopAsyCgBKtZelLboQgMI5Ci9qoK0x5MZol43sndqtDJncLEEC6CWhm38ll6w20KZcdChC4QGwQJrcRNjBZBb5FnbJ1ehlioTGvIphk3LbZRgkUsNCkCTYKAEqwm6UhthiIwjEAMg7VgseZKkqf1wr2Wb66yBit23hbpkZgNbVjeEbwSecK6x2unk8XMvV6JVbE4thWHczqSlegDTpVhnmvjkKSVYOWg0L+KQHMgoASrOfpRW6EIjCDQRVMTFmv2SMTI4TL2BmR3NX5JqIl1G8SGcrqiqr2CfDEjicc4e6/6+FMmAbzdgYow97BCf3W0V+bvVkbH6qWKgCJQPwSUYNUPa61JEagPAqu3YqCmBqoChsVbLMRjiqVyzuluVQG1dkk6TV+waBIHCxRw38025KssJAVnDZp8EFVqn6x80NGyexmgW9D2rX8+pw0r+369QRFQBKKIgBKsKPaKyqQIVIPAtavhbG1VGLQSg73Bki3z8g7XMTjMVxp+wIIGqz0FFgJNUeSS185BuRjkj4tjk1iWm9gqy8mZBVudIQ+3Sny5WK8r/cJ+06QIKAJNg4ASrKbpSm2IIpBDgNRB3CpiKllmp6xclXNuN4lcGIJywSX5cLFgdGeLAfGorIxy6yz7essFH6Kk1S9sPeN2TiqovJxYrNfrt7LboDcoAopAVBFQghXVnlG5FIHqEKh84WBj7ap6sPcsi3aPbNjA0AWVB/KsDoOJ7wb18y5wQYxyexNfP9ZZN+Hdaa2EDqpSXy5Pe6YLPY8Frx5TBBoZASVYjdx7KrsiMB4CXDjYG7jHu2Cc47yHGiw/MQxBJeSDZsUYopsvGLIgRyUl+BKEtyXxY4o7IFgViOiARcbg2O4n+nJVgjnvp1lWkyKgCDQVAkqwmqo7tTGKQB4BU0XoAZsLNOeTheCZ5aYcyciCNOyWDa1kLtE0EVpYr5HJxizCSggW73UDIShMFes3WjWYyUh5NCkCikBkEFCCFZmuUEEUgRoiYOCDVYFSxruHmic/GbsCnYx3C7RDWOfve/fa4pjKA3D6coSx9U2ESSyXU3Hk+6BgAdyCh0vZj0mVkfNLqUSvUQQUgXoioASrnmhrXYpAvRCgibASrYxn2nPzCz1DWBPDLLsKmBrNb3HMZFy50pJYFGcRom3+Qs0OCJZh5PsyuCQvjSHKfQKBWEdSZesRev5qrhKsERx1TxFoCgSUYDVFN2ojFIEiBFyEHqgk0a/IjY+YCGPx8pdvIfmg71Y2m/dPiugsQgYaZTKGaxFyFmCZCe1yzMhSQgY+WBVwUe8eN1FZf5UpsV6uCCgC9UNACVb9sNaaFIH6IRCHyYlkqZxEYmSZrCSrCDcwXJ+FqOZ22lq50oViqHySNlxOiDvGV83FqIXC8kBV1pWI7cCagmxveSnnLK8EqzzU9GpFIPIIKMGKfBepgIpABQi4cHInWSprsOfFsbQ4zshgb2IuNDyVELVe6c9Ek1gRTjbVkryGbRDkCoSw/GRAIgOTAIZg5itzkW3KEUc/VbMeYvly6x2KgCJQBwSUYNUBZK1CEag7AsksBnv4T5XDsDwy5oJsDNBklktWNl0RUTNunyy4N0ewjIyY0fxyo7D1F6EmEXRhJvTaX4ZgbJcVHzEtxjMgpsCvrIJQqbFQf6XL7JQhr16qCCgCdUVACVZd4dbKFIE6ITDIAdtUsgbgoGTbR7Q5MYYhCIQiKFV8hB3IBd/EDcaMlFfq/fW4Lpb3DVvQxbUbseBzuQyrSMh0B4gpzI3lFuM52HPtSE2KgCLQTAgowWqm3tS2KAI+AgksPizwfSp7sI9jDcN4cGacX2J5W0SDH74hqm8ZK0f8rJWrsOBzHASrnARgvQCq8ZEYX1kP8/LIJPsnBgd7y/MDK0cAvVYRUAQijkBUX30Rh03FUwQijoDdliNY5YjJhYot6ZHn0yNmL9vlvl2WdidH6kYIlkE4gygmfxYhZbMqiHxvrKy4zoiW0AExNZhckGt/6S02wLgnM1JO6XfqlYqAIhBhBJRgRbhzVDRFoGIEWndhiRtTvibKgqnsCG/h4lzVtgtyZI1oaUoWyBnRCJmKHMhLrqniC4PO+6aCmZPUYDkB8+k8zpY00ACWy7CgNdzTyfmrVdwYvVERUASihoASrKj1iMqjCNQCgbYump3guF3mYG8CvlOVysE5hyYxQrAiulIOiNCI35NVAcEiPqkRkDxTYwyxsMpJXv/AVLmuTTVY5eCm1yoCDYCAEqwG6CQVURGoAAH4FZW5HqHHxQILPbPSdpoHy5wF6EV1CESDZ8TzKCYrGAA1NmLSLEVWDysX6y0mComRGyuPYHl1wcH9xzeNmGVLqV+vUQQUgcgjoAQr8l2kAioC5SPgaVPEVLD8SoAYsVouleP5YJUhAwkWF3r2E2cRlqlI828NdWsCgVipwQp8LK1exgizi8yn7q7y2xrrsSqZqVmakHqVIqAITBECSrCmCHitVhEIHQG3AodrK1GeJqe4ESRSLpaPsSpcqqe4vMLPDJz6QNmBTwvLGPkUDC5qgxCWTbBGihrec00F+FkjZHS4IN1RBBSBRkdACVaj96DKrwiMh0C5JIcEw4UGJpgMwhB44QiCByfZNwg7wAWUh1MlTvLDN+d26KtksCCyK7/EIsvwLys6X8lHP9Ao7417GjeaVctJDuShCXUkxS0slzPycdI9rz4TwGrSO/QCRUARaBAElGA1SEepmIpA2QjAYb2se0gMrCInbdfOeCSiZOKBC0mAEn0B8ySjm1eZWL8lW/D3JhAYkMCSBRq/4iBxjIEQGixZU1a5rg2tVyHBEhKschgWxDNl+sqN3yI9owgoAhFCQAlWhDpDRVEEaopAORos8hUuVBwvIlgUyCqDMXi8B+EhEm0jATdNvEzGMQYK3my72NOScB6Gmu15BOesPgXDR8S9tRurJ4IuTKPlLLLtkdpQzKnV46MlKAKKQFUI1OI1VZUAerMioAiEhEC8HNMTmBFNe2IHNE+VygWCNWCNkJWgM3mlReYUVo9aX7oVgTytx8rTNI1XaWAW4YANQljmMjc0MSZHkUc6uWdKV4SBYTHIqSZFQBFoOgSUYDVdl2qDFIE8Ag4WfC7HcdtiYNJkIcGKM1p5kZ/RRAB7RAjxt9rckcCZ8RoEGmU7LGt1rmrrkdIJzETCBs65JIQBmQOnxt0lkRoYgFkxkOLemoaYeZljhIEzY+96ur2YEqyx0dGjikBDI6AEq6G7T4VXBCZAgME+SzVXkQ+YGJzTqckJJJN04VNVRhwrFOQiPET7gpG4TkFn8kDRJe/SPOiC/DmZPMEyj4jjFIVHKLm03IWe1TOgZZNMWgwiqpfIi7xCrJiRVJEGy4kTv5G2TyYW+8d11cl9Mpz0vCLQgAgowWrATlORFYGSEIib7dD6lD4zjhosS0ZMeyVVMsZFMTihX3FtoWZnjMtKPpQjPZvEbV/v3eOm18CcuRPEr+QiRl3o+T4hnISf5vRxmRsQnSrKZFnJ7ADIYGlxv1gVtWC5GYy+JLpVBBSBJkFACVaTdKQ2QxEYhYBjzYF/TxxkZPLkDfaYAdeTxlp6gWRS0BQFfJUCp8bdNaYHSqeRWulMPvJp3NvGPeGFaDBrZZaz3btmqH0DmMmz1XKhYH3WytUZOM4XmkeDFxTvEy9jMpLKjJA0XjNo94H47S5JNo/kSVKc+Kzi4vWzIqAIND4CSrAavw+1BYrAKATMe5Z1Qnv1LonFS/yOgzEY85x8795CDVbC8zEq3eRF4iFWYSytWBk+XKNawuKQjfVILjo9Pn5nFUngE7kTY91QwjGSG9cUt6tQ7smLsaWtq5BgzbmTsj1XsmzsH8u801x0XPvk1ekVioAi0EgIlPjybaQmqayKwPRGwHz0hftLu/sDaGTOgA9WaWB4xMh5hDSrtBsmuMpyK1iPb4Ly6OBu3IcKrjDycElaooKbij7E3MJ1BGl29HAouq6Mj9ZKTAmQMpzw2T8xc7Z0df7AXPJP+5VRlV6qCCgCEUcgEXH5VDxFQBEoEQFz6cvnidv/OsnGLpa4tUicErkSSYWLoJmx1K0lVjXxZcXL7VBTVClx8WQzQ5JwHyuoNGY9JFk00PICZBWcqvyDg9l8ZfzmNOORUeu2smQjB47Lv8Bx/3hzydJviuX8j/WV2xhUVZMioAg0MAJKsBq481R0RQCmpaS0pI7EbLZXiRm8QOKJgz1USiVXvDjn47RGnPRdoxBlpHILCz6XSpDI6YwUhh2IOzDFxUcVXdIBTzZnM/ya1hdcb6w1kAkaJ2t22ZHTvYKoFYsXRWHHrMuSEwCJIUL9unVFZaAAK3WbyMBaicUOhBmytBLZXzHrBfjzTczmfK/58Km/xL3XIQzEw9b37q3dhIHSpNGrFAFFoAYIKMGqAYhahCJQTwTMymUJGew/ROy206B6Ogsj+kmSiHd7g3mpA3pQYM7Gs91rra/dviN42Ntvn+1IX89oEjHqwvwBz5xXFDjTRQVlKIYKivYIlqyVXUNbC453DW6Q3hZGdJ8thV5QBZeN+8FFnAYrW+hvJpj9WA5+BmV0rRvFoKyv3LDFI0gx61/LKs+vO2YdIonYx6HRuli62u40l7zkesw0/LO0x9b4fmjjtktPKAKKQGQQUIIVma5QQRSB8REwK+EE3dt2GLQby6XXfrlYbcfDDIjZZ/gKc2C2S/S1Kq4iTnLl/ANO5N8vPlX2ZxQlBk5FySInd9RQdln+DSzTMo8Wa3GslXf2mEtPfRwnj6LKrCbJtRGFvUavxJj8p2Sc14Io7VsWyWJDPKKFNlmxbmi1Xob2vQzm3h3o9/vMpUtvgMbur9I16zFr5fWFMctqAoIWoggoArVCoEZvk1qJo+UoAoqAj4C59OR5MGMdAyfoZdJrLceIewQG7E7PT4iDsGcGrIJcUHPlwtHbWB+3vnrzs3691W0RdyuNhZMLU7GmqPDsRJ8YENSKY/3BsZJFR/fzxzpT0jGnpfAylxHVAWyser8u6ys3Pw3N0yfA/X4IM2aiIjMm2+6beq3YbMh1GgQ+DRMX+qR312pzySl/Azh/FTv1gPWNv2wubIx+UgQUgalGQAnWVPeA1q8I5BGA6a9VeuOLMKqejFlzy0F8TsSAf4DEEnHPB8ojVRVqqopRzgXphGbJ+pR89eZrik8Pf+5LM6IV9UglJF7GYKWZwlhaJdw55iUsznHhv2XyEdyLrjI4nqWpr1T58vd7YmK2XzJWqAFKghgazyG/tSSlmDsJEfvK334mlyzdH8ToCuR42ZqsYHMLyJZ0wr/rJPTdSTAjXiKJzDqQrbtAxm9Cm26TNvMPmBJHlioKlqP7ioAiUDcElGDVDWqtSBEYjYD50Iv2hmP60Rgsl0qvu1Qs9zBoPGbBPAReAQ2GCzZQqflvdHV0pM5lx92I05+Ur9z8QxwZXw02kOmSNmcPDN5jlVZ4zCMuXH4m3l94osJPOf+rrRKPrxuzBHfwCYm1IainNbNsDZGFhZqhviss10KgUcxYFKt1Iki8e9g3MZkr7kuhUfxLcTwt7xKIb8zKW66U3hdvhWn30/CTwyxPVjs+3IXyjPOJtw9rL0HcYtaBwOBA1PZamHt3IVzqo+aypX/Hske3SKLlAfnSqucn7ONxqtHDioAiUB0CSrCqw0/vVgTKQsBcsmwPmPzgS2WgpbJOwUB+DArYG4MvdvODLwdQ7jORZJC4VJP8MrzB3d2Cen8lzuC3rK/dPbZmKFhXqxwPE93eJZMCw5AKiULNkAWtkIMGlRtSwSNY5mlp3zp2yALT8TyAeg74gGAFha503wUxhMYMnGXS8rz+sfaTtuwS1PbX8WrMxcW69bvmA0tvg5zvB47nwHdurkd0g/08XgGTHffKwEX+8xID2YxZJ6MuPF+xj0AD+LxcuvRBY6xbxI3fLrb9qPWtWwonDExWh55XBBSBihBQglURbHqTIlAaAl4YhZmtiyQbfyGI1SnQUB0L49S+uLsjP4o7GBx3e3GTRhVpyK5cnK9wmj4XaTYgDRY0KNYTGHRvx+B7k/Xlm9eMqmqMA+biM1ok1vdeRINPDPsCjXHd8CESQQttsbKFGizLyuJ4zpRXDhHKlbfaW8ZmuJLAztdX7ZZLTn0S2r4jJ2dEgfu4a2H5n1jR/MO06ZMUtVgyv+jq0R/ZjnisBdrF96GPbyl2wi++wfrGLQyU+g7z4RMPFqd1OWp+IWQ4FHLvAWH4LJSgIiwulZ+tJO6FupMaOST+HdaQec/PDPT9chxdLjEs5J2ynsEMx/uwf6vYiTvksP6nrHdqGAhCp0kRqDUCSrBqjaiWpwgEEVjQFZcBNwaS9BT8ZtZi3bkfYSyESckucvweh3mAfkkyWRhxPFj+RPtZ14GPDshOR4/1rT+MacYa73azciVW5vvzJ2AHO730aPBkRPKofOnW2vhgEZJYrDCCe0Bg1GZMzHkEBOtVgcMl7Hp3ZsWOF2Kyac8dst9mEDbGoxqnP4KlMwp73JyLKOyX4erPs9Tg6bH2ra/e9SSOM/+n53O33ekCUeuA71RlBCtrpxBibIKqgyKZNjHJFsz0xB1xF7Jb0p/iGFAhgR+rhXpMEVAEfASUYPlI6FYRCAGBvLPxYyEUHVqR5mNL58ruv3wKA/+7UQkG7xKTpzmJ/WnUaO96sSBKLCR/GWt1XGi+iiK4F5fixh6GKxVZROlyFpeR/2xde62DmX9/xMczx7lk9GEDZzlLVsqlp8wxjnPlmLHERt/lHck/G3RGV5PdOBjpYUWgkRGoNPxfI7dZZVcEFIExEKB/GGJLvV0y1p8lGX8fLolPrpPJFxTDq8R1H5WU+b9RRVtZaIporiwj0f9KZAskWDvhXa79BBRHPZ6v2oQXlngyDv8026zzfKRKucVTEJkkzKgflnjqBnPJqW82HztxTim36jWKgCLQ3AioBqu5+1dbpwiMi4AXEX5A9kRIiMUwtr1MjP0KcKpD4ZtE7dG49406QS5ELZLrfMX6/G2jtTH0wTLweSpHyUSC5brrZKBr4vhOLfHnxLY2oGj4Go2SrOwD1pdWPWc+dOrXIStyiYn1clZfPHYc/Ot+LJmWR0G0/iCS+Yu47Q/JDHezRmAvEUu9TBFoIgSUYDVRZ2pTFIHxEPDIVL8g3II5ANccCTJyFCKDwzk8dhA0QAsQCoF+YjkH6XKJCm6VrPtD6U//bLz6KzpuWY9P6jv2+b/vkktPXQON02EluEAFxEBAVHdobN+2GbH/RMiMFyGo62vKCpHhk9JY7HBo1A4XJ/khOJM/j7AJa0C4GBQV5szYammNPy1rZm+jSTIgkO4qAopAkyGgBKvJOlSbowgQAXMx/KhSCSzT4hwpcWioep3F0MociFN7gYy05kxg+Pp7pApHfXLAm0tN1DIxrpbt/o8kU5dY37t5HGdp2g8dXIj/ZSV7XAd3vxiIYMyHQVwsOcc/VuIWvlNkhqMTfaPMu05+v3QmukCyzvSwKYd0ei5hvAH+WTFrH5CtffDhnzysLXdI0s4G2XfjPxAc9CEQ3YcwEXC1ZOxnNHzC6L7QI4pAIyOgBKuRe09lVwSAALRTM6VPFsKkdoTEQaTc2BIM6gfD5LcABKFjeH09kilfS1WNPY08yfO5QtR21/m2DMY/bX3nz+PPHHSgIYvFU17dpfQYy3dcWxLJcZbIGVXIwyWFkfBvIwZigIu1J3Ye9A8Ht9Z3b9tiPrjs9TCfXolZn++Ahi8FfHFb8KoS9ofJVv5aS1rBuxah7kU4ArMsCnTtfoRP2GAuWYrZhe6DIIuQKfkoVnB8zvr6ql0l1KKXKAKKQAQRUIIVwU5RkRSB8RAw71nWKa0DC8S0HYK4WghyaS2RPsRTMu4+ID0zJIawSCQoHonAtniAH6/gyY6zTF9jxdl9jlmFwq+yrrrlT5PdCnn+ydN0+evqTXYD6zFmG5ztn57sUu98PPYECFkf6ugcbvdkN9IkamM5IpFx5Se5Af15n3z4VFzjXoJrXwzCmlvyhvjif9mJ9+QI3sitFuJgWdZBIF7I8bM8smic3fDpehazGh/HDSBd1oPCyPVD7Rus76wan8xaDUEMAAAyOElEQVSOlKp7ioAiMMUI8LWpSRFQBCKGAMZhSz7y4k4Ziu8pLXIQLGzQShksqWPgN2Xti4G+EwNwTmpvsM8P+JMO+oELArsFzffeCvlXAze8znHgr2SeBQlYJU7sl2K33TSpfxRvvXQZ5HX+ApUXFq4er8KC2ukszvruhGZnOcIeFMULK7qWdbz3pXOkNXMbCObBI0E2R19XcISmTZftkZdwYeaCc2N8MJfO7xD3sOUIG/Fq1LjU64N4LJEjs/4NaN94TczDmbuy4IN/88iWp72MPySbTDTh2iCRYp5B4NDVOP4AZCHxelKG0pvlW3f24srxas+VoX8VAUWgrgjkv711rVMrUwQUgUkQMOcjQMG+Sw+BaQqRvz3H9C6MsC0gKozcjYEUUcQ50Y8mJxEM9AhmKrF2bwaga+E604JzmNnntmGbBDEyGJhxL/aHk4HZjvcGmI/BiG5ZGZTXh+u341KQEAziHMyN85j1ldvGXrZmuMyRHZjYZsJk+Qu0ofRgpbw9gaZk3R9YX735HSOljb9nVqLVvaf+CsTsHI+IjH9p4RkSOdv5X5DYt5SjFTKXLePMy8PRDdQgvgCFLkTeA/uIyO4G8MVR4olaPEyx4yWDwJ4xROc3WGjS248NYkt+hGV6gD16CuUMIEA7e9jGpyGvX7mMDy5An+L+BPbhPu/KOkkNPClr737curYoMn2uNv2rCCgCU4SAEqwpAl6rVQTCRACUKffdvuD8mGzdasncuUb27EtIizPiFhB3E5LpHx1B3Ib/05y+oXGXqClBcHP50r1kyPq2JKzzyvKPypVNYvgG62t//+8SqvIuwSy9D4Bgfb0sgsU7vRio5r8lPfR+69t3kVBWlMzK81Oy/ZlWkMMRfP2SUh2IqB+z/Y+SjtuyqdMe7pdrriWRInVSDdQwSLqjCDQ+AkqwGr8PtQWKQKQQgLP26WALn4PJ7tiyCQ9Nd8ZgrUT7lLK0ZZcdd6A4bbdCWza/ZDOhj5pnknRhYoxfbn35pr/5h3WrCCgCikA1CCjBqgY9vVcRUASGETAfPOFoibe/F6av10GT016B5irnf2U7l1tfveXzwwWXuGM+vPRriED/wbJiV/ll50hWL3RIV8Nk+h047z/qn9KtIqAIKAKVIKAEqxLU9B5FQBHwEDAfehF8vFIvhI/QG6F5eiXMdLMqCmfA0nIk5374kr3cumrVtnIhNpecvJ+Y+F9RzqKytVisjO5SubheW9Ge6+AD9TPpmnuXtfLasQOSliugXq8IKALTCgElWNOqu7WxikD1CJjzz4cD/qZDwEZgCjTnQetzIjRWLbnwAhW6EeVMg9AgWf9sXfW3GyuV0lz64gsg10/BlujAX1ki0fJ8s1zMYHTvQFlYn9C9QWa9bI21cqXnL1VZwXqXIqAITCcElGBNp97WtioCFSLgxd9qsw9BENNlmAH3MjhKnSDxxGyvuEoCcAblIKHBvEFonT6EmYPfDp4qdx+cypIPL/0EtFGfRmac93KLGLmeYjGgKpmaa7airLtQ/I049jfp6H3SWnnvwMjFuqcIKAKKQCECSrAK8dBPioAiAATMRcclpWMWgpemjwVleTGYxikgGIfC/NbpAcQAptWQFx/lnOYqLa51uXz1b1/DC6kKRpQrNLfuon0FTHwfA8nKBQb166t065sPeb/j9IBoPY7QFX8XJ/53iZsHpDP2rC7oXCm4ep8i0JwIKMFqzn7VVikCZSHgmf0Wbdxb0tZRWLvwZNjIXgi1zRGInzXf840imaJxrBakipLxzeP5XGFdPmN9xLrq5p/zcK2SWbkyJv03vRPyfgb1zPFmM1ZN3fLSeWQL+9zansVwI4BZjQxzYvw2mBcflvZlG9ScWKve1HIUgcZEQAlWY/abSq0IVIWAR6gWgFAlQagkdhKCiIJQxQ6HKWyBpOCARDLikapasZK8uCQl9G/icjti/UaczL8hWnupaw6W3WZz6fKTUNmncOPpIFrxqvzExqudWji2C/8RuBSMy9rgES7LugPk8U7g+Ig8O3+Dde21znhF6HFFQBFoPgT4StCkCCgCTY6A+U+Y/NZ0YEFoOQoz5E7ETL8ToZ1iNPIFCG0QIqECsB75yL9qaF6z5CZx49+XbvljPcxq5uIzWiTVfxYc8i+E2fAUBD/FmoWQiwTSyzXu/LEIlyUM+3C3WFmQruRq6el/zvrevSCZmhQBRaBZEVCC1aw9q+2a1giYj7wYS+vEF2KhlcUgNCcAjBMQn+oQz+THpWhqTTCG3yT5HW5ydQxhDw7i8phHrGKxP0rHqoeslZ7Bsa59lPMrSx0jsdQrgMWpIH6YCWnmAhMuK5ST15OIgiPlN7kPFf5luT7B5H7OpLgJZO8JaLfuEcu5S+z4wzLT8+HSRZwrhFlvUwSiiAC/8poUAUWgSRAw5x+Rkn3nnI3mnAPScARIwhwM5i0YzLtAKrCATgxmqoAjlWVhWRqDWFZWexkQ9KJsrJln8P4ge8BaeZZg7UJMJzSxHswy3I3j6zHj8BFoyh4SK/GEPDdnU5RMZOYahJp4cPMCGXIOBRFdDHnhb+buA5xmYNuNLZYQAmYiKQ8v4mS4LzxWWjJmAHG1sM4gcfIT8DJuHP2ANR8Nw1JwTcFtgPER7P9WMqv+YH1LeEyTIqAIKAKKgCKgCCgCioAioAgoAoqAIqAIKAKKgCKgCCgCioAioAgoAoqAIqAIKAKKgCKgCCgCioAioAgoAoqAIqAIKAKKgCKgCCgCioAioAgoAoqAIqAIKAKKgCKgCCgCioAioAgoAoqAIqAIKAKKgCKgCCgCioAioAgoAoqAIqAIKAKKgCKgCCgCioAioAgoAoqAIqAIKAKKgCKgCCgCioAioAgoAoqAIqAIKAKKgCKgCCgCioAioAgoAoqAIqAIKAKKgCKgCCgCioAioAgoAoqAIqAIKAKKgCKgCCgCioAioAgoAoqAIqAIKAKKgCKgCCgCioAioAgoAoqAIqAIKAKKgCKgCCgCioAioAgoAoqAIqAIKAKKgCKgCCgCioAioAgoAoqAIqAIKAKKgCKgCCgCioAioAgoAoqAIqAIKAKKgCKgCCgCikCTI2A1efu0ec2FQAua04Hchsz9BDKfYRs5jTyIPJDfYqOpxggkUd4M5Jn5bSe2rcg8Tuw3Ij+d38cm0okyz0ael89zsGW72vOfs9juQO5D3oW8DXlLPu/E1kXWVBsE+Ez5/TAX++yHrnyehe0GZD5fPcjbkf1+4P4QsiZFIJIIKMGKZLdMe6FIog5APgz5COSDkfdB5suXL2MO6inkODITB7sMMl+2vchbkZ9DfhJ5NfKjyP9A5mCpqTQEiPELkBcjH418OPJ+yOyDbmSeL35/sA9IsH6P/H3kx5CjkvaCIGzLichLkPlMLUDm80SiXkpi+0i6nkdm2+5DvgeZzxiPa5ocAX63+b0+Pp+5vy8yCS5/OJWS+H0n2dqMzO/1g8h3IT+AvA5ZkyKgCCgCikAAAb5o34X8P8hrkDmYmRplaiPWIv8S+T3IJAvF5ACHpn0iCbkA+YfIJKXUClbaB9T6fAK5VPKCS2uejkKJlyHfiEwNVKVtmew+kvn/Rb4QmT8MNBUiMB8fX4P8E2R+tx3kyTCt5DxJ123In0F+ETJ/hGlSBBQBRWBaIkANySXIf0ceQK7kpVrJPYP5Oj+M7SLk6Zw60fjzkElstyBXgudE9/wcZVLbVa9ErdR7kW9GpkZzItnCOEdi+RtkEopu5OmaSG5OR74aeRNyGFhPVCa1XPcjk+RTW6lJEVAEFIGmR4AajVcgU5vEX5wTvSTrcY4D4n8jL0eeTokm148jP44cNs7/UQdgF6OOf0em2Sjs9pRaPrU1n0Qm1tMl0Wfq3cj3IpeKU9jX8T3z/5BfgqxJEVAEFIGmQ4BOxf+CfCty2C/USsrnL94/I5+J3MxpPzTui8hhaKsmwv2VIYFKYkXTUz01oBO1c6xzJH2fQ94buVkTtXUfRH4KeSwMonCMpsn/Q55uP6bQZE2KgCLQrAichYZFlViN9eKnk/YLm6wzZqI9NJdMlYbnbtRNs1GtEk2B30DmxIWx+jCKx56HrDSJtyM3S7LQkNcj09E/ipiPJZMNWX+BfASyJkVAEVAEGhKBQyH1tchjveSifox+Wl9D3gO50RO1R48gTyXm1BCeUgMgOaC/DXk98lS2p5q6STZfitzoiZMI+GOkGiym8t5dkJ0/OpqJ8KI5mhQBRaCZEWD4hA8gb0eeyhdoLep+DG04A7kR054Q+kfItcChFmVwMKsmHYCbr0OuhSxTXQZnyV6F3IXcaCkGgWkO3Ik81TjWov7b0Y4TkTUpAoqAIhBpBPaHdNcj1+LFF5UysmgPfWhakBslnQZBn0COCoaUgzPKKk3Uwj2LHKX21EKWO9GmYyoFZQruW4g6f4Vci7ZHqQw6wl88BXhqlYqAIqAIlIQAZwc2sulmshc+HWQbwVH5Usg5hDxZe+p9ntqnchO1JVcg28j1lrde9VHT+1rkqKdTIOCTyPXCZSrqYQy4RtQqRv3ZUfkUAUWgCgTej3ujOKjX+iVNZ94lVeAU5q1tKPx7yLVuc63K+0mZjWeMrp9GuD21woXlcIbbx5Gjml4HwXYj17LNUS3rb2jndAqtEdVnTuVSBKY9AtQwfBE5qi/LMOTagPYujVjPz4Y8v4t4P5RDIDi54E8Rb08Yz9a30GbGiotSor9VM2sQx+pH/pA6LEqdoLIoAorA9EKAsa2+izzWC6rZj3HplZdEpLvnQg7+6o4y5uXMIpyPtjC6f5TbE6Zs30fbo0KySIrDbGuUy16LtkdVWw3RNCkCikCzIsABgANBlF+QYctGknXyFHcwNT03N0A/3AsZS4mDNQfXTWdy5T+z/G5xNu5Upn9F5b4803X7NDA4fCo7QetWBBSB6YfAN9Hk6frSDbb7OeAwVS9g+ijd0CD98GrIOVnqwAXT0SwYfJ6C+1+bDLAQz78LZVPrGJRnuu4zVMu+IWKtRSsCioAiMIzAJ7A3XV+2Y7X7IeAxbxid+uxQu/Fz5LHkidoxOrdbk8BCXz5eFzXZp1qeyybBLYzT56DQtPZFwbPIlSi6wwBby1QEFAFFwEeA08k542mqB56o1f8bYEKftHqlf0NFUcNgLHl+DzlLmfZ+eYO0Z6w2hnksA1xIeOqVjkJFW5HDbFOjls0ZrfwhoEkRUAQUgZojwICIO5Eb9QUZttzU7NUj/TMqsZHDbk815VM+zoij2W+ydAYuIJGopr5mvncTsDl4MhBrcH4GyqCvXDNjWW3bPlQDnLUIRUARUAQKEKB6/D7kal9QzXw/44CdWoBa7T8ciCI54EYVRxLw65CXIZeSGLh1PXJU2xMVuVYBo1bkMNN/ovCotDeqcvQDoxeG2QladvMgMJlfRPO0VFtSLQJ0ar+42kKquJ8vNg7EnDr9DDLNGDzGFzEXa+VsOgYHJAHZH7kUsxQuq3l6GCW+GLm35iXnpu5fj3JfEULZpRZJcvc0MvthIzIJFf11BpDZL2w/t6Ukvn9+gXxBKReHcA1lfgr5UeQ1yM8i70AeRGai9o3PFR2cD0XmZIYDkOtpCkZ1w+mT2Pvs8Kfa7rwKxf0SmX1S78Tv8Dpk9sPj+X3/+013hFZkatcWIr8Amf1AjR6PTUW6H5Xyh1TfVFSudSoCikBzIfAyNCeLXO9flRzwfoj8GmQSp1Km+XPw2x+Zs9Z+gMwy6i13WIPgu6egLTTd3Yr8ceRTkOcg1yr9Cwqqd98wGvmvkd+KzEG6HLLUhuuXIH8YeRVyvc2aHNBppq91mosCn0auZ1+4qO9O5MuRT0Iu5wcRSSBJ7/nIVyOT9NdTdtb1GWRNioAioAhUhQBDAXCWXD1fYH9DfW9ArsVgTg0EB1O+zOvVhl7UdSRyLRMHlC3I9WoDNQjfQD4OmQNarRP7di1yvdpDrdpKZGpAapVOQEHfRd6FXK92/Bl1JZBrmaidrpf81Br+FHkpchy5FmkvFPI+5IeR69UOkt3FyJoUAUVAEagYgY/iznq9tKgpWYEcq1ja8W+k9uv1yDRD1KM9NLfUMlEbVw+5SQ6/grxfLYUfo6zP4Vg92rMT9Xwaef4YMtTqEM2HP0S2kevRptfVSnCUQwJNk2g95OZ34ljksBJNutTyrkeuR3t+i3rC+PGBYjUpAopAsyOwEA2sh9aE2hL+AiUJCjvNQgVXIYc9GLL8U2vUmBNRDv2cwh40bkAdYZigimE4EAfqofX5P9RzZHHlIX5+OcquhxblMdTTWYN2kByQJIT9XFFTSZN9vdICVPR95LDbRf8w9rkmRUARUATKRoBEJOyX1E2o47CyJav+hnNRxAbkMNv3e5Rfi1+49BkKU06SN/pYleOPhMsrTt/BnWG2J4PyL0eutSmtlAbPxkU/Qg6zfSz7vaUIM8k1y3A+7B8av0EdCyeRI6zTb0DB25HD7ItVKL9Wpk4UpUkRUASmAwL7opGcURXmy4kDbdsUgkntxiMhtpETA15YZft4P8sJqx+oPTynShnLuX0RLt6NHFZ7aBI8rxyBQrqWpnVqOMJq5+Mou1ot1u9ClI/t5g+0epF2VDVmop/cGuSw+sFF2S8bs2Y9qAgoAorAOAh8BsfDeimx3E+NU2+9D5NI3occVlt/XGWDfh6ibM+h7GoJYLnN+1yI7aE5+yXlChTi9ReibGrTwnq2qKGpNNH3KkzZPlGpYCHcx4kNYZpuaWbVpAgoAopASQjMxFWcdRXWwPCxkqSo30X7o6onkMNoLzUq+yBXkuir1IschlybUS5/3dczhflcUSu2vJ6NKbEuOl1TyxFGH96MciudEPLdkGRiO/njLGqJJOsp5DD6YQjl1tPXL2rYqjyKgCJQBgL8ZRzGi4hlfrkMOep56bGoLCyT6AcqbMgncV8Y/TCAcqfCOfd1IbXHRrmvQY5qCksbTNNxJSR5Lu4jwQ7j2foRyq2F3yGKqXk6HiWG9R3/fM2l1QIVAUWg6RDgy/GPyGG8fOmsPRWOx6V20htxYRjahltRbrmahhbcE5ZZo1LCVyqO410Xls/PleNVGJHjfObp7B3Gd+orFbTxzSHJcjfK7apAnnrewh+PYXzHqQFvr2dDtC5FQBFoPARolupHrvVgsBZl7tkAcPw0hLbThHB4mW0/BdeH4ST9K5RbLtkrU/QxL98XR8Nwbid55VIqUU8LIeBzyLX+XnFgL3eiyPUhyEFTNrXAjZB+BCFr3Q8kbVE0UTdCf6iMisC0QeD/t3cm0HdV1RnHxRjmOUCAhDCtSJgLQilEoYjgyOSAWlSklqKMAksLFEUsKNYByUILlbVqhVpoFYqCUAwzMskkQ8IQSQgQwoxAmFa/D/LgNb7h3vf2Hc59v73Wl//Lu+fus8/v3nfvfuece97fq6XRFx8nCmU+qTbMwRqnnYv46Y3DcgZ1sspHHwc/Mbhezjiiin9GjqLb4wUyt40KsAQ/+xfAwJ+tHXLEvqbKFjFM9rUcMVRd1F/0ikh2/dQkBgEIQKArgSKGcc7pWls9NxyhsKKTgYtyNNVDSjcXEMMxOWKILupzIJrpGdFBFuxvUfmfJkVzOEE+s9o+Khhdv5dBWCFrADUpd3ABHH4vn4vXpH2EAQEI1IzAqoonevLrs/LpnxJJyZZXsPdLkTci94qtkhHChirnieiR9XuItqqb4DKq+8Hg9ni40cPZqdmuCjh66HeafHruZBY7XYUizyv78pOSqZnPSa+IH8nCUwE2Tg0E8UIAAuUQ2FnVRF5w7Cu1XoYWaff2RLLwHI0dW877/C3iabuj+9RZ5GbPzfGTfpE8zywy4AJ9e/7bVcEs5snf2AwxuwftpuC6Z8pfVYm7qh7KDtXekeekfX1yqIjYuVEEqpjs2iiADWvMu4LbM1/+pgb7LMvdz1SRe0mizD0MW2d0Fn0cnlK9bk9VtqUq9s09ytwDdFaUs5L9ONGOjt09o1l6iT3/yr2jkXaunEV+TiJj6+frP1TgiX6Fcm7fJmd5ijeYAAlWgw/uAE2LfgroSsVw+wBx1GGXWQrif4MD2SKjv80zlsta7FIV9KTeqixru7PGd4cKuicmVfuVAvcDB5G2aQZnTq48/B1lr8jRz6OcVeDHw/a/Ca53s2B/uEuYAAlWwgcvOHRPrI6eP5Dyxdd4fxnM2Hz7zZVZTmXWC67X649VaVl6V/LE92sV9s09VZurwD1MGGmbZHAWfRzuVp1OdlO2C4OD92fX87swCFSyHg7Y60nAwwxrBYbmtbQuD/RXhaurVanbEWXj5MgJVC8bq42r9SqQc9vzKn9tzn0iiy8pZ+tEOpSv3wb7q8LdZcGVrp/BX/TwoD8fKSe6Rnad5M9IlPmzu3qUM/ykTYAerLSPX2T0XhtmxUCHd8nXzEB/Vbh6SJXeF1ixk1irl3meTN6FI3v5m66NVQ4P+pzy06lR5vlkd0Y5q9CPhzg9HyvKfN4s3sfZun22593s5CR182fj/sBGLC1f/pKEQYAeLM6Btwg4wYqciHyL/EXeQN4KtMQXfvIt8mbuxKlfsuHjEGlOdF+LdJjT10oqv2zOfXoV/6M2eogtdXtQDZgX2IiV5asf58gbvz/bHiJM3fwZj2yHpwDQg5X6WREUPz1YQSAb4CZyWMo47mgAEzfhnsB2+OLbrwerXwKWNxz3YFVpK6hyDxNGmXsVq0wYo9rhnjhPso4yz/vpNfdnMW2P7KH2k4NzooKv2E9kD5ab0u8zXnFzqb4sAiRYZZGufz3+BhxpMyOdVejLN/RIc8LRy/pt77Vvp20Pd3qzxPf69arkDeWRvDvUtLyTxMieOCexHp7qZktoQ6/t3fbr9r4TrGe7bUzs/ehEMfoznBhOwm0RIMFqkeDvOwMReMG9xwP9VekqchjH7ejVy+DtkTdB+3NPSZUW2XvldjxdZWOC645MUDy87ySqm3l+Vq/t3fbr9r4f/ni528bE3o8+pyYk1n7CLYgACVZBYBN0OyEwZn87fyHQX5WufCOJtH4Jh4cRI81zTKo0D01FWupPrbWzKPPYOAGLnGPp5KoJQ7U+HtHHITKRdXxYogRIsBI9cAWEHXljdw+W1QSLvolE3uRS4BvNLzphq5JhmddfH4fIh058HMqMv8jjFP2ZjD7ni2w7vgsk0JQPSIGIRsb1S4Et9XnVlBthvx6nQGyNdBU9jBS5EnnVwPutiRYZn3tpInv/PJTdlJ6a6HPqj5EHDl/pEiDBSvfYRUd+e6BDfyNsykTPprQj8PDmchU9xBq51ECuhgQX9rU3+sndXiE60Y0ctvcTidEPMPSKv8ht0UujVD3vsUhW+M5BgAQrB6yGF50V3L61gv1V5S764ltVO6qq1xOII3tOvFhmE65bTty9OGhZ5mPgJ/+izPE35bMxMQrKAj8kWMFAU3XXhAtVquzrFvcTwQFtFOyvKncbVFVxQ+p1ghXZizVB/pqwzpATxTJ7sFRd6LIQngIQ/duGjrFs8z1wUnClc4P94S5RAiRYiR64AsJ+LNjnlsH+qnK3SVUVN6Ref5uPTN69EGsTbuxbqR1lz1OM7qXetgHnqHsRI78Mvih/kQvINgDx6DaBBGt0j/3CLfdFwReHKPMNpMxJvFFxt/vxMAgJVjuR/K99Ts3Ov1vXPfy065SuW9PZsHMFod4XXOdO8hf9BF5wiH3d/YVK+HMeZf4yQQ9WFM3E/ZBgJX4AA8P3RSFyUc115G/rwPiqcLW5Km3KXLIq+LXqvLf1IujvHvKT8rXLE8TfE8Qij5t78hTOUHYzlUm9N/GDGdqZp4ifIHwuzw6UbS6BlC9SzT0q1bTMF4WZgVW7p2HvQH9VuHq/KnU7sOEI3Dbc7n+2txN339xTtV0V+LgKgp+uOiPnw3kJkz0raEdUlSvL0e5Rzhb4uUN/m7IGYDCa0XNHgjV6x7xbi31R8MUh0vaSM1/EUrSlFfRHUgy8hjHfopgibzpef2n/GrYza0gHZC0YXM5DtQ8E+/yU/PmzkqL58x3dQ31jiiCIuRgCJFjFcE3V6++CA/fFa79gn2W5200VRU5+LSvuOtZzt4KaExyYb+zRN8fgEDu6217v7txxS/FveqmG6ARgY/lMsRfLSfrBwciL4BscIu7KJECCVSbt+td1k0J8OTjMQ+UvchJpcHgd3flzcUjHLbw5CIFntJPPrUjz04SpHSMPN39V8g8vV2W/LaDio+VzTAF+i3T5UTn3gziRdr+cTY90iK+0CZBgpX38oqOfIYfRE5I3kM/DogMt2J/nXk0puI5Rc39JAQ0+SD4nFeC3KJeeUO0J+lXaVar8+eAAPB/uC8E+i3TnhwyOL6CCafI5vwC/uEyUAAlWogeuoLDdxX15Ab6PlE8/kZeCLaMgvyExuT32aF0md5HLgDi65aXvSCksFbCK4jxVqvqa+5BiuF6KtmPlcMNopwX5O66gWC8sKF7cJkqg6g97otgaHfYFal3khGTDWk46Q3LyUnfzEI6/kWOxBO6Tu+tiXb7hbXf9m8JQoZOrOiQg/mz/1xvkYv9xAjlV8tymOpvPly8VEKAT16sL8ItLCECgQQT8RJCHCX0hjtaPa87JF1938Ue3u93fF/swODG4fg9L1cUOVCDtLKJevyC/u9SlkR3i8A09qq3d/LysOiZ3qLvTW2vrzaekbr6Gef+UThXW5D1PV5hVULt/UJM2EgYEIFBzAicpvmEusr32/ceatv2distPuvWKPWLbKCdYq4vvYwUxflh+69jzuJfieqmgNrefj3kSLIWzyE8Liul1+Y1+Os/xDmv+3cebpHZmUa89tWKbYQNkfwhAYDQITFIz3SsQdQFa2I+H4epkExXMXdLCcRbx/1FOsHzMTyuQs5/i2sSV1MTce/icVMR5tLDPvAnWTorrtYJic8LxOaku5uTqCmlhZlH/97xVptvU5WgTBwQSIHCeYoy6AHXyc6r8L14DDu65+kPBbW1v/6gnWE6AikzeZ8r/9lLV9mkF4Kf12o99ka/zJlh+MGBagfE5yTpcqtomKADP/SuSvXspMQhAAAKZCfgb7qtSkRemX8q/54NUZe9VxUXNyejGbdQTLB/rf5O68Yl4/0n5/5QrqsD8peFrUlG9Q9345E2wjOYDUjd/Ue//UHUs68oqsHerzvukqLZ08nOT/C8pYRCAAAQyE/AyBRdJnS4qke89qDr2zRxVTMExcnO8VMbcmIVZkWC9OVeqyF6sFnM/uerhobLMvXMXS636y/w7SIJVdC9Wq/3uQXpXWQdB9fjz/Q9SGefYPiW2i6ogAIEGEfBQiy/crQtlkX/PVz1bl8DOvVZFDxn04kSC9eZBnqo/vThFbZuhejxcV+Rw9Ery7xu6e86i4s7rZ5AES+Eu8m7Jw3l568tb/k+q4xRpDalI203Oy/p8T1NdixXZGHxDAALNJvATNS/vxXTQ8l6I0k837Sj523WU+SK4q+QhydelQeOL2I8ESwdA5qHhR6UIpll8XKu6PiEtJ0WZkwXPM5ouZYmhyDKDJlhmUfSQbXu7Z6m+46TxrjjInDw7sbpQKuvzbd47SBgEIACBgQmsqz0fk9ovkkW/9kXS30KPkrwC/FJSXltSO3jfY6QbpKJjzuqfBEsHY4EdpL9ZuUWVu1d1/pP0l9IyUl5bWTu8T/qx9IgUFdewfoZJsMarHWV/xp9QnU7s9pTGSnltCe3Q+nzfqNfD8su7/+l5A6b86BHg50BG75gP0uK/1U4/GmTHgH08fOGJqrdKt0kzJN/YnpF8U7H5G+wKknsUNpS8HtKW0kaSt9XJvqRgPPG3m52oDcd22zjA+x/SPv5mX0dzz+KvpF0rCM431Pul3y/QdP2dIz0t+ZyzOUl3QuXetknSVtIW0jipbuaYHd+dAwZ2gPY7c8B9h91trhz4s32LdJf0kOQE7CXJx2lRyZ9vJ2L+fDuxcls3lqr4fPt65OkT8yQMAhCAwFAEfIH7hZT3W16R5Z1ceRKrNb9msfVqNz1YOlht5iT4cakXszK3+VxqnVc+x8qse5i6HOtkaVDzOk7/KQ0TQ+S+Thg9ZcDHopVoRfof1Jfjcg8mBoG+BFgcrS8iCojAa5ITA3+zrIv5m+uYBVqiLkERR24C7jk6XPINrw7mc6l1XlXRO1IVAw/LHyK5V68O5t5NTw3wsXBPYl3s2wrk4roEQxz1JkCCVe/jU6foZisYDyP42yQGgUgCP5Wz70c6xNdABDz0/lnJT/xhf07g13rLa5xhEMhEgAQrEyYKLSBwmf5+GRoQKIDAV+TTNzCsWgJXqfpDpbr0KFZL4+3a79ZLf8H0EDIGgUwESLAyYaJQGwE/PXNK2/95CYEIAu4Z3V+6OcIZPoYicJb2pqfmbYTu2fuY5L8YBDITIMHKjIqCbQS+qtc/avs/LyEQQcCT3b0ytnsLsGoJOMFi2PbNxWM/KhZ3VHs4qD1FAiRYKR616mP2hFhPeq/qse7qCRBBUQRmyvGHpXuKqgC/mQkcoZKnZS7dvIJPqkn7Slc3r2m0qAwCJFhlUG5mHa+qWX8nfa+ZzaNVFRKYobo/IHltJKw6Av4idZh0anUhVFazhwP3lC6vLAIqTp4ACVbyh7DSBnj5hsMlT1D2awwCUQS8XMDuEje4KKKD+XGSdZR0jDQqn3H3nu4hXSlhEBiYAAnWwOjYsY3AyXr9cclzaDAIRBFwL4KHC8+KcoifgQl8S3vuJ3mF9SbbpWrcrtKtTW4kbSuHAAlWOZxHoZbz1MidpWtGobFDtPH5PvtG9xL46byUzbw+L3kRzH7sUm5nCrH/XEH+tXRjCsHmjNE9dd+RPiTNzrkvxSEAAQiUQmBp1fIN6UVp0J+jqNN+nmvmnyGJiuk98tXLDtTGqLr8sx6b9qossW3bKd4bpCg+VfrxsXk6sC0+RydLZdjyqsRPGPqzUSXDqLofVDs83wqDAAQgkASBHRSl5zBEXQSr8HOv4vfvjl0Q1I558rO61Mv8I7ZRN64H5GvZXpUluM3tOVFyb1YV50REnX7kfzfp3MA2lJlgKew3zHPkbpMimFThw73F/yqNkzAIQAACSRHw77q5R2aGVMUFdNA6fbPygqqtZMjzgAb11b7fOfLTz8zMi2227zfoa7ehqeZE9EJpUDZV7Oc5isdJK0g2D7lFxVFFguU2uDfreMlfHqLaUoaf6xWvvzxhEIAABJImsLKiP1pyj0oZF89h6rhUMe4otdti+s8l0jB+fQP0EFcW+4wKDVOX931Bmiw13Txnxj/vMiyvIvf3UOAPpIlSuzUhwWq1ZwO9mCo9KxXJcljfdyo+/+TNkhIGAQhAoDEEnGgdJHmS7LAXysj9X1c8l0u+WXd78MM3kNnSoPWeqn2zmnuxfiMNWpf3OylrZQ0o5wTYvYxmFjW8Ogz71r5zFI+P+0ZSJ2tSgtVq3yS9+J70qNTiUIe/nrvnxGpZCYMABCDQWAKLq2W7SP8izZKqugA/prp/Ik2R3iH1M/dAPSzljfc87bNUP+cLbR+v/98j5a3L5S+Q8tanXRphPkY/lB6SBmE37D6vqN5rpIOlNaRe1sQEq9XetfTiEOk6qaqk10Oy/y55KNDXHAwCEIDASBFwr9YHJQ8v3C4V/fShb7znSp+W1pTy2iba4Sopy43YN9vvSoMmO+418w0qS12tMp7n5Xkxo24+r/aSzpaKHpr+k+q4XjpB2lrq1guqTf/PmpxgtRq6qF5sI31d+p1kVq1ztYi/7jU8X/qsNE7CIFAZgSzf2isLjopHjoCHxtaXtpR8o5osrSetLi0nZb1xqegi86UnpYcl9wTdInlo0nMwPCdmGHPCdID0BWnTDo6e0nsecjxNuqLD9jxvud1HSq6rV4/IDG33cNSZkoc8sbcJmKGP0/bStpKT5LWl1mRzvcxsfvJsnvSgdKt0reTE4T4pL3cnWPtKEeZkfivJ53ddzZ9ff2nwMfCx2EKaKK0qeZg3rzlZc0J1r+QhQB8LP9Xo44NBoHICJFiVHwIC6ENgjLavIjnJstwzsaK0tORvxzZ/E35Jek5y8uQLrIcH5kpOdry9CHOi5ZvaZpJ7jV6QfOO9XZolRdqacvY+aSfJNyXX7RuMby5O5jz/6BkJ60/AifxYyUnWOpKHs1aTfF4tI7US+Vf1+nnJ59Cj0mzJx9V/I27i58nP3lKEpZBgdWqnP9vmv67kHid/ifBn3Elxa1jPn19/tp6VzN1JlY+D5ePiXm8MAhCAAAQgAAEIvEHgUv3r5CFCTjI2esMr/0AAArUg0PqmVotgCAICEIDAiBDwkJh7ZKNsvhy5lweDAARqQoAEqyYHgjAgAIGRIrCSWuth3yjzcLGFQQACNSEwyMTCmoROGBCAQAMJ+Jrk+Wz+8ueEoanza/zwhucfRdmTcuT5YhgEIFATAiRYNTkQhAGBESawpNruCfx7SX6C1E+VLSp50r6fAL1E+m/Jk5ubYtuoIZEjCGbjie4YBCAAAQhAAAIQWOS9YuBlDvpN9HYCcaTUerJML5M2J4z92pxn+9SkaRA8BCAAAQhAAAJhBL4iT+51yZNIODHxcgopm5eI8HIDedrdr+zBKQMhdghAAAIQgAAEYggcLTf9koZu2y/Uvl4HLFX7nALv1rZB3/f6aBgEIAABCEAAAiNMwMnAy9KgyYT3OzZRfp5bds2QbV+YmxfVXS1RHoQNAQhAAAIQgEAAAc+hukpaOEnI+3+v2O8n8VKz3RSwf24nb3t7lfdK/vwqR2pnAvFCAAIQgAAEAgnsKF+vS70ShqzbTg+MqwxXfmr7iqC2tzM6vozgqQMCEIAABCAAgfoS+KZCa08Ohnntlcu93EEqtr8CHaa9nfZ1b9h2qQAgTghAAAIQgAAEiiHwP3LbKVEY9L2r5c/raNXd/MPSs6VB29ltv7vkM+UJ/3U/bsQHAQhAAAIQSILAdYqyW7Iw6Psn1rzlntj+iwLabV4n17zthAcBCEAAAhCAQAkErlQdgyZS3fbzWlr7lBD7oFWcoB27xT7M+34S0yvfYxCAAAQgAAEIjDiBn6n9wyQV3fZ9Sn7/qoZsD1RM0U8Nthj46cHIn9upIT5CggAEIAABCEAgC4FDVKiVIET/fUS+t88SREllvKDosOt99WL0sZLaQTUQgAAEIAABCNScwAaK73mpV+IwzDYvurlHDRgcoRjy/gxQnnbfKf9L16CdhAABCEAAAhCAQE0InK048iQTecu+KP+HS1UsvrmC6j2j4PaZx+clDAIQgAAEIAABCLxFYJJePSflTZzylj9fdbjHrCyboopukvLGmbf87aqD3quyjir1QAACEIAABBIi8M+KNW9iMUj5uarHPyy9UoFsJsr3VGm+NEiMeffZu8C24BoCEIAABCAAgYQJjFXss6S8ycWg5aerrqOkdaQo20yOvivNkwaNK+9+F6kunhwUBAwCEIAABCAAgc4E/kZv500whi3vZOgc6RPSBClPsrKEynt48yDpEslzvYaNJ8/+z6i+TSQMAhBIgEAVk0ATwEKIEIBACQSc3Hie1EdKqKtTFc/qTfds/UGaIfmnbJ6UPNRnGyOtKq0rbSxNltaXqvppGvfAnSphEIAABCAAAQhAoCeB8drqxCZPT84olnWP2eI9SbIRAhCAAAQgAAEItBH4sF6/Ko1i4pSlzZ6rNkHCIACBhAj4R0gxCEAAAlUSuFeV+1o0pcogalq3hyv3k26uaXyEBQEIQAACEIBAjQksptjOlbL06IxSmS/W+JgRGgQgAAEIQAACCRBYXjFOk0YpgerV1m8mcMwIEQIQgAAEIACBBAisoRhvlHolHqOw7XQxyLOERAKHlhAhAAEIQAACEKiSwDhVPspJlleFZ35slWcgdUMAAhCAAAQaSmBNtetKaRR6q9rb+G21mZ6rhp7UNAsCEIAABCBQBwL+/UAvRNqegDT19Stq55frAJ0YIAABCEAAAhBoPgEvrvktqamJldv1mMQPOAsCBgEIQAACEIBAuQQ+qermSk1LtK5Wm/wTPBgEIAABCEAAAhCohIB/aNk/GdOEJMsLiJ4sLSNhEIAABCAAAQhAoFICHjI8RPKwWqqJ1vWKfYqEQQACEIAABCAAgVoRmKhozpTcE5RKouXfFDxUGiNhEIAABCAAAQhAoLYEtlNkftLwZamuidajiu0kyUtPYBCAAAQgAAEIQCAZAk60zpaekuqSaM1QLMdKa0sYBCAAAQhAAAIQSJaAhw6PlrwS/KtS2cnWM6rzAunjkn9bEYMABEaUwDtGtN00GwIQaDaBxdS8LaU9pF2kzaWiEp458n2DdLF0qfSAhEEAAiNOgARrxE8Amg+BESEwXu3cQtpmwd8N9Hes5KQr60/TuEfsaWm2dI90i+SesjukJyQMAhCAwFsESLDeQsELCEBghAgspbauIjnJsvx6RWkdaTnJNk/yBHXP63pc8tIQlpOp1yQMAhCAAAQgAAEIQAACEIAABCAAAQhAAAIQgAAEIAABCEAAAhCAAAQgAAEIQAACEIAABCAAAQhAAAIQgAAEIAABCEAAAhCAAAQgAAEIQAACEIAABCAAAQhAAAIQgAAEIAABCEAAAhCAAAQgAAEIQAACEIAABCAAAQhAAAIQgAAEIAABCEAAAhCAAAQgAAEIQAACEIAABCAAAQhAAAIQgAAEIAABCEAAAhCAAAQgAAEIQAACEIAABCAAAQhAAAIQgAAEIAABCEAAAhCAAAQgAAEIQAACEIAABCAAAQhAAAIQgAAEIAABCEAAAhCAAAQgAAEIQAACEIAABCAAAQhAAAIQgAAEIAABCEAAAhCAAAQgAAEIQAACEIAABCAAAQhAAAIQgAAEIAABCEAAAhCAAAQgAAEIQAACEIAABCAAAQhAAAIQgAAEIAABCEAAAhCAAAQgAAEIQAACEIAABCAAAQhAAAIQgAAEIAABCEAAAhCAAAQgAAEIQAACEIAABCAAAQhAAAIQgAAEIAABCEAAAhCAAAQgAAEIQAACEIAABCAAAQhAAAIQgAAEIAABCEAAAhCAAAQgAAEIQAACEIAABCAAAQhAAAIQgAAEIAABCEAAAhCAAAQgAAEIQAACEIAABCAAAQhAAAIQgAAEIAABCEAAAhCAAAQgAAEIQAACEIAABCAAAQhAAAIQgAAEIAABCEAAAhCAAAQgAAEIQAACI0rg/wDDalMi9j9xqQAAAABJRU5ErkJggg==;" vertex="1" parent="1">
          <mxGeometry x="614" y="303" width="96" height="96" as="geometry" />
        </mxCell>
        <mxCell id="V8Acjl_ElyFGZNs6vDOT-24" value="VM" style="text;html=1;align=center;verticalAlign=middle;whiteSpace=wrap;rounded=0;fillColor=#ffe6cc;strokeColor=#d79b00;" vertex="1" parent="1">
          <mxGeometry x="374" y="255" width="60" height="30" as="geometry" />
        </mxCell>
        <mxCell id="V8Acjl_ElyFGZNs6vDOT-25" value="Data Center" style="text;html=1;align=center;verticalAlign=middle;whiteSpace=wrap;rounded=0;fillColor=#d5e8d4;strokeColor=#82b366;" vertex="1" parent="1">
          <mxGeometry x="262" y="193" width="83" height="30" as="geometry" />
        </mxCell>
      </root>
    </mxGraphModel>
  </diagram>
</mxfile>
